<?xml version="1.0" encoding="UTF-8" standalone="no"?>
<!DOCTYPE svg PUBLIC "-//W3C//DTD SVG 1.1//EN"
 "http://www.w3.org/Graphics/SVG/1.1/DTD/svg11.dtd">
<!-- Generated by graphviz version 2.38.0 (20140413.2041)
 -->
<!-- Title: G Pages: 1 -->
<svg width="437pt" height="383pt"
 viewBox="0.00 0.00 436.50 383.00" xmlns="http://www.w3.org/2000/svg" xmlns:xlink="http://www.w3.org/1999/xlink">
<g id="graph0" class="graph" transform="scale(1 1) rotate(0) translate(4 379)">
<title>G</title>
<polygon fill="white" stroke="none" points="-4,4 -4,-379 432.5,-379 432.5,4 -4,4"/>
<!-- _F020 -->
<g id="node1" class="node"><title>_F020</title>
<polygon fill="none" stroke="black" points="234,-375 172,-375 172,-339 234,-339 234,-375"/>
<text text-anchor="middle" x="203" y="-353.3" font-family="Times,serif" font-size="14.00">push &#160;&#160;lr</text>
</g>
<!-- _F02C -->
<g id="node4" class="node"><title>_F02C</title>
<polygon fill="none" stroke="black" points="152.5,-288 87.5,-288 87.5,-252 152.5,-252 152.5,-288"/>
<text text-anchor="middle" x="120" y="-266.3" font-family="Times,serif" font-size="14.00">bne f030</text>
</g>
<!-- _F020&#45;&gt;_F02C -->
<g id="edge4" class="edge"><title>_F020&#45;&gt;_F02C</title>
<path fill="none" stroke="red" d="M171.966,-351.24C153.874,-346.712 132.43,-337.936 121,-321 116.542,-314.395 115.152,-306.099 115.203,-298.174"/>
<polygon fill="red" stroke="red" points="118.698,-298.378 115.964,-288.142 111.718,-297.849 118.698,-298.378"/>
<text text-anchor="middle" x="155" y="-309.8" font-family="Times,serif" font-size="14.00">GE, LE, NE</text>
</g>
<!-- _F028 -->
<g id="node5" class="node"><title>_F028</title>
<polygon fill="none" stroke="black" points="351,-288 289,-288 289,-252 351,-252 351,-288"/>
<text text-anchor="middle" x="320" y="-266.3" font-family="Times,serif" font-size="14.00">bgt f066</text>
</g>
<!-- _F020&#45;&gt;_F028 -->
<g id="edge8" class="edge"><title>_F020&#45;&gt;_F028</title>
<path fill="none" stroke="blue" d="M226.677,-338.799C244.359,-325.953 268.715,-308.258 288.111,-294.167"/>
<polygon fill="blue" stroke="blue" points="290.325,-296.885 296.359,-288.175 286.211,-291.221 290.325,-296.885"/>
<text text-anchor="middle" x="291" y="-309.8" font-family="Times,serif" font-size="14.00">GE, GT</text>
</g>
<!-- _F024 -->
<g id="node6" class="node"><title>_F024</title>
<polygon fill="none" stroke="black" points="428.5,-288 369.5,-288 369.5,-252 428.5,-252 428.5,-288"/>
<text text-anchor="middle" x="399" y="-266.3" font-family="Times,serif" font-size="14.00">blt f066</text>
</g>
<!-- _F020&#45;&gt;_F024 -->
<g id="edge9" class="edge"><title>_F020&#45;&gt;_F024</title>
<path fill="none" stroke="blue" d="M234.244,-348.661C257.593,-342.643 290,-333.146 317,-321 333.748,-313.466 351.264,-303.16 365.786,-293.861"/>
<polygon fill="blue" stroke="blue" points="367.945,-296.631 374.407,-288.235 364.12,-290.769 367.945,-296.631"/>
<text text-anchor="middle" x="353.5" y="-309.8" font-family="Times,serif" font-size="14.00">LT</text>
</g>
<!-- _F030_F034_F038_F03C_F048_F04C_F060_F064 -->
<g id="node7" class="node"><title>_F030_F034_F038_F03C_F048_F04C_F060_F064</title>
<polygon fill="none" stroke="black" points="240,-201 1.42109e-14,-201 1.42109e-14,-73 240,-73 240,-201"/>
<text text-anchor="middle" x="120" y="-185.8" font-family="Times,serif" font-size="14.00">cmp &#160;&#160;r0, #15</text>
<text text-anchor="middle" x="120" y="-170.8" font-family="Times,serif" font-size="14.00">cmp &#160;&#160;r0, #124 &#160;&#160;; 0x7c: pointer to 0x1b3</text>
<text text-anchor="middle" x="120" y="-155.8" font-family="Times,serif" font-size="14.00">cmp &#160;&#160;r0, #127 &#160;&#160;; 0x7f</text>
<text text-anchor="middle" x="120" y="-140.8" font-family="Times,serif" font-size="14.00">b f048</text>
<text text-anchor="middle" x="120" y="-125.8" font-family="Times,serif" font-size="14.00">subs &#160;&#160;r0, #124 &#160;&#160;; 0x7c: pointer to 0x1b3</text>
<text text-anchor="middle" x="120" y="-110.8" font-family="Times,serif" font-size="14.00">b f060</text>
<text text-anchor="middle" x="120" y="-95.8" font-family="Times,serif" font-size="14.00">lsls &#160;&#160;r0, r0, #3</text>
<text text-anchor="middle" x="120" y="-80.8" font-family="Times,serif" font-size="14.00">b f06a</text>
</g>
<!-- _F020&#45;&gt;_F030_F034_F038_F03C_F048_F04C_F060_F064 -->
<g id="edge5" class="edge"><title>_F020&#45;&gt;_F030_F034_F038_F03C_F048_F04C_F060_F064</title>
<path fill="none" stroke="blue" d="M204.427,-338.748C205.956,-311.954 206.187,-259.236 189,-219 187.694,-215.942 186.23,-212.914 184.638,-209.926"/>
<polygon fill="blue" stroke="blue" points="187.555,-207.98 179.502,-201.095 181.504,-211.499 187.555,-207.98"/>
<text text-anchor="middle" x="239" y="-266.3" font-family="Times,serif" font-size="14.00">GE, LE, EQ</text>
</g>
<!-- _F066 -->
<g id="node2" class="node"><title>_F066</title>
<polygon fill="none" stroke="black" points="406.5,-155 257.5,-155 257.5,-119 406.5,-119 406.5,-155"/>
<text text-anchor="middle" x="332" y="-133.3" font-family="Times,serif" font-size="14.00">movs &#160;&#160;r0, #224 &#160;&#160;; 0xe0</text>
</g>
<!-- _F06A -->
<g id="node3" class="node"><title>_F06A</title>
<polygon fill="none" stroke="black" points="150.5,-36 89.5,-36 89.5,-0 150.5,-0 150.5,-36"/>
<text text-anchor="middle" x="120" y="-14.3" font-family="Times,serif" font-size="14.00">pop &#160;&#160;pc</text>
</g>
<!-- _F066&#45;&gt;_F06A -->
<g id="edge3" class="edge"><title>_F066&#45;&gt;_F06A</title>
<path fill="none" stroke="blue" d="M312.533,-118.961C296.313,-105.337 272.197,-86.3697 249,-73 220.648,-56.6595 186.393,-42.5569 160.309,-32.8652"/>
<polygon fill="blue" stroke="blue" points="161.335,-29.514 150.741,-29.3712 158.934,-36.0892 161.335,-29.514"/>
</g>
<!-- _F02C&#45;&gt;_F030_F034_F038_F03C_F048_F04C_F060_F064 -->
<g id="edge6" class="edge"><title>_F02C&#45;&gt;_F030_F034_F038_F03C_F048_F04C_F060_F064</title>
<path fill="none" stroke="red" d="M120,-251.874C120,-241.122 120,-226.439 120,-211.193"/>
<polygon fill="red" stroke="red" points="123.5,-211.129 120,-201.129 116.5,-211.129 123.5,-211.129"/>
<text text-anchor="middle" x="154" y="-222.8" font-family="Times,serif" font-size="14.00">GE, LE, NE</text>
</g>
<!-- _F028&#45;&gt;_F066 -->
<g id="edge7" class="edge"><title>_F028&#45;&gt;_F066</title>
<path fill="none" stroke="blue" d="M321.569,-251.874C323.59,-229.808 327.127,-191.193 329.516,-165.118"/>
<polygon fill="blue" stroke="blue" points="333.004,-165.408 330.431,-155.13 326.033,-164.769 333.004,-165.408"/>
<text text-anchor="middle" x="346" y="-222.8" font-family="Times,serif" font-size="14.00">GE, GT</text>
</g>
<!-- _F024&#45;&gt;_F066 -->
<g id="edge2" class="edge"><title>_F024&#45;&gt;_F066</title>
<path fill="none" stroke="blue" d="M390.241,-251.874C378.805,-229.514 358.678,-190.161 345.339,-164.082"/>
<polygon fill="blue" stroke="blue" points="348.431,-162.44 340.761,-155.13 342.199,-165.627 348.431,-162.44"/>
<text text-anchor="middle" x="389.5" y="-222.8" font-family="Times,serif" font-size="14.00">LT</text>
</g>
<!-- _F030_F034_F038_F03C_F048_F04C_F060_F064&#45;&gt;_F06A -->
<g id="edge1" class="edge"><title>_F030_F034_F038_F03C_F048_F04C_F060_F064&#45;&gt;_F06A</title>
<path fill="none" stroke="red" d="M120,-72.706C120,-63.5257 120,-54.504 120,-46.5532"/>
<polygon fill="red" stroke="red" points="123.5,-46.4607 120,-36.4608 116.5,-46.4608 123.5,-46.4607"/>
</g>
</g>
</svg>
