<?xml version="1.0" encoding="UTF-8" standalone="no"?>
<!DOCTYPE svg PUBLIC "-//W3C//DTD SVG 1.1//EN"
 "http://www.w3.org/Graphics/SVG/1.1/DTD/svg11.dtd">
<!-- Generated by graphviz version 2.38.0 (20140413.2041)
 -->
<!-- Title: G Pages: 1 -->
<svg width="192pt" height="235pt"
 viewBox="0.00 0.00 192.00 235.00" xmlns="http://www.w3.org/2000/svg" xmlns:xlink="http://www.w3.org/1999/xlink">
<g id="graph0" class="graph" transform="scale(1 1) rotate(0) translate(4 231)">
<title>G</title>
<polygon fill="white" stroke="none" points="-4,4 -4,-231 188,-231 188,4 -4,4"/>
<!-- _3C0_3C4_3C8 -->
<g id="node1" class="node"><title>_3C0_3C4_3C8</title>
<polygon fill="none" stroke="black" points="163,-227 0,-227 0,-174 163,-174 163,-227"/>
<text text-anchor="middle" x="81.5" y="-211.8" font-family="Times,serif" font-size="14.00">ldr &#160;&#160;r0, [pc, #20] &#160;&#160;; (3d8 )</text>
<text text-anchor="middle" x="81.5" y="-196.8" font-family="Times,serif" font-size="14.00">cmp &#160;&#160;r1, #0</text>
<text text-anchor="middle" x="81.5" y="-181.8" font-family="Times,serif" font-size="14.00">subs &#160;&#160;r1, r1, #1</text>
</g>
<!-- _3CC -->
<g id="node2" class="node"><title>_3CC</title>
<polygon fill="none" stroke="black" points="62.5,-123 2.5,-123 2.5,-87 62.5,-87 62.5,-123"/>
<text text-anchor="middle" x="32.5" y="-101.3" font-family="Times,serif" font-size="14.00">bne 3d4</text>
</g>
<!-- _3C0_3C4_3C8&#45;&gt;_3CC -->
<g id="edge3" class="edge"><title>_3C0_3C4_3C8&#45;&gt;_3CC</title>
<path fill="none" stroke="blue" d="M68.1105,-173.951C61.3157,-160.985 53.0743,-145.259 46.2318,-132.202"/>
<polygon fill="blue" stroke="blue" points="49.2793,-130.477 41.5373,-123.245 43.0791,-133.727 49.2793,-130.477"/>
<text text-anchor="middle" x="68" y="-144.8" font-family="Times,serif" font-size="14.00">NE</text>
</g>
<!-- _3D0 -->
<g id="node3" class="node"><title>_3D0</title>
<polygon fill="none" stroke="black" points="184,-123 81,-123 81,-87 184,-87 184,-123"/>
<text text-anchor="middle" x="132.5" y="-101.3" font-family="Times,serif" font-size="14.00">ldr &#160;&#160;r0, [r0, #4]</text>
</g>
<!-- _3C0_3C4_3C8&#45;&gt;_3D0 -->
<g id="edge1" class="edge"><title>_3C0_3C4_3C8&#45;&gt;_3D0</title>
<path fill="none" stroke="red" d="M95.436,-173.951C102.508,-160.985 111.086,-145.259 118.208,-132.202"/>
<polygon fill="red" stroke="red" points="121.378,-133.7 123.094,-123.245 115.233,-130.348 121.378,-133.7"/>
<text text-anchor="middle" x="123" y="-144.8" font-family="Times,serif" font-size="14.00">EQ</text>
</g>
<!-- _3D4 -->
<g id="node4" class="node"><title>_3D4</title>
<polygon fill="none" stroke="black" points="116.5,-36 62.5,-36 62.5,-0 116.5,-0 116.5,-36"/>
<text text-anchor="middle" x="89.5" y="-14.3" font-family="Times,serif" font-size="14.00">bx &#160;&#160;lr</text>
</g>
<!-- _3CC&#45;&gt;_3D4 -->
<g id="edge2" class="edge"><title>_3CC&#45;&gt;_3D4</title>
<path fill="none" stroke="blue" d="M44.0348,-86.799C52.1471,-74.7017 63.1426,-58.3049 72.2883,-44.6665"/>
<polygon fill="blue" stroke="blue" points="75.3197,-46.4302 77.9824,-36.1754 69.5059,-42.5315 75.3197,-46.4302"/>
<text text-anchor="middle" x="74" y="-57.8" font-family="Times,serif" font-size="14.00">NE</text>
</g>
<!-- _3D0&#45;&gt;_3D4 -->
<g id="edge4" class="edge"><title>_3D0&#45;&gt;_3D4</title>
<path fill="none" stroke="red" d="M123.798,-86.799C117.795,-74.9322 109.699,-58.9279 102.88,-45.4488"/>
<polygon fill="red" stroke="red" points="105.826,-43.5187 98.1888,-36.1754 99.5798,-46.6786 105.826,-43.5187"/>
<text text-anchor="middle" x="124" y="-57.8" font-family="Times,serif" font-size="14.00">EQ</text>
</g>
</g>
</svg>
