<?xml version="1.0" encoding="UTF-8" standalone="no"?>
<!DOCTYPE svg PUBLIC "-//W3C//DTD SVG 1.1//EN"
 "http://www.w3.org/Graphics/SVG/1.1/DTD/svg11.dtd">
<!-- Generated by graphviz version 2.38.0 (20140413.2041)
 -->
<!-- Title: G Pages: 1 -->
<svg width="262pt" height="327pt"
 viewBox="0.00 0.00 261.50 327.00" xmlns="http://www.w3.org/2000/svg" xmlns:xlink="http://www.w3.org/1999/xlink">
<g id="graph0" class="graph" transform="scale(1 1) rotate(0) translate(4 323)">
<title>G</title>
<polygon fill="white" stroke="none" points="-4,4 -4,-323 257.5,-323 257.5,4 -4,4"/>
<!-- _9C78 -->
<g id="node1" class="node"><title>_9C78</title>
<polygon fill="none" stroke="black" points="227.5,-36 110.5,-36 110.5,-0 227.5,-0 227.5,-36"/>
<text text-anchor="middle" x="169" y="-14.3" font-family="Times,serif" font-size="14.00">pop &#160;&#160;r4, r5, r6, pc</text>
</g>
<!-- _9C5A -->
<g id="node2" class="node"><title>_9C5A</title>
<polygon fill="none" stroke="black" points="66,-139 0,-139 0,-103 66,-103 66,-139"/>
<text text-anchor="middle" x="33" y="-117.3" font-family="Times,serif" font-size="14.00">beq 9c78</text>
</g>
<!-- _9C5A&#45;&gt;_9C78 -->
<g id="edge3" class="edge"><title>_9C5A&#45;&gt;_9C78</title>
<path fill="none" stroke="blue" d="M54.6713,-102.707C61.1671,-97.5954 68.3364,-92.025 75,-87 95.1777,-71.7841 118.156,-55.149 136.344,-42.1407"/>
<polygon fill="blue" stroke="blue" points="138.747,-44.7258 144.854,-36.0683 134.681,-39.0277 138.747,-44.7258"/>
<text text-anchor="middle" x="128.5" y="-57.8" font-family="Times,serif" font-size="14.00">EQ</text>
</g>
<!-- _9C3C_9C40_9C44_9C48_9C4E_9C52_9C56 -->
<g id="node3" class="node"><title>_9C3C_9C40_9C44_9C48_9C4E_9C52_9C56</title>
<polygon fill="none" stroke="black" points="228,-319 110,-319 110,-206 228,-206 228,-319"/>
<text text-anchor="middle" x="169" y="-303.8" font-family="Times,serif" font-size="14.00">push &#160;&#160;r4, r5, r6, lr</text>
<text text-anchor="middle" x="169" y="-288.8" font-family="Times,serif" font-size="14.00">ldr &#160;&#160;r2, [r3, #4]</text>
<text text-anchor="middle" x="169" y="-273.8" font-family="Times,serif" font-size="14.00">mov &#160;&#160;r4, r2</text>
<text text-anchor="middle" x="169" y="-258.8" font-family="Times,serif" font-size="14.00">bne 9c4e</text>
<text text-anchor="middle" x="169" y="-243.8" font-family="Times,serif" font-size="14.00">movs &#160;&#160;r5, #0</text>
<text text-anchor="middle" x="169" y="-228.8" font-family="Times,serif" font-size="14.00">cmp &#160;&#160;r2, #16</text>
<text text-anchor="middle" x="169" y="-213.8" font-family="Times,serif" font-size="14.00">movs &#160;&#160;r2, #0</text>
</g>
<!-- _9C3C_9C40_9C44_9C48_9C4E_9C52_9C56&#45;&gt;_9C5A -->
<g id="edge2" class="edge"><title>_9C3C_9C40_9C44_9C48_9C4E_9C52_9C56&#45;&gt;_9C5A</title>
<path fill="none" stroke="blue" d="M114.858,-205.965C94.8699,-185.462 73.2131,-163.248 57.1986,-146.821"/>
<polygon fill="blue" stroke="blue" points="59.3091,-143.972 49.8223,-139.255 54.2969,-148.859 59.3091,-143.972"/>
<text text-anchor="middle" x="106.5" y="-176.8" font-family="Times,serif" font-size="14.00">EQ</text>
</g>
<!-- _9C5E_9C62_9C66_9C6A -->
<g id="node4" class="node"><title>_9C5E_9C62_9C66_9C6A</title>
<polygon fill="none" stroke="black" points="253.5,-155 84.5,-155 84.5,-87 253.5,-87 253.5,-155"/>
<text text-anchor="middle" x="169" y="-139.8" font-family="Times,serif" font-size="14.00">ldr &#160;&#160;r4, [pc, #32] &#160;&#160;; (9c80 )</text>
<text text-anchor="middle" x="169" y="-124.8" font-family="Times,serif" font-size="14.00">adds &#160;&#160;r0, r6, r4</text>
<text text-anchor="middle" x="169" y="-109.8" font-family="Times,serif" font-size="14.00">str &#160;&#160;r2, [r3, #4]</text>
<text text-anchor="middle" x="169" y="-94.8" font-family="Times,serif" font-size="14.00">beq 9c78</text>
</g>
<!-- _9C3C_9C40_9C44_9C48_9C4E_9C52_9C56&#45;&gt;_9C5E_9C62_9C66_9C6A -->
<g id="edge4" class="edge"><title>_9C3C_9C40_9C44_9C48_9C4E_9C52_9C56&#45;&gt;_9C5E_9C62_9C66_9C6A</title>
<path fill="none" stroke="red" d="M169,-205.965C169,-192.55 169,-178.402 169,-165.622"/>
<polygon fill="red" stroke="red" points="172.5,-165.254 169,-155.254 165.5,-165.255 172.5,-165.254"/>
<text text-anchor="middle" x="178.5" y="-176.8" font-family="Times,serif" font-size="14.00">NE</text>
</g>
<!-- _9C5E_9C62_9C66_9C6A&#45;&gt;_9C78 -->
<g id="edge1" class="edge"><title>_9C5E_9C62_9C66_9C6A&#45;&gt;_9C78</title>
<path fill="none" stroke="red" d="M169,-86.9288C169,-73.8468 169,-58.9862 169,-46.5072"/>
<polygon fill="red" stroke="red" points="172.5,-46.2585 169,-36.2585 165.5,-46.2585 172.5,-46.2585"/>
<text text-anchor="middle" x="178.5" y="-57.8" font-family="Times,serif" font-size="14.00">EQ</text>
</g>
</g>
</svg>
