<?xml version="1.0" encoding="UTF-8" standalone="no"?>
<!DOCTYPE svg PUBLIC "-//W3C//DTD SVG 1.1//EN"
 "http://www.w3.org/Graphics/SVG/1.1/DTD/svg11.dtd">
<!-- Generated by graphviz version 2.38.0 (20140413.2041)
 -->
<!-- Title: G Pages: 1 -->
<svg width="253pt" height="829pt"
 viewBox="0.00 0.00 253.00 829.00" xmlns="http://www.w3.org/2000/svg" xmlns:xlink="http://www.w3.org/1999/xlink">
<g id="graph0" class="graph" transform="scale(1 1) rotate(0) translate(4 825)">
<title>G</title>
<polygon fill="white" stroke="none" points="-4,4 -4,-825 249,-825 249,4 -4,4"/>
<!-- _3CB8_3CBC_3CC0_3CC4_3CC8_3CCC -->
<g id="node1" class="node"><title>_3CB8_3CBC_3CC0_3CC4_3CC8_3CCC</title>
<polygon fill="none" stroke="black" points="195,-821 25,-821 25,-723 195,-723 195,-821"/>
<text text-anchor="middle" x="110" y="-805.8" font-family="Times,serif" font-size="14.00">push &#160;&#160;r3, r4, r5, r6, r7, lr</text>
<text text-anchor="middle" x="110" y="-790.8" font-family="Times,serif" font-size="14.00">ldr &#160;&#160;r4, [pc, #88] &#160;&#160;; (3d18 )</text>
<text text-anchor="middle" x="110" y="-775.8" font-family="Times,serif" font-size="14.00">str &#160;&#160;r6, [r4, #12]</text>
<text text-anchor="middle" x="110" y="-760.8" font-family="Times,serif" font-size="14.00">strb &#160;&#160;r3, [r4, #1]</text>
<text text-anchor="middle" x="110" y="-745.8" font-family="Times,serif" font-size="14.00">str &#160;&#160;r0, [r4, #8]</text>
<text text-anchor="middle" x="110" y="-730.8" font-family="Times,serif" font-size="14.00">strb &#160;&#160;r7, [r4, #2]</text>
</g>
<!-- _3CD4 -->
<g id="node3" class="node"><title>_3CD4</title>
<polygon fill="none" stroke="black" points="54,-556 0,-556 0,-520 54,-520 54,-556"/>
<text text-anchor="middle" x="27" y="-534.3" font-family="Times,serif" font-size="14.00">b 3d06</text>
</g>
<!-- _3CB8_3CBC_3CC0_3CC4_3CC8_3CCC&#45;&gt;_3CD4 -->
<g id="edge2" class="edge"><title>_3CB8_3CBC_3CC0_3CC4_3CC8_3CCC&#45;&gt;_3CD4</title>
<path fill="none" stroke="blue" d="M72.9767,-722.881C62.7165,-707.382 52.5958,-689.636 46,-672 32.9442,-637.091 28.7843,-593.945 27.5016,-566.444"/>
<polygon fill="blue" stroke="blue" points="30.9965,-566.239 27.1288,-556.376 24.0013,-566.498 30.9965,-566.239"/>
<text text-anchor="middle" x="70.5" y="-693.8" font-family="Times,serif" font-size="14.00">NE</text>
</g>
<!-- _3CD0_3CD6_3CDA_3CE6_3CEA_3CEE -->
<g id="node4" class="node"><title>_3CD0_3CD6_3CDA_3CE6_3CEA_3CEE</title>
<polygon fill="none" stroke="black" points="165,-672 55,-672 55,-574 165,-574 165,-672"/>
<text text-anchor="middle" x="110" y="-656.8" font-family="Times,serif" font-size="14.00">beq 3cd6</text>
<text text-anchor="middle" x="110" y="-641.8" font-family="Times,serif" font-size="14.00">ldrb &#160;&#160;r0, [r5, #3]</text>
<text text-anchor="middle" x="110" y="-626.8" font-family="Times,serif" font-size="14.00">bpl 3ce6</text>
<text text-anchor="middle" x="110" y="-611.8" font-family="Times,serif" font-size="14.00">ldrb &#160;&#160;r0, [r5, #2]</text>
<text text-anchor="middle" x="110" y="-596.8" font-family="Times,serif" font-size="14.00">orrs &#160;&#160;r0, r1</text>
<text text-anchor="middle" x="110" y="-581.8" font-family="Times,serif" font-size="14.00">ldrb &#160;&#160;r0, [r6, #0]</text>
</g>
<!-- _3CB8_3CBC_3CC0_3CC4_3CC8_3CCC&#45;&gt;_3CD0_3CD6_3CDA_3CE6_3CEA_3CEE -->
<g id="edge6" class="edge"><title>_3CB8_3CBC_3CC0_3CC4_3CC8_3CCC&#45;&gt;_3CD0_3CD6_3CDA_3CE6_3CEA_3CEE</title>
<path fill="none" stroke="red" d="M110,-722.867C110,-709.922 110,-695.781 110,-682.346"/>
<polygon fill="red" stroke="red" points="113.5,-682.241 110,-672.241 106.5,-682.241 113.5,-682.241"/>
<text text-anchor="middle" x="119.5" y="-693.8" font-family="Times,serif" font-size="14.00">EQ</text>
</g>
<!-- _3D06_3D0A_3D0E_3D12_3D16_3D1A_3D1E_3D22_3D26_3D2A_3D2E_3D32_3D36_3D3A_3D3E_3D42_3D46_3D4A_3D4E_3D52_3D56_3D5A -->
<g id="node2" class="node"><title>_3D06_3D0A_3D0E_3D12_3D16_3D1A_3D1E_3D22_3D26_3D2A_3D2E_3D32_3D36_3D3A_3D3E_3D42_3D46_3D4A_3D4E_3D52_3D56_3D5A</title>
<polygon fill="none" stroke="black" points="206,-338 12,-338 12,-0 206,-0 206,-338"/>
<text text-anchor="middle" x="109" y="-322.8" font-family="Times,serif" font-size="14.00">str &#160;&#160;r7, [r4, #20]</text>
<text text-anchor="middle" x="109" y="-307.8" font-family="Times,serif" font-size="14.00">movs &#160;&#160;r1, #247 &#160;&#160;; 0xf7</text>
<text text-anchor="middle" x="109" y="-292.8" font-family="Times,serif" font-size="14.00">strb &#160;&#160;r0, [r5, #2]</text>
<text text-anchor="middle" x="109" y="-277.8" font-family="Times,serif" font-size="14.00">strb &#160;&#160;r0, [r5, #4]</text>
<text text-anchor="middle" x="109" y="-262.8" font-family="Times,serif" font-size="14.00">movs &#160;&#160;r0, r0</text>
<text text-anchor="middle" x="109" y="-247.8" font-family="Times,serif" font-size="14.00">movs &#160;&#160;r0, #0</text>
<text text-anchor="middle" x="109" y="-232.8" font-family="Times,serif" font-size="14.00">ands &#160;&#160;r6, r0</text>
<text text-anchor="middle" x="109" y="-217.8" font-family="Times,serif" font-size="14.00">movs &#160;&#160;r0, #0</text>
<text text-anchor="middle" x="109" y="-202.8" font-family="Times,serif" font-size="14.00">ldr &#160;&#160;r0, [pc, #56] &#160;&#160;; (3d60 )</text>
<text text-anchor="middle" x="109" y="-187.8" font-family="Times,serif" font-size="14.00">movs &#160;&#160;r2, #64 &#160;&#160;; =0x40 (IRQ0)</text>
<text text-anchor="middle" x="109" y="-172.8" font-family="Times,serif" font-size="14.00">str &#160;&#160;r1, [r0, #52] &#160;&#160;; 0x34</text>
<text text-anchor="middle" x="109" y="-157.8" font-family="Times,serif" font-size="14.00">ldr &#160;&#160;r1, [pc, #48] &#160;&#160;; (3d64 )</text>
<text text-anchor="middle" x="109" y="-142.8" font-family="Times,serif" font-size="14.00">str &#160;&#160;r0, [r1, #32]</text>
<text text-anchor="middle" x="109" y="-127.8" font-family="Times,serif" font-size="14.00">ldr &#160;&#160;r0, [pc, #44] &#160;&#160;; (3d68 )</text>
<text text-anchor="middle" x="109" y="-112.8" font-family="Times,serif" font-size="14.00">strb &#160;&#160;r1, [r0, #1]</text>
<text text-anchor="middle" x="109" y="-97.8" font-family="Times,serif" font-size="14.00">strb &#160;&#160;r1, [r0, #2]</text>
<text text-anchor="middle" x="109" y="-82.8" font-family="Times,serif" font-size="14.00">ldr &#160;&#160;r1, [r0, #8]</text>
<text text-anchor="middle" x="109" y="-67.8" font-family="Times,serif" font-size="14.00">lsls &#160;&#160;r1, r1, #8</text>
<text text-anchor="middle" x="109" y="-52.8" font-family="Times,serif" font-size="14.00">str &#160;&#160;r1, [r0, #8]</text>
<text text-anchor="middle" x="109" y="-37.8" font-family="Times,serif" font-size="14.00">ldr &#160;&#160;r1, [r0, #0]</text>
<text text-anchor="middle" x="109" y="-22.8" font-family="Times,serif" font-size="14.00">orrs &#160;&#160;r1, r2</text>
<text text-anchor="middle" x="109" y="-7.8" font-family="Times,serif" font-size="14.00">bx &#160;&#160;lr</text>
</g>
<!-- _3CD4&#45;&gt;_3D06_3D0A_3D0E_3D12_3D16_3D1A_3D1E_3D22_3D26_3D2A_3D2E_3D32_3D36_3D3A_3D3E_3D42_3D46_3D4A_3D4E_3D52_3D56_3D5A -->
<g id="edge5" class="edge"><title>_3CD4&#45;&gt;_3D06_3D0A_3D0E_3D12_3D16_3D1A_3D1E_3D22_3D26_3D2A_3D2E_3D32_3D36_3D3A_3D3E_3D42_3D46_3D4A_3D4E_3D52_3D56_3D5A</title>
<path fill="none" stroke="blue" d="M27.9885,-519.809C29.9279,-490.044 35.0348,-427.096 46,-375 47.8726,-366.103 49.9611,-357.039 52.2073,-347.919"/>
<polygon fill="blue" stroke="blue" points="55.6553,-348.56 54.7039,-338.008 48.8673,-346.85 55.6553,-348.56"/>
<text text-anchor="middle" x="46.5" y="-434.8" font-family="Times,serif" font-size="14.00">NE</text>
</g>
<!-- _3CF2 -->
<g id="node5" class="node"><title>_3CF2</title>
<polygon fill="none" stroke="black" points="118.5,-501 55.5,-501 55.5,-465 118.5,-465 118.5,-501"/>
<text text-anchor="middle" x="87" y="-479.3" font-family="Times,serif" font-size="14.00">beq 3cfe</text>
</g>
<!-- _3CD0_3CD6_3CDA_3CE6_3CEA_3CEE&#45;&gt;_3CF2 -->
<g id="edge3" class="edge"><title>_3CD0_3CD6_3CDA_3CE6_3CEA_3CEE&#45;&gt;_3CF2</title>
<path fill="none" stroke="blue" d="M101.956,-573.734C98.4636,-552.781 94.5027,-529.016 91.5348,-511.209"/>
<polygon fill="blue" stroke="blue" points="94.9673,-510.513 89.8708,-501.225 88.0625,-511.664 94.9673,-510.513"/>
<text text-anchor="middle" x="108.5" y="-534.3" font-family="Times,serif" font-size="14.00">EQ</text>
</g>
<!-- _3CF6_3CFA -->
<g id="node6" class="node"><title>_3CF6_3CFA</title>
<polygon fill="none" stroke="black" points="245,-502 137,-502 137,-464 245,-464 245,-502"/>
<text text-anchor="middle" x="191" y="-486.8" font-family="Times,serif" font-size="14.00">strb &#160;&#160;r0, [r4, #0]</text>
<text text-anchor="middle" x="191" y="-471.8" font-family="Times,serif" font-size="14.00">str &#160;&#160;r0, [r4, #20]</text>
</g>
<!-- _3CD0_3CD6_3CDA_3CE6_3CEA_3CEE&#45;&gt;_3CF6_3CFA -->
<g id="edge8" class="edge"><title>_3CD0_3CD6_3CDA_3CE6_3CEA_3CEE&#45;&gt;_3CF6_3CFA</title>
<path fill="none" stroke="red" d="M138.33,-573.734C150.684,-552.687 164.704,-528.801 175.171,-510.968"/>
<polygon fill="red" stroke="red" points="178.25,-512.637 180.293,-502.241 172.213,-509.093 178.25,-512.637"/>
<text text-anchor="middle" x="178.5" y="-534.3" font-family="Times,serif" font-size="14.00">NE</text>
</g>
<!-- _3CFE_3D02 -->
<g id="node7" class="node"><title>_3CFE_3D02</title>
<polygon fill="none" stroke="black" points="163,-413 55,-413 55,-375 163,-375 163,-413"/>
<text text-anchor="middle" x="109" y="-397.8" font-family="Times,serif" font-size="14.00">strb &#160;&#160;r7, [r4, #0]</text>
<text text-anchor="middle" x="109" y="-382.8" font-family="Times,serif" font-size="14.00">adds &#160;&#160;r0, #1</text>
</g>
<!-- _3CF2&#45;&gt;_3CFE_3D02 -->
<g id="edge7" class="edge"><title>_3CF2&#45;&gt;_3CFE_3D02</title>
<path fill="none" stroke="blue" d="M91.3465,-464.812C94.3601,-452.894 98.4409,-436.756 101.92,-422.999"/>
<polygon fill="blue" stroke="blue" points="105.377,-423.604 104.435,-413.051 98.5905,-421.888 105.377,-423.604"/>
<text text-anchor="middle" x="109.5" y="-434.8" font-family="Times,serif" font-size="14.00">EQ</text>
</g>
<!-- _3CF6_3CFA&#45;&gt;_3CFE_3D02 -->
<g id="edge4" class="edge"><title>_3CF6_3CFA&#45;&gt;_3CFE_3D02</title>
<path fill="none" stroke="red" d="M174.01,-463.974C162.135,-451.375 146.113,-434.375 132.945,-420.406"/>
<polygon fill="red" stroke="red" points="135.375,-417.88 125.969,-413.003 130.281,-422.681 135.375,-417.88"/>
<text text-anchor="middle" x="164.5" y="-434.8" font-family="Times,serif" font-size="14.00">NE</text>
</g>
<!-- _3CFE_3D02&#45;&gt;_3D06_3D0A_3D0E_3D12_3D16_3D1A_3D1E_3D22_3D26_3D2A_3D2E_3D32_3D36_3D3A_3D3E_3D42_3D46_3D4A_3D4E_3D52_3D56_3D5A -->
<g id="edge1" class="edge"><title>_3CFE_3D02&#45;&gt;_3D06_3D0A_3D0E_3D12_3D16_3D1A_3D1E_3D22_3D26_3D2A_3D2E_3D32_3D36_3D3A_3D3E_3D42_3D46_3D4A_3D4E_3D52_3D56_3D5A</title>
<path fill="none" stroke="red" d="M109,-374.751C109,-367.578 109,-358.622 109,-348.495"/>
<polygon fill="red" stroke="red" points="112.5,-348.446 109,-338.446 105.5,-348.446 112.5,-348.446"/>
</g>
</g>
</svg>
