<?xml version="1.0" encoding="UTF-8" standalone="no"?>
<!DOCTYPE svg PUBLIC "-//W3C//DTD SVG 1.1//EN"
 "http://www.w3.org/Graphics/SVG/1.1/DTD/svg11.dtd">
<!-- Generated by graphviz version 2.38.0 (20140413.2041)
 -->
<!-- Title: G Pages: 1 -->
<svg width="312pt" height="627pt"
 viewBox="0.00 0.00 311.50 627.00" xmlns="http://www.w3.org/2000/svg" xmlns:xlink="http://www.w3.org/1999/xlink">
<g id="graph0" class="graph" transform="scale(1 1) rotate(0) translate(4 623)">
<title>G</title>
<polygon fill="white" stroke="none" points="-4,4 -4,-623 307.5,-623 307.5,4 -4,4"/>
<!-- _9D84_9D88_9D8C_9D90_9D94_9D98_9D9C_9DA0_9DA4_9DA8_9DAC_9DB0_9DB4_9DB8_9DBC -->
<g id="node1" class="node"><title>_9D84_9D88_9D8C_9D90_9D94_9D98_9D9C_9DA0_9DA4_9DA8_9DAC_9DB0_9DB4_9DB8_9DBC</title>
<polygon fill="none" stroke="black" points="302,-619 84,-619 84,-386 302,-386 302,-619"/>
<text text-anchor="middle" x="193" y="-603.8" font-family="Times,serif" font-size="14.00">asrs &#160;&#160;r0, r0, #32</text>
<text text-anchor="middle" x="193" y="-588.8" font-family="Times,serif" font-size="14.00">str &#160;&#160;r6, [r0, #0]</text>
<text text-anchor="middle" x="193" y="-573.8" font-family="Times,serif" font-size="14.00">strh &#160;&#160;r0, [r0, #8]</text>
<text text-anchor="middle" x="193" y="-558.8" font-family="Times,serif" font-size="14.00">lsls &#160;&#160;r0, r0, #2</text>
<text text-anchor="middle" x="193" y="-543.8" font-family="Times,serif" font-size="14.00">lsls &#160;&#160;r0, r0, #2</text>
<text text-anchor="middle" x="193" y="-528.8" font-family="Times,serif" font-size="14.00">push &#160;&#160;r3, r4, r5, r6, r7, lr</text>
<text text-anchor="middle" x="193" y="-513.8" font-family="Times,serif" font-size="14.00">mov &#160;&#160;r7, r1</text>
<text text-anchor="middle" x="193" y="-498.8" font-family="Times,serif" font-size="14.00">mov &#160;&#160;r6, r2</text>
<text text-anchor="middle" x="193" y="-483.8" font-family="Times,serif" font-size="14.00">orrs &#160;&#160;r1, r2</text>
<text text-anchor="middle" x="193" y="-468.8" font-family="Times,serif" font-size="14.00">ldr &#160;&#160;r2, [pc, #160] &#160;&#160;; (9e4c )</text>
<text text-anchor="middle" x="193" y="-453.8" font-family="Times,serif" font-size="14.00">str &#160;&#160;r1, [r2, #8]</text>
<text text-anchor="middle" x="193" y="-438.8" font-family="Times,serif" font-size="14.00">movs &#160;&#160;r2, #219 &#160;&#160;; 0xdb</text>
<text text-anchor="middle" x="193" y="-423.8" font-family="Times,serif" font-size="14.00">strb &#160;&#160;r1, [r4, #2]</text>
<text text-anchor="middle" x="193" y="-408.8" font-family="Times,serif" font-size="14.00">ldr &#160;&#160;r2, [r5, #44] &#160;&#160;; =0x2C (SVCall)</text>
<text text-anchor="middle" x="193" y="-393.8" font-family="Times,serif" font-size="14.00">bics &#160;&#160;r2, r1</text>
</g>
<!-- _9DC0 -->
<g id="node2" class="node"><title>_9DC0</title>
<polygon fill="none" stroke="black" points="248,-349 138,-349 138,-313 248,-313 248,-349"/>
<text text-anchor="middle" x="193" y="-327.3" font-family="Times,serif" font-size="14.00">ldrb &#160;&#160;r2, [r4, #0]</text>
</g>
<!-- _9D84_9D88_9D8C_9D90_9D94_9D98_9D9C_9DA0_9DA4_9DA8_9DAC_9DB0_9DB4_9DB8_9DBC&#45;&gt;_9DC0 -->
<g id="edge2" class="edge"><title>_9D84_9D88_9D8C_9D90_9D94_9D98_9D9C_9DA0_9DA4_9DA8_9DAC_9DB0_9DB4_9DB8_9DBC&#45;&gt;_9DC0</title>
<path fill="none" stroke="red" d="M193,-385.631C193,-375.98 193,-366.954 193,-359.161"/>
<polygon fill="red" stroke="red" points="196.5,-359.028 193,-349.028 189.5,-359.028 196.5,-359.028"/>
</g>
<!-- _9DC4 -->
<g id="node3" class="node"><title>_9DC4</title>
<polygon fill="none" stroke="black" points="64,-193.5 0,-193.5 0,-157.5 64,-157.5 64,-193.5"/>
<text text-anchor="middle" x="32" y="-171.8" font-family="Times,serif" font-size="14.00">bpl 9dc0</text>
</g>
<!-- _9DC0&#45;&gt;_9DC4 -->
<g id="edge4" class="edge"><title>_9DC0&#45;&gt;_9DC4</title>
<path fill="none" stroke="blue" d="M140.139,-312.849C128.422,-307.944 116.405,-301.992 106,-295 73.1876,-272.953 52.1611,-230.946 41.2133,-203.332"/>
<polygon fill="blue" stroke="blue" points="44.4463,-201.986 37.6327,-193.873 37.8996,-204.464 44.4463,-201.986"/>
<text text-anchor="middle" x="114" y="-283.8" font-family="Times,serif" font-size="14.00">PL</text>
</g>
<!-- _9DC8_9DCC_9DD0_9DD4_9DD8_9DDC_9DE0_9DE4_9DE8_9DEC_9DF0 -->
<g id="node4" class="node"><title>_9DC8_9DCC_9DD0_9DD4_9DD8_9DDC_9DE0_9DE4_9DE8_9DEC_9DF0</title>
<polygon fill="none" stroke="black" points="303.5,-262 82.5,-262 82.5,-89 303.5,-89 303.5,-262"/>
<text text-anchor="middle" x="193" y="-246.8" font-family="Times,serif" font-size="14.00">strb &#160;&#160;r0, [r4, #6]</text>
<text text-anchor="middle" x="193" y="-231.8" font-family="Times,serif" font-size="14.00">lsls &#160;&#160;r0, r0, #24</text>
<text text-anchor="middle" x="193" y="-216.8" font-family="Times,serif" font-size="14.00">ldrb &#160;&#160;r0, [r4, #6]</text>
<text text-anchor="middle" x="193" y="-201.8" font-family="Times,serif" font-size="14.00">movs &#160;&#160;r2, #247 &#160;&#160;; 0xf7</text>
<text text-anchor="middle" x="193" y="-186.8" font-family="Times,serif" font-size="14.00">strb &#160;&#160;r0, [r4, #2]</text>
<text text-anchor="middle" x="193" y="-171.8" font-family="Times,serif" font-size="14.00">str &#160;&#160;r6, [r5, #56] &#160;&#160;; =0x38 (PendSV)</text>
<text text-anchor="middle" x="193" y="-156.8" font-family="Times,serif" font-size="14.00">movs &#160;&#160;r2, #4</text>
<text text-anchor="middle" x="193" y="-141.8" font-family="Times,serif" font-size="14.00">strb &#160;&#160;r0, [r4, #2]</text>
<text text-anchor="middle" x="193" y="-126.8" font-family="Times,serif" font-size="14.00">lsls &#160;&#160;r1, r2, #28</text>
<text text-anchor="middle" x="193" y="-111.8" font-family="Times,serif" font-size="14.00">str &#160;&#160;r0, [r5, #60] &#160;&#160;; =0x3C (SysTick)</text>
<text text-anchor="middle" x="193" y="-96.8" font-family="Times,serif" font-size="14.00">bls 9dfa</text>
</g>
<!-- _9DC0&#45;&gt;_9DC8_9DCC_9DD0_9DD4_9DD8_9DDC_9DE0_9DE4_9DE8_9DEC_9DF0 -->
<g id="edge5" class="edge"><title>_9DC0&#45;&gt;_9DC8_9DCC_9DD0_9DD4_9DD8_9DDC_9DE0_9DE4_9DE8_9DEC_9DF0</title>
<path fill="none" stroke="red" d="M193,-312.986C193,-302.485 193,-288.079 193,-272.546"/>
<polygon fill="red" stroke="red" points="196.5,-272.205 193,-262.205 189.5,-272.205 196.5,-272.205"/>
<text text-anchor="middle" x="202" y="-283.8" font-family="Times,serif" font-size="14.00">MI</text>
</g>
<!-- _9DC4&#45;&gt;_9DC0 -->
<g id="edge6" class="edge"><title>_9DC4&#45;&gt;_9DC0</title>
<path fill="none" stroke="blue" d="M36.2804,-193.59C41.9002,-212.717 53.5392,-243.449 74,-262 90.8792,-277.304 101.856,-269.354 122,-280 136.404,-287.612 151.299,-297.707 163.703,-306.832"/>
<polygon fill="blue" stroke="blue" points="161.758,-309.748 171.857,-312.952 165.96,-304.15 161.758,-309.748"/>
</g>
<!-- _9DFA_9DFE -->
<g id="node5" class="node"><title>_9DFA_9DFE</title>
<polygon fill="none" stroke="black" points="248,-38 138,-38 138,-0 248,-0 248,-38"/>
<text text-anchor="middle" x="193" y="-22.8" font-family="Times,serif" font-size="14.00">ldrb &#160;&#160;r0, [r4, #0]</text>
<text text-anchor="middle" x="193" y="-7.8" font-family="Times,serif" font-size="14.00">bpl 9dfa</text>
</g>
<!-- _9DC8_9DCC_9DD0_9DD4_9DD8_9DDC_9DE0_9DE4_9DE8_9DEC_9DF0&#45;&gt;_9DFA_9DFE -->
<g id="edge3" class="edge"><title>_9DC8_9DCC_9DD0_9DD4_9DD8_9DDC_9DE0_9DE4_9DE8_9DEC_9DF0&#45;&gt;_9DFA_9DFE</title>
<path fill="none" stroke="red" d="M193,-88.6657C193,-74.1386 193,-60.0215 193,-48.4037"/>
<polygon fill="red" stroke="red" points="196.5,-48.099 193,-38.099 189.5,-48.0991 196.5,-48.099"/>
<text text-anchor="middle" x="201" y="-59.8" font-family="Times,serif" font-size="14.00">LS</text>
</g>
<!-- _9DFA_9DFE&#45;&gt;_9DFA_9DFE -->
<g id="edge1" class="edge"><title>_9DFA_9DFE&#45;&gt;_9DFA_9DFE</title>
<path fill="none" stroke="red" d="M248.073,-26.8552C258.574,-25.9153 266,-23.2969 266,-19 266,-16.2473 262.952,-14.1835 258.001,-12.8085"/>
<polygon fill="red" stroke="red" points="258.514,-9.34574 248.073,-11.1448 257.357,-16.2495 258.514,-9.34574"/>
<text text-anchor="middle" x="274" y="-15.3" font-family="Times,serif" font-size="14.00">LS</text>
</g>
</g>
</svg>
