<?xml version="1.0" encoding="UTF-8" standalone="no"?>
<!DOCTYPE svg PUBLIC "-//W3C//DTD SVG 1.1//EN"
 "http://www.w3.org/Graphics/SVG/1.1/DTD/svg11.dtd">
<!-- Generated by graphviz version 2.38.0 (20140413.2041)
 -->
<!-- Title: G Pages: 1 -->
<svg width="252pt" height="660pt"
 viewBox="0.00 0.00 252.00 660.00" xmlns="http://www.w3.org/2000/svg" xmlns:xlink="http://www.w3.org/1999/xlink">
<g id="graph0" class="graph" transform="scale(1 1) rotate(0) translate(4 656)">
<title>G</title>
<polygon fill="white" stroke="none" points="-4,4 -4,-656 248,-656 248,4 -4,4"/>
<!-- _1CB0_1CB4_1CBE_1CC2 -->
<g id="node1" class="node"><title>_1CB0_1CB4_1CBE_1CC2</title>
<polygon fill="none" stroke="black" points="244,-652 77,-652 77,-584 244,-584 244,-652"/>
<text text-anchor="middle" x="160.5" y="-636.8" font-family="Times,serif" font-size="14.00">push &#160;&#160;r4, r5, lr</text>
<text text-anchor="middle" x="160.5" y="-621.8" font-family="Times,serif" font-size="14.00">b 1cbe</text>
<text text-anchor="middle" x="160.5" y="-606.8" font-family="Times,serif" font-size="14.00">lsls &#160;&#160;r1, r0, #30</text>
<text text-anchor="middle" x="160.5" y="-591.8" font-family="Times,serif" font-size="14.00">ldr &#160;&#160;r3, [pc, #44] &#160;&#160;; (1cf0 )</text>
</g>
<!-- _1CC6_1CCA -->
<g id="node2" class="node"><title>_1CC6_1CCA</title>
<polygon fill="none" stroke="black" points="207.5,-547 113.5,-547 113.5,-509 207.5,-509 207.5,-547"/>
<text text-anchor="middle" x="160.5" y="-531.8" font-family="Times,serif" font-size="14.00">ldmia &#160;&#160;r0!, r2</text>
<text text-anchor="middle" x="160.5" y="-516.8" font-family="Times,serif" font-size="14.00">bics &#160;&#160;r1, r2</text>
</g>
<!-- _1CB0_1CB4_1CBE_1CC2&#45;&gt;_1CC6_1CCA -->
<g id="edge2" class="edge"><title>_1CB0_1CB4_1CBE_1CC2&#45;&gt;_1CC6_1CCA</title>
<path fill="none" stroke="red" d="M160.5,-583.982C160.5,-575.203 160.5,-565.801 160.5,-557.3"/>
<polygon fill="red" stroke="red" points="164,-557.127 160.5,-547.127 157,-557.127 164,-557.127"/>
</g>
<!-- _1CCE -->
<g id="node3" class="node"><title>_1CCE</title>
<polygon fill="none" stroke="black" points="65,-247 0,-247 0,-211 65,-211 65,-247"/>
<text text-anchor="middle" x="32.5" y="-225.3" font-family="Times,serif" font-size="14.00">beq 1cc6</text>
</g>
<!-- _1CC6_1CCA&#45;&gt;_1CCE -->
<g id="edge3" class="edge"><title>_1CC6_1CCA&#45;&gt;_1CCE</title>
<path fill="none" stroke="blue" d="M113.283,-519.677C95.6896,-514.547 77.1774,-505.826 65.5,-491 11.0164,-421.828 19.8782,-308.821 27.5766,-257.23"/>
<polygon fill="blue" stroke="blue" points="31.059,-257.617 29.1785,-247.191 24.1464,-256.514 31.059,-257.617"/>
<text text-anchor="middle" x="75" y="-479.8" font-family="Times,serif" font-size="14.00">EQ</text>
</g>
<!-- _1CD2_1CD6_1CDA_1CDE_1CE2_1CE6_1CEA_1CEE_1CF2_1CF6_1CFA_1CFE_1D02_1D06_1D0A_1D24_1D2C_1D30_1D34_1D4C_1D50_1D54_1D58_1D5C_1D60_1D64_1D68_1D6C_1D70_1D74 -->
<g id="node4" class="node"><title>_1CD2_1CD6_1CDA_1CDE_1CE2_1CE6_1CEA_1CEE_1CF2_1CF6_1CFA_1CFE_1D02_1D06_1D0A_1D24_1D2C_1D30_1D34_1D4C_1D50_1D54_1D58_1D5C_1D60_1D64_1D68_1D6C_1D70_1D74</title>
<polygon fill="none" stroke="black" points="238,-458 83,-458 83,-0 238,-0 238,-458"/>
<text text-anchor="middle" x="160.5" y="-442.8" font-family="Times,serif" font-size="14.00">lsls &#160;&#160;r2, r1, #24</text>
<text text-anchor="middle" x="160.5" y="-427.8" font-family="Times,serif" font-size="14.00">subs &#160;&#160;r0, #3</text>
<text text-anchor="middle" x="160.5" y="-412.8" font-family="Times,serif" font-size="14.00">subs &#160;&#160;r0, r0, r4</text>
<text text-anchor="middle" x="160.5" y="-397.8" font-family="Times,serif" font-size="14.00">lsls &#160;&#160;r2, r1, #16</text>
<text text-anchor="middle" x="160.5" y="-382.8" font-family="Times,serif" font-size="14.00">subs &#160;&#160;r0, #2</text>
<text text-anchor="middle" x="160.5" y="-367.8" font-family="Times,serif" font-size="14.00">lsls &#160;&#160;r1, r1, #8</text>
<text text-anchor="middle" x="160.5" y="-352.8" font-family="Times,serif" font-size="14.00">subs &#160;&#160;r0, #1</text>
<text text-anchor="middle" x="160.5" y="-337.8" font-family="Times,serif" font-size="14.00">movs &#160;&#160;r0, r0</text>
<text text-anchor="middle" x="160.5" y="-322.8" font-family="Times,serif" font-size="14.00">lsls &#160;&#160;r1, r0, #4</text>
<text text-anchor="middle" x="160.5" y="-307.8" font-family="Times,serif" font-size="14.00">cmp &#160;&#160;r2, #4</text>
<text text-anchor="middle" x="160.5" y="-292.8" font-family="Times,serif" font-size="14.00">lsls &#160;&#160;r3, r0, #30</text>
<text text-anchor="middle" x="160.5" y="-277.8" font-family="Times,serif" font-size="14.00">ldrb &#160;&#160;r3, [r1, #0]</text>
<text text-anchor="middle" x="160.5" y="-262.8" font-family="Times,serif" font-size="14.00">strb &#160;&#160;r3, [r0, #0]</text>
<text text-anchor="middle" x="160.5" y="-247.8" font-family="Times,serif" font-size="14.00">subs &#160;&#160;r2, #1</text>
<text text-anchor="middle" x="160.5" y="-232.8" font-family="Times,serif" font-size="14.00">beq 1d24</text>
<text text-anchor="middle" x="160.5" y="-217.8" font-family="Times,serif" font-size="14.00">lsls &#160;&#160;r3, r1, #30</text>
<text text-anchor="middle" x="160.5" y="-202.8" font-family="Times,serif" font-size="14.00">lsls &#160;&#160;r7, r3, #3</text>
<text text-anchor="middle" x="160.5" y="-187.8" font-family="Times,serif" font-size="14.00">subs &#160;&#160;r6, r3, r7</text>
<text text-anchor="middle" x="160.5" y="-172.8" font-family="Times,serif" font-size="14.00">b 1d4c</text>
<text text-anchor="middle" x="160.5" y="-157.8" font-family="Times,serif" font-size="14.00">cmp &#160;&#160;r2, #4</text>
<text text-anchor="middle" x="160.5" y="-142.8" font-family="Times,serif" font-size="14.00">lsrs &#160;&#160;r3, r6, #3</text>
<text text-anchor="middle" x="160.5" y="-127.8" font-family="Times,serif" font-size="14.00">subs &#160;&#160;r2, #1</text>
<text text-anchor="middle" x="160.5" y="-112.8" font-family="Times,serif" font-size="14.00">ldrb &#160;&#160;r3, [r1, #0]</text>
<text text-anchor="middle" x="160.5" y="-97.8" font-family="Times,serif" font-size="14.00">strb &#160;&#160;r3, [r0, #0]</text>
<text text-anchor="middle" x="160.5" y="-82.8" font-family="Times,serif" font-size="14.00">subs &#160;&#160;r2, #1</text>
<text text-anchor="middle" x="160.5" y="-67.8" font-family="Times,serif" font-size="14.00">ldrb &#160;&#160;r3, [r1, #0]</text>
<text text-anchor="middle" x="160.5" y="-52.8" font-family="Times,serif" font-size="14.00">strb &#160;&#160;r3, [r0, #0]</text>
<text text-anchor="middle" x="160.5" y="-37.8" font-family="Times,serif" font-size="14.00">subs &#160;&#160;r2, #1</text>
<text text-anchor="middle" x="160.5" y="-22.8" font-family="Times,serif" font-size="14.00">ldrb &#160;&#160;r1, [r1, #0]</text>
<text text-anchor="middle" x="160.5" y="-7.8" font-family="Times,serif" font-size="14.00">pop &#160;&#160;r3, r4, r5, r6, r7, pc</text>
</g>
<!-- _1CC6_1CCA&#45;&gt;_1CD2_1CD6_1CDA_1CDE_1CE2_1CE6_1CEA_1CEE_1CF2_1CF6_1CFA_1CFE_1D02_1D06_1D0A_1D24_1D2C_1D30_1D34_1D4C_1D50_1D54_1D58_1D5C_1D60_1D64_1D68_1D6C_1D70_1D74 -->
<g id="edge4" class="edge"><title>_1CC6_1CCA&#45;&gt;_1CD2_1CD6_1CDA_1CDE_1CE2_1CE6_1CEA_1CEE_1CF2_1CF6_1CFA_1CFE_1D02_1D06_1D0A_1D24_1D2C_1D30_1D34_1D4C_1D50_1D54_1D58_1D5C_1D60_1D64_1D68_1D6C_1D70_1D74</title>
<path fill="none" stroke="red" d="M160.5,-508.868C160.5,-498.699 160.5,-484.803 160.5,-468.606"/>
<polygon fill="red" stroke="red" points="164,-468.238 160.5,-458.238 157,-468.238 164,-468.238"/>
<text text-anchor="middle" x="170" y="-479.8" font-family="Times,serif" font-size="14.00">NE</text>
</g>
<!-- _1CCE&#45;&gt;_1CC6_1CCA -->
<g id="edge1" class="edge"><title>_1CCE&#45;&gt;_1CC6_1CCA</title>
<path fill="none" stroke="blue" d="M31.6268,-247.145C30.3851,-287.133 31.8972,-388.454 73.5,-458 84.4558,-476.314 102.205,-491.692 118.824,-503.248"/>
<polygon fill="blue" stroke="blue" points="117.106,-506.309 127.369,-508.939 120.986,-500.483 117.106,-506.309"/>
</g>
</g>
</svg>
