<?xml version="1.0" encoding="UTF-8" standalone="no"?>
<!DOCTYPE svg PUBLIC "-//W3C//DTD SVG 1.1//EN"
 "http://www.w3.org/Graphics/SVG/1.1/DTD/svg11.dtd">
<!-- Generated by graphviz version 2.38.0 (20140413.2041)
 -->
<!-- Title: G Pages: 1 -->
<svg width="273pt" height="329pt"
 viewBox="0.00 0.00 272.50 329.00" xmlns="http://www.w3.org/2000/svg" xmlns:xlink="http://www.w3.org/1999/xlink">
<g id="graph0" class="graph" transform="scale(1 1) rotate(0) translate(4 325)">
<title>G</title>
<polygon fill="white" stroke="none" points="-4,4 -4,-325 268.5,-325 268.5,4 -4,4"/>
<!-- _1A48 -->
<g id="node1" class="node"><title>_1A48</title>
<polygon fill="none" stroke="black" points="64,-297.5 0,-297.5 0,-261.5 64,-261.5 64,-297.5"/>
<text text-anchor="middle" x="32" y="-275.8" font-family="Times,serif" font-size="14.00">bpl 1a38</text>
</g>
<!-- _1A38_1A3C_1A40_1A44 -->
<g id="node4" class="node"><title>_1A38_1A3C_1A40_1A44</title>
<polygon fill="none" stroke="black" points="129,-187 19,-187 19,-119 129,-119 129,-187"/>
<text text-anchor="middle" x="74" y="-171.8" font-family="Times,serif" font-size="14.00">ldr &#160;&#160;r2, [r4, #4]</text>
<text text-anchor="middle" x="74" y="-156.8" font-family="Times,serif" font-size="14.00">ldr &#160;&#160;r1, [r4, #8]</text>
<text text-anchor="middle" x="74" y="-141.8" font-family="Times,serif" font-size="14.00">ldr &#160;&#160;r0, [r4, #32]</text>
<text text-anchor="middle" x="74" y="-126.8" font-family="Times,serif" font-size="14.00">str &#160;&#160;r0, [r4, #32]</text>
</g>
<!-- _1A48&#45;&gt;_1A38_1A3C_1A40_1A44 -->
<g id="edge2" class="edge"><title>_1A48&#45;&gt;_1A38_1A3C_1A40_1A44</title>
<path fill="none" stroke="blue" d="M29.1452,-261.302C27.3237,-246.038 26.3899,-223.372 33,-205 34.1153,-201.9 35.5041,-198.848 37.0901,-195.872"/>
<polygon fill="blue" stroke="blue" points="40.1553,-197.568 42.3633,-187.206 34.1753,-193.93 40.1553,-197.568"/>
<text text-anchor="middle" x="42.5" y="-208.8" font-family="Times,serif" font-size="14.00">NE</text>
</g>
<!-- _1A20_1A24_1A28_1A2C_1A30 -->
<g id="node2" class="node"><title>_1A20_1A24_1A28_1A2C_1A30</title>
<polygon fill="none" stroke="black" points="225.5,-321 82.5,-321 82.5,-238 225.5,-238 225.5,-321"/>
<text text-anchor="middle" x="154" y="-305.8" font-family="Times,serif" font-size="14.00">push &#160;&#160;r4, r5, r6, lr</text>
<text text-anchor="middle" x="154" y="-290.8" font-family="Times,serif" font-size="14.00">ldr &#160;&#160;r5, [r0, #24]</text>
<text text-anchor="middle" x="154" y="-275.8" font-family="Times,serif" font-size="14.00">lsls &#160;&#160;r1, r0, #27</text>
<text text-anchor="middle" x="154" y="-260.8" font-family="Times,serif" font-size="14.00">movs &#160;&#160;r6, #48 &#160;&#160;; 0x30</text>
<text text-anchor="middle" x="154" y="-245.8" font-family="Times,serif" font-size="14.00">movs &#160;&#160;r6, #32</text>
</g>
<!-- _1A34_1A46_1A4A -->
<g id="node3" class="node"><title>_1A34_1A46_1A4A</title>
<polygon fill="none" stroke="black" points="264.5,-179.5 147.5,-179.5 147.5,-126.5 264.5,-126.5 264.5,-179.5"/>
<text text-anchor="middle" x="206" y="-164.3" font-family="Times,serif" font-size="14.00">beq 1a46</text>
<text text-anchor="middle" x="206" y="-149.3" font-family="Times,serif" font-size="14.00">subs &#160;&#160;r5, #1</text>
<text text-anchor="middle" x="206" y="-134.3" font-family="Times,serif" font-size="14.00">pop &#160;&#160;r4, r5, r6, pc</text>
</g>
<!-- _1A20_1A24_1A28_1A2C_1A30&#45;&gt;_1A34_1A46_1A4A -->
<g id="edge4" class="edge"><title>_1A20_1A24_1A28_1A2C_1A30&#45;&gt;_1A34_1A46_1A4A</title>
<path fill="none" stroke="blue" d="M171.027,-237.734C177.587,-222.027 185.016,-204.24 191.335,-189.112"/>
<polygon fill="blue" stroke="blue" points="194.682,-190.18 195.306,-179.603 188.223,-187.482 194.682,-190.18"/>
<text text-anchor="middle" x="194.5" y="-208.8" font-family="Times,serif" font-size="14.00">EQ</text>
</g>
<!-- _1A20_1A24_1A28_1A2C_1A30&#45;&gt;_1A38_1A3C_1A40_1A44 -->
<g id="edge3" class="edge"><title>_1A20_1A24_1A28_1A2C_1A30&#45;&gt;_1A38_1A3C_1A40_1A44</title>
<path fill="none" stroke="red" d="M127.805,-237.734C119.207,-224.354 109.64,-209.465 100.985,-195.995"/>
<polygon fill="red" stroke="red" points="103.799,-193.9 95.4484,-187.379 97.9098,-197.684 103.799,-193.9"/>
<text text-anchor="middle" x="126.5" y="-208.8" font-family="Times,serif" font-size="14.00">NE</text>
</g>
<!-- _1A38_1A3C_1A40_1A44&#45;&gt;_1A48 -->
<g id="edge5" class="edge"><title>_1A38_1A3C_1A40_1A44&#45;&gt;_1A48</title>
<path fill="none" stroke="blue" d="M62.9706,-187.254C59.4788,-197.737 55.5929,-209.357 52,-220 48.5091,-230.34 44.6361,-241.695 41.2353,-251.628"/>
<polygon fill="blue" stroke="blue" points="37.8306,-250.767 37.898,-261.361 44.4522,-253.037 37.8306,-250.767"/>
<text text-anchor="middle" x="78" y="-208.8" font-family="Times,serif" font-size="14.00">NE, PL</text>
</g>
<!-- _1A4C_1A50_1A54_1A58 -->
<g id="node5" class="node"><title>_1A4C_1A50_1A54_1A58</title>
<polygon fill="none" stroke="black" points="133,-68 15,-68 15,-0 133,-0 133,-68"/>
<text text-anchor="middle" x="74" y="-52.8" font-family="Times,serif" font-size="14.00">push &#160;&#160;r4, r5, r6, lr</text>
<text text-anchor="middle" x="74" y="-37.8" font-family="Times,serif" font-size="14.00">ldr &#160;&#160;r5, [r0, #24]</text>
<text text-anchor="middle" x="74" y="-22.8" font-family="Times,serif" font-size="14.00">lsls &#160;&#160;r0, r0, #31</text>
<text text-anchor="middle" x="74" y="-7.8" font-family="Times,serif" font-size="14.00">pop &#160;&#160;r4, r5, r6, pc</text>
</g>
<!-- _1A38_1A3C_1A40_1A44&#45;&gt;_1A4C_1A50_1A54_1A58 -->
<g id="edge1" class="edge"><title>_1A38_1A3C_1A40_1A44&#45;&gt;_1A4C_1A50_1A54_1A58</title>
<path fill="none" stroke="red" d="M74,-118.785C74,-106.311 74,-91.9377 74,-78.657"/>
<polygon fill="red" stroke="red" points="77.5001,-78.2976 74,-68.2976 70.5001,-78.2976 77.5001,-78.2976"/>
<text text-anchor="middle" x="95.5" y="-89.8" font-family="Times,serif" font-size="14.00">NE, MI</text>
</g>
</g>
</svg>
