<?xml version="1.0" encoding="UTF-8" standalone="no"?>
<!DOCTYPE svg PUBLIC "-//W3C//DTD SVG 1.1//EN"
 "http://www.w3.org/Graphics/SVG/1.1/DTD/svg11.dtd">
<!-- Generated by graphviz version 2.38.0 (20140413.2041)
 -->
<!-- Title: G Pages: 1 -->
<svg width="177pt" height="118pt"
 viewBox="0.00 0.00 177.00 118.00" xmlns="http://www.w3.org/2000/svg" xmlns:xlink="http://www.w3.org/1999/xlink">
<g id="graph0" class="graph" transform="scale(1 1) rotate(0) translate(4 114)">
<title>G</title>
<polygon fill="white" stroke="none" points="-4,4 -4,-114 173,-114 173,4 -4,4"/>
<!-- _19CC -->
<g id="node1" class="node"><title>_19CC</title>
<polygon fill="none" stroke="black" points="111.5,-36 57.5,-36 57.5,-0 111.5,-0 111.5,-36"/>
<text text-anchor="middle" x="84.5" y="-14.3" font-family="Times,serif" font-size="14.00">b 19cc</text>
</g>
<!-- _19CC&#45;&gt;_19CC -->
<g id="edge1" class="edge"><title>_19CC&#45;&gt;_19CC</title>
<path fill="none" stroke="red" d="M111.741,-31.4868C121.524,-31.7769 129.5,-27.2812 129.5,-18 129.5,-12.1992 126.384,-8.26783 121.659,-6.20583"/>
<polygon fill="red" stroke="red" points="122.187,-2.74541 111.741,-4.51318 121.009,-9.64565 122.187,-2.74541"/>
</g>
<!-- _19C4_19C8 -->
<g id="node2" class="node"><title>_19C4_19C8</title>
<polygon fill="none" stroke="black" points="169,-110 0,-110 0,-72 169,-72 169,-110"/>
<text text-anchor="middle" x="84.5" y="-94.8" font-family="Times,serif" font-size="14.00">ldr &#160;&#160;r0, [pc, #28] &#160;&#160;; (19e4 )</text>
<text text-anchor="middle" x="84.5" y="-79.8" font-family="Times,serif" font-size="14.00">ldr &#160;&#160;r0, [pc, #28] &#160;&#160;; (19e8 )</text>
</g>
<!-- _19C4_19C8&#45;&gt;_19CC -->
<g id="edge2" class="edge"><title>_19C4_19C8&#45;&gt;_19CC</title>
<path fill="none" stroke="red" d="M84.5,-71.7157C84.5,-63.9733 84.5,-54.7894 84.5,-46.2737"/>
<polygon fill="red" stroke="red" points="88.0001,-46.0034 84.5,-36.0034 81.0001,-46.0035 88.0001,-46.0034"/>
</g>
</g>
</svg>
