<?xml version="1.0" encoding="UTF-8" standalone="no"?>
<!DOCTYPE svg PUBLIC "-//W3C//DTD SVG 1.1//EN"
 "http://www.w3.org/Graphics/SVG/1.1/DTD/svg11.dtd">
<!-- Generated by graphviz version 2.38.0 (20140413.2041)
 -->
<!-- Title: G Pages: 1 -->
<svg width="191pt" height="299pt"
 viewBox="0.00 0.00 190.50 299.00" xmlns="http://www.w3.org/2000/svg" xmlns:xlink="http://www.w3.org/1999/xlink">
<g id="graph0" class="graph" transform="scale(1 1) rotate(0) translate(4 295)">
<title>G</title>
<polygon fill="white" stroke="none" points="-4,4 -4,-295 186.5,-295 186.5,4 -4,4"/>
<!-- _18C_190 -->
<g id="node1" class="node"><title>_18C_190</title>
<polygon fill="none" stroke="black" points="105,-127 13,-127 13,-89 105,-89 105,-127"/>
<text text-anchor="middle" x="59" y="-111.8" font-family="Times,serif" font-size="14.00">stmia &#160;&#160;r5!, r0</text>
<text text-anchor="middle" x="59" y="-96.8" font-family="Times,serif" font-size="14.00">b 19a</text>
</g>
<!-- _19A_19E -->
<g id="node4" class="node"><title>_19A_19E</title>
<polygon fill="none" stroke="black" points="117.5,-38 0.5,-38 0.5,-0 117.5,-0 117.5,-38"/>
<text text-anchor="middle" x="59" y="-22.8" font-family="Times,serif" font-size="14.00">subs &#160;&#160;r6, r6, #1</text>
<text text-anchor="middle" x="59" y="-7.8" font-family="Times,serif" font-size="14.00">pop &#160;&#160;r4, r5, r6, pc</text>
</g>
<!-- _18C_190&#45;&gt;_19A_19E -->
<g id="edge2" class="edge"><title>_18C_190&#45;&gt;_19A_19E</title>
<path fill="none" stroke="red" d="M59,-88.9735C59,-77.1918 59,-61.5607 59,-48.1581"/>
<polygon fill="red" stroke="red" points="62.5001,-48.0033 59,-38.0034 55.5001,-48.0034 62.5001,-48.0033"/>
<text text-anchor="middle" x="67.5" y="-59.8" font-family="Times,serif" font-size="14.00">CS</text>
</g>
<!-- _188 -->
<g id="node2" class="node"><title>_188</title>
<polygon fill="none" stroke="black" points="182.5,-126 123.5,-126 123.5,-90 182.5,-90 182.5,-126"/>
<text text-anchor="middle" x="153" y="-104.3" font-family="Times,serif" font-size="14.00">bcc 19a</text>
</g>
<!-- _188&#45;&gt;_19A_19E -->
<g id="edge3" class="edge"><title>_188&#45;&gt;_19A_19E</title>
<path fill="none" stroke="blue" d="M134.429,-89.8116C120.669,-77.0763 101.701,-59.5216 86.2297,-45.2019"/>
<polygon fill="blue" stroke="blue" points="88.2201,-42.2751 78.5036,-38.0512 83.4653,-47.4124 88.2201,-42.2751"/>
<text text-anchor="middle" x="120.5" y="-59.8" font-family="Times,serif" font-size="14.00">CC</text>
</g>
<!-- _168_16C_170_178_17C_180_184 -->
<g id="node3" class="node"><title>_168_16C_170_178_17C_180_184</title>
<polygon fill="none" stroke="black" points="118,-291 0,-291 0,-178 118,-178 118,-291"/>
<text text-anchor="middle" x="59" y="-275.8" font-family="Times,serif" font-size="14.00">push &#160;&#160;r4, r5, r6, lr</text>
<text text-anchor="middle" x="59" y="-260.8" font-family="Times,serif" font-size="14.00">mov &#160;&#160;r4, r1</text>
<text text-anchor="middle" x="59" y="-245.8" font-family="Times,serif" font-size="14.00">b 178</text>
<text text-anchor="middle" x="59" y="-230.8" font-family="Times,serif" font-size="14.00">cmp &#160;&#160;r6, #16</text>
<text text-anchor="middle" x="59" y="-215.8" font-family="Times,serif" font-size="14.00">cmp &#160;&#160;r6, #8</text>
<text text-anchor="middle" x="59" y="-200.8" font-family="Times,serif" font-size="14.00">ldmia &#160;&#160;r4!, r0, r1</text>
<text text-anchor="middle" x="59" y="-185.8" font-family="Times,serif" font-size="14.00">subs &#160;&#160;r6, #8</text>
</g>
<!-- _168_16C_170_178_17C_180_184&#45;&gt;_18C_190 -->
<g id="edge1" class="edge"><title>_168_16C_170_178_17C_180_184&#45;&gt;_18C_190</title>
<path fill="none" stroke="red" d="M59,-177.805C59,-163.826 59,-149.402 59,-137.393"/>
<polygon fill="red" stroke="red" points="62.5001,-137.126 59,-127.126 55.5001,-137.126 62.5001,-137.126"/>
<text text-anchor="middle" x="67.5" y="-148.8" font-family="Times,serif" font-size="14.00">CS</text>
</g>
<!-- _168_16C_170_178_17C_180_184&#45;&gt;_188 -->
<g id="edge4" class="edge"><title>_168_16C_170_178_17C_180_184&#45;&gt;_188</title>
<path fill="none" stroke="blue" d="M101.051,-177.805C112.49,-162.655 124.324,-146.981 133.802,-134.427"/>
<polygon fill="blue" stroke="blue" points="136.722,-136.368 139.954,-126.278 131.135,-132.15 136.722,-136.368"/>
<text text-anchor="middle" x="134.5" y="-148.8" font-family="Times,serif" font-size="14.00">CC</text>
</g>
</g>
</svg>
