<?xml version="1.0" encoding="UTF-8" standalone="no"?>
<!DOCTYPE svg PUBLIC "-//W3C//DTD SVG 1.1//EN"
 "http://www.w3.org/Graphics/SVG/1.1/DTD/svg11.dtd">
<!-- Generated by graphviz version 2.38.0 (20140413.2041)
 -->
<!-- Title: G Pages: 1 -->
<svg width="326pt" height="533pt"
 viewBox="0.00 0.00 325.50 533.00" xmlns="http://www.w3.org/2000/svg" xmlns:xlink="http://www.w3.org/1999/xlink">
<g id="graph0" class="graph" transform="scale(1 1) rotate(0) translate(4 529)">
<title>G</title>
<polygon fill="white" stroke="none" points="-4,4 -4,-529 321.5,-529 321.5,4 -4,4"/>
<!-- _2348 -->
<g id="node1" class="node"><title>_2348</title>
<polygon fill="none" stroke="black" points="233,-421 132,-421 132,-385 233,-385 233,-421"/>
<text text-anchor="middle" x="182.5" y="-399.3" font-family="Times,serif" font-size="14.00">str &#160;&#160;r0, [r2, #4]</text>
</g>
<!-- _234C -->
<g id="node2" class="node"><title>_234C</title>
<polygon fill="none" stroke="black" points="234,-334 131,-334 131,-298 234,-298 234,-334"/>
<text text-anchor="middle" x="182.5" y="-312.3" font-family="Times,serif" font-size="14.00">ldr &#160;&#160;r0, [r2, #4]</text>
</g>
<!-- _2348&#45;&gt;_234C -->
<g id="edge4" class="edge"><title>_2348&#45;&gt;_234C</title>
<path fill="none" stroke="red" d="M182.5,-384.799C182.5,-373.163 182.5,-357.548 182.5,-344.237"/>
<polygon fill="red" stroke="red" points="186,-344.175 182.5,-334.175 179,-344.175 186,-344.175"/>
<text text-anchor="middle" x="192" y="-355.8" font-family="Times,serif" font-size="14.00">NE</text>
</g>
<!-- _2350 -->
<g id="node3" class="node"><title>_2350</title>
<polygon fill="none" stroke="black" points="67,-223.5 0,-223.5 0,-187.5 67,-187.5 67,-223.5"/>
<text text-anchor="middle" x="33.5" y="-201.8" font-family="Times,serif" font-size="14.00">beq 2368</text>
</g>
<!-- _234C&#45;&gt;_2350 -->
<g id="edge1" class="edge"><title>_234C&#45;&gt;_2350</title>
<path fill="none" stroke="blue" d="M152.719,-297.923C130.908,-284.939 100.971,-266.107 76.5,-247 70.276,-242.14 63.906,-236.54 58.0408,-231.084"/>
<polygon fill="blue" stroke="blue" points="60.0703,-228.183 50.4169,-223.817 55.2406,-233.25 60.0703,-228.183"/>
<text text-anchor="middle" x="132" y="-268.8" font-family="Times,serif" font-size="14.00">EQ</text>
</g>
<!-- _2354_2358_235C_2360_2364 -->
<g id="node4" class="node"><title>_2354_2358_235C_2360_2364</title>
<polygon fill="none" stroke="black" points="279.5,-247 85.5,-247 85.5,-164 279.5,-164 279.5,-247"/>
<text text-anchor="middle" x="182.5" y="-231.8" font-family="Times,serif" font-size="14.00">orrs &#160;&#160;r0, r3</text>
<text text-anchor="middle" x="182.5" y="-216.8" font-family="Times,serif" font-size="14.00">ldr &#160;&#160;r0, [r2, #4]</text>
<text text-anchor="middle" x="182.5" y="-201.8" font-family="Times,serif" font-size="14.00">lsls &#160;&#160;r0, r0, #2</text>
<text text-anchor="middle" x="182.5" y="-186.8" font-family="Times,serif" font-size="14.00">movs &#160;&#160;r2, #64 &#160;&#160;; =0x40 (IRQ0)</text>
<text text-anchor="middle" x="182.5" y="-171.8" font-family="Times,serif" font-size="14.00">str &#160;&#160;r0, [r1, #0]</text>
</g>
<!-- _234C&#45;&gt;_2354_2358_235C_2360_2364 -->
<g id="edge2" class="edge"><title>_234C&#45;&gt;_2354_2358_235C_2360_2364</title>
<path fill="none" stroke="red" d="M182.5,-297.568C182.5,-286.674 182.5,-272.029 182.5,-257.673"/>
<polygon fill="red" stroke="red" points="186,-257.328 182.5,-247.328 179,-257.328 186,-257.328"/>
<text text-anchor="middle" x="192" y="-268.8" font-family="Times,serif" font-size="14.00">NE</text>
</g>
<!-- _2368_236C_2356_235A_235E_2362_2366 -->
<g id="node7" class="node"><title>_2368_236C_2356_235A_235E_2362_2366</title>
<polygon fill="none" stroke="black" points="267.5,-113 97.5,-113 97.5,-0 267.5,-0 267.5,-113"/>
<text text-anchor="middle" x="182.5" y="-97.8" font-family="Times,serif" font-size="14.00">ldr &#160;&#160;r0, [r1, #12]</text>
<text text-anchor="middle" x="182.5" y="-82.8" font-family="Times,serif" font-size="14.00">b 2356</text>
<text text-anchor="middle" x="182.5" y="-67.8" font-family="Times,serif" font-size="14.00">str &#160;&#160;r0, [r1, #12]</text>
<text text-anchor="middle" x="182.5" y="-52.8" font-family="Times,serif" font-size="14.00">ldr &#160;&#160;r2, [pc, #28] &#160;&#160;; (2378 )</text>
<text text-anchor="middle" x="182.5" y="-37.8" font-family="Times,serif" font-size="14.00">ldr &#160;&#160;r0, [r2, r0]</text>
<text text-anchor="middle" x="182.5" y="-22.8" font-family="Times,serif" font-size="14.00">orrs &#160;&#160;r0, r2</text>
<text text-anchor="middle" x="182.5" y="-7.8" font-family="Times,serif" font-size="14.00">bx &#160;&#160;lr</text>
</g>
<!-- _2350&#45;&gt;_2368_236C_2356_235A_235E_2362_2366 -->
<g id="edge6" class="edge"><title>_2350&#45;&gt;_2368_236C_2356_235A_235E_2362_2366</title>
<path fill="none" stroke="blue" d="M50.8838,-187.35C67.6525,-170.806 94.0695,-144.744 118.85,-120.296"/>
<polygon fill="blue" stroke="blue" points="121.469,-122.628 126.13,-113.114 116.553,-117.645 121.469,-122.628"/>
<text text-anchor="middle" x="118" y="-134.8" font-family="Times,serif" font-size="14.00">EQ</text>
</g>
<!-- _2354_2358_235C_2360_2364&#45;&gt;_2368_236C_2356_235A_235E_2362_2366 -->
<g id="edge3" class="edge"><title>_2354_2358_235C_2360_2364&#45;&gt;_2368_236C_2356_235A_235E_2362_2366</title>
<path fill="none" stroke="red" d="M182.5,-163.942C182.5,-151.291 182.5,-136.998 182.5,-123.088"/>
<polygon fill="red" stroke="red" points="186,-123.056 182.5,-113.056 179,-123.056 186,-123.056"/>
</g>
<!-- _2344 -->
<g id="node5" class="node"><title>_2344</title>
<polygon fill="none" stroke="black" points="317.5,-421 251.5,-421 251.5,-385 317.5,-385 317.5,-421"/>
<text text-anchor="middle" x="284.5" y="-399.3" font-family="Times,serif" font-size="14.00">beq 234c</text>
</g>
<!-- _2344&#45;&gt;_234C -->
<g id="edge5" class="edge"><title>_2344&#45;&gt;_234C</title>
<path fill="none" stroke="blue" d="M263.859,-384.799C248.651,-372.126 227.78,-354.734 210.985,-340.738"/>
<polygon fill="blue" stroke="blue" points="213.033,-337.889 203.111,-334.175 208.552,-343.266 213.033,-337.889"/>
<text text-anchor="middle" x="249" y="-355.8" font-family="Times,serif" font-size="14.00">EQ</text>
</g>
<!-- _2338_233C_2340 -->
<g id="node6" class="node"><title>_2338_233C_2340</title>
<polygon fill="none" stroke="black" points="267.5,-525 97.5,-525 97.5,-472 267.5,-472 267.5,-525"/>
<text text-anchor="middle" x="182.5" y="-509.8" font-family="Times,serif" font-size="14.00">ldr &#160;&#160;r2, [pc, #52] &#160;&#160;; (2370 )</text>
<text text-anchor="middle" x="182.5" y="-494.8" font-family="Times,serif" font-size="14.00">strb &#160;&#160;r1, [r2, #1]</text>
<text text-anchor="middle" x="182.5" y="-479.8" font-family="Times,serif" font-size="14.00">ldr &#160;&#160;r1, [pc, #48] &#160;&#160;; (2374 )</text>
</g>
<!-- _2338_233C_2340&#45;&gt;_2348 -->
<g id="edge8" class="edge"><title>_2338_233C_2340&#45;&gt;_2348</title>
<path fill="none" stroke="red" d="M182.5,-471.951C182.5,-459.363 182.5,-444.173 182.5,-431.35"/>
<polygon fill="red" stroke="red" points="186,-431.245 182.5,-421.245 179,-431.245 186,-431.245"/>
<text text-anchor="middle" x="192" y="-442.8" font-family="Times,serif" font-size="14.00">NE</text>
</g>
<!-- _2338_233C_2340&#45;&gt;_2344 -->
<g id="edge7" class="edge"><title>_2338_233C_2340&#45;&gt;_2344</title>
<path fill="none" stroke="blue" d="M210.372,-471.951C225.203,-458.356 243.345,-441.726 257.969,-428.321"/>
<polygon fill="blue" stroke="blue" points="260.681,-430.582 265.688,-421.245 255.951,-425.422 260.681,-430.582"/>
<text text-anchor="middle" x="255" y="-442.8" font-family="Times,serif" font-size="14.00">EQ</text>
</g>
</g>
</svg>
