<?xml version="1.0" encoding="UTF-8" standalone="no"?>
<!DOCTYPE svg PUBLIC "-//W3C//DTD SVG 1.1//EN"
 "http://www.w3.org/Graphics/SVG/1.1/DTD/svg11.dtd">
<!-- Generated by graphviz version 2.38.0 (20140413.2041)
 -->
<!-- Title: G Pages: 1 -->
<svg width="688pt" height="2982pt"
 viewBox="0.00 0.00 688.00 2982.00" xmlns="http://www.w3.org/2000/svg" xmlns:xlink="http://www.w3.org/1999/xlink">
<g id="graph0" class="graph" transform="scale(1 1) rotate(0) translate(4 2978)">
<title>G</title>
<polygon fill="white" stroke="none" points="-4,4 -4,-2978 684,-2978 684,4 -4,4"/>
<!-- _CC04_CC08 -->
<g id="node1" class="node"><title>_CC04_CC08</title>
<polygon fill="none" stroke="black" points="482,-2974 394,-2974 394,-2936 482,-2936 482,-2974"/>
<text text-anchor="middle" x="438" y="-2958.8" font-family="Times,serif" font-size="14.00">movs &#160;&#160;r0, r1</text>
<text text-anchor="middle" x="438" y="-2943.8" font-family="Times,serif" font-size="14.00">movs &#160;&#160;r0, r1</text>
</g>
<!-- _CC0C -->
<g id="node2" class="node"><title>_CC0C</title>
<polygon fill="none" stroke="black" points="469,-2884 407,-2884 407,-2848 469,-2848 469,-2884"/>
<text text-anchor="middle" x="438" y="-2862.3" font-family="Times,serif" font-size="14.00">bls cb5c</text>
</g>
<!-- _CC04_CC08&#45;&gt;_CC0C -->
<g id="edge23" class="edge"><title>_CC04_CC08&#45;&gt;_CC0C</title>
<path fill="none" stroke="red" d="M438,-2935.97C438,-2923.96 438,-2907.93 438,-2894.36"/>
<polygon fill="red" stroke="red" points="441.5,-2894.12 438,-2884.12 434.5,-2894.12 441.5,-2894.12"/>
<text text-anchor="middle" x="446" y="-2906.8" font-family="Times,serif" font-size="14.00">LS</text>
</g>
<!-- _CC10_CC14 -->
<g id="node3" class="node"><title>_CC10_CC14</title>
<polygon fill="none" stroke="black" points="303,-2885 215,-2885 215,-2847 303,-2847 303,-2885"/>
<text text-anchor="middle" x="259" y="-2869.8" font-family="Times,serif" font-size="14.00">movs &#160;&#160;r5, r0</text>
<text text-anchor="middle" x="259" y="-2854.8" font-family="Times,serif" font-size="14.00">movs &#160;&#160;r5, r0</text>
</g>
<!-- _CC04_CC08&#45;&gt;_CC10_CC14 -->
<g id="edge12" class="edge"><title>_CC04_CC08&#45;&gt;_CC10_CC14</title>
<path fill="none" stroke="red" d="M400.911,-2935.97C373.19,-2922.5 335.112,-2903.99 305.378,-2889.54"/>
<polygon fill="red" stroke="red" points="306.565,-2886.23 296.041,-2885 303.505,-2892.52 306.565,-2886.23"/>
<text text-anchor="middle" x="367.5" y="-2906.8" font-family="Times,serif" font-size="14.00">HI</text>
</g>
<!-- _CB5C_CB60_CB64_CB68_CB6C_CB70_CB74 -->
<g id="node13" class="node"><title>_CB5C_CB60_CB64_CB68_CB6C_CB70_CB74</title>
<polygon fill="none" stroke="black" points="568,-2796 308,-2796 308,-2683 568,-2683 568,-2796"/>
<text text-anchor="middle" x="438" y="-2780.8" font-family="Times,serif" font-size="14.00">strb &#160;&#160;r3, [r2, #21]</text>
<text text-anchor="middle" x="438" y="-2765.8" font-family="Times,serif" font-size="14.00">ldr &#160;&#160;r2, [r6, #20]</text>
<text text-anchor="middle" x="438" y="-2750.8" font-family="Times,serif" font-size="14.00">ldr &#160;&#160;r5, [r0, #100] &#160;&#160;; 0x64: pointer to 0x1b3</text>
<text text-anchor="middle" x="438" y="-2735.8" font-family="Times,serif" font-size="14.00">str &#160;&#160;r7, [r4, #84] &#160;&#160;; 0x54: pointer to 0x1b3</text>
<text text-anchor="middle" x="438" y="-2720.8" font-family="Times,serif" font-size="14.00">ldr &#160;&#160;r5, [r0, #100] &#160;&#160;; 0x64: pointer to 0x1b3</text>
<text text-anchor="middle" x="438" y="-2705.8" font-family="Times,serif" font-size="14.00">str &#160;&#160;r7, [r4, #84] &#160;&#160;; 0x54: pointer to 0x1b3</text>
<text text-anchor="middle" x="438" y="-2690.8" font-family="Times,serif" font-size="14.00">movs &#160;&#160;r0, r7</text>
</g>
<!-- _CC0C&#45;&gt;_CB5C_CB60_CB64_CB68_CB6C_CB70_CB74 -->
<g id="edge24" class="edge"><title>_CC0C&#45;&gt;_CB5C_CB60_CB64_CB68_CB6C_CB70_CB74</title>
<path fill="none" stroke="red" d="M438,-2847.95C438,-2836.91 438,-2821.77 438,-2806.33"/>
<polygon fill="red" stroke="red" points="441.5,-2806.18 438,-2796.18 434.5,-2806.18 441.5,-2806.18"/>
<text text-anchor="middle" x="446" y="-2817.8" font-family="Times,serif" font-size="14.00">LS</text>
</g>
<!-- _CC18 -->
<g id="node4" class="node"><title>_CC18</title>
<polygon fill="none" stroke="black" points="290,-2757.5 228,-2757.5 228,-2721.5 290,-2721.5 290,-2757.5"/>
<text text-anchor="middle" x="259" y="-2735.8" font-family="Times,serif" font-size="14.00">bls cb78</text>
</g>
<!-- _CC10_CC14&#45;&gt;_CC18 -->
<g id="edge22" class="edge"><title>_CC10_CC14&#45;&gt;_CC18</title>
<path fill="none" stroke="red" d="M259,-2846.9C259,-2826.19 259,-2792.07 259,-2768.06"/>
<polygon fill="red" stroke="red" points="262.5,-2767.82 259,-2757.82 255.5,-2767.82 262.5,-2767.82"/>
<text text-anchor="middle" x="267" y="-2817.8" font-family="Times,serif" font-size="14.00">LS</text>
</g>
<!-- _CC1C_CC20_CC28_CC2C_CC34_CC38_CC40 -->
<g id="node5" class="node"><title>_CC1C_CC20_CC28_CC2C_CC34_CC38_CC40</title>
<polygon fill="none" stroke="black" points="196.5,-2665 99.5,-2665 99.5,-2552 196.5,-2552 196.5,-2665"/>
<text text-anchor="middle" x="148" y="-2649.8" font-family="Times,serif" font-size="14.00">movs &#160;&#160;r0, r2</text>
<text text-anchor="middle" x="148" y="-2634.8" font-family="Times,serif" font-size="14.00">movs &#160;&#160;r0, r4</text>
<text text-anchor="middle" x="148" y="-2619.8" font-family="Times,serif" font-size="14.00">movs &#160;&#160;r0, r2</text>
<text text-anchor="middle" x="148" y="-2604.8" font-family="Times,serif" font-size="14.00">movs &#160;&#160;r0, r4</text>
<text text-anchor="middle" x="148" y="-2589.8" font-family="Times,serif" font-size="14.00">movs &#160;&#160;r0, r4</text>
<text text-anchor="middle" x="148" y="-2574.8" font-family="Times,serif" font-size="14.00">movs &#160;&#160;r0, r4</text>
<text text-anchor="middle" x="148" y="-2559.8" font-family="Times,serif" font-size="14.00">lsls &#160;&#160;r4, r1, #1</text>
</g>
<!-- _CC10_CC14&#45;&gt;_CC1C_CC20_CC28_CC2C_CC34_CC38_CC40 -->
<g id="edge25" class="edge"><title>_CC10_CC14&#45;&gt;_CC1C_CC20_CC28_CC2C_CC34_CC38_CC40</title>
<path fill="none" stroke="red" d="M247.477,-2846.99C238.999,-2833.31 227.515,-2813.88 219,-2796 200.262,-2756.66 182.8,-2710.97 169.882,-2674.65"/>
<polygon fill="red" stroke="red" points="173.158,-2673.42 166.53,-2665.15 166.557,-2675.75 173.158,-2673.42"/>
<text text-anchor="middle" x="244.5" y="-2817.8" font-family="Times,serif" font-size="14.00">HI</text>
</g>
<!-- _CB78_CB7C_CB80_CB84_CB8C_CB90_CB98_CB9C_CBA4_CBA8_CBB0_CBB4_CBBC_CBC0 -->
<g id="node15" class="node"><title>_CB78_CB7C_CB80_CB84_CB8C_CB90_CB98_CB9C_CBA4_CBA8_CBB0_CBB4_CBBC_CBC0</title>
<polygon fill="none" stroke="black" points="440,-2534 290,-2534 290,-2316 440,-2316 440,-2534"/>
<text text-anchor="middle" x="365" y="-2518.8" font-family="Times,serif" font-size="14.00">movs &#160;&#160;r4, r4</text>
<text text-anchor="middle" x="365" y="-2503.8" font-family="Times,serif" font-size="14.00">ldmia &#160;&#160;r1!, r2, r3, r4, r6</text>
<text text-anchor="middle" x="365" y="-2488.8" font-family="Times,serif" font-size="14.00">lsls &#160;&#160;r2, r2, #1</text>
<text text-anchor="middle" x="365" y="-2473.8" font-family="Times,serif" font-size="14.00">movs &#160;&#160;r7, r1</text>
<text text-anchor="middle" x="365" y="-2458.8" font-family="Times,serif" font-size="14.00">movs &#160;&#160;r4, r6</text>
<text text-anchor="middle" x="365" y="-2443.8" font-family="Times,serif" font-size="14.00">movs &#160;&#160;r6, r1</text>
<text text-anchor="middle" x="365" y="-2428.8" font-family="Times,serif" font-size="14.00">movs &#160;&#160;r4, r6</text>
<text text-anchor="middle" x="365" y="-2413.8" font-family="Times,serif" font-size="14.00">movs &#160;&#160;r6, r1</text>
<text text-anchor="middle" x="365" y="-2398.8" font-family="Times,serif" font-size="14.00">movs &#160;&#160;r4, r3</text>
<text text-anchor="middle" x="365" y="-2383.8" font-family="Times,serif" font-size="14.00">movs &#160;&#160;r2, r1</text>
<text text-anchor="middle" x="365" y="-2368.8" font-family="Times,serif" font-size="14.00">movs &#160;&#160;r7, r2</text>
<text text-anchor="middle" x="365" y="-2353.8" font-family="Times,serif" font-size="14.00">movs &#160;&#160;r7, r0</text>
<text text-anchor="middle" x="365" y="-2338.8" font-family="Times,serif" font-size="14.00">movs &#160;&#160;r6, r5</text>
<text text-anchor="middle" x="365" y="-2323.8" font-family="Times,serif" font-size="14.00">movs &#160;&#160;r4, r1</text>
</g>
<!-- _CC18&#45;&gt;_CB78_CB7C_CB80_CB84_CB8C_CB90_CB98_CB9C_CBA4_CBA8_CBB0_CBB4_CBBC_CBC0 -->
<g id="edge9" class="edge"><title>_CC18&#45;&gt;_CB78_CB7C_CB80_CB84_CB8C_CB90_CB98_CB9C_CBA4_CBA8_CBB0_CBB4_CBBC_CBC0</title>
<path fill="none" stroke="red" d="M264.85,-2721.25C276.247,-2687.65 302.296,-2610.86 324.97,-2544.01"/>
<polygon fill="red" stroke="red" points="328.391,-2544.82 328.289,-2534.23 321.762,-2542.57 328.391,-2544.82"/>
<text text-anchor="middle" x="330" y="-2604.8" font-family="Times,serif" font-size="14.00">LS</text>
</g>
<!-- _CC44_CC4C_CC50_CC54_CC58_CC5C_CC60_CC64_CC68_CC6C_CC70_CC74_CC78_CC7C_CC80_CC84_CC88_CC8C_CC90_CC94_CC98_CC9C_CCA0_CCA4_CCA8_CCAC_CCB0_CCB4_CCB8 -->
<g id="node7" class="node"><title>_CC44_CC4C_CC50_CC54_CC58_CC5C_CC60_CC64_CC68_CC6C_CC70_CC74_CC78_CC7C_CC80_CC84_CC88_CC8C_CC90_CC94_CC98_CC9C_CCA0_CCA4_CCA8_CCAC_CCB0_CCB4_CCB8</title>
<polygon fill="none" stroke="black" points="260,-1778 0,-1778 0,-1335 260,-1335 260,-1778"/>
<text text-anchor="middle" x="130" y="-1762.8" font-family="Times,serif" font-size="14.00">movs &#160;&#160;r4, r1</text>
<text text-anchor="middle" x="130" y="-1747.8" font-family="Times,serif" font-size="14.00">strb &#160;&#160;r1, [r0, #9]</text>
<text text-anchor="middle" x="130" y="-1732.8" font-family="Times,serif" font-size="14.00">ldr &#160;&#160;r1, [r7, #116] &#160;&#160;; 0x74: pointer to 0x1b3</text>
<text text-anchor="middle" x="130" y="-1717.8" font-family="Times,serif" font-size="14.00">strb &#160;&#160;r3, [r6, #21]</text>
<text text-anchor="middle" x="130" y="-1702.8" font-family="Times,serif" font-size="14.00">movs &#160;&#160;r7, r7</text>
<text text-anchor="middle" x="130" y="-1687.8" font-family="Times,serif" font-size="14.00">cmp &#160;&#160;r6, #120 &#160;&#160;; 0x78: pointer to 0x1b3</text>
<text text-anchor="middle" x="130" y="-1672.8" font-family="Times,serif" font-size="14.00">str &#160;&#160;r0, [r5, #20]</text>
<text text-anchor="middle" x="130" y="-1657.8" font-family="Times,serif" font-size="14.00">ldr &#160;&#160;r5, [r4, #68] &#160;&#160;; =0x44 (IRQ1)</text>
<text text-anchor="middle" x="130" y="-1642.8" font-family="Times,serif" font-size="14.00">ldr &#160;&#160;r3, [r0, #4]</text>
<text text-anchor="middle" x="130" y="-1627.8" font-family="Times,serif" font-size="14.00">str &#160;&#160;r6, [r5, #84] &#160;&#160;; 0x54: pointer to 0x1b3</text>
<text text-anchor="middle" x="130" y="-1612.8" font-family="Times,serif" font-size="14.00">movs &#160;&#160;r5, r6</text>
<text text-anchor="middle" x="130" y="-1597.8" font-family="Times,serif" font-size="14.00">ldr &#160;&#160;r1, [r4, #100] &#160;&#160;; 0x64: pointer to 0x1b3</text>
<text text-anchor="middle" x="130" y="-1582.8" font-family="Times,serif" font-size="14.00">movs &#160;&#160;r0, #108 &#160;&#160;; 0x6c: pointer to 0x1b3</text>
<text text-anchor="middle" x="130" y="-1567.8" font-family="Times,serif" font-size="14.00">ldr &#160;&#160;r3, [r0, #4]</text>
<text text-anchor="middle" x="130" y="-1552.8" font-family="Times,serif" font-size="14.00">str &#160;&#160;r6, [r5, #84] &#160;&#160;; 0x54: pointer to 0x1b3</text>
<text text-anchor="middle" x="130" y="-1537.8" font-family="Times,serif" font-size="14.00">movs &#160;&#160;r7, r6</text>
<text text-anchor="middle" x="130" y="-1522.8" font-family="Times,serif" font-size="14.00">ldr &#160;&#160;r1, [r4, #100] &#160;&#160;; 0x64: pointer to 0x1b3</text>
<text text-anchor="middle" x="130" y="-1507.8" font-family="Times,serif" font-size="14.00">movs &#160;&#160;r0, #108 &#160;&#160;; 0x6c: pointer to 0x1b3</text>
<text text-anchor="middle" x="130" y="-1492.8" font-family="Times,serif" font-size="14.00">ldr &#160;&#160;r3, [r0, #4]</text>
<text text-anchor="middle" x="130" y="-1477.8" font-family="Times,serif" font-size="14.00">str &#160;&#160;r6, [r5, #84] &#160;&#160;; 0x54: pointer to 0x1b3</text>
<text text-anchor="middle" x="130" y="-1462.8" font-family="Times,serif" font-size="14.00">movs &#160;&#160;r1, r7</text>
<text text-anchor="middle" x="130" y="-1447.8" font-family="Times,serif" font-size="14.00">ldr &#160;&#160;r1, [r4, #100] &#160;&#160;; 0x64: pointer to 0x1b3</text>
<text text-anchor="middle" x="130" y="-1432.8" font-family="Times,serif" font-size="14.00">adds &#160;&#160;r1, #108 &#160;&#160;; 0x6c: pointer to 0x1b3</text>
<text text-anchor="middle" x="130" y="-1417.8" font-family="Times,serif" font-size="14.00">strb &#160;&#160;r3, [r2, #29]</text>
<text text-anchor="middle" x="130" y="-1402.8" font-family="Times,serif" font-size="14.00">movs &#160;&#160;r0, #104 &#160;&#160;; 0x68: pointer to 0x1b3</text>
<text text-anchor="middle" x="130" y="-1387.8" font-family="Times,serif" font-size="14.00">lsls &#160;&#160;r2, r2, #1</text>
<text text-anchor="middle" x="130" y="-1372.8" font-family="Times,serif" font-size="14.00">strb &#160;&#160;r1, [r4, #13]</text>
<text text-anchor="middle" x="130" y="-1357.8" font-family="Times,serif" font-size="14.00">ldrb &#160;&#160;r4, [r6, #5]</text>
<text text-anchor="middle" x="130" y="-1342.8" font-family="Times,serif" font-size="14.00">cmp &#160;&#160;r0, r0</text>
</g>
<!-- _CC1C_CC20_CC28_CC2C_CC34_CC38_CC40&#45;&gt;_CC44_CC4C_CC50_CC54_CC58_CC5C_CC60_CC64_CC68_CC6C_CC70_CC74_CC78_CC7C_CC80_CC84_CC88_CC8C_CC90_CC94_CC98_CC9C_CCA0_CCA4_CCA8_CCAC_CCB0_CCB4_CCB8 -->
<g id="edge11" class="edge"><title>_CC1C_CC20_CC28_CC2C_CC34_CC38_CC40&#45;&gt;_CC44_CC4C_CC50_CC54_CC58_CC5C_CC60_CC64_CC68_CC6C_CC70_CC74_CC78_CC7C_CC80_CC84_CC88_CC8C_CC90_CC94_CC98_CC9C_CCA0_CCA4_CCA8_CCAC_CCB0_CCB4_CCB8</title>
<path fill="none" stroke="red" d="M143.197,-2551.89C138.17,-2488.81 131,-2382.84 131,-2291.5 131,-2291.5 131,-2291.5 131,-1847 131,-1827.97 130.978,-1808.24 130.941,-1788.44"/>
<polygon fill="red" stroke="red" points="134.441,-1788.39 130.921,-1778.39 127.441,-1788.4 134.441,-1788.39"/>
</g>
<!-- _CBC4 -->
<g id="node6" class="node"><title>_CBC4</title>
<polygon fill="none" stroke="black" points="298,-2264 160,-2264 160,-2228 298,-2228 298,-2264"/>
<text text-anchor="middle" x="229" y="-2242.3" font-family="Times,serif" font-size="14.00">bvc.n &#160;&#160;<a xlink:href="sub_0000cbf8.htm" style="fill: blue" xlink:show="new" target="_top">arrow_gfx</a> &#160;&#160;</text>
</g>
<!-- _CCBC_CCC0 -->
<g id="node8" class="node"><title>_CCBC_CCC0</title>
<polygon fill="none" stroke="black" points="342,-1298 234,-1298 234,-1260 342,-1260 342,-1298"/>
<text text-anchor="middle" x="288" y="-1282.8" font-family="Times,serif" font-size="14.00">str &#160;&#160;r6, [r6, #20]</text>
<text text-anchor="middle" x="288" y="-1267.8" font-family="Times,serif" font-size="14.00">lsls &#160;&#160;r2, r6, #1</text>
</g>
<!-- _CC44_CC4C_CC50_CC54_CC58_CC5C_CC60_CC64_CC68_CC6C_CC70_CC74_CC78_CC7C_CC80_CC84_CC88_CC8C_CC90_CC94_CC98_CC9C_CCA0_CCA4_CCA8_CCAC_CCB0_CCB4_CCB8&#45;&gt;_CCBC_CCC0 -->
<g id="edge1" class="edge"><title>_CC44_CC4C_CC50_CC54_CC58_CC5C_CC60_CC64_CC68_CC6C_CC70_CC74_CC78_CC7C_CC80_CC84_CC88_CC8C_CC90_CC94_CC98_CC9C_CCA0_CCA4_CCA8_CCAC_CCB0_CCB4_CCB8&#45;&gt;_CCBC_CCC0</title>
<path fill="none" stroke="red" d="M256.595,-1334.76C262.61,-1324.27 268.038,-1314.81 272.624,-1306.81"/>
<polygon fill="red" stroke="red" points="275.666,-1308.54 277.605,-1298.13 269.593,-1305.06 275.666,-1308.54"/>
</g>
<!-- _CCC4_CCC8_CCCC_CCD0_CCD4_CCD8_CCDC_CCE0_CCE4_CCE8_CCEC_CCF0_CCF4_CCF8_CCFC_CD00_CD04_CD08_CD0C_CD10_CD14_CD18_CD1C_CD20_CD24_CD28_CD2C_CD30_CD34_CD38_CD3C_CD40_CD44_CD48_CD4C_CD50_CD54_CD58_CD5C_CD60_CD64_CD68_CD6C_CD70_CD74_CD78_CD7C_CD80_CD84_CD88_CD8C_CD90_CD94_CD98_CD9C_CDA0_CDA4_CDA8_CDAC_CDB0_CDB4_CDB8_CDBC_CDC0_CDC4_CDC8_CDCC_CDD0_CDD4_CDD8_CDDC_CDE0_CDE4_CDE8_CDEC_CDF0_CDF4_CDF8_CDFC_CE00_CE04 -->
<g id="node20" class="node"><title>_CCC4_CCC8_CCCC_CCD0_CCD4_CCD8_CCDC_CCE0_CCE4_CCE8_CCEC_CCF0_CCF4_CCF8_CCFC_CD00_CD04_CD08_CD0C_CD10_CD14_CD18_CD1C_CD20_CD24_CD28_CD2C_CD30_CD34_CD38_CD3C_CD40_CD44_CD48_CD4C_CD50_CD54_CD58_CD5C_CD60_CD64_CD68_CD6C_CD70_CD74_CD78_CD7C_CD80_CD84_CD88_CD8C_CD90_CD94_CD98_CD9C_CDA0_CDA4_CDA8_CDAC_CDB0_CDB4_CDB8_CDBC_CDC0_CDC4_CDC8_CDCC_CDD0_CDD4_CDD8_CDDC_CDE0_CDE4_CDE8_CDEC_CDF0_CDF4_CDF8_CDFC_CE00_CE04</title>
<polygon fill="none" stroke="black" points="431.5,-1223 144.5,-1223 144.5,-0 431.5,-0 431.5,-1223"/>
<text text-anchor="middle" x="288" y="-1207.8" font-family="Times,serif" font-size="14.00">ldr &#160;&#160;r1, [r4, #68] &#160;&#160;; =0x44 (IRQ1)</text>
<text text-anchor="middle" x="288" y="-1192.8" font-family="Times,serif" font-size="14.00">strb &#160;&#160;r1, [r4, #17]</text>
<text text-anchor="middle" x="288" y="-1177.8" font-family="Times,serif" font-size="14.00">ldrb &#160;&#160;r5, [r4, #1]</text>
<text text-anchor="middle" x="288" y="-1162.8" font-family="Times,serif" font-size="14.00">ldrsb &#160;&#160;r0, [r0, r0]</text>
<text text-anchor="middle" x="288" y="-1147.8" font-family="Times,serif" font-size="14.00">ldr &#160;&#160;r1, [r4, #20]</text>
<text text-anchor="middle" x="288" y="-1132.8" font-family="Times,serif" font-size="14.00">ldr &#160;&#160;r5, [r4, #100] &#160;&#160;; 0x64: pointer to 0x1b3</text>
<text text-anchor="middle" x="288" y="-1117.8" font-family="Times,serif" font-size="14.00">str &#160;&#160;r4, [r5, #84] &#160;&#160;; 0x54: pointer to 0x1b3</text>
<text text-anchor="middle" x="288" y="-1102.8" font-family="Times,serif" font-size="14.00">ldr &#160;&#160;r5, [r0, #100] &#160;&#160;; 0x64: pointer to 0x1b3</text>
<text text-anchor="middle" x="288" y="-1087.8" font-family="Times,serif" font-size="14.00">ldr &#160;&#160;r0, [r6, #116] &#160;&#160;; 0x74: pointer to 0x1b3</text>
<text text-anchor="middle" x="288" y="-1072.8" font-family="Times,serif" font-size="14.00">strb &#160;&#160;r4, [r6, #13]</text>
<text text-anchor="middle" x="288" y="-1057.8" font-family="Times,serif" font-size="14.00">str &#160;&#160;r1, [r4, #52] &#160;&#160;; 0x34</text>
<text text-anchor="middle" x="288" y="-1042.8" font-family="Times,serif" font-size="14.00">ldrb &#160;&#160;r2, [r6, #5]</text>
<text text-anchor="middle" x="288" y="-1027.8" font-family="Times,serif" font-size="14.00">strb &#160;&#160;r5, [r4, #13]</text>
<text text-anchor="middle" x="288" y="-1012.8" font-family="Times,serif" font-size="14.00">strb &#160;&#160;r0, [r0, r0]</text>
<text text-anchor="middle" x="288" y="-997.8" font-family="Times,serif" font-size="14.00">movs &#160;&#160;r0, #115 &#160;&#160;; 0x73</text>
<text text-anchor="middle" x="288" y="-982.8" font-family="Times,serif" font-size="14.00">ldr &#160;&#160;r4, [r5, #68] &#160;&#160;; =0x44 (IRQ1)</text>
<text text-anchor="middle" x="288" y="-967.8" font-family="Times,serif" font-size="14.00">strb &#160;&#160;r5, [r4, #13]</text>
<text text-anchor="middle" x="288" y="-952.8" font-family="Times,serif" font-size="14.00">str &#160;&#160;r0, [r0, #16]</text>
<text text-anchor="middle" x="288" y="-937.8" font-family="Times,serif" font-size="14.00">strb &#160;&#160;r0, [r4, #0]</text>
<text text-anchor="middle" x="288" y="-922.8" font-family="Times,serif" font-size="14.00">ldr &#160;&#160;r1, [r4, #84] &#160;&#160;; 0x54: pointer to 0x1b3</text>
<text text-anchor="middle" x="288" y="-907.8" font-family="Times,serif" font-size="14.00">strb &#160;&#160;r5, [r4, #9]</text>
<text text-anchor="middle" x="288" y="-892.8" font-family="Times,serif" font-size="14.00">ldr &#160;&#160;r4, [r6, #116] &#160;&#160;; 0x74: pointer to 0x1b3</text>
<text text-anchor="middle" x="288" y="-877.8" font-family="Times,serif" font-size="14.00">str &#160;&#160;r0, [r5, #84] &#160;&#160;; 0x54: pointer to 0x1b3</text>
<text text-anchor="middle" x="288" y="-862.8" font-family="Times,serif" font-size="14.00">str &#160;&#160;r0, [r0, #96] &#160;&#160;; 0x60: pointer to 0x1b3</text>
<text text-anchor="middle" x="288" y="-847.8" font-family="Times,serif" font-size="14.00">ldr &#160;&#160;r4, [r6, #116] &#160;&#160;; 0x74: pointer to 0x1b3</text>
<text text-anchor="middle" x="288" y="-832.8" font-family="Times,serif" font-size="14.00">str &#160;&#160;r0, [r4, #64] &#160;&#160;; =0x40 (IRQ0)</text>
<text text-anchor="middle" x="288" y="-817.8" font-family="Times,serif" font-size="14.00">strb &#160;&#160;r1, [r4, #21]</text>
<text text-anchor="middle" x="288" y="-802.8" font-family="Times,serif" font-size="14.00">str &#160;&#160;r0, [r0, r0]</text>
<text text-anchor="middle" x="288" y="-787.8" font-family="Times,serif" font-size="14.00">strb &#160;&#160;r3, [r6, #13]</text>
<text text-anchor="middle" x="288" y="-772.8" font-family="Times,serif" font-size="14.00">ldr &#160;&#160;r3, [pc, #316] &#160;&#160;; (ce78 )</text>
<text text-anchor="middle" x="288" y="-757.8" font-family="Times,serif" font-size="14.00">ldr &#160;&#160;r4, [r6, #116] &#160;&#160;; 0x74: pointer to 0x1b3</text>
<text text-anchor="middle" x="288" y="-742.8" font-family="Times,serif" font-size="14.00">ldr &#160;&#160;r2, [r6, #116] &#160;&#160;; 0x74: pointer to 0x1b3</text>
<text text-anchor="middle" x="288" y="-727.8" font-family="Times,serif" font-size="14.00">str &#160;&#160;r5, [r4, #68] &#160;&#160;; =0x44 (IRQ1)</text>
<text text-anchor="middle" x="288" y="-712.8" font-family="Times,serif" font-size="14.00">strb &#160;&#160;r1, [r5, #9]</text>
<text text-anchor="middle" x="288" y="-697.8" font-family="Times,serif" font-size="14.00">strb &#160;&#160;r1, [r4, #9]</text>
<text text-anchor="middle" x="288" y="-682.8" font-family="Times,serif" font-size="14.00">str &#160;&#160;r6, [r6, #84] &#160;&#160;; 0x54: pointer to 0x1b3</text>
<text text-anchor="middle" x="288" y="-667.8" font-family="Times,serif" font-size="14.00">mov &#160;&#160;r0, r0</text>
<text text-anchor="middle" x="288" y="-652.8" font-family="Times,serif" font-size="14.00">strh &#160;&#160;r0, [r4, r4]</text>
<text text-anchor="middle" x="288" y="-637.8" font-family="Times,serif" font-size="14.00">mov &#160;&#160;r0, r4</text>
<text text-anchor="middle" x="288" y="-622.8" font-family="Times,serif" font-size="14.00">adds &#160;&#160;r6, #105 &#160;&#160;; 0x69</text>
<text text-anchor="middle" x="288" y="-607.8" font-family="Times,serif" font-size="14.00">adds &#160;&#160;r1, #46 &#160;&#160;; 0x2e</text>
<text text-anchor="middle" x="288" y="-592.8" font-family="Times,serif" font-size="14.00">cmp &#160;&#160;r5, #53 &#160;&#160;; 0x35</text>
<text text-anchor="middle" x="288" y="-577.8" font-family="Times,serif" font-size="14.00">cmp &#160;&#160;r5, #86 &#160;&#160;; 0x56: pointer to 0x0 (Initial_SP)</text>
<text text-anchor="middle" x="288" y="-562.8" font-family="Times,serif" font-size="14.00">adds &#160;&#160;r4, #49 &#160;&#160;; 0x31</text>
<text text-anchor="middle" x="288" y="-547.8" font-family="Times,serif" font-size="14.00">strb &#160;&#160;r1, [r5, #9]</text>
<text text-anchor="middle" x="288" y="-532.8" font-family="Times,serif" font-size="14.00">strb &#160;&#160;r1, [r4, #9]</text>
<text text-anchor="middle" x="288" y="-517.8" font-family="Times,serif" font-size="14.00">strb &#160;&#160;r5, [r6, #1]</text>
<text text-anchor="middle" x="288" y="-502.8" font-family="Times,serif" font-size="14.00">str &#160;&#160;r4, [r6, #84] &#160;&#160;; 0x54: pointer to 0x1b3</text>
<text text-anchor="middle" x="288" y="-487.8" font-family="Times,serif" font-size="14.00">ldr &#160;&#160;r0, [r5, #20]</text>
<text text-anchor="middle" x="288" y="-472.8" font-family="Times,serif" font-size="14.00">ldr &#160;&#160;r7, [r6, #20]</text>
<text text-anchor="middle" x="288" y="-457.8" font-family="Times,serif" font-size="14.00">str &#160;&#160;r0, [r4, #80] &#160;&#160;; 0x50: pointer to 0x1b3</text>
<text text-anchor="middle" x="288" y="-442.8" font-family="Times,serif" font-size="14.00">strb &#160;&#160;r5, [r4, #9]</text>
<text text-anchor="middle" x="288" y="-427.8" font-family="Times,serif" font-size="14.00">strb &#160;&#160;r1, [r5, #9]</text>
<text text-anchor="middle" x="288" y="-412.8" font-family="Times,serif" font-size="14.00">strb &#160;&#160;r1, [r4, #9]</text>
<text text-anchor="middle" x="288" y="-397.8" font-family="Times,serif" font-size="14.00">strb &#160;&#160;r5, [r6, #1]</text>
<text text-anchor="middle" x="288" y="-382.8" font-family="Times,serif" font-size="14.00">str &#160;&#160;r4, [r6, #84] &#160;&#160;; 0x54: pointer to 0x1b3</text>
<text text-anchor="middle" x="288" y="-367.8" font-family="Times,serif" font-size="14.00">str &#160;&#160;r7, [r5, #68] &#160;&#160;; =0x44 (IRQ1)</text>
<text text-anchor="middle" x="288" y="-352.8" font-family="Times,serif" font-size="14.00">ldr &#160;&#160;r1, [r4, #100] &#160;&#160;; 0x64: pointer to 0x1b3</text>
<text text-anchor="middle" x="288" y="-337.8" font-family="Times,serif" font-size="14.00">str &#160;&#160;r0, [r5, #20]</text>
<text text-anchor="middle" x="288" y="-322.8" font-family="Times,serif" font-size="14.00">ldr &#160;&#160;r0, [r0, #112] &#160;&#160;; 0x70: pointer to 0x1b3</text>
<text text-anchor="middle" x="288" y="-307.8" font-family="Times,serif" font-size="14.00">strb &#160;&#160;r5, [r4, #9]</text>
<text text-anchor="middle" x="288" y="-292.8" font-family="Times,serif" font-size="14.00">ldr &#160;&#160;r5, [r6, #100] &#160;&#160;; 0x64: pointer to 0x1b3</text>
<text text-anchor="middle" x="288" y="-277.8" font-family="Times,serif" font-size="14.00">ldr &#160;&#160;r1, [r5, #116] &#160;&#160;; 0x74: pointer to 0x1b3</text>
<text text-anchor="middle" x="288" y="-262.8" font-family="Times,serif" font-size="14.00">str &#160;&#160;r0, [r0, r0]</text>
<text text-anchor="middle" x="288" y="-247.8" font-family="Times,serif" font-size="14.00">strb &#160;&#160;r3, [r6, #13]</text>
<text text-anchor="middle" x="288" y="-232.8" font-family="Times,serif" font-size="14.00">ldr &#160;&#160;r3, [pc, #316] &#160;&#160;; (cf08 )</text>
<text text-anchor="middle" x="288" y="-217.8" font-family="Times,serif" font-size="14.00">ldr &#160;&#160;r4, [r6, #116] &#160;&#160;; 0x74: pointer to 0x1b3</text>
<text text-anchor="middle" x="288" y="-202.8" font-family="Times,serif" font-size="14.00">ldr &#160;&#160;r2, [r6, #116] &#160;&#160;; 0x74: pointer to 0x1b3</text>
<text text-anchor="middle" x="288" y="-187.8" font-family="Times,serif" font-size="14.00">str &#160;&#160;r5, [r4, #68] &#160;&#160;; =0x44 (IRQ1)</text>
<text text-anchor="middle" x="288" y="-172.8" font-family="Times,serif" font-size="14.00">str &#160;&#160;r0, [r6, #68] &#160;&#160;; =0x44 (IRQ1)</text>
<text text-anchor="middle" x="288" y="-157.8" font-family="Times,serif" font-size="14.00">movs &#160;&#160;r0, #101 &#160;&#160;; 0x65</text>
<text text-anchor="middle" x="288" y="-142.8" font-family="Times,serif" font-size="14.00">str &#160;&#160;r4, [r4, #84] &#160;&#160;; 0x54: pointer to 0x1b3</text>
<text text-anchor="middle" x="288" y="-127.8" font-family="Times,serif" font-size="14.00">lsls &#160;&#160;r6, r5, #1</text>
<text text-anchor="middle" x="288" y="-112.8" font-family="Times,serif" font-size="14.00">strb &#160;&#160;r1, [r5, #17]</text>
<text text-anchor="middle" x="288" y="-97.8" font-family="Times,serif" font-size="14.00">ldr &#160;&#160;r0, [r4, #112] &#160;&#160;; 0x70: pointer to 0x1b3</text>
<text text-anchor="middle" x="288" y="-82.8" font-family="Times,serif" font-size="14.00">str &#160;&#160;r0, [r4, #16]</text>
<text text-anchor="middle" x="288" y="-67.8" font-family="Times,serif" font-size="14.00">str &#160;&#160;r0, [r0, #32]</text>
<text text-anchor="middle" x="288" y="-52.8" font-family="Times,serif" font-size="14.00">movs &#160;&#160;r0, #107 &#160;&#160;; 0x6b</text>
<text text-anchor="middle" x="288" y="-37.8" font-family="Times,serif" font-size="14.00">strb &#160;&#160;r0, [r4, #16]</text>
<text text-anchor="middle" x="288" y="-22.8" font-family="Times,serif" font-size="14.00">ldrb &#160;&#160;r5, [r4, #1]</text>
<text text-anchor="middle" x="288" y="-7.8" font-family="Times,serif" font-size="14.00">bx &#160;&#160;r0</text>
</g>
<!-- _CCBC_CCC0&#45;&gt;_CCC4_CCC8_CCCC_CCD0_CCD4_CCD8_CCDC_CCE0_CCE4_CCE8_CCEC_CCF0_CCF4_CCF8_CCFC_CD00_CD04_CD08_CD0C_CD10_CD14_CD18_CD1C_CD20_CD24_CD28_CD2C_CD30_CD34_CD38_CD3C_CD40_CD44_CD48_CD4C_CD50_CD54_CD58_CD5C_CD60_CD64_CD68_CD6C_CD70_CD74_CD78_CD7C_CD80_CD84_CD88_CD8C_CD90_CD94_CD98_CD9C_CDA0_CDA4_CDA8_CDAC_CDB0_CDB4_CDB8_CDBC_CDC0_CDC4_CDC8_CDCC_CDD0_CDD4_CDD8_CDDC_CDE0_CDE4_CDE8_CDEC_CDF0_CDF4_CDF8_CDFC_CE00_CE04 -->
<g id="edge10" class="edge"><title>_CCBC_CCC0&#45;&gt;_CCC4_CCC8_CCCC_CCD0_CCD4_CCD8_CCDC_CCE0_CCE4_CCE8_CCEC_CCF0_CCF4_CCF8_CCFC_CD00_CD04_CD08_CD0C_CD10_CD14_CD18_CD1C_CD20_CD24_CD28_CD2C_CD30_CD34_CD38_CD3C_CD40_CD44_CD48_CD4C_CD50_CD54_CD58_CD5C_CD60_CD64_CD68_CD6C_CD70_CD74_CD78_CD7C_CD80_CD84_CD88_CD8C_CD90_CD94_CD98_CD9C_CDA0_CDA4_CDA8_CDAC_CDB0_CDB4_CDB8_CDBC_CDC0_CDC4_CDC8_CDCC_CDD0_CDD4_CDD8_CDDC_CDE0_CDE4_CDE8_CDEC_CDF0_CDF4_CDF8_CDFC_CE00_CE04</title>
<path fill="none" stroke="red" d="M288,-1259.85C288,-1252.8 288,-1243.84 288,-1233.26"/>
<polygon fill="red" stroke="red" points="291.5,-1233.1 288,-1223.1 284.5,-1233.1 291.5,-1233.1"/>
</g>
<!-- _CBD0 -->
<g id="node9" class="node"><title>_CBD0</title>
<polygon fill="none" stroke="black" points="321.5,-2120 256.5,-2120 256.5,-2084 321.5,-2084 321.5,-2120"/>
<text text-anchor="middle" x="289" y="-2098.3" font-family="Times,serif" font-size="14.00">bvc ccbc</text>
</g>
<!-- _CBD0&#45;&gt;_CCBC_CCC0 -->
<g id="edge8" class="edge"><title>_CBD0&#45;&gt;_CCBC_CCC0</title>
<path fill="none" stroke="blue" d="M288.716,-2083.74C288.42,-2064.25 288,-2031.6 288,-2003.5 288,-2003.5 288,-2003.5 288,-1555.5 288,-1465.04 288,-1357.88 288,-1308.06"/>
<polygon fill="blue" stroke="blue" points="291.5,-1308.05 288,-1298.05 284.5,-1308.05 291.5,-1308.05"/>
<text text-anchor="middle" x="297.5" y="-1899.3" font-family="Times,serif" font-size="14.00">VC</text>
</g>
<!-- _CBDC -->
<g id="node10" class="node"><title>_CBDC</title>
<polygon fill="none" stroke="black" points="496.5,-2065 431.5,-2065 431.5,-2029 496.5,-2029 496.5,-2065"/>
<text text-anchor="middle" x="464" y="-2043.3" font-family="Times,serif" font-size="14.00">bvc cbc8</text>
</g>
<!-- _CBC8_CBCC -->
<g id="node16" class="node"><title>_CBC8_CBCC</title>
<polygon fill="none" stroke="black" points="413.5,-2265 316.5,-2265 316.5,-2227 413.5,-2227 413.5,-2265"/>
<text text-anchor="middle" x="365" y="-2249.8" font-family="Times,serif" font-size="14.00">lsls &#160;&#160;r0, r0, #1</text>
<text text-anchor="middle" x="365" y="-2234.8" font-family="Times,serif" font-size="14.00">movs &#160;&#160;r4, r1</text>
</g>
<!-- _CBDC&#45;&gt;_CBC8_CBCC -->
<g id="edge3" class="edge"><title>_CBDC&#45;&gt;_CBC8_CBCC</title>
<path fill="none" stroke="blue" d="M459.777,-2065.36C453.164,-2090.75 438.923,-2139 418,-2176 409.4,-2191.21 397.752,-2206.76 387.566,-2219.24"/>
<polygon fill="blue" stroke="blue" points="384.843,-2217.04 381.13,-2226.96 390.221,-2221.52 384.843,-2217.04"/>
<text text-anchor="middle" x="445" y="-2153.3" font-family="Times,serif" font-size="14.00">VS</text>
</g>
<!-- _CC00_CB40_CB44_CB48_CB4C_CB50_CB54_CB58 -->
<g id="node11" class="node"><title>_CC00_CB40_CB44_CB48_CB4C_CB50_CB54_CB58</title>
<polygon fill="none" stroke="black" points="680,-1620.5 420,-1620.5 420,-1492.5 680,-1492.5 680,-1620.5"/>
<text text-anchor="middle" x="550" y="-1605.3" font-family="Times,serif" font-size="14.00">bls cb40</text>
<text text-anchor="middle" x="550" y="-1590.3" font-family="Times,serif" font-size="14.00">ldr &#160;&#160;r2, [r6, #116] &#160;&#160;; 0x74: pointer to 0x1b3</text>
<text text-anchor="middle" x="550" y="-1575.3" font-family="Times,serif" font-size="14.00">ldr &#160;&#160;r4, [r0, #20]</text>
<text text-anchor="middle" x="550" y="-1560.3" font-family="Times,serif" font-size="14.00">str &#160;&#160;r4, [r5, #20]</text>
<text text-anchor="middle" x="550" y="-1545.3" font-family="Times,serif" font-size="14.00">ldr &#160;&#160;r3, [r0, #116] &#160;&#160;; 0x74: pointer to 0x1b3</text>
<text text-anchor="middle" x="550" y="-1530.3" font-family="Times,serif" font-size="14.00">strb &#160;&#160;r0, [r4, #16]</text>
<text text-anchor="middle" x="550" y="-1515.3" font-family="Times,serif" font-size="14.00">str &#160;&#160;r2, [r2, #84] &#160;&#160;; 0x54: pointer to 0x1b3</text>
<text text-anchor="middle" x="550" y="-1500.3" font-family="Times,serif" font-size="14.00">strb &#160;&#160;r2, [r6, #13]</text>
</g>
<!-- _CC00_CB40_CB44_CB48_CB4C_CB50_CB54_CB58&#45;&gt;_CB5C_CB60_CB64_CB68_CB6C_CB70_CB74 -->
<g id="edge15" class="edge"><title>_CC00_CB40_CB44_CB48_CB4C_CB50_CB54_CB58&#45;&gt;_CB5C_CB60_CB64_CB68_CB6C_CB70_CB74</title>
<path fill="none" stroke="red" d="M550,-1620.75C550,-1679.4 550,-1769.1 550,-1847 550,-2426 550,-2426 550,-2426 550,-2515.95 508.371,-2612.37 475.872,-2673.95"/>
<polygon fill="red" stroke="red" points="472.781,-2672.3 471.149,-2682.77 478.953,-2675.61 472.781,-2672.3"/>
<text text-anchor="middle" x="558" y="-2098.3" font-family="Times,serif" font-size="14.00">LS</text>
</g>
<!-- _CBE8 -->
<g id="node12" class="node"><title>_CBE8</title>
<polygon fill="none" stroke="black" points="468,-1921 406,-1921 406,-1885 468,-1885 468,-1921"/>
<text text-anchor="middle" x="437" y="-1899.3" font-family="Times,serif" font-size="14.00">bhi ccc4</text>
</g>
<!-- _CBE8&#45;&gt;_CCC4_CCC8_CCCC_CCD0_CCD4_CCD8_CCDC_CCE0_CCE4_CCE8_CCEC_CCF0_CCF4_CCF8_CCFC_CD00_CD04_CD08_CD0C_CD10_CD14_CD18_CD1C_CD20_CD24_CD28_CD2C_CD30_CD34_CD38_CD3C_CD40_CD44_CD48_CD4C_CD50_CD54_CD58_CD5C_CD60_CD64_CD68_CD6C_CD70_CD74_CD78_CD7C_CD80_CD84_CD88_CD8C_CD90_CD94_CD98_CD9C_CDA0_CDA4_CDA8_CDAC_CDB0_CDB4_CDB8_CDBC_CDC0_CDC4_CDC8_CDCC_CDD0_CDD4_CDD8_CDDC_CDE0_CDE4_CDE8_CDEC_CDF0_CDF4_CDF8_CDFC_CE00_CE04 -->
<g id="edge5" class="edge"><title>_CBE8&#45;&gt;_CCC4_CCC8_CCCC_CCD0_CCD4_CCD8_CCDC_CCE0_CCE4_CCE8_CCEC_CCF0_CCF4_CCF8_CCFC_CD00_CD04_CD08_CD0C_CD10_CD14_CD18_CD1C_CD20_CD24_CD28_CD2C_CD30_CD34_CD38_CD3C_CD40_CD44_CD48_CD4C_CD50_CD54_CD58_CD5C_CD60_CD64_CD68_CD6C_CD70_CD74_CD78_CD7C_CD80_CD84_CD88_CD8C_CD90_CD94_CD98_CD9C_CDA0_CDA4_CDA8_CDAC_CDB0_CDB4_CDB8_CDBC_CDC0_CDC4_CDC8_CDCC_CDD0_CDD4_CDD8_CDDC_CDE0_CDE4_CDE8_CDEC_CDF0_CDF4_CDF8_CDFC_CE00_CE04</title>
<path fill="none" stroke="blue" d="M429.823,-1884.7C420.354,-1861.05 403.96,-1817.1 396,-1778 349.903,-1551.56 372.19,-1490.12 351,-1260 350.191,-1251.22 349.373,-1242.36 348.547,-1233.46"/>
<polygon fill="blue" stroke="blue" points="352.021,-1233.02 347.611,-1223.38 345.051,-1233.66 352.021,-1233.02"/>
<text text-anchor="middle" x="403.5" y="-1552.8" font-family="Times,serif" font-size="14.00">HI</text>
</g>
<!-- _CB5C_CB60_CB64_CB68_CB6C_CB70_CB74&#45;&gt;_CB78_CB7C_CB80_CB84_CB8C_CB90_CB98_CB9C_CBA4_CBA8_CBB0_CBB4_CBBC_CBC0 -->
<g id="edge2" class="edge"><title>_CB5C_CB60_CB64_CB68_CB6C_CB70_CB74&#45;&gt;_CB78_CB7C_CB80_CB84_CB8C_CB90_CB98_CB9C_CBA4_CBA8_CBB0_CBB4_CBBC_CBC0</title>
<path fill="none" stroke="red" d="M425.033,-2682.99C416.026,-2644.43 403.684,-2591.6 392.533,-2543.87"/>
<polygon fill="red" stroke="red" points="395.93,-2543.02 390.247,-2534.08 389.114,-2544.61 395.93,-2543.02"/>
</g>
<!-- _CBF4 -->
<g id="node14" class="node"><title>_CBF4</title>
<polygon fill="none" stroke="black" points="378,-1866 316,-1866 316,-1830 378,-1830 378,-1866"/>
<text text-anchor="middle" x="347" y="-1844.3" font-family="Times,serif" font-size="14.00">bls cc44</text>
</g>
<!-- _CBF4&#45;&gt;_CC44_CC4C_CC50_CC54_CC58_CC5C_CC60_CC64_CC68_CC6C_CC70_CC74_CC78_CC7C_CC80_CC84_CC88_CC8C_CC90_CC94_CC98_CC9C_CCA0_CCA4_CCA8_CCAC_CCB0_CCB4_CCB8 -->
<g id="edge26" class="edge"><title>_CBF4&#45;&gt;_CC44_CC4C_CC50_CC54_CC58_CC5C_CC60_CC64_CC68_CC6C_CC70_CC74_CC78_CC7C_CC80_CC84_CC88_CC8C_CC90_CC94_CC98_CC9C_CCA0_CCA4_CCA8_CCAC_CCB0_CCB4_CCB8</title>
<path fill="none" stroke="blue" d="M334.076,-1829.76C319.509,-1810.32 294.186,-1776.54 266.23,-1739.24"/>
<polygon fill="blue" stroke="blue" points="269.026,-1737.14 260.227,-1731.24 263.424,-1741.34 269.026,-1737.14"/>
<text text-anchor="middle" x="324" y="-1799.8" font-family="Times,serif" font-size="14.00">LS</text>
</g>
<!-- _CB78_CB7C_CB80_CB84_CB8C_CB90_CB98_CB9C_CBA4_CBA8_CBB0_CBB4_CBBC_CBC0&#45;&gt;_CBC4 -->
<g id="edge14" class="edge"><title>_CB78_CB7C_CB80_CB84_CB8C_CB90_CB98_CB9C_CBA4_CBA8_CBB0_CBB4_CBBC_CBC0&#45;&gt;_CBC4</title>
<path fill="none" stroke="blue" d="M289.84,-2326.18C274.434,-2306.13 259.524,-2286.73 248.32,-2272.14"/>
<polygon fill="blue" stroke="blue" points="251.044,-2269.94 242.175,-2264.15 245.493,-2274.21 251.044,-2269.94"/>
<text text-anchor="middle" x="275.5" y="-2286.8" font-family="Times,serif" font-size="14.00">VC</text>
</g>
<!-- _CB78_CB7C_CB80_CB84_CB8C_CB90_CB98_CB9C_CBA4_CBA8_CBB0_CBB4_CBBC_CBC0&#45;&gt;_CBC8_CBCC -->
<g id="edge13" class="edge"><title>_CB78_CB7C_CB80_CB84_CB8C_CB90_CB98_CB9C_CBA4_CBA8_CBB0_CBB4_CBBC_CBC0&#45;&gt;_CBC8_CBCC</title>
<path fill="none" stroke="red" d="M365,-2315.94C365,-2300.99 365,-2286.83 365,-2275.28"/>
<polygon fill="red" stroke="red" points="368.5,-2275.06 365,-2265.06 361.5,-2275.06 368.5,-2275.06"/>
<text text-anchor="middle" x="374" y="-2286.8" font-family="Times,serif" font-size="14.00">VS</text>
</g>
<!-- _CBC8_CBCC&#45;&gt;_CBD0 -->
<g id="edge4" class="edge"><title>_CBC8_CBCC&#45;&gt;_CBD0</title>
<path fill="none" stroke="blue" d="M348.232,-2226.89C336.703,-2213.63 321.767,-2194.76 312,-2176 304.517,-2161.63 298.945,-2144.39 295.161,-2130.27"/>
<polygon fill="blue" stroke="blue" points="298.455,-2129.02 292.613,-2120.19 291.668,-2130.74 298.455,-2129.02"/>
<text text-anchor="middle" x="343.5" y="-2197.8" font-family="Times,serif" font-size="14.00">VC</text>
</g>
<!-- _CBD4_CBD8 -->
<g id="node17" class="node"><title>_CBD4_CBD8</title>
<polygon fill="none" stroke="black" points="409,-2176 321,-2176 321,-2138 409,-2138 409,-2176"/>
<text text-anchor="middle" x="365" y="-2160.8" font-family="Times,serif" font-size="14.00">movs &#160;&#160;r6, r3</text>
<text text-anchor="middle" x="365" y="-2145.8" font-family="Times,serif" font-size="14.00">movs &#160;&#160;r0, r4</text>
</g>
<!-- _CBC8_CBCC&#45;&gt;_CBD4_CBD8 -->
<g id="edge6" class="edge"><title>_CBC8_CBCC&#45;&gt;_CBD4_CBD8</title>
<path fill="none" stroke="red" d="M365,-2226.97C365,-2215.19 365,-2199.56 365,-2186.16"/>
<polygon fill="red" stroke="red" points="368.5,-2186 365,-2176 361.5,-2186 368.5,-2186"/>
<text text-anchor="middle" x="374" y="-2197.8" font-family="Times,serif" font-size="14.00">VS</text>
</g>
<!-- _CBD4_CBD8&#45;&gt;_CBDC -->
<g id="edge20" class="edge"><title>_CBD4_CBD8&#45;&gt;_CBDC</title>
<path fill="none" stroke="blue" d="M377.37,-2137.98C388.117,-2122.88 404.508,-2101.1 421,-2084 424.971,-2079.88 429.384,-2075.76 433.828,-2071.85"/>
<polygon fill="blue" stroke="blue" points="436.423,-2074.24 441.768,-2065.09 431.885,-2068.91 436.423,-2074.24"/>
<text text-anchor="middle" x="430.5" y="-2098.3" font-family="Times,serif" font-size="14.00">VC</text>
</g>
<!-- _CBE0_CBE4 -->
<g id="node18" class="node"><title>_CBE0_CBE4</title>
<polygon fill="none" stroke="black" points="413.5,-2066 316.5,-2066 316.5,-2028 413.5,-2028 413.5,-2066"/>
<text text-anchor="middle" x="365" y="-2050.8" font-family="Times,serif" font-size="14.00">lsls &#160;&#160;r5, r3, #1</text>
<text text-anchor="middle" x="365" y="-2035.8" font-family="Times,serif" font-size="14.00">movs &#160;&#160;r4, r1</text>
</g>
<!-- _CBD4_CBD8&#45;&gt;_CBE0_CBE4 -->
<g id="edge27" class="edge"><title>_CBD4_CBD8&#45;&gt;_CBE0_CBE4</title>
<path fill="none" stroke="red" d="M365,-2137.68C365,-2120.82 365,-2095.57 365,-2076.15"/>
<polygon fill="red" stroke="red" points="368.5,-2076.05 365,-2066.05 361.5,-2076.05 368.5,-2076.05"/>
<text text-anchor="middle" x="374" y="-2098.3" font-family="Times,serif" font-size="14.00">VS</text>
</g>
<!-- _CBE0_CBE4&#45;&gt;_CBE8 -->
<g id="edge7" class="edge"><title>_CBE0_CBE4&#45;&gt;_CBE8</title>
<path fill="none" stroke="blue" d="M382.313,-2027.76C393.944,-2014.58 408.777,-1995.86 418,-1977 425.014,-1962.66 429.657,-1945.42 432.596,-1931.29"/>
<polygon fill="blue" stroke="blue" points="436.085,-1931.68 434.522,-1921.2 429.209,-1930.37 436.085,-1931.68"/>
<text text-anchor="middle" x="414.5" y="-1998.8" font-family="Times,serif" font-size="14.00">HI</text>
</g>
<!-- _CBEC_CBF0 -->
<g id="node19" class="node"><title>_CBEC_CBF0</title>
<polygon fill="none" stroke="black" points="409,-1977 321,-1977 321,-1939 409,-1939 409,-1977"/>
<text text-anchor="middle" x="365" y="-1961.8" font-family="Times,serif" font-size="14.00">movs &#160;&#160;r6, r3</text>
<text text-anchor="middle" x="365" y="-1946.8" font-family="Times,serif" font-size="14.00">movs &#160;&#160;r0, r4</text>
</g>
<!-- _CBE0_CBE4&#45;&gt;_CBEC_CBF0 -->
<g id="edge17" class="edge"><title>_CBE0_CBE4&#45;&gt;_CBEC_CBF0</title>
<path fill="none" stroke="red" d="M365,-2027.97C365,-2016.19 365,-2000.56 365,-1987.16"/>
<polygon fill="red" stroke="red" points="368.5,-1987 365,-1977 361.5,-1987 368.5,-1987"/>
<text text-anchor="middle" x="373" y="-1998.8" font-family="Times,serif" font-size="14.00">LS</text>
</g>
<!-- _CBEC_CBF0&#45;&gt;_CBF4 -->
<g id="edge16" class="edge"><title>_CBEC_CBF0&#45;&gt;_CBF4</title>
<path fill="none" stroke="blue" d="M354.596,-1938.86C351.921,-1933.31 349.403,-1927.06 348,-1921 344.64,-1906.49 344.191,-1889.89 344.671,-1876.29"/>
<polygon fill="blue" stroke="blue" points="348.176,-1876.29 345.218,-1866.12 341.186,-1875.92 348.176,-1876.29"/>
<text text-anchor="middle" x="356" y="-1899.3" font-family="Times,serif" font-size="14.00">LS</text>
</g>
<!-- _CBF8_CBFC -->
<g id="node21" class="node"><title>_CBF8_CBFC</title>
<polygon fill="none" stroke="black" points="522,-1867 434,-1867 434,-1829 522,-1829 522,-1867"/>
<text text-anchor="middle" x="478" y="-1851.8" font-family="Times,serif" font-size="14.00">movs &#160;&#160;r0, r1</text>
<text text-anchor="middle" x="478" y="-1836.8" font-family="Times,serif" font-size="14.00">movs &#160;&#160;r0, r1</text>
</g>
<!-- _CBEC_CBF0&#45;&gt;_CBF8_CBFC -->
<g id="edge19" class="edge"><title>_CBEC_CBF0&#45;&gt;_CBF8_CBFC</title>
<path fill="none" stroke="red" d="M364.721,-1938.89C365.432,-1922.88 368.929,-1899.84 382,-1885 392.91,-1872.61 408.516,-1864.47 423.983,-1859.13"/>
<polygon fill="red" stroke="red" points="425.043,-1862.47 433.552,-1856.15 422.964,-1855.78 425.043,-1862.47"/>
<text text-anchor="middle" x="389.5" y="-1899.3" font-family="Times,serif" font-size="14.00">HI</text>
</g>
<!-- _CBF8_CBFC&#45;&gt;_CC04_CC08 -->
<g id="edge21" class="edge"><title>_CBF8_CBFC&#45;&gt;_CC04_CC08</title>
<path fill="none" stroke="red" d="M520.601,-1867.09C554.4,-1884.63 596,-1914.79 596,-1957 596,-2867 596,-2867 596,-2867 596,-2915.72 537.641,-2937.35 491.859,-2946.83"/>
<polygon fill="red" stroke="red" points="491.17,-2943.4 482.012,-2948.73 492.493,-2950.27 491.17,-2943.4"/>
<text text-anchor="middle" x="603.5" y="-2242.3" font-family="Times,serif" font-size="14.00">HI</text>
</g>
<!-- _CBF8_CBFC&#45;&gt;_CC00_CB40_CB44_CB48_CB4C_CB50_CB54_CB58 -->
<g id="edge18" class="edge"><title>_CBF8_CBFC&#45;&gt;_CC00_CB40_CB44_CB48_CB4C_CB50_CB54_CB58</title>
<path fill="none" stroke="red" d="M482.504,-1828.89C492.167,-1790.04 515.35,-1696.82 531.844,-1630.5"/>
<polygon fill="red" stroke="red" points="535.311,-1631.06 534.329,-1620.51 528.518,-1629.37 535.311,-1631.06"/>
<text text-anchor="middle" x="499" y="-1799.8" font-family="Times,serif" font-size="14.00">LS</text>
</g>
</g>
</svg>
