<?xml version="1.0" encoding="UTF-8" standalone="no"?>
<!DOCTYPE svg PUBLIC "-//W3C//DTD SVG 1.1//EN"
 "http://www.w3.org/Graphics/SVG/1.1/DTD/svg11.dtd">
<!-- Generated by graphviz version 2.38.0 (20140413.2041)
 -->
<!-- Title: G Pages: 1 -->
<svg width="320pt" height="632pt"
 viewBox="0.00 0.00 319.50 632.00" xmlns="http://www.w3.org/2000/svg" xmlns:xlink="http://www.w3.org/1999/xlink">
<g id="graph0" class="graph" transform="scale(1 1) rotate(0) translate(4 628)">
<title>G</title>
<polygon fill="white" stroke="none" points="-4,4 -4,-628 315.5,-628 315.5,4 -4,4"/>
<!-- _1D00_1D04_1D08_1D0C_1D10_1D14 -->
<g id="node1" class="node"><title>_1D00_1D04_1D08_1D0C_1D10_1D14</title>
<polygon fill="none" stroke="black" points="178.5,-537 68.5,-537 68.5,-439 178.5,-439 178.5,-537"/>
<text text-anchor="middle" x="123.5" y="-521.8" font-family="Times,serif" font-size="14.00">adds &#160;&#160;r1, #1</text>
<text text-anchor="middle" x="123.5" y="-506.8" font-family="Times,serif" font-size="14.00">adds &#160;&#160;r0, #1</text>
<text text-anchor="middle" x="123.5" y="-491.8" font-family="Times,serif" font-size="14.00">lsls &#160;&#160;r3, r0, #30</text>
<text text-anchor="middle" x="123.5" y="-476.8" font-family="Times,serif" font-size="14.00">ldrb &#160;&#160;r3, [r1, #0]</text>
<text text-anchor="middle" x="123.5" y="-461.8" font-family="Times,serif" font-size="14.00">strb &#160;&#160;r3, [r0, #0]</text>
<text text-anchor="middle" x="123.5" y="-446.8" font-family="Times,serif" font-size="14.00">subs &#160;&#160;r2, #1</text>
</g>
<!-- _1D18 -->
<g id="node2" class="node"><title>_1D18</title>
<polygon fill="none" stroke="black" points="170,-366 103,-366 103,-330 170,-330 170,-366"/>
<text text-anchor="middle" x="136.5" y="-344.3" font-family="Times,serif" font-size="14.00">beq 1d24</text>
</g>
<!-- _1D00_1D04_1D08_1D0C_1D10_1D14&#45;&gt;_1D18 -->
<g id="edge2" class="edge"><title>_1D00_1D04_1D08_1D0C_1D10_1D14&#45;&gt;_1D18</title>
<path fill="none" stroke="blue" d="M128.047,-438.734C130.021,-417.781 132.259,-394.016 133.937,-376.209"/>
<polygon fill="blue" stroke="blue" points="137.424,-376.509 134.877,-366.225 130.455,-375.852 137.424,-376.509"/>
<text text-anchor="middle" x="143" y="-399.3" font-family="Times,serif" font-size="14.00">EQ</text>
</g>
<!-- _1D1C_1D20 -->
<g id="node3" class="node"><title>_1D1C_1D20</title>
<polygon fill="none" stroke="black" points="85,-367 0,-367 0,-329 85,-329 85,-367"/>
<text text-anchor="middle" x="42.5" y="-351.8" font-family="Times,serif" font-size="14.00">adds &#160;&#160;r1, #1</text>
<text text-anchor="middle" x="42.5" y="-336.8" font-family="Times,serif" font-size="14.00">adds &#160;&#160;r0, #1</text>
</g>
<!-- _1D00_1D04_1D08_1D0C_1D10_1D14&#45;&gt;_1D1C_1D20 -->
<g id="edge5" class="edge"><title>_1D00_1D04_1D08_1D0C_1D10_1D14&#45;&gt;_1D1C_1D20</title>
<path fill="none" stroke="red" d="M95.1701,-438.734C82.8161,-417.687 68.7964,-393.801 58.3289,-375.968"/>
<polygon fill="red" stroke="red" points="61.2871,-374.093 53.2065,-367.241 55.2501,-377.637 61.2871,-374.093"/>
<text text-anchor="middle" x="93" y="-399.3" font-family="Times,serif" font-size="14.00">NE</text>
</g>
<!-- _1D24_1D2C_1D30_1D34_1D4C_1D50 -->
<g id="node4" class="node"><title>_1D24_1D2C_1D30_1D34_1D4C_1D50</title>
<polygon fill="none" stroke="black" points="188.5,-278 84.5,-278 84.5,-180 188.5,-180 188.5,-278"/>
<text text-anchor="middle" x="136.5" y="-262.8" font-family="Times,serif" font-size="14.00">lsls &#160;&#160;r3, r1, #30</text>
<text text-anchor="middle" x="136.5" y="-247.8" font-family="Times,serif" font-size="14.00">lsls &#160;&#160;r7, r3, #3</text>
<text text-anchor="middle" x="136.5" y="-232.8" font-family="Times,serif" font-size="14.00">subs &#160;&#160;r6, r3, r7</text>
<text text-anchor="middle" x="136.5" y="-217.8" font-family="Times,serif" font-size="14.00">b 1d4c</text>
<text text-anchor="middle" x="136.5" y="-202.8" font-family="Times,serif" font-size="14.00">cmp &#160;&#160;r2, #4</text>
<text text-anchor="middle" x="136.5" y="-187.8" font-family="Times,serif" font-size="14.00">lsrs &#160;&#160;r3, r6, #3</text>
</g>
<!-- _1D18&#45;&gt;_1D24_1D2C_1D30_1D34_1D4C_1D50 -->
<g id="edge4" class="edge"><title>_1D18&#45;&gt;_1D24_1D2C_1D30_1D34_1D4C_1D50</title>
<path fill="none" stroke="blue" d="M136.5,-329.987C136.5,-318.809 136.5,-303.468 136.5,-288.158"/>
<polygon fill="blue" stroke="blue" points="140,-288.146 136.5,-278.146 133,-288.146 140,-288.146"/>
<text text-anchor="middle" x="146" y="-299.8" font-family="Times,serif" font-size="14.00">EQ</text>
</g>
<!-- _1D1C_1D20&#45;&gt;_1D24_1D2C_1D30_1D34_1D4C_1D50 -->
<g id="edge3" class="edge"><title>_1D1C_1D20&#45;&gt;_1D24_1D2C_1D30_1D34_1D4C_1D50</title>
<path fill="none" stroke="red" d="M56.9815,-328.975C66.2788,-317.403 78.9059,-301.686 91.3587,-286.186"/>
<polygon fill="red" stroke="red" points="94.3016,-288.112 97.8363,-278.124 88.8446,-283.727 94.3016,-288.112"/>
</g>
<!-- _1D54_1D58_1D5C_1D60_1D64_1D68_1D6C_1D70_1D74 -->
<g id="node5" class="node"><title>_1D54_1D58_1D5C_1D60_1D64_1D68_1D6C_1D70_1D74</title>
<polygon fill="none" stroke="black" points="214,-143 59,-143 59,-0 214,-0 214,-143"/>
<text text-anchor="middle" x="136.5" y="-127.8" font-family="Times,serif" font-size="14.00">subs &#160;&#160;r2, #1</text>
<text text-anchor="middle" x="136.5" y="-112.8" font-family="Times,serif" font-size="14.00">ldrb &#160;&#160;r3, [r1, #0]</text>
<text text-anchor="middle" x="136.5" y="-97.8" font-family="Times,serif" font-size="14.00">strb &#160;&#160;r3, [r0, #0]</text>
<text text-anchor="middle" x="136.5" y="-82.8" font-family="Times,serif" font-size="14.00">subs &#160;&#160;r2, #1</text>
<text text-anchor="middle" x="136.5" y="-67.8" font-family="Times,serif" font-size="14.00">ldrb &#160;&#160;r3, [r1, #0]</text>
<text text-anchor="middle" x="136.5" y="-52.8" font-family="Times,serif" font-size="14.00">strb &#160;&#160;r3, [r0, #0]</text>
<text text-anchor="middle" x="136.5" y="-37.8" font-family="Times,serif" font-size="14.00">subs &#160;&#160;r2, #1</text>
<text text-anchor="middle" x="136.5" y="-22.8" font-family="Times,serif" font-size="14.00">ldrb &#160;&#160;r1, [r1, #0]</text>
<text text-anchor="middle" x="136.5" y="-7.8" font-family="Times,serif" font-size="14.00">pop &#160;&#160;r3, r4, r5, r6, r7, pc</text>
</g>
<!-- _1D24_1D2C_1D30_1D34_1D4C_1D50&#45;&gt;_1D54_1D58_1D5C_1D60_1D64_1D68_1D6C_1D70_1D74 -->
<g id="edge7" class="edge"><title>_1D24_1D2C_1D30_1D34_1D4C_1D50&#45;&gt;_1D54_1D58_1D5C_1D60_1D64_1D68_1D6C_1D70_1D74</title>
<path fill="none" stroke="red" d="M136.5,-179.651C136.5,-171.23 136.5,-162.27 136.5,-153.255"/>
<polygon fill="red" stroke="red" points="140,-153.08 136.5,-143.08 133,-153.08 140,-153.08"/>
</g>
<!-- _1CF4 -->
<g id="node6" class="node"><title>_1CF4</title>
<polygon fill="none" stroke="black" points="201,-624 46,-624 46,-588 201,-588 201,-624"/>
<text text-anchor="middle" x="123.5" y="-602.3" font-family="Times,serif" font-size="14.00">push &#160;&#160;r3, r4, r5, r6, r7, lr</text>
</g>
<!-- _1CF4&#45;&gt;_1D00_1D04_1D08_1D0C_1D10_1D14 -->
<g id="edge9" class="edge"><title>_1CF4&#45;&gt;_1D00_1D04_1D08_1D0C_1D10_1D14</title>
<path fill="none" stroke="red" d="M123.5,-587.884C123.5,-576.977 123.5,-562.146 123.5,-547.289"/>
<polygon fill="red" stroke="red" points="127,-547.048 123.5,-537.048 120,-547.048 127,-547.048"/>
<text text-anchor="middle" x="145" y="-558.8" font-family="Times,serif" font-size="14.00">CS, NE</text>
</g>
<!-- _1CF8 -->
<g id="node7" class="node"><title>_1CF8</title>
<polygon fill="none" stroke="black" points="311.5,-421 245.5,-421 245.5,-385 311.5,-385 311.5,-421"/>
<text text-anchor="middle" x="278.5" y="-399.3" font-family="Times,serif" font-size="14.00">bcc 1d54</text>
</g>
<!-- _1CF4&#45;&gt;_1CF8 -->
<g id="edge8" class="edge"><title>_1CF4&#45;&gt;_1CF8</title>
<path fill="none" stroke="blue" d="M201.119,-588.287C210.894,-583.617 220.057,-577.643 227.5,-570 264.48,-532.025 274.721,-467.916 277.508,-431.48"/>
<polygon fill="blue" stroke="blue" points="281.025,-431.319 278.155,-421.12 274.038,-430.883 281.025,-431.319"/>
<text text-anchor="middle" x="247" y="-558.8" font-family="Times,serif" font-size="14.00">CC</text>
</g>
<!-- _1CFC -->
<g id="node8" class="node"><title>_1CFC</title>
<polygon fill="none" stroke="black" points="240,-421 173,-421 173,-385 240,-385 240,-421"/>
<text text-anchor="middle" x="206.5" y="-399.3" font-family="Times,serif" font-size="14.00">beq 1d24</text>
</g>
<!-- _1CF4&#45;&gt;_1CFC -->
<g id="edge6" class="edge"><title>_1CF4&#45;&gt;_1CFC</title>
<path fill="none" stroke="blue" d="M151.156,-587.66C158.014,-582.528 164.974,-576.519 170.5,-570 203.94,-530.555 208.46,-467.259 207.989,-431.296"/>
<polygon fill="blue" stroke="blue" points="211.481,-430.969 207.709,-421.069 204.484,-431.161 211.481,-430.969"/>
<text text-anchor="middle" x="202" y="-558.8" font-family="Times,serif" font-size="14.00">CS, EQ</text>
</g>
<!-- _1CF8&#45;&gt;_1D54_1D58_1D5C_1D60_1D64_1D68_1D6C_1D70_1D74 -->
<g id="edge10" class="edge"><title>_1CF8&#45;&gt;_1D54_1D58_1D5C_1D60_1D64_1D68_1D6C_1D70_1D74</title>
<path fill="none" stroke="blue" d="M273.336,-384.906C261.7,-347.148 231.757,-254.109 197.5,-180 193.235,-170.774 188.461,-161.283 183.511,-151.94"/>
<polygon fill="blue" stroke="blue" points="186.543,-150.188 178.723,-143.041 180.379,-153.505 186.543,-150.188"/>
<text text-anchor="middle" x="258" y="-299.8" font-family="Times,serif" font-size="14.00">CC</text>
</g>
<!-- _1CFC&#45;&gt;_1D24_1D2C_1D30_1D34_1D4C_1D50 -->
<g id="edge1" class="edge"><title>_1CFC&#45;&gt;_1D24_1D2C_1D30_1D34_1D4C_1D50</title>
<path fill="none" stroke="blue" d="M200.106,-384.824C194.537,-369.989 186.174,-348.006 178.5,-329 173.048,-315.496 167.019,-301.031 161.271,-287.443"/>
<polygon fill="blue" stroke="blue" points="164.476,-286.037 157.347,-278.199 158.033,-288.772 164.476,-286.037"/>
<text text-anchor="middle" x="215" y="-344.3" font-family="Times,serif" font-size="14.00">CS, EQ</text>
</g>
</g>
</svg>
