<?xml version="1.0" encoding="UTF-8" standalone="no"?>
<!DOCTYPE svg PUBLIC "-//W3C//DTD SVG 1.1//EN"
 "http://www.w3.org/Graphics/SVG/1.1/DTD/svg11.dtd">
<!-- Generated by graphviz version 2.38.0 (20140413.2041)
 -->
<!-- Title: G Pages: 1 -->
<svg width="288pt" height="1205pt"
 viewBox="0.00 0.00 287.50 1205.00" xmlns="http://www.w3.org/2000/svg" xmlns:xlink="http://www.w3.org/1999/xlink">
<g id="graph0" class="graph" transform="scale(1 1) rotate(0) translate(4 1201)">
<title>G</title>
<polygon fill="white" stroke="none" points="-4,4 -4,-1201 283.5,-1201 283.5,4 -4,4"/>
<!-- _3DB2 -->
<g id="node1" class="node"><title>_3DB2</title>
<polygon fill="none" stroke="black" points="122.5,-437 56.5,-437 56.5,-401 122.5,-401 122.5,-437"/>
<text text-anchor="middle" x="89.5" y="-415.3" font-family="Times,serif" font-size="14.00">beq 3dba</text>
</g>
<!-- _3DBA_3DBE_3DC2_3DC6_3DCA_3DCE_3DD2_3DD6_3DDA_3DDE_3DE2 -->
<g id="node3" class="node"><title>_3DBA_3DBE_3DC2_3DC6_3DCA_3DCE_3DD2_3DD6_3DDA_3DDE_3DE2</title>
<polygon fill="none" stroke="black" points="228.5,-350 60.5,-350 60.5,-177 228.5,-177 228.5,-350"/>
<text text-anchor="middle" x="144.5" y="-334.8" font-family="Times,serif" font-size="14.00">movs &#160;&#160;r1, #1</text>
<text text-anchor="middle" x="144.5" y="-319.8" font-family="Times,serif" font-size="14.00">ldr &#160;&#160;r6, [pc, #76] &#160;&#160;; (3e0c )</text>
<text text-anchor="middle" x="144.5" y="-304.8" font-family="Times,serif" font-size="14.00">str &#160;&#160;r1, [r6, #4]</text>
<text text-anchor="middle" x="144.5" y="-289.8" font-family="Times,serif" font-size="14.00">str &#160;&#160;r1, [r6, #8]</text>
<text text-anchor="middle" x="144.5" y="-274.8" font-family="Times,serif" font-size="14.00">mov &#160;&#160;r6, r1</text>
<text text-anchor="middle" x="144.5" y="-259.8" font-family="Times,serif" font-size="14.00">lsls &#160;&#160;r1, r1, #8</text>
<text text-anchor="middle" x="144.5" y="-244.8" font-family="Times,serif" font-size="14.00">ldrb &#160;&#160;r1, [r2, #2]</text>
<text text-anchor="middle" x="144.5" y="-229.8" font-family="Times,serif" font-size="14.00">orrs &#160;&#160;r6, r1</text>
<text text-anchor="middle" x="144.5" y="-214.8" font-family="Times,serif" font-size="14.00">lsls &#160;&#160;r1, r1, #24</text>
<text text-anchor="middle" x="144.5" y="-199.8" font-family="Times,serif" font-size="14.00">ldr &#160;&#160;r1, [pc, #44] &#160;&#160;; (3e0c )</text>
<text text-anchor="middle" x="144.5" y="-184.8" font-family="Times,serif" font-size="14.00">strb &#160;&#160;r3, [r1, #0]</text>
</g>
<!-- _3DB2&#45;&gt;_3DBA_3DBE_3DC2_3DC6_3DCA_3DCE_3DD2_3DD6_3DDA_3DDE_3DE2 -->
<g id="edge6" class="edge"><title>_3DB2&#45;&gt;_3DBA_3DBE_3DC2_3DC6_3DCA_3DCE_3DD2_3DD6_3DDA_3DDE_3DE2</title>
<path fill="none" stroke="blue" d="M95.5961,-400.986C99.4304,-390.285 104.718,-375.529 110.405,-359.657"/>
<polygon fill="blue" stroke="blue" points="113.713,-360.799 113.791,-350.205 107.123,-358.438 113.713,-360.799"/>
<text text-anchor="middle" x="117" y="-371.8" font-family="Times,serif" font-size="14.00">EQ</text>
</g>
<!-- _3DB6 -->
<g id="node2" class="node"><title>_3DB6</title>
<polygon fill="none" stroke="black" points="230.5,-437 140.5,-437 140.5,-401 230.5,-401 230.5,-437"/>
<text text-anchor="middle" x="185.5" y="-415.3" font-family="Times,serif" font-size="14.00">movs &#160;&#160;r0, #2</text>
</g>
<!-- _3DB6&#45;&gt;_3DBA_3DBE_3DC2_3DC6_3DCA_3DCE_3DD2_3DD6_3DDA_3DDE_3DE2 -->
<g id="edge5" class="edge"><title>_3DB6&#45;&gt;_3DBA_3DBE_3DC2_3DC6_3DCA_3DCE_3DD2_3DD6_3DDA_3DDE_3DE2</title>
<path fill="none" stroke="red" d="M180.956,-400.986C178.124,-390.385 174.23,-375.805 170.035,-360.102"/>
<polygon fill="red" stroke="red" points="173.354,-358.963 167.392,-350.205 166.591,-360.769 173.354,-358.963"/>
</g>
<!-- _3DE6 -->
<g id="node4" class="node"><title>_3DE6</title>
<polygon fill="none" stroke="black" points="199.5,-140 89.5,-140 89.5,-104 199.5,-104 199.5,-140"/>
<text text-anchor="middle" x="144.5" y="-118.3" font-family="Times,serif" font-size="14.00">ldrb &#160;&#160;r3, [r1, #0]</text>
</g>
<!-- _3DBA_3DBE_3DC2_3DC6_3DCA_3DCE_3DD2_3DD6_3DDA_3DDE_3DE2&#45;&gt;_3DE6 -->
<g id="edge7" class="edge"><title>_3DBA_3DBE_3DC2_3DC6_3DCA_3DCE_3DD2_3DD6_3DDA_3DDE_3DE2&#45;&gt;_3DE6</title>
<path fill="none" stroke="red" d="M144.5,-176.934C144.5,-167.318 144.5,-158.126 144.5,-150.141"/>
<polygon fill="red" stroke="red" points="148,-150.075 144.5,-140.075 141,-150.075 148,-150.075"/>
</g>
<!-- _3DEA -->
<g id="node5" class="node"><title>_3DEA</title>
<polygon fill="none" stroke="black" points="145.5,-44.5 81.5,-44.5 81.5,-8.5 145.5,-8.5 145.5,-44.5"/>
<text text-anchor="middle" x="113.5" y="-22.8" font-family="Times,serif" font-size="14.00">bpl 3de6</text>
</g>
<!-- _3DE6&#45;&gt;_3DEA -->
<g id="edge4" class="edge"><title>_3DE6&#45;&gt;_3DEA</title>
<path fill="none" stroke="blue" d="M125.614,-103.708C121.13,-98.4957 116.943,-92.4345 114.5,-86 110.82,-76.3063 109.915,-65.042 110.158,-55.0008"/>
<polygon fill="blue" stroke="blue" points="113.67,-54.9146 110.795,-44.7173 106.684,-54.4818 113.67,-54.9146"/>
<text text-anchor="middle" x="122.5" y="-74.8" font-family="Times,serif" font-size="14.00">PL</text>
</g>
<!-- _3DEE_3DF2_3DF6 -->
<g id="node9" class="node"><title>_3DEE_3DF2_3DF6</title>
<polygon fill="none" stroke="black" points="279.5,-53 163.5,-53 163.5,-0 279.5,-0 279.5,-53"/>
<text text-anchor="middle" x="221.5" y="-37.8" font-family="Times,serif" font-size="14.00">tst &#160;&#160;r1, r5</text>
<text text-anchor="middle" x="221.5" y="-22.8" font-family="Times,serif" font-size="14.00">pop &#160;&#160;r4, r5, r6, r7</text>
<text text-anchor="middle" x="221.5" y="-7.8" font-family="Times,serif" font-size="14.00">bx &#160;&#160;lr</text>
</g>
<!-- _3DE6&#45;&gt;_3DEE_3DF2_3DF6 -->
<g id="edge11" class="edge"><title>_3DE6&#45;&gt;_3DEE_3DF2_3DF6</title>
<path fill="none" stroke="red" d="M158.623,-103.851C168.514,-91.8404 182.051,-75.4023 194.032,-60.8544"/>
<polygon fill="red" stroke="red" points="196.839,-62.9511 200.494,-53.0068 191.436,-58.5011 196.839,-62.9511"/>
<text text-anchor="middle" x="194.5" y="-74.8" font-family="Times,serif" font-size="14.00">MI</text>
</g>
<!-- _3DEA&#45;&gt;_3DE6 -->
<g id="edge10" class="edge"><title>_3DEA&#45;&gt;_3DE6</title>
<path fill="none" stroke="blue" d="M120.683,-44.7127C123.876,-52.6489 127.568,-62.2339 130.5,-71 132.977,-78.4055 135.381,-86.5242 137.477,-94.0257"/>
<polygon fill="blue" stroke="blue" points="134.12,-95.0176 140.123,-103.747 140.874,-93.179 134.12,-95.0176"/>
</g>
<!-- _3D20_3D24_3D28_3D2C_3D30_3D34_3D38_3D3C_3D40_3D44_3D48_3D4C_3D50_3D54_3D58_3D5C_3D60_3D64_3DE8_3DEC -->
<g id="node6" class="node"><title>_3D20_3D24_3D28_3D2C_3D30_3D34_3D38_3D3C_3D40_3D44_3D48_3D4C_3D50_3D54_3D58_3D5C_3D60_3D64_3DE8_3DEC</title>
<polygon fill="none" stroke="black" points="239.5,-1197 51.5,-1197 51.5,-889 239.5,-889 239.5,-1197"/>
<text text-anchor="middle" x="145.5" y="-1181.8" font-family="Times,serif" font-size="14.00">ldr &#160;&#160;r1, [pc, #56] &#160;&#160;; (3d5c )</text>
<text text-anchor="middle" x="145.5" y="-1166.8" font-family="Times,serif" font-size="14.00">strb &#160;&#160;r0, [r1, #0]</text>
<text text-anchor="middle" x="145.5" y="-1151.8" font-family="Times,serif" font-size="14.00">ldr &#160;&#160;r1, [r0, #52] &#160;&#160;; 0x34</text>
<text text-anchor="middle" x="145.5" y="-1136.8" font-family="Times,serif" font-size="14.00">orrs &#160;&#160;r1, r2</text>
<text text-anchor="middle" x="145.5" y="-1121.8" font-family="Times,serif" font-size="14.00">movs &#160;&#160;r0, #5</text>
<text text-anchor="middle" x="145.5" y="-1106.8" font-family="Times,serif" font-size="14.00">lsls &#160;&#160;r0, r0, #8</text>
<text text-anchor="middle" x="145.5" y="-1091.8" font-family="Times,serif" font-size="14.00">str &#160;&#160;r0, [r1, #36] &#160;&#160;; 0x24</text>
<text text-anchor="middle" x="145.5" y="-1076.8" font-family="Times,serif" font-size="14.00">movs &#160;&#160;r1, #18</text>
<text text-anchor="middle" x="145.5" y="-1061.8" font-family="Times,serif" font-size="14.00">movs &#160;&#160;r1, #192 &#160;&#160;; 0xc0</text>
<text text-anchor="middle" x="145.5" y="-1046.8" font-family="Times,serif" font-size="14.00">ldr &#160;&#160;r0, [pc, #36] &#160;&#160;; (3d6c )</text>
<text text-anchor="middle" x="145.5" y="-1031.8" font-family="Times,serif" font-size="14.00">lsrs &#160;&#160;r1, r1, #8</text>
<text text-anchor="middle" x="145.5" y="-1016.8" font-family="Times,serif" font-size="14.00">adds &#160;&#160;r1, #64 &#160;&#160;; =0x40 (IRQ0)</text>
<text text-anchor="middle" x="145.5" y="-1001.8" font-family="Times,serif" font-size="14.00">ldr &#160;&#160;r0, [pc, #28] &#160;&#160;; (3d70 )</text>
<text text-anchor="middle" x="145.5" y="-986.8" font-family="Times,serif" font-size="14.00">lsls &#160;&#160;r2, r2, #2</text>
<text text-anchor="middle" x="145.5" y="-971.8" font-family="Times,serif" font-size="14.00">str &#160;&#160;r1, [r0, #0]</text>
<text text-anchor="middle" x="145.5" y="-956.8" font-family="Times,serif" font-size="14.00">lsls &#160;&#160;r4, r2, #4</text>
<text text-anchor="middle" x="145.5" y="-941.8" font-family="Times,serif" font-size="14.00">strh &#160;&#160;r0, [r0, #0]</text>
<text text-anchor="middle" x="145.5" y="-926.8" font-family="Times,serif" font-size="14.00">beq 3de8</text>
<text text-anchor="middle" x="145.5" y="-911.8" font-family="Times,serif" font-size="14.00">lsls &#160;&#160;r3, r3, #24</text>
<text text-anchor="middle" x="145.5" y="-896.8" font-family="Times,serif" font-size="14.00">ldrb &#160;&#160;r1, [r1, #0]</text>
</g>
<!-- _3DF0 -->
<g id="node7" class="node"><title>_3DF0</title>
<polygon fill="none" stroke="black" points="124,-838 59,-838 59,-802 124,-802 124,-838"/>
<text text-anchor="middle" x="91.5" y="-816.3" font-family="Times,serif" font-size="14.00">beq 3df8</text>
</g>
<!-- _3D20_3D24_3D28_3D2C_3D30_3D34_3D38_3D3C_3D40_3D44_3D48_3D4C_3D50_3D54_3D58_3D5C_3D60_3D64_3DE8_3DEC&#45;&gt;_3DF0 -->
<g id="edge2" class="edge"><title>_3D20_3D24_3D28_3D2C_3D30_3D34_3D38_3D3C_3D40_3D44_3D48_3D4C_3D50_3D54_3D58_3D5C_3D60_3D64_3DE8_3DEC&#45;&gt;_3DF0</title>
<path fill="none" stroke="blue" d="M108.069,-888.809C104.318,-873.458 100.884,-859.405 98.1273,-848.123"/>
<polygon fill="blue" stroke="blue" points="101.477,-847.086 95.7034,-838.203 94.6771,-848.748 101.477,-847.086"/>
<text text-anchor="middle" x="113" y="-859.8" font-family="Times,serif" font-size="14.00">EQ</text>
</g>
<!-- _3DF4 -->
<g id="node8" class="node"><title>_3DF4</title>
<polygon fill="none" stroke="black" points="232.5,-838 142.5,-838 142.5,-802 232.5,-802 232.5,-838"/>
<text text-anchor="middle" x="187.5" y="-816.3" font-family="Times,serif" font-size="14.00">movs &#160;&#160;r0, #3</text>
</g>
<!-- _3D20_3D24_3D28_3D2C_3D30_3D34_3D38_3D3C_3D40_3D44_3D48_3D4C_3D50_3D54_3D58_3D5C_3D60_3D64_3DE8_3DEC&#45;&gt;_3DF4 -->
<g id="edge1" class="edge"><title>_3D20_3D24_3D28_3D2C_3D30_3D34_3D38_3D3C_3D40_3D44_3D48_3D4C_3D50_3D54_3D58_3D5C_3D60_3D64_3DE8_3DEC&#45;&gt;_3DF4</title>
<path fill="none" stroke="red" d="M174.613,-888.809C177.531,-873.458 180.201,-859.405 182.345,-848.123"/>
<polygon fill="red" stroke="red" points="185.802,-848.68 184.231,-838.203 178.925,-847.373 185.802,-848.68"/>
<text text-anchor="middle" x="190" y="-859.8" font-family="Times,serif" font-size="14.00">NE</text>
</g>
<!-- _3DF8_3DFC_3E00_3E04_3D7E_3D82_3D86_3D8A_3D8E_3D92_3D96_3D9A_3D9E_3DA2_3DA6_3DAA_3DAE -->
<g id="node10" class="node"><title>_3DF8_3DFC_3E00_3E04_3D7E_3D82_3D86_3D8A_3D8E_3D92_3D96_3D9A_3D9E_3DA2_3DA6_3DAA_3DAE</title>
<polygon fill="none" stroke="black" points="247,-751 0,-751 0,-488 247,-488 247,-751"/>
<text text-anchor="middle" x="123.5" y="-735.8" font-family="Times,serif" font-size="14.00">mov &#160;&#160;r1, r12</text>
<text text-anchor="middle" x="123.5" y="-720.8" font-family="Times,serif" font-size="14.00">adds &#160;&#160;r2, #4</text>
<text text-anchor="middle" x="123.5" y="-705.8" font-family="Times,serif" font-size="14.00">mov &#160;&#160;r12, r1</text>
<text text-anchor="middle" x="123.5" y="-690.8" font-family="Times,serif" font-size="14.00">bne 3d7e</text>
<text text-anchor="middle" x="123.5" y="-675.8" font-family="Times,serif" font-size="14.00">movs &#160;&#160;r1, #3</text>
<text text-anchor="middle" x="123.5" y="-660.8" font-family="Times,serif" font-size="14.00">ldr &#160;&#160;r6, [pc, #136] &#160;&#160;; (3e0c )</text>
<text text-anchor="middle" x="123.5" y="-645.8" font-family="Times,serif" font-size="14.00">str &#160;&#160;r1, [r6, #4]</text>
<text text-anchor="middle" x="123.5" y="-630.8" font-family="Times,serif" font-size="14.00">ldrb &#160;&#160;r3, [r2, #3]</text>
<text text-anchor="middle" x="123.5" y="-615.8" font-family="Times,serif" font-size="14.00">ldrb &#160;&#160;r4, [r2, #1]</text>
<text text-anchor="middle" x="123.5" y="-600.8" font-family="Times,serif" font-size="14.00">orrs &#160;&#160;r1, r4</text>
<text text-anchor="middle" x="123.5" y="-585.8" font-family="Times,serif" font-size="14.00">lsls &#160;&#160;r4, r4, #16</text>
<text text-anchor="middle" x="123.5" y="-570.8" font-family="Times,serif" font-size="14.00">lsls &#160;&#160;r3, r3, #24</text>
<text text-anchor="middle" x="123.5" y="-555.8" font-family="Times,serif" font-size="14.00">movs &#160;&#160;r3, #112 &#160;&#160;; 0x70: pointer to 0x1b3</text>
<text text-anchor="middle" x="123.5" y="-540.8" font-family="Times,serif" font-size="14.00">strb &#160;&#160;r3, [r6, #0]</text>
<text text-anchor="middle" x="123.5" y="-525.8" font-family="Times,serif" font-size="14.00">strb &#160;&#160;r4, [r6, #0]</text>
<text text-anchor="middle" x="123.5" y="-510.8" font-family="Times,serif" font-size="14.00">lsls &#160;&#160;r1, r1, #24</text>
<text text-anchor="middle" x="123.5" y="-495.8" font-family="Times,serif" font-size="14.00">ldrb &#160;&#160;r1, [r6, #0]</text>
</g>
<!-- _3DF0&#45;&gt;_3DF8_3DFC_3E00_3E04_3D7E_3D82_3D86_3D8A_3D8E_3D92_3D96_3D9A_3D9E_3DA2_3DA6_3DAA_3DAE -->
<g id="edge8" class="edge"><title>_3DF0&#45;&gt;_3DF8_3DFC_3E00_3E04_3D7E_3D82_3D86_3D8A_3D8E_3D92_3D96_3D9A_3D9E_3DA2_3DA6_3DAA_3DAE</title>
<path fill="none" stroke="blue" d="M94.2838,-801.732C95.946,-791.421 98.2302,-777.252 100.795,-761.342"/>
<polygon fill="blue" stroke="blue" points="104.289,-761.659 102.425,-751.23 97.3782,-760.545 104.289,-761.659"/>
<text text-anchor="middle" x="109" y="-772.8" font-family="Times,serif" font-size="14.00">EQ</text>
</g>
<!-- _3DF4&#45;&gt;_3DF8_3DFC_3E00_3E04_3D7E_3D82_3D86_3D8A_3D8E_3D92_3D96_3D9A_3D9E_3DA2_3DA6_3DAA_3DAE -->
<g id="edge3" class="edge"><title>_3DF4&#45;&gt;_3DF8_3DFC_3E00_3E04_3D7E_3D82_3D86_3D8A_3D8E_3D92_3D96_3D9A_3D9E_3DA2_3DA6_3DAA_3DAE</title>
<path fill="none" stroke="red" d="M181.932,-801.732C178.577,-791.324 173.953,-776.984 168.765,-760.891"/>
<polygon fill="red" stroke="red" points="172.049,-759.673 165.65,-751.23 165.387,-761.821 172.049,-759.673"/>
</g>
<!-- _3DF8_3DFC_3E00_3E04_3D7E_3D82_3D86_3D8A_3D8E_3D92_3D96_3D9A_3D9E_3DA2_3DA6_3DAA_3DAE&#45;&gt;_3DB2 -->
<g id="edge9" class="edge"><title>_3DF8_3DFC_3E00_3E04_3D7E_3D82_3D86_3D8A_3D8E_3D92_3D96_3D9A_3D9E_3DA2_3DA6_3DAA_3DAE&#45;&gt;_3DB2</title>
<path fill="none" stroke="blue" d="M101.106,-487.757C98.5053,-472.575 96.0927,-458.49 94.1484,-447.139"/>
<polygon fill="blue" stroke="blue" points="97.5751,-446.412 92.437,-437.147 90.6756,-447.594 97.5751,-446.412"/>
<text text-anchor="middle" x="108" y="-458.8" font-family="Times,serif" font-size="14.00">EQ</text>
</g>
<!-- _3DF8_3DFC_3E00_3E04_3D7E_3D82_3D86_3D8A_3D8E_3D92_3D96_3D9A_3D9E_3DA2_3DA6_3DAA_3DAE&#45;&gt;_3DB6 -->
<g id="edge12" class="edge"><title>_3DF8_3DFC_3E00_3E04_3D7E_3D82_3D86_3D8A_3D8E_3D92_3D96_3D9A_3D9E_3DA2_3DA6_3DAA_3DAE&#45;&gt;_3DB6</title>
<path fill="none" stroke="red" d="M164.337,-487.757C169.127,-472.419 173.569,-458.199 177.133,-446.788"/>
<polygon fill="red" stroke="red" points="180.504,-447.736 180.144,-437.147 173.822,-445.649 180.504,-447.736"/>
<text text-anchor="middle" x="184" y="-458.8" font-family="Times,serif" font-size="14.00">NE</text>
</g>
</g>
</svg>
