<?xml version="1.0" encoding="UTF-8" standalone="no"?>
<!DOCTYPE svg PUBLIC "-//W3C//DTD SVG 1.1//EN"
 "http://www.w3.org/Graphics/SVG/1.1/DTD/svg11.dtd">
<!-- Generated by graphviz version 2.38.0 (20140413.2041)
 -->
<!-- Title: G Pages: 1 -->
<svg width="255pt" height="222pt"
 viewBox="0.00 0.00 255.00 222.00" xmlns="http://www.w3.org/2000/svg" xmlns:xlink="http://www.w3.org/1999/xlink">
<g id="graph0" class="graph" transform="scale(1 1) rotate(0) translate(4 218)">
<title>G</title>
<polygon fill="white" stroke="none" points="-4,4 -4,-218 251,-218 251,4 -4,4"/>
<!-- _8508_850C -->
<g id="node1" class="node"><title>_8508_850C</title>
<polygon fill="none" stroke="black" points="247,-214 0,-214 0,-176 247,-176 247,-214"/>
<text text-anchor="middle" x="123.5" y="-198.8" font-family="Times,serif" font-size="14.00">movs &#160;&#160;r2, #8</text>
<text text-anchor="middle" x="123.5" y="-183.8" font-family="Times,serif" font-size="14.00">movs &#160;&#160;r3, #128 &#160;&#160;; 0x80: pointer to 0x1b3</text>
</g>
<!-- _8510 -->
<g id="node2" class="node"><title>_8510</title>
<polygon fill="none" stroke="black" points="106,-125 39,-125 39,-89 106,-89 106,-125"/>
<text text-anchor="middle" x="72.5" y="-103.3" font-family="Times,serif" font-size="14.00">beq 8518</text>
</g>
<!-- _8508_850C&#45;&gt;_8510 -->
<g id="edge3" class="edge"><title>_8508_850C&#45;&gt;_8510</title>
<path fill="none" stroke="blue" d="M112.684,-175.762C105.462,-163.583 95.8561,-147.385 87.8471,-133.879"/>
<polygon fill="blue" stroke="blue" points="90.7177,-131.858 82.6064,-125.042 84.6968,-135.429 90.7177,-131.858"/>
<text text-anchor="middle" x="111" y="-146.8" font-family="Times,serif" font-size="14.00">EQ</text>
</g>
<!-- _8514 -->
<g id="node3" class="node"><title>_8514</title>
<polygon fill="none" stroke="black" points="225,-125 124,-125 124,-89 225,-89 225,-125"/>
<text text-anchor="middle" x="174.5" y="-103.3" font-family="Times,serif" font-size="14.00">str &#160;&#160;r2, [r1, #4]</text>
</g>
<!-- _8508_850C&#45;&gt;_8514 -->
<g id="edge2" class="edge"><title>_8508_850C&#45;&gt;_8514</title>
<path fill="none" stroke="red" d="M134.316,-175.762C141.538,-163.583 151.144,-147.385 159.153,-133.879"/>
<polygon fill="red" stroke="red" points="162.303,-135.429 164.394,-125.042 156.282,-131.858 162.303,-135.429"/>
<text text-anchor="middle" x="163" y="-146.8" font-family="Times,serif" font-size="14.00">NE</text>
</g>
<!-- _8518_851C -->
<g id="node4" class="node"><title>_8518_851C</title>
<polygon fill="none" stroke="black" points="181,-38 80,-38 80,-0 181,-0 181,-38"/>
<text text-anchor="middle" x="130.5" y="-22.8" font-family="Times,serif" font-size="14.00">str &#160;&#160;r2, [r1, #8]</text>
<text text-anchor="middle" x="130.5" y="-7.8" font-family="Times,serif" font-size="14.00">bx &#160;&#160;lr</text>
</g>
<!-- _8510&#45;&gt;_8518_851C -->
<g id="edge1" class="edge"><title>_8510&#45;&gt;_8518_851C</title>
<path fill="none" stroke="blue" d="M84.2372,-88.5966C92.3288,-76.5986 103.24,-60.4204 112.433,-46.7887"/>
<polygon fill="blue" stroke="blue" points="115.49,-48.5157 118.18,-38.268 109.687,-44.6017 115.49,-48.5157"/>
<text text-anchor="middle" x="115" y="-59.8" font-family="Times,serif" font-size="14.00">EQ</text>
</g>
<!-- _8514&#45;&gt;_8518_851C -->
<g id="edge4" class="edge"><title>_8514&#45;&gt;_8518_851C</title>
<path fill="none" stroke="red" d="M165.596,-88.5966C159.516,-76.7129 151.338,-60.7282 144.405,-47.1789"/>
<polygon fill="red" stroke="red" points="147.517,-45.5763 139.846,-38.268 141.285,-48.7647 147.517,-45.5763"/>
<text text-anchor="middle" x="165" y="-59.8" font-family="Times,serif" font-size="14.00">NE</text>
</g>
</g>
</svg>
