<?xml version="1.0" encoding="UTF-8" standalone="no"?>
<!DOCTYPE svg PUBLIC "-//W3C//DTD SVG 1.1//EN"
 "http://www.w3.org/Graphics/SVG/1.1/DTD/svg11.dtd">
<!-- Generated by graphviz version 2.38.0 (20140413.2041)
 -->
<!-- Title: G Pages: 1 -->
<svg width="208pt" height="235pt"
 viewBox="0.00 0.00 208.00 235.00" xmlns="http://www.w3.org/2000/svg" xmlns:xlink="http://www.w3.org/1999/xlink">
<g id="graph0" class="graph" transform="scale(1 1) rotate(0) translate(4 231)">
<title>G</title>
<polygon fill="white" stroke="none" points="-4,4 -4,-231 204,-231 204,4 -4,4"/>
<!-- _A1A0 -->
<g id="node1" class="node"><title>_A1A0</title>
<polygon fill="none" stroke="black" points="110,-123 0,-123 0,-87 110,-87 110,-123"/>
<text text-anchor="middle" x="55" y="-101.3" font-family="Times,serif" font-size="14.00">ldr &#160;&#160;r0, [r0, #20]</text>
</g>
<!-- _A1A4 -->
<g id="node2" class="node"><title>_A1A4</title>
<polygon fill="none" stroke="black" points="143,-36 89,-36 89,-0 143,-0 143,-36"/>
<text text-anchor="middle" x="116" y="-14.3" font-family="Times,serif" font-size="14.00">bx &#160;&#160;lr</text>
</g>
<!-- _A1A0&#45;&gt;_A1A4 -->
<g id="edge4" class="edge"><title>_A1A0&#45;&gt;_A1A4</title>
<path fill="none" stroke="red" d="M67.3443,-86.799C76.0258,-74.7017 87.793,-58.3049 97.5805,-44.6665"/>
<polygon fill="red" stroke="red" points="100.687,-46.3405 103.674,-36.1754 95.0001,-42.2592 100.687,-46.3405"/>
<text text-anchor="middle" x="99.5" y="-57.8" font-family="Times,serif" font-size="14.00">EQ</text>
</g>
<!-- _A190_A194_A198 -->
<g id="node3" class="node"><title>_A190_A194_A198</title>
<polygon fill="none" stroke="black" points="200,-227 32,-227 32,-174 200,-174 200,-227"/>
<text text-anchor="middle" x="116" y="-211.8" font-family="Times,serif" font-size="14.00">ldr &#160;&#160;r0, [pc, #20] &#160;&#160;; (a1a8 )</text>
<text text-anchor="middle" x="116" y="-196.8" font-family="Times,serif" font-size="14.00">cmp &#160;&#160;r1, #0</text>
<text text-anchor="middle" x="116" y="-181.8" font-family="Times,serif" font-size="14.00">subs &#160;&#160;r1, #1</text>
</g>
<!-- _A190_A194_A198&#45;&gt;_A1A0 -->
<g id="edge1" class="edge"><title>_A190_A194_A198&#45;&gt;_A1A0</title>
<path fill="none" stroke="red" d="M99.3315,-173.951C90.7904,-160.859 80.4135,-144.953 71.847,-131.823"/>
<polygon fill="red" stroke="red" points="74.646,-129.707 66.2505,-123.245 68.7833,-133.532 74.646,-129.707"/>
<text text-anchor="middle" x="97.5" y="-144.8" font-family="Times,serif" font-size="14.00">EQ</text>
</g>
<!-- _A19C -->
<g id="node4" class="node"><title>_A19C</title>
<polygon fill="none" stroke="black" points="193.5,-123 128.5,-123 128.5,-87 193.5,-87 193.5,-123"/>
<text text-anchor="middle" x="161" y="-101.3" font-family="Times,serif" font-size="14.00">bne a1a4</text>
</g>
<!-- _A190_A194_A198&#45;&gt;_A19C -->
<g id="edge3" class="edge"><title>_A190_A194_A198&#45;&gt;_A19C</title>
<path fill="none" stroke="blue" d="M128.296,-173.951C134.476,-161.111 141.958,-145.564 148.206,-132.584"/>
<polygon fill="blue" stroke="blue" points="151.517,-133.773 152.7,-123.245 145.21,-130.738 151.517,-133.773"/>
<text text-anchor="middle" x="152.5" y="-144.8" font-family="Times,serif" font-size="14.00">NE</text>
</g>
<!-- _A19C&#45;&gt;_A1A4 -->
<g id="edge2" class="edge"><title>_A19C&#45;&gt;_A1A4</title>
<path fill="none" stroke="blue" d="M151.894,-86.799C145.55,-74.8169 136.974,-58.6168 129.795,-45.0569"/>
<polygon fill="blue" stroke="blue" points="132.865,-43.3757 125.093,-36.1754 126.679,-46.651 132.865,-43.3757"/>
<text text-anchor="middle" x="150.5" y="-57.8" font-family="Times,serif" font-size="14.00">NE</text>
</g>
</g>
</svg>
