<?xml version="1.0" encoding="UTF-8" standalone="no"?>
<!DOCTYPE svg PUBLIC "-//W3C//DTD SVG 1.1//EN"
 "http://www.w3.org/Graphics/SVG/1.1/DTD/svg11.dtd">
<!-- Generated by graphviz version 2.38.0 (20140413.2041)
 -->
<!-- Title: G Pages: 1 -->
<svg width="241pt" height="374pt"
 viewBox="0.00 0.00 241.00 374.00" xmlns="http://www.w3.org/2000/svg" xmlns:xlink="http://www.w3.org/1999/xlink">
<g id="graph0" class="graph" transform="scale(1 1) rotate(0) translate(4 370)">
<title>G</title>
<polygon fill="white" stroke="none" points="-4,4 -4,-370 237,-370 237,4 -4,4"/>
<!-- _1DA4 -->
<g id="node1" class="node"><title>_1DA4</title>
<polygon fill="none" stroke="black" points="65,-282.5 0,-282.5 0,-246.5 65,-246.5 65,-282.5"/>
<text text-anchor="middle" x="32.5" y="-260.8" font-family="Times,serif" font-size="14.00">bcs 1d94</text>
</g>
<!-- _1D94_1D98_1D9C_1DA0 -->
<g id="node6" class="node"><title>_1D94_1D98_1D9C_1DA0</title>
<polygon fill="none" stroke="black" points="147.5,-187 1.5,-187 1.5,-119 147.5,-119 147.5,-187"/>
<text text-anchor="middle" x="74.5" y="-171.8" font-family="Times,serif" font-size="14.00">subs &#160;&#160;r1, #16</text>
<text text-anchor="middle" x="74.5" y="-156.8" font-family="Times,serif" font-size="14.00">subs &#160;&#160;r0, #16</text>
<text text-anchor="middle" x="74.5" y="-141.8" font-family="Times,serif" font-size="14.00">ldmia &#160;&#160;r3, r3, r4, r5, r6</text>
<text text-anchor="middle" x="74.5" y="-126.8" font-family="Times,serif" font-size="14.00">subs &#160;&#160;r0, #16</text>
</g>
<!-- _1DA4&#45;&gt;_1D94_1D98_1D9C_1DA0 -->
<g id="edge7" class="edge"><title>_1DA4&#45;&gt;_1D94_1D98_1D9C_1DA0</title>
<path fill="none" stroke="blue" d="M28.0601,-246.297C25.8147,-234.333 24.5006,-218.222 29.5,-205 30.7274,-201.754 32.2661,-198.581 34.0284,-195.507"/>
<polygon fill="blue" stroke="blue" points="36.9648,-197.412 39.5145,-187.128 31.1084,-193.577 36.9648,-197.412"/>
<text text-anchor="middle" x="39" y="-208.8" font-family="Times,serif" font-size="14.00">EQ</text>
</g>
<!-- _1D84_1D88_1D8C -->
<g id="node2" class="node"><title>_1D84_1D88_1D8C</title>
<polygon fill="none" stroke="black" points="193.5,-291 83.5,-291 83.5,-238 193.5,-238 193.5,-291"/>
<text text-anchor="middle" x="138.5" y="-275.8" font-family="Times,serif" font-size="14.00">subs &#160;&#160;r1, #1</text>
<text text-anchor="middle" x="138.5" y="-260.8" font-family="Times,serif" font-size="14.00">ldrb &#160;&#160;r3, [r1, #0]</text>
<text text-anchor="middle" x="138.5" y="-245.8" font-family="Times,serif" font-size="14.00">strb &#160;&#160;r3, [r0, #0]</text>
</g>
<!-- _1D90 -->
<g id="node3" class="node"><title>_1D90</title>
<polygon fill="none" stroke="black" points="233,-171 166,-171 166,-135 233,-135 233,-171"/>
<text text-anchor="middle" x="199.5" y="-149.3" font-family="Times,serif" font-size="14.00">bne 1d84</text>
</g>
<!-- _1D84_1D88_1D8C&#45;&gt;_1D90 -->
<g id="edge6" class="edge"><title>_1D84_1D88_1D8C&#45;&gt;_1D90</title>
<path fill="none" stroke="blue" d="M146.359,-237.727C150.014,-227.262 154.817,-215.249 160.5,-205 165.474,-196.029 171.913,-186.917 178.119,-178.924"/>
<polygon fill="blue" stroke="blue" points="180.905,-181.044 184.432,-171.054 175.445,-176.665 180.905,-181.044"/>
<text text-anchor="middle" x="170" y="-208.8" font-family="Times,serif" font-size="14.00">NE</text>
</g>
<!-- _1D84_1D88_1D8C&#45;&gt;_1D94_1D98_1D9C_1DA0 -->
<g id="edge1" class="edge"><title>_1D84_1D88_1D8C&#45;&gt;_1D94_1D98_1D9C_1DA0</title>
<path fill="none" stroke="red" d="M123.495,-237.827C116.282,-225.486 107.446,-210.368 99.273,-196.385"/>
<polygon fill="red" stroke="red" points="102.09,-194.268 94.022,-187.401 96.0463,-197.801 102.09,-194.268"/>
<text text-anchor="middle" x="122" y="-208.8" font-family="Times,serif" font-size="14.00">EQ</text>
</g>
<!-- _1D90&#45;&gt;_1D84_1D88_1D8C -->
<g id="edge2" class="edge"><title>_1D90&#45;&gt;_1D84_1D88_1D8C</title>
<path fill="none" stroke="blue" d="M197.99,-171.244C196.164,-185.165 192.172,-204.858 183.5,-220 181.492,-223.506 179.118,-226.912 176.526,-230.172"/>
<polygon fill="blue" stroke="blue" points="173.671,-228.12 169.721,-237.951 178.939,-232.729 173.671,-228.12"/>
</g>
<!-- _1D78_1D80 -->
<g id="node4" class="node"><title>_1D78_1D80</title>
<polygon fill="none" stroke="black" points="197.5,-366 79.5,-366 79.5,-328 197.5,-328 197.5,-366"/>
<text text-anchor="middle" x="138.5" y="-350.8" font-family="Times,serif" font-size="14.00">push &#160;&#160;r4, r5, r6, lr</text>
<text text-anchor="middle" x="138.5" y="-335.8" font-family="Times,serif" font-size="14.00">adds &#160;&#160;r0, r0, r2</text>
</g>
<!-- _1D78_1D80&#45;&gt;_1D84_1D88_1D8C -->
<g id="edge4" class="edge"><title>_1D78_1D80&#45;&gt;_1D84_1D88_1D8C</title>
<path fill="none" stroke="red" d="M138.5,-327.733C138.5,-319.847 138.5,-310.335 138.5,-301.148"/>
<polygon fill="red" stroke="red" points="142,-301.017 138.5,-291.017 135,-301.017 142,-301.017"/>
</g>
<!-- _1DA8_1DAC_1DB0_1DB4 -->
<g id="node5" class="node"><title>_1DA8_1DAC_1DB0_1DB4</title>
<polygon fill="none" stroke="black" points="133,-68 16,-68 16,-0 133,-0 133,-68"/>
<text text-anchor="middle" x="74.5" y="-52.8" font-family="Times,serif" font-size="14.00">subs &#160;&#160;r0, #4</text>
<text text-anchor="middle" x="74.5" y="-37.8" font-family="Times,serif" font-size="14.00">ldr &#160;&#160;r3, [r1, #0]</text>
<text text-anchor="middle" x="74.5" y="-22.8" font-family="Times,serif" font-size="14.00">subs &#160;&#160;r2, #4</text>
<text text-anchor="middle" x="74.5" y="-7.8" font-family="Times,serif" font-size="14.00">pop &#160;&#160;r4, r5, r6, pc</text>
</g>
<!-- _1D94_1D98_1D9C_1DA0&#45;&gt;_1DA4 -->
<g id="edge3" class="edge"><title>_1D94_1D98_1D9C_1DA0&#45;&gt;_1DA4</title>
<path fill="none" stroke="blue" d="M64.2332,-187.154C60.7473,-197.738 56.6727,-209.441 52.5,-220 50.269,-225.646 47.6832,-231.61 45.1266,-237.252"/>
<polygon fill="blue" stroke="blue" points="41.9489,-235.785 40.9195,-246.33 48.3,-238.729 41.9489,-235.785"/>
<text text-anchor="middle" x="67" y="-208.8" font-family="Times,serif" font-size="14.00">CS</text>
</g>
<!-- _1D94_1D98_1D9C_1DA0&#45;&gt;_1DA8_1DAC_1DB0_1DB4 -->
<g id="edge5" class="edge"><title>_1D94_1D98_1D9C_1DA0&#45;&gt;_1DA8_1DAC_1DB0_1DB4</title>
<path fill="none" stroke="red" d="M74.5,-118.785C74.5,-106.311 74.5,-91.9377 74.5,-78.657"/>
<polygon fill="red" stroke="red" points="78.0001,-78.2976 74.5,-68.2976 71.0001,-78.2976 78.0001,-78.2976"/>
<text text-anchor="middle" x="84" y="-89.8" font-family="Times,serif" font-size="14.00">CC</text>
</g>
</g>
</svg>
