<?xml version="1.0" encoding="UTF-8" standalone="no"?>
<!DOCTYPE svg PUBLIC "-//W3C//DTD SVG 1.1//EN"
 "http://www.w3.org/Graphics/SVG/1.1/DTD/svg11.dtd">
<!-- Generated by graphviz version 2.38.0 (20140413.2041)
 -->
<!-- Title: G Pages: 1 -->
<svg width="270pt" height="208pt"
 viewBox="0.00 0.00 270.00 208.00" xmlns="http://www.w3.org/2000/svg" xmlns:xlink="http://www.w3.org/1999/xlink">
<g id="graph0" class="graph" transform="scale(1 1) rotate(0) translate(4 204)">
<title>G</title>
<polygon fill="white" stroke="none" points="-4,4 -4,-204 266,-204 266,4 -4,4"/>
<!-- _A0A4_A0A8 -->
<g id="node1" class="node"><title>_A0A4_A0A8</title>
<polygon fill="none" stroke="black" points="169,-200 1.42109e-14,-200 1.42109e-14,-162 169,-162 169,-200"/>
<text text-anchor="middle" x="84.5" y="-184.8" font-family="Times,serif" font-size="14.00">ldr &#160;&#160;r1, [pc, #16] &#160;&#160;; (a0b8 )</text>
<text text-anchor="middle" x="84.5" y="-169.8" font-family="Times,serif" font-size="14.00">lsls &#160;&#160;r2, r2, #8</text>
</g>
<!-- _A0AC_A0B0 -->
<g id="node2" class="node"><title>_A0AC_A0B0</title>
<polygon fill="none" stroke="black" points="139.5,-125 29.5,-125 29.5,-87 139.5,-87 139.5,-125"/>
<text text-anchor="middle" x="84.5" y="-109.8" font-family="Times,serif" font-size="14.00">ldr &#160;&#160;r3, [r1, #24]</text>
<text text-anchor="middle" x="84.5" y="-94.8" font-family="Times,serif" font-size="14.00">subs &#160;&#160;r3, r2, r3</text>
</g>
<!-- _A0A4_A0A8&#45;&gt;_A0AC_A0B0 -->
<g id="edge4" class="edge"><title>_A0A4_A0A8&#45;&gt;_A0AC_A0B0</title>
<path fill="none" stroke="red" d="M84.5,-161.955C84.5,-153.883 84.5,-144.176 84.5,-135.182"/>
<polygon fill="red" stroke="red" points="88.0001,-135.09 84.5,-125.09 81.0001,-135.09 88.0001,-135.09"/>
</g>
<!-- _A0B4 -->
<g id="node3" class="node"><title>_A0B4</title>
<polygon fill="none" stroke="black" points="82.5,-36 18.5,-36 18.5,-0 82.5,-0 82.5,-36"/>
<text text-anchor="middle" x="50.5" y="-14.3" font-family="Times,serif" font-size="14.00">bcc a0ac</text>
</g>
<!-- _A0AC_A0B0&#45;&gt;_A0B4 -->
<g id="edge2" class="edge"><title>_A0AC_A0B0&#45;&gt;_A0B4</title>
<path fill="none" stroke="red" d="M63.0711,-86.6593C58.3999,-81.4669 54.0851,-75.4539 51.5,-69 48.6914,-61.988 47.6763,-53.9672 47.56,-46.4333"/>
<polygon fill="red" stroke="red" points="51.0638,-46.3742 47.9009,-36.2626 44.0678,-46.1397 51.0638,-46.3742"/>
<text text-anchor="middle" x="61" y="-57.8" font-family="Times,serif" font-size="14.00">CC</text>
</g>
<!-- _A0B8 -->
<g id="node4" class="node"><title>_A0B8</title>
<polygon fill="none" stroke="black" points="262,-36 101,-36 101,-0 262,-0 262,-36"/>
<text text-anchor="middle" x="181.5" y="-14.3" font-family="Times,serif" font-size="14.00">b.n &#160;&#160;<a xlink:href="sub_0000a0bc.htm" style="fill: blue" xlink:show="new" target="_top">timerSendPacket</a> &#160;&#160;</text>
</g>
<!-- _A0AC_A0B0&#45;&gt;_A0B8 -->
<g id="edge1" class="edge"><title>_A0AC_A0B0&#45;&gt;_A0B8</title>
<path fill="none" stroke="blue" d="M105.071,-86.7616C119.468,-73.9976 138.845,-56.8179 154.486,-42.9509"/>
<polygon fill="blue" stroke="blue" points="157.117,-45.2952 162.278,-36.0422 152.473,-40.0574 157.117,-45.2952"/>
<text text-anchor="middle" x="151" y="-57.8" font-family="Times,serif" font-size="14.00">CS</text>
</g>
<!-- _A0B4&#45;&gt;_A0AC_A0B0 -->
<g id="edge3" class="edge"><title>_A0B4&#45;&gt;_A0AC_A0B0</title>
<path fill="none" stroke="red" d="M61.3602,-36.0096C64.6109,-41.5915 67.9774,-47.9243 70.5,-54 73.5014,-61.2291 76.0564,-69.2991 78.1294,-76.8483"/>
<polygon fill="red" stroke="red" points="74.7793,-77.8751 80.6541,-86.692 81.5599,-76.1359 74.7793,-77.8751"/>
</g>
</g>
</svg>
