<?xml version="1.0" encoding="UTF-8" standalone="no"?>
<!DOCTYPE svg PUBLIC "-//W3C//DTD SVG 1.1//EN"
 "http://www.w3.org/Graphics/SVG/1.1/DTD/svg11.dtd">
<!-- Generated by graphviz version 2.38.0 (20140413.2041)
 -->
<!-- Title: G Pages: 1 -->
<svg width="265pt" height="480pt"
 viewBox="0.00 0.00 264.50 480.00" xmlns="http://www.w3.org/2000/svg" xmlns:xlink="http://www.w3.org/1999/xlink">
<g id="graph0" class="graph" transform="scale(1 1) rotate(0) translate(4 476)">
<title>G</title>
<polygon fill="white" stroke="none" points="-4,4 -4,-476 260.5,-476 260.5,4 -4,4"/>
<!-- _788_78C -->
<g id="node1" class="node"><title>_788_78C</title>
<polygon fill="none" stroke="black" points="188,-38 78,-38 78,-0 188,-0 188,-38"/>
<text text-anchor="middle" x="133" y="-22.8" font-family="Times,serif" font-size="14.00">ldrb &#160;&#160;r1, [r0, #6]</text>
<text text-anchor="middle" x="133" y="-7.8" font-family="Times,serif" font-size="14.00">bpl 788</text>
</g>
<!-- _788_78C&#45;&gt;_788_78C -->
<g id="edge6" class="edge"><title>_788_78C&#45;&gt;_788_78C</title>
<path fill="none" stroke="red" d="M188.073,-25.427C198.574,-24.658 206,-22.5156 206,-19 206,-16.7478 202.952,-15.0592 198.001,-13.9342"/>
<polygon fill="red" stroke="red" points="198.456,-10.4639 188.073,-12.573 197.505,-17.399 198.456,-10.4639"/>
</g>
<!-- _738_73C_740_744_748_74C_750_754_758_75C_760 -->
<g id="node2" class="node"><title>_738_73C_740_744_748_74C_750_754_758_75C_760</title>
<polygon fill="none" stroke="black" points="256.5,-472 9.5,-472 9.5,-299 256.5,-299 256.5,-472"/>
<text text-anchor="middle" x="133" y="-456.8" font-family="Times,serif" font-size="14.00">ldr &#160;&#160;r1, [pc, #164] &#160;&#160;; (7e0 )</text>
<text text-anchor="middle" x="133" y="-441.8" font-family="Times,serif" font-size="14.00">str &#160;&#160;r0, [r1, #0]</text>
<text text-anchor="middle" x="133" y="-426.8" font-family="Times,serif" font-size="14.00">movs &#160;&#160;r0, #0</text>
<text text-anchor="middle" x="133" y="-411.8" font-family="Times,serif" font-size="14.00">ldr &#160;&#160;r0, [pc, #164] &#160;&#160;; (7ec )</text>
<text text-anchor="middle" x="133" y="-396.8" font-family="Times,serif" font-size="14.00">str &#160;&#160;r1, [r0, #20]</text>
<text text-anchor="middle" x="133" y="-381.8" font-family="Times,serif" font-size="14.00">movs &#160;&#160;r2, #1</text>
<text text-anchor="middle" x="133" y="-366.8" font-family="Times,serif" font-size="14.00">str &#160;&#160;r1, [r0, #16]</text>
<text text-anchor="middle" x="133" y="-351.8" font-family="Times,serif" font-size="14.00">movs &#160;&#160;r1, #156 &#160;&#160;; 0x9c: pointer to 0x1b3</text>
<text text-anchor="middle" x="133" y="-336.8" font-family="Times,serif" font-size="14.00">movs &#160;&#160;r1, #152 &#160;&#160;; 0x98: pointer to 0x1b3</text>
<text text-anchor="middle" x="133" y="-321.8" font-family="Times,serif" font-size="14.00">ldrb &#160;&#160;r1, [r0, #6]</text>
<text text-anchor="middle" x="133" y="-306.8" font-family="Times,serif" font-size="14.00">lsls &#160;&#160;r1, r1, #27</text>
</g>
<!-- _764_768 -->
<g id="node3" class="node"><title>_764_768</title>
<polygon fill="none" stroke="black" points="188,-262 78,-262 78,-224 188,-224 188,-262"/>
<text text-anchor="middle" x="133" y="-246.8" font-family="Times,serif" font-size="14.00">ldrb &#160;&#160;r1, [r0, #6]</text>
<text text-anchor="middle" x="133" y="-231.8" font-family="Times,serif" font-size="14.00">lsrs &#160;&#160;r1, r1, #30</text>
</g>
<!-- _738_73C_740_744_748_74C_750_754_758_75C_760&#45;&gt;_764_768 -->
<g id="edge4" class="edge"><title>_738_73C_740_744_748_74C_750_754_758_75C_760&#45;&gt;_764_768</title>
<path fill="none" stroke="red" d="M133,-298.723C133,-289.296 133,-280.262 133,-272.346"/>
<polygon fill="red" stroke="red" points="136.5,-272.314 133,-262.314 129.5,-272.314 136.5,-272.314"/>
</g>
<!-- _76C -->
<g id="node4" class="node"><title>_76C</title>
<polygon fill="none" stroke="black" points="60,-142 3.55271e-15,-142 3.55271e-15,-106 60,-106 60,-142"/>
<text text-anchor="middle" x="30" y="-120.3" font-family="Times,serif" font-size="14.00">bne 764</text>
</g>
<!-- _764_768&#45;&gt;_76C -->
<g id="edge2" class="edge"><title>_764_768&#45;&gt;_76C</title>
<path fill="none" stroke="blue" d="M77.8761,-227.13C67.0261,-221.98 56.6491,-215.115 49,-206 36.467,-191.064 31.8683,-169.359 30.3213,-152.176"/>
<polygon fill="blue" stroke="blue" points="33.8129,-151.93 29.7087,-142.162 26.8259,-152.357 33.8129,-151.93"/>
<text text-anchor="middle" x="58.5" y="-194.8" font-family="Times,serif" font-size="14.00">NE</text>
</g>
<!-- _770_774_778_77C_780_784 -->
<g id="node5" class="node"><title>_770_774_778_77C_780_784</title>
<polygon fill="none" stroke="black" points="188,-173 78,-173 78,-75 188,-75 188,-173"/>
<text text-anchor="middle" x="133" y="-157.8" font-family="Times,serif" font-size="14.00">lsrs &#160;&#160;r1, r1, #5</text>
<text text-anchor="middle" x="133" y="-142.8" font-family="Times,serif" font-size="14.00">adds &#160;&#160;r1, r1, #3</text>
<text text-anchor="middle" x="133" y="-127.8" font-family="Times,serif" font-size="14.00">ldrb &#160;&#160;r1, [r0, #5]</text>
<text text-anchor="middle" x="133" y="-112.8" font-family="Times,serif" font-size="14.00">orrs &#160;&#160;r1, r2</text>
<text text-anchor="middle" x="133" y="-97.8" font-family="Times,serif" font-size="14.00">ldrb &#160;&#160;r1, [r0, #5]</text>
<text text-anchor="middle" x="133" y="-82.8" font-family="Times,serif" font-size="14.00">lsls &#160;&#160;r1, r1, #5</text>
</g>
<!-- _764_768&#45;&gt;_770_774_778_77C_780_784 -->
<g id="edge5" class="edge"><title>_764_768&#45;&gt;_770_774_778_77C_780_784</title>
<path fill="none" stroke="red" d="M133,-223.975C133,-212.934 133,-198.119 133,-183.32"/>
<polygon fill="red" stroke="red" points="136.5,-183.124 133,-173.124 129.5,-183.124 136.5,-183.124"/>
<text text-anchor="middle" x="142.5" y="-194.8" font-family="Times,serif" font-size="14.00">EQ</text>
</g>
<!-- _76C&#45;&gt;_764_768 -->
<g id="edge3" class="edge"><title>_76C&#45;&gt;_764_768</title>
<path fill="none" stroke="blue" d="M43.4509,-142.106C50.8473,-151.371 60.2703,-162.947 69,-173 81.6864,-187.609 96.3308,-203.467 108.407,-216.293"/>
<polygon fill="blue" stroke="blue" points="106.139,-218.989 115.554,-223.848 111.225,-214.178 106.139,-218.989"/>
</g>
<!-- _770_774_778_77C_780_784&#45;&gt;_788_78C -->
<g id="edge1" class="edge"><title>_770_774_778_77C_780_784&#45;&gt;_788_78C</title>
<path fill="none" stroke="red" d="M133,-74.8173C133,-65.789 133,-56.6241 133,-48.4388"/>
<polygon fill="red" stroke="red" points="136.5,-48.3364 133,-38.3364 129.5,-48.3365 136.5,-48.3364"/>
</g>
</g>
</svg>
