<?xml version="1.0" encoding="UTF-8" standalone="no"?>
<!DOCTYPE svg PUBLIC "-//W3C//DTD SVG 1.1//EN"
 "http://www.w3.org/Graphics/SVG/1.1/DTD/svg11.dtd">
<!-- Generated by graphviz version 2.38.0 (20140413.2041)
 -->
<!-- Title: G Pages: 1 -->
<svg width="316pt" height="1059pt"
 viewBox="0.00 0.00 315.50 1059.00" xmlns="http://www.w3.org/2000/svg" xmlns:xlink="http://www.w3.org/1999/xlink">
<g id="graph0" class="graph" transform="scale(1 1) rotate(0) translate(4 1055)">
<title>G</title>
<polygon fill="white" stroke="none" points="-4,4 -4,-1055 311.5,-1055 311.5,4 -4,4"/>
<!-- _A214 -->
<g id="node1" class="node"><title>_A214</title>
<polygon fill="none" stroke="black" points="251,-574 141,-574 141,-538 251,-538 251,-574"/>
<text text-anchor="middle" x="196" y="-552.3" font-family="Times,serif" font-size="14.00">ldrb &#160;&#160;r1, [r0, #6]</text>
</g>
<!-- _A218 -->
<g id="node2" class="node"><title>_A218</title>
<polygon fill="none" stroke="black" points="123,-456 59,-456 59,-420 123,-420 123,-456"/>
<text text-anchor="middle" x="91" y="-434.3" font-family="Times,serif" font-size="14.00">bpl a214</text>
</g>
<!-- _A214&#45;&gt;_A218 -->
<g id="edge2" class="edge"><title>_A214&#45;&gt;_A218</title>
<path fill="none" stroke="blue" d="M140.918,-540.09C130.492,-535.133 120.514,-528.594 113,-520 100.053,-505.192 94.6425,-483.48 92.4208,-466.262"/>
<polygon fill="blue" stroke="blue" points="95.8944,-465.823 91.4107,-456.223 88.9296,-466.523 95.8944,-465.823"/>
<text text-anchor="middle" x="121" y="-508.8" font-family="Times,serif" font-size="14.00">PL</text>
</g>
<!-- _A21C_A220_A224_A228_A22C_A230 -->
<g id="node4" class="node"><title>_A21C_A220_A224_A228_A22C_A230</title>
<polygon fill="none" stroke="black" points="251,-487 141,-487 141,-389 251,-389 251,-487"/>
<text text-anchor="middle" x="196" y="-471.8" font-family="Times,serif" font-size="14.00">ldr &#160;&#160;r1, [r4, #4]</text>
<text text-anchor="middle" x="196" y="-456.8" font-family="Times,serif" font-size="14.00">lsls &#160;&#160;r5, r5, #16</text>
<text text-anchor="middle" x="196" y="-441.8" font-family="Times,serif" font-size="14.00">movs &#160;&#160;r5, #1</text>
<text text-anchor="middle" x="196" y="-426.8" font-family="Times,serif" font-size="14.00">orrs &#160;&#160;r1, r5</text>
<text text-anchor="middle" x="196" y="-411.8" font-family="Times,serif" font-size="14.00">ldrb &#160;&#160;r1, [r0, #0]</text>
<text text-anchor="middle" x="196" y="-396.8" font-family="Times,serif" font-size="14.00">lsrs &#160;&#160;r1, r1, #26</text>
</g>
<!-- _A214&#45;&gt;_A21C_A220_A224_A228_A22C_A230 -->
<g id="edge5" class="edge"><title>_A214&#45;&gt;_A21C_A220_A224_A228_A22C_A230</title>
<path fill="none" stroke="red" d="M196,-537.884C196,-526.977 196,-512.146 196,-497.289"/>
<polygon fill="red" stroke="red" points="199.5,-497.048 196,-487.048 192.5,-497.048 199.5,-497.048"/>
<text text-anchor="middle" x="205" y="-508.8" font-family="Times,serif" font-size="14.00">MI</text>
</g>
<!-- _A218&#45;&gt;_A214 -->
<g id="edge4" class="edge"><title>_A218&#45;&gt;_A214</title>
<path fill="none" stroke="blue" d="M105.224,-456.055C113.024,-465.304 122.927,-476.882 132,-487 145.086,-501.593 160.087,-517.57 172.275,-530.368"/>
<polygon fill="blue" stroke="blue" points="170.019,-533.073 179.458,-537.885 175.08,-528.237 170.019,-533.073"/>
</g>
<!-- _A23C -->
<g id="node3" class="node"><title>_A23C</title>
<polygon fill="none" stroke="black" points="66,-149.5 0,-149.5 0,-113.5 66,-113.5 66,-149.5"/>
<text text-anchor="middle" x="33" y="-127.8" font-family="Times,serif" font-size="14.00">bne a234</text>
</g>
<!-- _A234_A238 -->
<g id="node5" class="node"><title>_A234_A238</title>
<polygon fill="none" stroke="black" points="251,-352 141,-352 141,-314 251,-314 251,-352"/>
<text text-anchor="middle" x="196" y="-336.8" font-family="Times,serif" font-size="14.00">ldrb &#160;&#160;r1, [r0, #6]</text>
<text text-anchor="middle" x="196" y="-321.8" font-family="Times,serif" font-size="14.00">lsrs &#160;&#160;r1, r1, #30</text>
</g>
<!-- _A23C&#45;&gt;_A234_A238 -->
<g id="edge1" class="edge"><title>_A23C&#45;&gt;_A234_A238</title>
<path fill="none" stroke="blue" d="M34.5476,-149.594C37.7758,-176.459 47.3965,-229.001 75,-263 91.344,-283.131 115.225,-298.503 137.461,-309.571"/>
<polygon fill="blue" stroke="blue" points="136.002,-312.753 146.534,-313.902 139.017,-306.436 136.002,-312.753"/>
</g>
<!-- _A21C_A220_A224_A228_A22C_A230&#45;&gt;_A234_A238 -->
<g id="edge7" class="edge"><title>_A21C_A220_A224_A228_A22C_A230&#45;&gt;_A234_A238</title>
<path fill="none" stroke="red" d="M196,-388.817C196,-379.789 196,-370.624 196,-362.439"/>
<polygon fill="red" stroke="red" points="199.5,-362.336 196,-352.336 192.5,-362.336 199.5,-362.336"/>
</g>
<!-- _A234_A238&#45;&gt;_A23C -->
<g id="edge3" class="edge"><title>_A234_A238&#45;&gt;_A23C</title>
<path fill="none" stroke="blue" d="M140.919,-328.523C116.392,-324.173 89.0356,-315 71,-296 35.8171,-258.937 31.0042,-195.932 31.4631,-159.917"/>
<polygon fill="blue" stroke="blue" points="34.9688,-159.758 31.747,-149.665 27.9714,-159.564 34.9688,-159.758"/>
<text text-anchor="middle" x="80.5" y="-284.8" font-family="Times,serif" font-size="14.00">NE</text>
</g>
<!-- _A240_A244_A248_A24C_A250_A254_A258_A25C_A260_A264_A268_A26C_A270_A274_A278_A27C_A280 -->
<g id="node9" class="node"><title>_A240_A244_A248_A24C_A250_A254_A258_A25C_A260_A264_A268_A26C_A270_A274_A278_A27C_A280</title>
<polygon fill="none" stroke="black" points="307.5,-263 84.5,-263 84.5,-0 307.5,-0 307.5,-263"/>
<text text-anchor="middle" x="196" y="-247.8" font-family="Times,serif" font-size="14.00">ldrb &#160;&#160;r1, [r0, #0]</text>
<text text-anchor="middle" x="196" y="-232.8" font-family="Times,serif" font-size="14.00">orrs &#160;&#160;r1, r5</text>
<text text-anchor="middle" x="196" y="-217.8" font-family="Times,serif" font-size="14.00">ldr &#160;&#160;r0, [pc, #84] &#160;&#160;; (a2a0 )</text>
<text text-anchor="middle" x="196" y="-202.8" font-family="Times,serif" font-size="14.00">movs &#160;&#160;r5, #3</text>
<text text-anchor="middle" x="196" y="-187.8" font-family="Times,serif" font-size="14.00">ands &#160;&#160;r1, r5</text>
<text text-anchor="middle" x="196" y="-172.8" font-family="Times,serif" font-size="14.00">lsls &#160;&#160;r5, r5, #25</text>
<text text-anchor="middle" x="196" y="-157.8" font-family="Times,serif" font-size="14.00">str &#160;&#160;r1, [r0, #4]</text>
<text text-anchor="middle" x="196" y="-142.8" font-family="Times,serif" font-size="14.00">movs &#160;&#160;r5, #31</text>
<text text-anchor="middle" x="196" y="-127.8" font-family="Times,serif" font-size="14.00">orrs &#160;&#160;r1, r5</text>
<text text-anchor="middle" x="196" y="-112.8" font-family="Times,serif" font-size="14.00">ldr &#160;&#160;r1, [r0, #60] &#160;&#160;; =0x3C (SysTick)</text>
<text text-anchor="middle" x="196" y="-97.8" font-family="Times,serif" font-size="14.00">orrs &#160;&#160;r1, r5</text>
<text text-anchor="middle" x="196" y="-82.8" font-family="Times,serif" font-size="14.00">ldr &#160;&#160;r0, [r4, #0]</text>
<text text-anchor="middle" x="196" y="-67.8" font-family="Times,serif" font-size="14.00">orrs &#160;&#160;r0, r1</text>
<text text-anchor="middle" x="196" y="-52.8" font-family="Times,serif" font-size="14.00">ldr &#160;&#160;r0, [pc, #44] &#160;&#160;; (a2a4 )</text>
<text text-anchor="middle" x="196" y="-37.8" font-family="Times,serif" font-size="14.00">str &#160;&#160;r3, [r2, #8]</text>
<text text-anchor="middle" x="196" y="-22.8" font-family="Times,serif" font-size="14.00">str &#160;&#160;r0, [r2, #4]</text>
<text text-anchor="middle" x="196" y="-7.8" font-family="Times,serif" font-size="14.00">bx &#160;&#160;lr</text>
</g>
<!-- _A234_A238&#45;&gt;_A240_A244_A248_A24C_A250_A254_A258_A25C_A260_A264_A268_A26C_A270_A274_A278_A27C_A280 -->
<g id="edge11" class="edge"><title>_A234_A238&#45;&gt;_A240_A244_A248_A24C_A250_A254_A258_A25C_A260_A264_A268_A26C_A270_A274_A278_A27C_A280</title>
<path fill="none" stroke="red" d="M196,-313.944C196,-303.459 196,-289.181 196,-273.206"/>
<polygon fill="red" stroke="red" points="199.5,-273.06 196,-263.06 192.5,-273.06 199.5,-273.06"/>
<text text-anchor="middle" x="205.5" y="-284.8" font-family="Times,serif" font-size="14.00">EQ</text>
</g>
<!-- _A1BC_A1C0_A1C4_A1C8_A1CC_A1D0_A1D4_A1D8_A1DC_A1E0 -->
<g id="node6" class="node"><title>_A1BC_A1C0_A1C4_A1C8_A1CC_A1D0_A1D4_A1D8_A1DC_A1E0</title>
<polygon fill="none" stroke="black" points="284,-1051 108,-1051 108,-893 284,-893 284,-1051"/>
<text text-anchor="middle" x="196" y="-1035.8" font-family="Times,serif" font-size="14.00">push &#160;&#160;r4, r5</text>
<text text-anchor="middle" x="196" y="-1020.8" font-family="Times,serif" font-size="14.00">movs &#160;&#160;r0, #13</text>
<text text-anchor="middle" x="196" y="-1005.8" font-family="Times,serif" font-size="14.00">ldr &#160;&#160;r2, [pc, #192] &#160;&#160;; (a288 )</text>
<text text-anchor="middle" x="196" y="-990.8" font-family="Times,serif" font-size="14.00">ldr &#160;&#160;r0, [pc, #196] &#160;&#160;; (a290 )</text>
<text text-anchor="middle" x="196" y="-975.8" font-family="Times,serif" font-size="14.00">str &#160;&#160;r3, [r2, #16]</text>
<text text-anchor="middle" x="196" y="-960.8" font-family="Times,serif" font-size="14.00">ldr &#160;&#160;r1, [r0, #16]</text>
<text text-anchor="middle" x="196" y="-945.8" font-family="Times,serif" font-size="14.00">orrs &#160;&#160;r1, r4</text>
<text text-anchor="middle" x="196" y="-930.8" font-family="Times,serif" font-size="14.00">ldr &#160;&#160;r0, [pc, #184] &#160;&#160;; (a294 )</text>
<text text-anchor="middle" x="196" y="-915.8" font-family="Times,serif" font-size="14.00">strb &#160;&#160;r1, [r0, #1]</text>
<text text-anchor="middle" x="196" y="-900.8" font-family="Times,serif" font-size="14.00">strb &#160;&#160;r1, [r0, #0]</text>
</g>
<!-- _A1E4 -->
<g id="node7" class="node"><title>_A1E4</title>
<polygon fill="none" stroke="black" points="251,-856 141,-856 141,-820 251,-820 251,-856"/>
<text text-anchor="middle" x="196" y="-834.3" font-family="Times,serif" font-size="14.00">ldrb &#160;&#160;r1, [r0, #6]</text>
</g>
<!-- _A1BC_A1C0_A1C4_A1C8_A1CC_A1D0_A1D4_A1D8_A1DC_A1E0&#45;&gt;_A1E4 -->
<g id="edge12" class="edge"><title>_A1BC_A1C0_A1C4_A1C8_A1CC_A1D0_A1D4_A1D8_A1DC_A1E0&#45;&gt;_A1E4</title>
<path fill="none" stroke="red" d="M196,-892.689C196,-883.224 196,-874.109 196,-866.16"/>
<polygon fill="red" stroke="red" points="199.5,-866.121 196,-856.121 192.5,-866.121 199.5,-866.121"/>
</g>
<!-- _A1E8 -->
<g id="node8" class="node"><title>_A1E8</title>
<polygon fill="none" stroke="black" points="81,-708 13,-708 13,-672 81,-672 81,-708"/>
<text text-anchor="middle" x="47" y="-686.3" font-family="Times,serif" font-size="14.00">bmi a1e4</text>
</g>
<!-- _A1E4&#45;&gt;_A1E8 -->
<g id="edge6" class="edge"><title>_A1E4&#45;&gt;_A1E8</title>
<path fill="none" stroke="blue" d="M140.987,-828.57C122.909,-823.448 103.906,-815.219 90,-802 66.5395,-779.699 55.6903,-743.137 50.8025,-718.112"/>
<polygon fill="blue" stroke="blue" points="54.233,-717.41 49.0534,-708.168 47.3389,-718.623 54.233,-717.41"/>
<text text-anchor="middle" x="99" y="-790.8" font-family="Times,serif" font-size="14.00">MI</text>
</g>
<!-- _A1EC_A1F0_A1F4_A1F8_A1FC_A200_A204_A208_A20C_A210 -->
<g id="node10" class="node"><title>_A1EC_A1F0_A1F4_A1F8_A1FC_A200_A204_A208_A20C_A210</title>
<polygon fill="none" stroke="black" points="293,-769 99,-769 99,-611 293,-611 293,-769"/>
<text text-anchor="middle" x="196" y="-753.8" font-family="Times,serif" font-size="14.00">lsls &#160;&#160;r1, r1, #28</text>
<text text-anchor="middle" x="196" y="-738.8" font-family="Times,serif" font-size="14.00">cmp &#160;&#160;r1, #2</text>
<text text-anchor="middle" x="196" y="-723.8" font-family="Times,serif" font-size="14.00">ldrb &#160;&#160;r1, [r0, #4]</text>
<text text-anchor="middle" x="196" y="-708.8" font-family="Times,serif" font-size="14.00">lsls &#160;&#160;r1, r1, #5</text>
<text text-anchor="middle" x="196" y="-693.8" font-family="Times,serif" font-size="14.00">strb &#160;&#160;r1, [r0, #4]</text>
<text text-anchor="middle" x="196" y="-678.8" font-family="Times,serif" font-size="14.00">movs &#160;&#160;r4, #64 &#160;&#160;; =0x40 (IRQ0)</text>
<text text-anchor="middle" x="196" y="-663.8" font-family="Times,serif" font-size="14.00">strb &#160;&#160;r1, [r0, #5]</text>
<text text-anchor="middle" x="196" y="-648.8" font-family="Times,serif" font-size="14.00">lsrs &#160;&#160;r1, r1, #5</text>
<text text-anchor="middle" x="196" y="-633.8" font-family="Times,serif" font-size="14.00">strb &#160;&#160;r1, [r0, #5]</text>
<text text-anchor="middle" x="196" y="-618.8" font-family="Times,serif" font-size="14.00">lsls &#160;&#160;r1, r1, #26</text>
</g>
<!-- _A1E4&#45;&gt;_A1EC_A1F0_A1F4_A1F8_A1FC_A200_A204_A208_A20C_A210 -->
<g id="edge9" class="edge"><title>_A1E4&#45;&gt;_A1EC_A1F0_A1F4_A1F8_A1FC_A200_A204_A208_A20C_A210</title>
<path fill="none" stroke="red" d="M196,-819.966C196,-809.415 196,-794.965 196,-779.544"/>
<polygon fill="red" stroke="red" points="199.5,-779.302 196,-769.302 192.5,-779.302 199.5,-779.302"/>
<text text-anchor="middle" x="204" y="-790.8" font-family="Times,serif" font-size="14.00">PL</text>
</g>
<!-- _A1E8&#45;&gt;_A1E4 -->
<g id="edge8" class="edge"><title>_A1E8&#45;&gt;_A1E4</title>
<path fill="none" stroke="blue" d="M53.4746,-708.058C60.5261,-724.981 73.0973,-750.933 90,-769 107.436,-787.637 131.009,-803.415 151.498,-815.068"/>
<polygon fill="blue" stroke="blue" points="149.916,-818.192 160.361,-819.966 153.302,-812.066 149.916,-818.192"/>
</g>
<!-- _A1EC_A1F0_A1F4_A1F8_A1FC_A200_A204_A208_A20C_A210&#45;&gt;_A214 -->
<g id="edge10" class="edge"><title>_A1EC_A1F0_A1F4_A1F8_A1FC_A200_A204_A208_A20C_A210&#45;&gt;_A214</title>
<path fill="none" stroke="red" d="M196,-610.689C196,-601.224 196,-592.109 196,-584.16"/>
<polygon fill="red" stroke="red" points="199.5,-584.121 196,-574.121 192.5,-584.121 199.5,-584.121"/>
</g>
</g>
</svg>
