<?xml version="1.0" encoding="UTF-8" standalone="no"?>
<!DOCTYPE svg PUBLIC "-//W3C//DTD SVG 1.1//EN"
 "http://www.w3.org/Graphics/SVG/1.1/DTD/svg11.dtd">
<!-- Generated by graphviz version 2.38.0 (20140413.2041)
 -->
<!-- Title: G Pages: 1 -->
<svg width="686pt" height="2982pt"
 viewBox="0.00 0.00 686.00 2982.00" xmlns="http://www.w3.org/2000/svg" xmlns:xlink="http://www.w3.org/1999/xlink">
<g id="graph0" class="graph" transform="scale(1 1) rotate(0) translate(4 2978)">
<title>G</title>
<polygon fill="white" stroke="none" points="-4,4 -4,-2978 682,-2978 682,4 -4,4"/>
<!-- _CC04_CC08 -->
<g id="node1" class="node"><title>_CC04_CC08</title>
<polygon fill="none" stroke="black" points="480,-2974 392,-2974 392,-2936 480,-2936 480,-2974"/>
<text text-anchor="middle" x="436" y="-2958.8" font-family="Times,serif" font-size="14.00">movs &#160;&#160;r0, r1</text>
<text text-anchor="middle" x="436" y="-2943.8" font-family="Times,serif" font-size="14.00">movs &#160;&#160;r0, r1</text>
</g>
<!-- _CC0C -->
<g id="node2" class="node"><title>_CC0C</title>
<polygon fill="none" stroke="black" points="467,-2884 405,-2884 405,-2848 467,-2848 467,-2884"/>
<text text-anchor="middle" x="436" y="-2862.3" font-family="Times,serif" font-size="14.00">bls cb5c</text>
</g>
<!-- _CC04_CC08&#45;&gt;_CC0C -->
<g id="edge23" class="edge"><title>_CC04_CC08&#45;&gt;_CC0C</title>
<path fill="none" stroke="red" d="M436,-2935.97C436,-2923.96 436,-2907.93 436,-2894.36"/>
<polygon fill="red" stroke="red" points="439.5,-2894.12 436,-2884.12 432.5,-2894.12 439.5,-2894.12"/>
<text text-anchor="middle" x="444" y="-2906.8" font-family="Times,serif" font-size="14.00">LS</text>
</g>
<!-- _CC10_CC14 -->
<g id="node3" class="node"><title>_CC10_CC14</title>
<polygon fill="none" stroke="black" points="301,-2885 213,-2885 213,-2847 301,-2847 301,-2885"/>
<text text-anchor="middle" x="257" y="-2869.8" font-family="Times,serif" font-size="14.00">movs &#160;&#160;r5, r0</text>
<text text-anchor="middle" x="257" y="-2854.8" font-family="Times,serif" font-size="14.00">movs &#160;&#160;r5, r0</text>
</g>
<!-- _CC04_CC08&#45;&gt;_CC10_CC14 -->
<g id="edge10" class="edge"><title>_CC04_CC08&#45;&gt;_CC10_CC14</title>
<path fill="none" stroke="red" d="M398.911,-2935.97C371.19,-2922.5 333.112,-2903.99 303.378,-2889.54"/>
<polygon fill="red" stroke="red" points="304.565,-2886.23 294.041,-2885 301.505,-2892.52 304.565,-2886.23"/>
<text text-anchor="middle" x="365.5" y="-2906.8" font-family="Times,serif" font-size="14.00">HI</text>
</g>
<!-- _CB5C_CB60_CB64_CB68_CB6C_CB70_CB74 -->
<g id="node13" class="node"><title>_CB5C_CB60_CB64_CB68_CB6C_CB70_CB74</title>
<polygon fill="none" stroke="black" points="566,-2796 306,-2796 306,-2683 566,-2683 566,-2796"/>
<text text-anchor="middle" x="436" y="-2780.8" font-family="Times,serif" font-size="14.00">strb &#160;&#160;r3, [r2, #21]</text>
<text text-anchor="middle" x="436" y="-2765.8" font-family="Times,serif" font-size="14.00">ldr &#160;&#160;r2, [r6, #20]</text>
<text text-anchor="middle" x="436" y="-2750.8" font-family="Times,serif" font-size="14.00">ldr &#160;&#160;r5, [r0, #100] &#160;&#160;; 0x64: pointer to 0x1b3</text>
<text text-anchor="middle" x="436" y="-2735.8" font-family="Times,serif" font-size="14.00">str &#160;&#160;r7, [r4, #84] &#160;&#160;; 0x54: pointer to 0x1b3</text>
<text text-anchor="middle" x="436" y="-2720.8" font-family="Times,serif" font-size="14.00">ldr &#160;&#160;r5, [r0, #100] &#160;&#160;; 0x64: pointer to 0x1b3</text>
<text text-anchor="middle" x="436" y="-2705.8" font-family="Times,serif" font-size="14.00">str &#160;&#160;r7, [r4, #84] &#160;&#160;; 0x54: pointer to 0x1b3</text>
<text text-anchor="middle" x="436" y="-2690.8" font-family="Times,serif" font-size="14.00">movs &#160;&#160;r0, r7</text>
</g>
<!-- _CC0C&#45;&gt;_CB5C_CB60_CB64_CB68_CB6C_CB70_CB74 -->
<g id="edge27" class="edge"><title>_CC0C&#45;&gt;_CB5C_CB60_CB64_CB68_CB6C_CB70_CB74</title>
<path fill="none" stroke="red" d="M436,-2847.95C436,-2836.91 436,-2821.77 436,-2806.33"/>
<polygon fill="red" stroke="red" points="439.5,-2806.18 436,-2796.18 432.5,-2806.18 439.5,-2806.18"/>
<text text-anchor="middle" x="444" y="-2817.8" font-family="Times,serif" font-size="14.00">LS</text>
</g>
<!-- _CC18 -->
<g id="node4" class="node"><title>_CC18</title>
<polygon fill="none" stroke="black" points="288,-2757.5 226,-2757.5 226,-2721.5 288,-2721.5 288,-2757.5"/>
<text text-anchor="middle" x="257" y="-2735.8" font-family="Times,serif" font-size="14.00">bls cb78</text>
</g>
<!-- _CC10_CC14&#45;&gt;_CC18 -->
<g id="edge14" class="edge"><title>_CC10_CC14&#45;&gt;_CC18</title>
<path fill="none" stroke="blue" d="M257,-2846.9C257,-2826.19 257,-2792.07 257,-2768.06"/>
<polygon fill="blue" stroke="blue" points="260.5,-2767.82 257,-2757.82 253.5,-2767.82 260.5,-2767.82"/>
<text text-anchor="middle" x="265" y="-2817.8" font-family="Times,serif" font-size="14.00">LS</text>
</g>
<!-- _CC1C_CC20_CC28_CC2C_CC34_CC38_CC40 -->
<g id="node5" class="node"><title>_CC1C_CC20_CC28_CC2C_CC34_CC38_CC40</title>
<polygon fill="none" stroke="black" points="195.5,-2665 98.5,-2665 98.5,-2552 195.5,-2552 195.5,-2665"/>
<text text-anchor="middle" x="147" y="-2649.8" font-family="Times,serif" font-size="14.00">movs &#160;&#160;r0, r2</text>
<text text-anchor="middle" x="147" y="-2634.8" font-family="Times,serif" font-size="14.00">movs &#160;&#160;r0, r4</text>
<text text-anchor="middle" x="147" y="-2619.8" font-family="Times,serif" font-size="14.00">movs &#160;&#160;r0, r2</text>
<text text-anchor="middle" x="147" y="-2604.8" font-family="Times,serif" font-size="14.00">movs &#160;&#160;r0, r4</text>
<text text-anchor="middle" x="147" y="-2589.8" font-family="Times,serif" font-size="14.00">movs &#160;&#160;r0, r4</text>
<text text-anchor="middle" x="147" y="-2574.8" font-family="Times,serif" font-size="14.00">movs &#160;&#160;r0, r4</text>
<text text-anchor="middle" x="147" y="-2559.8" font-family="Times,serif" font-size="14.00">lsls &#160;&#160;r4, r1, #1</text>
</g>
<!-- _CC10_CC14&#45;&gt;_CC1C_CC20_CC28_CC2C_CC34_CC38_CC40 -->
<g id="edge25" class="edge"><title>_CC10_CC14&#45;&gt;_CC1C_CC20_CC28_CC2C_CC34_CC38_CC40</title>
<path fill="none" stroke="red" d="M245.452,-2847C236.962,-2833.33 225.473,-2813.9 217,-2796 198.387,-2756.69 181.168,-2710.99 168.466,-2674.67"/>
<polygon fill="red" stroke="red" points="171.754,-2673.47 165.171,-2665.17 165.141,-2675.77 171.754,-2673.47"/>
<text text-anchor="middle" x="241.5" y="-2817.8" font-family="Times,serif" font-size="14.00">HI</text>
</g>
<!-- _CB78_CB7C_CB80_CB84_CB8C_CB90_CB98_CB9C_CBA4_CBA8_CBB0_CBB4_CBBC_CBC0 -->
<g id="node15" class="node"><title>_CB78_CB7C_CB80_CB84_CB8C_CB90_CB98_CB9C_CBA4_CBA8_CBB0_CBB4_CBBC_CBC0</title>
<polygon fill="none" stroke="black" points="438,-2534 288,-2534 288,-2316 438,-2316 438,-2534"/>
<text text-anchor="middle" x="363" y="-2518.8" font-family="Times,serif" font-size="14.00">movs &#160;&#160;r4, r4</text>
<text text-anchor="middle" x="363" y="-2503.8" font-family="Times,serif" font-size="14.00">ldmia &#160;&#160;r1!, r2, r3, r4, r6</text>
<text text-anchor="middle" x="363" y="-2488.8" font-family="Times,serif" font-size="14.00">lsls &#160;&#160;r2, r2, #1</text>
<text text-anchor="middle" x="363" y="-2473.8" font-family="Times,serif" font-size="14.00">movs &#160;&#160;r7, r1</text>
<text text-anchor="middle" x="363" y="-2458.8" font-family="Times,serif" font-size="14.00">movs &#160;&#160;r4, r6</text>
<text text-anchor="middle" x="363" y="-2443.8" font-family="Times,serif" font-size="14.00">movs &#160;&#160;r6, r1</text>
<text text-anchor="middle" x="363" y="-2428.8" font-family="Times,serif" font-size="14.00">movs &#160;&#160;r4, r6</text>
<text text-anchor="middle" x="363" y="-2413.8" font-family="Times,serif" font-size="14.00">movs &#160;&#160;r6, r1</text>
<text text-anchor="middle" x="363" y="-2398.8" font-family="Times,serif" font-size="14.00">movs &#160;&#160;r4, r3</text>
<text text-anchor="middle" x="363" y="-2383.8" font-family="Times,serif" font-size="14.00">movs &#160;&#160;r2, r1</text>
<text text-anchor="middle" x="363" y="-2368.8" font-family="Times,serif" font-size="14.00">movs &#160;&#160;r7, r2</text>
<text text-anchor="middle" x="363" y="-2353.8" font-family="Times,serif" font-size="14.00">movs &#160;&#160;r7, r0</text>
<text text-anchor="middle" x="363" y="-2338.8" font-family="Times,serif" font-size="14.00">movs &#160;&#160;r6, r5</text>
<text text-anchor="middle" x="363" y="-2323.8" font-family="Times,serif" font-size="14.00">movs &#160;&#160;r4, r1</text>
</g>
<!-- _CC18&#45;&gt;_CB78_CB7C_CB80_CB84_CB8C_CB90_CB98_CB9C_CBA4_CBA8_CBB0_CBB4_CBBC_CBC0 -->
<g id="edge8" class="edge"><title>_CC18&#45;&gt;_CB78_CB7C_CB80_CB84_CB8C_CB90_CB98_CB9C_CBA4_CBA8_CBB0_CBB4_CBBC_CBC0</title>
<path fill="none" stroke="blue" d="M262.85,-2721.25C274.247,-2687.65 300.296,-2610.86 322.97,-2544.01"/>
<polygon fill="blue" stroke="blue" points="326.391,-2544.82 326.289,-2534.23 319.762,-2542.57 326.391,-2544.82"/>
</g>
<!-- _CC44_CC4C_CC50_CC54_CC58_CC5C_CC60_CC64_CC68_CC6C_CC70_CC74_CC78_CC7C_CC80_CC84_CC88_CC8C_CC90_CC94_CC98_CC9C_CCA0_CCA4_CCA8_CCAC_CCB0_CCB4_CCB8 -->
<g id="node7" class="node"><title>_CC44_CC4C_CC50_CC54_CC58_CC5C_CC60_CC64_CC68_CC6C_CC70_CC74_CC78_CC7C_CC80_CC84_CC88_CC8C_CC90_CC94_CC98_CC9C_CCA0_CCA4_CCA8_CCAC_CCB0_CCB4_CCB8</title>
<polygon fill="none" stroke="black" points="260,-1778 0,-1778 0,-1335 260,-1335 260,-1778"/>
<text text-anchor="middle" x="130" y="-1762.8" font-family="Times,serif" font-size="14.00">movs &#160;&#160;r4, r1</text>
<text text-anchor="middle" x="130" y="-1747.8" font-family="Times,serif" font-size="14.00">strb &#160;&#160;r1, [r0, #9]</text>
<text text-anchor="middle" x="130" y="-1732.8" font-family="Times,serif" font-size="14.00">ldr &#160;&#160;r1, [r7, #116] &#160;&#160;; 0x74: pointer to 0x1b3</text>
<text text-anchor="middle" x="130" y="-1717.8" font-family="Times,serif" font-size="14.00">strb &#160;&#160;r3, [r6, #21]</text>
<text text-anchor="middle" x="130" y="-1702.8" font-family="Times,serif" font-size="14.00">movs &#160;&#160;r7, r7</text>
<text text-anchor="middle" x="130" y="-1687.8" font-family="Times,serif" font-size="14.00">cmp &#160;&#160;r6, #120 &#160;&#160;; 0x78: pointer to 0x1b3</text>
<text text-anchor="middle" x="130" y="-1672.8" font-family="Times,serif" font-size="14.00">str &#160;&#160;r0, [r5, #20]</text>
<text text-anchor="middle" x="130" y="-1657.8" font-family="Times,serif" font-size="14.00">ldr &#160;&#160;r5, [r4, #68] &#160;&#160;; =0x44 (IRQ1)</text>
<text text-anchor="middle" x="130" y="-1642.8" font-family="Times,serif" font-size="14.00">ldr &#160;&#160;r3, [r0, #4]</text>
<text text-anchor="middle" x="130" y="-1627.8" font-family="Times,serif" font-size="14.00">str &#160;&#160;r6, [r5, #84] &#160;&#160;; 0x54: pointer to 0x1b3</text>
<text text-anchor="middle" x="130" y="-1612.8" font-family="Times,serif" font-size="14.00">movs &#160;&#160;r5, r6</text>
<text text-anchor="middle" x="130" y="-1597.8" font-family="Times,serif" font-size="14.00">ldr &#160;&#160;r1, [r4, #100] &#160;&#160;; 0x64: pointer to 0x1b3</text>
<text text-anchor="middle" x="130" y="-1582.8" font-family="Times,serif" font-size="14.00">movs &#160;&#160;r0, #108 &#160;&#160;; 0x6c: pointer to 0x1b3</text>
<text text-anchor="middle" x="130" y="-1567.8" font-family="Times,serif" font-size="14.00">ldr &#160;&#160;r3, [r0, #4]</text>
<text text-anchor="middle" x="130" y="-1552.8" font-family="Times,serif" font-size="14.00">str &#160;&#160;r6, [r5, #84] &#160;&#160;; 0x54: pointer to 0x1b3</text>
<text text-anchor="middle" x="130" y="-1537.8" font-family="Times,serif" font-size="14.00">movs &#160;&#160;r7, r6</text>
<text text-anchor="middle" x="130" y="-1522.8" font-family="Times,serif" font-size="14.00">ldr &#160;&#160;r1, [r4, #100] &#160;&#160;; 0x64: pointer to 0x1b3</text>
<text text-anchor="middle" x="130" y="-1507.8" font-family="Times,serif" font-size="14.00">movs &#160;&#160;r0, #108 &#160;&#160;; 0x6c: pointer to 0x1b3</text>
<text text-anchor="middle" x="130" y="-1492.8" font-family="Times,serif" font-size="14.00">ldr &#160;&#160;r3, [r0, #4]</text>
<text text-anchor="middle" x="130" y="-1477.8" font-family="Times,serif" font-size="14.00">str &#160;&#160;r6, [r5, #84] &#160;&#160;; 0x54: pointer to 0x1b3</text>
<text text-anchor="middle" x="130" y="-1462.8" font-family="Times,serif" font-size="14.00">movs &#160;&#160;r1, r7</text>
<text text-anchor="middle" x="130" y="-1447.8" font-family="Times,serif" font-size="14.00">ldr &#160;&#160;r1, [r4, #100] &#160;&#160;; 0x64: pointer to 0x1b3</text>
<text text-anchor="middle" x="130" y="-1432.8" font-family="Times,serif" font-size="14.00">adds &#160;&#160;r1, #108 &#160;&#160;; 0x6c: pointer to 0x1b3</text>
<text text-anchor="middle" x="130" y="-1417.8" font-family="Times,serif" font-size="14.00">strb &#160;&#160;r3, [r2, #29]</text>
<text text-anchor="middle" x="130" y="-1402.8" font-family="Times,serif" font-size="14.00">movs &#160;&#160;r0, #104 &#160;&#160;; 0x68: pointer to 0x1b3</text>
<text text-anchor="middle" x="130" y="-1387.8" font-family="Times,serif" font-size="14.00">lsls &#160;&#160;r2, r2, #1</text>
<text text-anchor="middle" x="130" y="-1372.8" font-family="Times,serif" font-size="14.00">strb &#160;&#160;r1, [r4, #13]</text>
<text text-anchor="middle" x="130" y="-1357.8" font-family="Times,serif" font-size="14.00">ldrb &#160;&#160;r4, [r6, #5]</text>
<text text-anchor="middle" x="130" y="-1342.8" font-family="Times,serif" font-size="14.00">cmp &#160;&#160;r0, r0</text>
</g>
<!-- _CC1C_CC20_CC28_CC2C_CC34_CC38_CC40&#45;&gt;_CC44_CC4C_CC50_CC54_CC58_CC5C_CC60_CC64_CC68_CC6C_CC70_CC74_CC78_CC7C_CC80_CC84_CC88_CC8C_CC90_CC94_CC98_CC9C_CCA0_CCA4_CCA8_CCAC_CCB0_CCB4_CCB8 -->
<g id="edge9" class="edge"><title>_CC1C_CC20_CC28_CC2C_CC34_CC38_CC40&#45;&gt;_CC44_CC4C_CC50_CC54_CC58_CC5C_CC60_CC64_CC68_CC6C_CC70_CC74_CC78_CC7C_CC80_CC84_CC88_CC8C_CC90_CC94_CC98_CC9C_CCA0_CCA4_CCA8_CCAC_CCB0_CCB4_CCB8</title>
<path fill="none" stroke="red" d="M142.197,-2551.89C137.17,-2488.81 130,-2382.84 130,-2291.5 130,-2291.5 130,-2291.5 130,-1847 130,-1827.87 130,-1808.02 130,-1788.1"/>
<polygon fill="red" stroke="red" points="133.5,-1788 130,-1778 126.5,-1788 133.5,-1788"/>
</g>
<!-- _CBC4 -->
<g id="node6" class="node"><title>_CBC4</title>
<polygon fill="none" stroke="black" points="296,-2264 158,-2264 158,-2228 296,-2228 296,-2264"/>
<text text-anchor="middle" x="227" y="-2242.3" font-family="Times,serif" font-size="14.00">bvc.n &#160;&#160;<a xlink:href="sub_0000cbf8.htm" style="fill: blue" xlink:show="new" target="_top">arrow_gfx</a> &#160;&#160;</text>
</g>
<!-- _CCBC_CCC0 -->
<g id="node8" class="node"><title>_CCBC_CCC0</title>
<polygon fill="none" stroke="black" points="342,-1298 234,-1298 234,-1260 342,-1260 342,-1298"/>
<text text-anchor="middle" x="288" y="-1282.8" font-family="Times,serif" font-size="14.00">str &#160;&#160;r6, [r6, #20]</text>
<text text-anchor="middle" x="288" y="-1267.8" font-family="Times,serif" font-size="14.00">lsls &#160;&#160;r2, r6, #1</text>
</g>
<!-- _CC44_CC4C_CC50_CC54_CC58_CC5C_CC60_CC64_CC68_CC6C_CC70_CC74_CC78_CC7C_CC80_CC84_CC88_CC8C_CC90_CC94_CC98_CC9C_CCA0_CCA4_CCA8_CCAC_CCB0_CCB4_CCB8&#45;&gt;_CCBC_CCC0 -->
<g id="edge1" class="edge"><title>_CC44_CC4C_CC50_CC54_CC58_CC5C_CC60_CC64_CC68_CC6C_CC70_CC74_CC78_CC7C_CC80_CC84_CC88_CC8C_CC90_CC94_CC98_CC9C_CCA0_CCA4_CCA8_CCAC_CCB0_CCB4_CCB8&#45;&gt;_CCBC_CCC0</title>
<path fill="none" stroke="red" d="M256.595,-1334.76C262.61,-1324.27 268.038,-1314.81 272.624,-1306.81"/>
<polygon fill="red" stroke="red" points="275.666,-1308.54 277.605,-1298.13 269.593,-1305.06 275.666,-1308.54"/>
</g>
<!-- _CCC4_CCC8_CCCC_CCD0_CCD4_CCD8_CCDC_CCE0_CCE4_CCE8_CCEC_CCF0_CCF4_CCF8_CCFC_CD00_CD04_CD08_CD0C_CD10_CD14_CD18_CD1C_CD20_CD24_CD28_CD2C_CD30_CD34_CD38_CD3C_CD40_CD44_CD48_CD4C_CD50_CD54_CD58_CD5C_CD60_CD64_CD68_CD6C_CD70_CD74_CD78_CD7C_CD80_CD84_CD88_CD8C_CD90_CD94_CD98_CD9C_CDA0_CDA4_CDA8_CDAC_CDB0_CDB4_CDB8_CDBC_CDC0_CDC4_CDC8_CDCC_CDD0_CDD4_CDD8_CDDC_CDE0_CDE4_CDE8_CDEC_CDF0_CDF4_CDF8_CDFC_CE00_CE04 -->
<g id="node20" class="node"><title>_CCC4_CCC8_CCCC_CCD0_CCD4_CCD8_CCDC_CCE0_CCE4_CCE8_CCEC_CCF0_CCF4_CCF8_CCFC_CD00_CD04_CD08_CD0C_CD10_CD14_CD18_CD1C_CD20_CD24_CD28_CD2C_CD30_CD34_CD38_CD3C_CD40_CD44_CD48_CD4C_CD50_CD54_CD58_CD5C_CD60_CD64_CD68_CD6C_CD70_CD74_CD78_CD7C_CD80_CD84_CD88_CD8C_CD90_CD94_CD98_CD9C_CDA0_CDA4_CDA8_CDAC_CDB0_CDB4_CDB8_CDBC_CDC0_CDC4_CDC8_CDCC_CDD0_CDD4_CDD8_CDDC_CDE0_CDE4_CDE8_CDEC_CDF0_CDF4_CDF8_CDFC_CE00_CE04</title>
<polygon fill="none" stroke="black" points="431.5,-1223 144.5,-1223 144.5,-0 431.5,-0 431.5,-1223"/>
<text text-anchor="middle" x="288" y="-1207.8" font-family="Times,serif" font-size="14.00">ldr &#160;&#160;r1, [r4, #68] &#160;&#160;; =0x44 (IRQ1)</text>
<text text-anchor="middle" x="288" y="-1192.8" font-family="Times,serif" font-size="14.00">strb &#160;&#160;r1, [r4, #17]</text>
<text text-anchor="middle" x="288" y="-1177.8" font-family="Times,serif" font-size="14.00">ldrb &#160;&#160;r5, [r4, #1]</text>
<text text-anchor="middle" x="288" y="-1162.8" font-family="Times,serif" font-size="14.00">ldrsb &#160;&#160;r0, [r0, r0]</text>
<text text-anchor="middle" x="288" y="-1147.8" font-family="Times,serif" font-size="14.00">ldr &#160;&#160;r1, [r4, #20]</text>
<text text-anchor="middle" x="288" y="-1132.8" font-family="Times,serif" font-size="14.00">ldr &#160;&#160;r5, [r4, #100] &#160;&#160;; 0x64: pointer to 0x1b3</text>
<text text-anchor="middle" x="288" y="-1117.8" font-family="Times,serif" font-size="14.00">str &#160;&#160;r4, [r5, #84] &#160;&#160;; 0x54: pointer to 0x1b3</text>
<text text-anchor="middle" x="288" y="-1102.8" font-family="Times,serif" font-size="14.00">ldr &#160;&#160;r5, [r0, #100] &#160;&#160;; 0x64: pointer to 0x1b3</text>
<text text-anchor="middle" x="288" y="-1087.8" font-family="Times,serif" font-size="14.00">ldr &#160;&#160;r0, [r6, #116] &#160;&#160;; 0x74: pointer to 0x1b3</text>
<text text-anchor="middle" x="288" y="-1072.8" font-family="Times,serif" font-size="14.00">strb &#160;&#160;r4, [r6, #13]</text>
<text text-anchor="middle" x="288" y="-1057.8" font-family="Times,serif" font-size="14.00">str &#160;&#160;r1, [r4, #52] &#160;&#160;; 0x34</text>
<text text-anchor="middle" x="288" y="-1042.8" font-family="Times,serif" font-size="14.00">ldrb &#160;&#160;r2, [r6, #5]</text>
<text text-anchor="middle" x="288" y="-1027.8" font-family="Times,serif" font-size="14.00">strb &#160;&#160;r5, [r4, #13]</text>
<text text-anchor="middle" x="288" y="-1012.8" font-family="Times,serif" font-size="14.00">strb &#160;&#160;r0, [r0, r0]</text>
<text text-anchor="middle" x="288" y="-997.8" font-family="Times,serif" font-size="14.00">movs &#160;&#160;r0, #115 &#160;&#160;; 0x73</text>
<text text-anchor="middle" x="288" y="-982.8" font-family="Times,serif" font-size="14.00">ldr &#160;&#160;r4, [r5, #68] &#160;&#160;; =0x44 (IRQ1)</text>
<text text-anchor="middle" x="288" y="-967.8" font-family="Times,serif" font-size="14.00">strb &#160;&#160;r5, [r4, #13]</text>
<text text-anchor="middle" x="288" y="-952.8" font-family="Times,serif" font-size="14.00">str &#160;&#160;r0, [r0, #16]</text>
<text text-anchor="middle" x="288" y="-937.8" font-family="Times,serif" font-size="14.00">strb &#160;&#160;r0, [r4, #0]</text>
<text text-anchor="middle" x="288" y="-922.8" font-family="Times,serif" font-size="14.00">ldr &#160;&#160;r1, [r4, #84] &#160;&#160;; 0x54: pointer to 0x1b3</text>
<text text-anchor="middle" x="288" y="-907.8" font-family="Times,serif" font-size="14.00">strb &#160;&#160;r5, [r4, #9]</text>
<text text-anchor="middle" x="288" y="-892.8" font-family="Times,serif" font-size="14.00">ldr &#160;&#160;r4, [r6, #116] &#160;&#160;; 0x74: pointer to 0x1b3</text>
<text text-anchor="middle" x="288" y="-877.8" font-family="Times,serif" font-size="14.00">str &#160;&#160;r0, [r5, #84] &#160;&#160;; 0x54: pointer to 0x1b3</text>
<text text-anchor="middle" x="288" y="-862.8" font-family="Times,serif" font-size="14.00">str &#160;&#160;r0, [r0, #96] &#160;&#160;; 0x60: pointer to 0x1b3</text>
<text text-anchor="middle" x="288" y="-847.8" font-family="Times,serif" font-size="14.00">ldr &#160;&#160;r4, [r6, #116] &#160;&#160;; 0x74: pointer to 0x1b3</text>
<text text-anchor="middle" x="288" y="-832.8" font-family="Times,serif" font-size="14.00">str &#160;&#160;r0, [r4, #64] &#160;&#160;; =0x40 (IRQ0)</text>
<text text-anchor="middle" x="288" y="-817.8" font-family="Times,serif" font-size="14.00">strb &#160;&#160;r1, [r4, #21]</text>
<text text-anchor="middle" x="288" y="-802.8" font-family="Times,serif" font-size="14.00">str &#160;&#160;r0, [r0, r0]</text>
<text text-anchor="middle" x="288" y="-787.8" font-family="Times,serif" font-size="14.00">strb &#160;&#160;r3, [r6, #13]</text>
<text text-anchor="middle" x="288" y="-772.8" font-family="Times,serif" font-size="14.00">ldr &#160;&#160;r3, [pc, #316] &#160;&#160;; (ce78 )</text>
<text text-anchor="middle" x="288" y="-757.8" font-family="Times,serif" font-size="14.00">ldr &#160;&#160;r4, [r6, #116] &#160;&#160;; 0x74: pointer to 0x1b3</text>
<text text-anchor="middle" x="288" y="-742.8" font-family="Times,serif" font-size="14.00">ldr &#160;&#160;r2, [r6, #116] &#160;&#160;; 0x74: pointer to 0x1b3</text>
<text text-anchor="middle" x="288" y="-727.8" font-family="Times,serif" font-size="14.00">str &#160;&#160;r5, [r4, #68] &#160;&#160;; =0x44 (IRQ1)</text>
<text text-anchor="middle" x="288" y="-712.8" font-family="Times,serif" font-size="14.00">strb &#160;&#160;r1, [r5, #9]</text>
<text text-anchor="middle" x="288" y="-697.8" font-family="Times,serif" font-size="14.00">strb &#160;&#160;r1, [r4, #9]</text>
<text text-anchor="middle" x="288" y="-682.8" font-family="Times,serif" font-size="14.00">str &#160;&#160;r6, [r6, #84] &#160;&#160;; 0x54: pointer to 0x1b3</text>
<text text-anchor="middle" x="288" y="-667.8" font-family="Times,serif" font-size="14.00">mov &#160;&#160;r0, r0</text>
<text text-anchor="middle" x="288" y="-652.8" font-family="Times,serif" font-size="14.00">strh &#160;&#160;r0, [r4, r4]</text>
<text text-anchor="middle" x="288" y="-637.8" font-family="Times,serif" font-size="14.00">mov &#160;&#160;r0, r4</text>
<text text-anchor="middle" x="288" y="-622.8" font-family="Times,serif" font-size="14.00">adds &#160;&#160;r6, #105 &#160;&#160;; 0x69</text>
<text text-anchor="middle" x="288" y="-607.8" font-family="Times,serif" font-size="14.00">adds &#160;&#160;r1, #46 &#160;&#160;; 0x2e</text>
<text text-anchor="middle" x="288" y="-592.8" font-family="Times,serif" font-size="14.00">cmp &#160;&#160;r5, #53 &#160;&#160;; 0x35</text>
<text text-anchor="middle" x="288" y="-577.8" font-family="Times,serif" font-size="14.00">cmp &#160;&#160;r5, #86 &#160;&#160;; 0x56: pointer to 0x0 (Initial_SP)</text>
<text text-anchor="middle" x="288" y="-562.8" font-family="Times,serif" font-size="14.00">adds &#160;&#160;r4, #49 &#160;&#160;; 0x31</text>
<text text-anchor="middle" x="288" y="-547.8" font-family="Times,serif" font-size="14.00">strb &#160;&#160;r1, [r5, #9]</text>
<text text-anchor="middle" x="288" y="-532.8" font-family="Times,serif" font-size="14.00">strb &#160;&#160;r1, [r4, #9]</text>
<text text-anchor="middle" x="288" y="-517.8" font-family="Times,serif" font-size="14.00">strb &#160;&#160;r5, [r6, #1]</text>
<text text-anchor="middle" x="288" y="-502.8" font-family="Times,serif" font-size="14.00">str &#160;&#160;r4, [r6, #84] &#160;&#160;; 0x54: pointer to 0x1b3</text>
<text text-anchor="middle" x="288" y="-487.8" font-family="Times,serif" font-size="14.00">ldr &#160;&#160;r0, [r5, #20]</text>
<text text-anchor="middle" x="288" y="-472.8" font-family="Times,serif" font-size="14.00">ldr &#160;&#160;r7, [r6, #20]</text>
<text text-anchor="middle" x="288" y="-457.8" font-family="Times,serif" font-size="14.00">str &#160;&#160;r0, [r4, #80] &#160;&#160;; 0x50: pointer to 0x1b3</text>
<text text-anchor="middle" x="288" y="-442.8" font-family="Times,serif" font-size="14.00">strb &#160;&#160;r5, [r4, #9]</text>
<text text-anchor="middle" x="288" y="-427.8" font-family="Times,serif" font-size="14.00">strb &#160;&#160;r1, [r5, #9]</text>
<text text-anchor="middle" x="288" y="-412.8" font-family="Times,serif" font-size="14.00">strb &#160;&#160;r1, [r4, #9]</text>
<text text-anchor="middle" x="288" y="-397.8" font-family="Times,serif" font-size="14.00">strb &#160;&#160;r5, [r6, #1]</text>
<text text-anchor="middle" x="288" y="-382.8" font-family="Times,serif" font-size="14.00">str &#160;&#160;r4, [r6, #84] &#160;&#160;; 0x54: pointer to 0x1b3</text>
<text text-anchor="middle" x="288" y="-367.8" font-family="Times,serif" font-size="14.00">str &#160;&#160;r7, [r5, #68] &#160;&#160;; =0x44 (IRQ1)</text>
<text text-anchor="middle" x="288" y="-352.8" font-family="Times,serif" font-size="14.00">ldr &#160;&#160;r1, [r4, #100] &#160;&#160;; 0x64: pointer to 0x1b3</text>
<text text-anchor="middle" x="288" y="-337.8" font-family="Times,serif" font-size="14.00">str &#160;&#160;r0, [r5, #20]</text>
<text text-anchor="middle" x="288" y="-322.8" font-family="Times,serif" font-size="14.00">ldr &#160;&#160;r0, [r0, #112] &#160;&#160;; 0x70: pointer to 0x1b3</text>
<text text-anchor="middle" x="288" y="-307.8" font-family="Times,serif" font-size="14.00">strb &#160;&#160;r5, [r4, #9]</text>
<text text-anchor="middle" x="288" y="-292.8" font-family="Times,serif" font-size="14.00">ldr &#160;&#160;r5, [r6, #100] &#160;&#160;; 0x64: pointer to 0x1b3</text>
<text text-anchor="middle" x="288" y="-277.8" font-family="Times,serif" font-size="14.00">ldr &#160;&#160;r1, [r5, #116] &#160;&#160;; 0x74: pointer to 0x1b3</text>
<text text-anchor="middle" x="288" y="-262.8" font-family="Times,serif" font-size="14.00">str &#160;&#160;r0, [r0, r0]</text>
<text text-anchor="middle" x="288" y="-247.8" font-family="Times,serif" font-size="14.00">strb &#160;&#160;r3, [r6, #13]</text>
<text text-anchor="middle" x="288" y="-232.8" font-family="Times,serif" font-size="14.00">ldr &#160;&#160;r3, [pc, #316] &#160;&#160;; (cf08 )</text>
<text text-anchor="middle" x="288" y="-217.8" font-family="Times,serif" font-size="14.00">ldr &#160;&#160;r4, [r6, #116] &#160;&#160;; 0x74: pointer to 0x1b3</text>
<text text-anchor="middle" x="288" y="-202.8" font-family="Times,serif" font-size="14.00">ldr &#160;&#160;r2, [r6, #116] &#160;&#160;; 0x74: pointer to 0x1b3</text>
<text text-anchor="middle" x="288" y="-187.8" font-family="Times,serif" font-size="14.00">str &#160;&#160;r5, [r4, #68] &#160;&#160;; =0x44 (IRQ1)</text>
<text text-anchor="middle" x="288" y="-172.8" font-family="Times,serif" font-size="14.00">str &#160;&#160;r0, [r6, #68] &#160;&#160;; =0x44 (IRQ1)</text>
<text text-anchor="middle" x="288" y="-157.8" font-family="Times,serif" font-size="14.00">movs &#160;&#160;r0, #101 &#160;&#160;; 0x65</text>
<text text-anchor="middle" x="288" y="-142.8" font-family="Times,serif" font-size="14.00">str &#160;&#160;r4, [r4, #84] &#160;&#160;; 0x54: pointer to 0x1b3</text>
<text text-anchor="middle" x="288" y="-127.8" font-family="Times,serif" font-size="14.00">lsls &#160;&#160;r6, r5, #1</text>
<text text-anchor="middle" x="288" y="-112.8" font-family="Times,serif" font-size="14.00">strb &#160;&#160;r1, [r5, #17]</text>
<text text-anchor="middle" x="288" y="-97.8" font-family="Times,serif" font-size="14.00">ldr &#160;&#160;r0, [r4, #112] &#160;&#160;; 0x70: pointer to 0x1b3</text>
<text text-anchor="middle" x="288" y="-82.8" font-family="Times,serif" font-size="14.00">str &#160;&#160;r0, [r4, #16]</text>
<text text-anchor="middle" x="288" y="-67.8" font-family="Times,serif" font-size="14.00">str &#160;&#160;r0, [r0, #32]</text>
<text text-anchor="middle" x="288" y="-52.8" font-family="Times,serif" font-size="14.00">movs &#160;&#160;r0, #107 &#160;&#160;; 0x6b</text>
<text text-anchor="middle" x="288" y="-37.8" font-family="Times,serif" font-size="14.00">strb &#160;&#160;r0, [r4, #16]</text>
<text text-anchor="middle" x="288" y="-22.8" font-family="Times,serif" font-size="14.00">ldrb &#160;&#160;r5, [r4, #1]</text>
<text text-anchor="middle" x="288" y="-7.8" font-family="Times,serif" font-size="14.00">bx &#160;&#160;r0</text>
</g>
<!-- _CCBC_CCC0&#45;&gt;_CCC4_CCC8_CCCC_CCD0_CCD4_CCD8_CCDC_CCE0_CCE4_CCE8_CCEC_CCF0_CCF4_CCF8_CCFC_CD00_CD04_CD08_CD0C_CD10_CD14_CD18_CD1C_CD20_CD24_CD28_CD2C_CD30_CD34_CD38_CD3C_CD40_CD44_CD48_CD4C_CD50_CD54_CD58_CD5C_CD60_CD64_CD68_CD6C_CD70_CD74_CD78_CD7C_CD80_CD84_CD88_CD8C_CD90_CD94_CD98_CD9C_CDA0_CDA4_CDA8_CDAC_CDB0_CDB4_CDB8_CDBC_CDC0_CDC4_CDC8_CDCC_CDD0_CDD4_CDD8_CDDC_CDE0_CDE4_CDE8_CDEC_CDF0_CDF4_CDF8_CDFC_CE00_CE04 -->
<g id="edge13" class="edge"><title>_CCBC_CCC0&#45;&gt;_CCC4_CCC8_CCCC_CCD0_CCD4_CCD8_CCDC_CCE0_CCE4_CCE8_CCEC_CCF0_CCF4_CCF8_CCFC_CD00_CD04_CD08_CD0C_CD10_CD14_CD18_CD1C_CD20_CD24_CD28_CD2C_CD30_CD34_CD38_CD3C_CD40_CD44_CD48_CD4C_CD50_CD54_CD58_CD5C_CD60_CD64_CD68_CD6C_CD70_CD74_CD78_CD7C_CD80_CD84_CD88_CD8C_CD90_CD94_CD98_CD9C_CDA0_CDA4_CDA8_CDAC_CDB0_CDB4_CDB8_CDBC_CDC0_CDC4_CDC8_CDCC_CDD0_CDD4_CDD8_CDDC_CDE0_CDE4_CDE8_CDEC_CDF0_CDF4_CDF8_CDFC_CE00_CE04</title>
<path fill="none" stroke="red" d="M288,-1259.85C288,-1252.8 288,-1243.84 288,-1233.26"/>
<polygon fill="red" stroke="red" points="291.5,-1233.1 288,-1223.1 284.5,-1233.1 291.5,-1233.1"/>
</g>
<!-- _CBD0 -->
<g id="node9" class="node"><title>_CBD0</title>
<polygon fill="none" stroke="black" points="319.5,-2120 254.5,-2120 254.5,-2084 319.5,-2084 319.5,-2120"/>
<text text-anchor="middle" x="287" y="-2098.3" font-family="Times,serif" font-size="14.00">bvc ccbc</text>
</g>
<!-- _CBD0&#45;&gt;_CCBC_CCC0 -->
<g id="edge7" class="edge"><title>_CBD0&#45;&gt;_CCBC_CCC0</title>
<path fill="none" stroke="blue" d="M287.021,-2083.85C287.147,-1980.37 287.806,-1439.24 287.965,-1308.47"/>
<polygon fill="blue" stroke="blue" points="291.466,-1308.11 287.978,-1298.1 284.466,-1308.1 291.466,-1308.11"/>
<text text-anchor="middle" x="297.5" y="-1899.3" font-family="Times,serif" font-size="14.00">VC</text>
</g>
<!-- _CBDC -->
<g id="node10" class="node"><title>_CBDC</title>
<polygon fill="none" stroke="black" points="494.5,-2065 429.5,-2065 429.5,-2029 494.5,-2029 494.5,-2065"/>
<text text-anchor="middle" x="462" y="-2043.3" font-family="Times,serif" font-size="14.00">bvc cbc8</text>
</g>
<!-- _CBC8_CBCC -->
<g id="node16" class="node"><title>_CBC8_CBCC</title>
<polygon fill="none" stroke="black" points="411.5,-2265 314.5,-2265 314.5,-2227 411.5,-2227 411.5,-2265"/>
<text text-anchor="middle" x="363" y="-2249.8" font-family="Times,serif" font-size="14.00">lsls &#160;&#160;r0, r0, #1</text>
<text text-anchor="middle" x="363" y="-2234.8" font-family="Times,serif" font-size="14.00">movs &#160;&#160;r4, r1</text>
</g>
<!-- _CBDC&#45;&gt;_CBC8_CBCC -->
<g id="edge2" class="edge"><title>_CBDC&#45;&gt;_CBC8_CBCC</title>
<path fill="none" stroke="blue" d="M457.777,-2065.36C451.164,-2090.75 436.923,-2139 416,-2176 407.4,-2191.21 395.752,-2206.76 385.566,-2219.24"/>
<polygon fill="blue" stroke="blue" points="382.843,-2217.04 379.13,-2226.96 388.221,-2221.52 382.843,-2217.04"/>
<text text-anchor="middle" x="443" y="-2153.3" font-family="Times,serif" font-size="14.00">VS</text>
</g>
<!-- _CC00_CB40_CB44_CB48_CB4C_CB50_CB54_CB58 -->
<g id="node11" class="node"><title>_CC00_CB40_CB44_CB48_CB4C_CB50_CB54_CB58</title>
<polygon fill="none" stroke="black" points="678,-1620.5 418,-1620.5 418,-1492.5 678,-1492.5 678,-1620.5"/>
<text text-anchor="middle" x="548" y="-1605.3" font-family="Times,serif" font-size="14.00">bls cb40</text>
<text text-anchor="middle" x="548" y="-1590.3" font-family="Times,serif" font-size="14.00">ldr &#160;&#160;r2, [r6, #116] &#160;&#160;; 0x74: pointer to 0x1b3</text>
<text text-anchor="middle" x="548" y="-1575.3" font-family="Times,serif" font-size="14.00">ldr &#160;&#160;r4, [r0, #20]</text>
<text text-anchor="middle" x="548" y="-1560.3" font-family="Times,serif" font-size="14.00">str &#160;&#160;r4, [r5, #20]</text>
<text text-anchor="middle" x="548" y="-1545.3" font-family="Times,serif" font-size="14.00">ldr &#160;&#160;r3, [r0, #116] &#160;&#160;; 0x74: pointer to 0x1b3</text>
<text text-anchor="middle" x="548" y="-1530.3" font-family="Times,serif" font-size="14.00">strb &#160;&#160;r0, [r4, #16]</text>
<text text-anchor="middle" x="548" y="-1515.3" font-family="Times,serif" font-size="14.00">str &#160;&#160;r2, [r2, #84] &#160;&#160;; 0x54: pointer to 0x1b3</text>
<text text-anchor="middle" x="548" y="-1500.3" font-family="Times,serif" font-size="14.00">strb &#160;&#160;r2, [r6, #13]</text>
</g>
<!-- _CC00_CB40_CB44_CB48_CB4C_CB50_CB54_CB58&#45;&gt;_CB5C_CB60_CB64_CB68_CB6C_CB70_CB74 -->
<g id="edge12" class="edge"><title>_CC00_CB40_CB44_CB48_CB4C_CB50_CB54_CB58&#45;&gt;_CB5C_CB60_CB64_CB68_CB6C_CB70_CB74</title>
<path fill="none" stroke="red" d="M548,-1620.75C548,-1679.4 548,-1769.1 548,-1847 548,-2426 548,-2426 548,-2426 548,-2515.95 506.371,-2612.37 473.872,-2673.95"/>
<polygon fill="red" stroke="red" points="470.781,-2672.3 469.149,-2682.77 476.953,-2675.61 470.781,-2672.3"/>
<text text-anchor="middle" x="556" y="-2098.3" font-family="Times,serif" font-size="14.00">LS</text>
</g>
<!-- _CBE8 -->
<g id="node12" class="node"><title>_CBE8</title>
<polygon fill="none" stroke="black" points="466,-1921 404,-1921 404,-1885 466,-1885 466,-1921"/>
<text text-anchor="middle" x="435" y="-1899.3" font-family="Times,serif" font-size="14.00">bhi ccc4</text>
</g>
<!-- _CBE8&#45;&gt;_CCC4_CCC8_CCCC_CCD0_CCD4_CCD8_CCDC_CCE0_CCE4_CCE8_CCEC_CCF0_CCF4_CCF8_CCFC_CD00_CD04_CD08_CD0C_CD10_CD14_CD18_CD1C_CD20_CD24_CD28_CD2C_CD30_CD34_CD38_CD3C_CD40_CD44_CD48_CD4C_CD50_CD54_CD58_CD5C_CD60_CD64_CD68_CD6C_CD70_CD74_CD78_CD7C_CD80_CD84_CD88_CD8C_CD90_CD94_CD98_CD9C_CDA0_CDA4_CDA8_CDAC_CDB0_CDB4_CDB8_CDBC_CDC0_CDC4_CDC8_CDCC_CDD0_CDD4_CDD8_CDDC_CDE0_CDE4_CDE8_CDEC_CDF0_CDF4_CDF8_CDFC_CE00_CE04 -->
<g id="edge4" class="edge"><title>_CBE8&#45;&gt;_CCC4_CCC8_CCCC_CCD0_CCD4_CCD8_CCDC_CCE0_CCE4_CCE8_CCEC_CCF0_CCF4_CCF8_CCFC_CD00_CD04_CD08_CD0C_CD10_CD14_CD18_CD1C_CD20_CD24_CD28_CD2C_CD30_CD34_CD38_CD3C_CD40_CD44_CD48_CD4C_CD50_CD54_CD58_CD5C_CD60_CD64_CD68_CD6C_CD70_CD74_CD78_CD7C_CD80_CD84_CD88_CD8C_CD90_CD94_CD98_CD9C_CDA0_CDA4_CDA8_CDAC_CDB0_CDB4_CDB8_CDBC_CDC0_CDC4_CDC8_CDCC_CDD0_CDD4_CDD8_CDDC_CDE0_CDE4_CDE8_CDEC_CDF0_CDF4_CDF8_CDFC_CE00_CE04</title>
<path fill="none" stroke="blue" d="M427.801,-1884.7C418.307,-1861.06 401.885,-1817.12 394,-1778 348.352,-1551.54 371.742,-1490.08 351,-1260 350.208,-1251.21 349.406,-1242.36 348.594,-1233.45"/>
<polygon fill="blue" stroke="blue" points="352.069,-1233.02 347.675,-1223.38 345.098,-1233.65 352.069,-1233.02"/>
<text text-anchor="middle" x="401.5" y="-1552.8" font-family="Times,serif" font-size="14.00">HI</text>
</g>
<!-- _CB5C_CB60_CB64_CB68_CB6C_CB70_CB74&#45;&gt;_CB78_CB7C_CB80_CB84_CB8C_CB90_CB98_CB9C_CBA4_CBA8_CBB0_CBB4_CBBC_CBC0 -->
<g id="edge24" class="edge"><title>_CB5C_CB60_CB64_CB68_CB6C_CB70_CB74&#45;&gt;_CB78_CB7C_CB80_CB84_CB8C_CB90_CB98_CB9C_CBA4_CBA8_CBB0_CBB4_CBBC_CBC0</title>
<path fill="none" stroke="red" d="M423.033,-2682.99C414.026,-2644.43 401.684,-2591.6 390.533,-2543.87"/>
<polygon fill="red" stroke="red" points="393.93,-2543.02 388.247,-2534.08 387.114,-2544.61 393.93,-2543.02"/>
</g>
<!-- _CBF4 -->
<g id="node14" class="node"><title>_CBF4</title>
<polygon fill="none" stroke="black" points="376,-1866 314,-1866 314,-1830 376,-1830 376,-1866"/>
<text text-anchor="middle" x="345" y="-1844.3" font-family="Times,serif" font-size="14.00">bls cc44</text>
</g>
<!-- _CBF4&#45;&gt;_CC44_CC4C_CC50_CC54_CC58_CC5C_CC60_CC64_CC68_CC6C_CC70_CC74_CC78_CC7C_CC80_CC84_CC88_CC8C_CC90_CC94_CC98_CC9C_CCA0_CCA4_CCA8_CCAC_CCB0_CCB4_CCB8 -->
<g id="edge26" class="edge"><title>_CBF4&#45;&gt;_CC44_CC4C_CC50_CC54_CC58_CC5C_CC60_CC64_CC68_CC6C_CC70_CC74_CC78_CC7C_CC80_CC84_CC88_CC8C_CC90_CC94_CC98_CC9C_CCA0_CCA4_CCA8_CCAC_CCB0_CCB4_CCB8</title>
<path fill="none" stroke="blue" d="M332.195,-1829.76C317.991,-1810.63 293.464,-1777.61 266.288,-1741.01"/>
<polygon fill="blue" stroke="blue" points="268.851,-1738.59 260.079,-1732.65 263.232,-1742.77 268.851,-1738.59"/>
<text text-anchor="middle" x="322" y="-1799.8" font-family="Times,serif" font-size="14.00">LS</text>
</g>
<!-- _CB78_CB7C_CB80_CB84_CB8C_CB90_CB98_CB9C_CBA4_CBA8_CBB0_CBB4_CBBC_CBC0&#45;&gt;_CBC4 -->
<g id="edge11" class="edge"><title>_CB78_CB7C_CB80_CB84_CB8C_CB90_CB98_CB9C_CBA4_CBA8_CBB0_CBB4_CBBC_CBC0&#45;&gt;_CBC4</title>
<path fill="none" stroke="blue" d="M287.84,-2326.18C272.434,-2306.13 257.524,-2286.73 246.32,-2272.14"/>
<polygon fill="blue" stroke="blue" points="249.044,-2269.94 240.175,-2264.15 243.493,-2274.21 249.044,-2269.94"/>
<text text-anchor="middle" x="273.5" y="-2286.8" font-family="Times,serif" font-size="14.00">VC</text>
</g>
<!-- _CB78_CB7C_CB80_CB84_CB8C_CB90_CB98_CB9C_CBA4_CBA8_CBB0_CBB4_CBBC_CBC0&#45;&gt;_CBC8_CBCC -->
<g id="edge20" class="edge"><title>_CB78_CB7C_CB80_CB84_CB8C_CB90_CB98_CB9C_CBA4_CBA8_CBB0_CBB4_CBBC_CBC0&#45;&gt;_CBC8_CBCC</title>
<path fill="none" stroke="red" d="M363,-2315.94C363,-2300.99 363,-2286.83 363,-2275.28"/>
<polygon fill="red" stroke="red" points="366.5,-2275.06 363,-2265.06 359.5,-2275.06 366.5,-2275.06"/>
<text text-anchor="middle" x="372" y="-2286.8" font-family="Times,serif" font-size="14.00">VS</text>
</g>
<!-- _CBC8_CBCC&#45;&gt;_CBD0 -->
<g id="edge3" class="edge"><title>_CBC8_CBCC&#45;&gt;_CBD0</title>
<path fill="none" stroke="blue" d="M346.232,-2226.89C334.703,-2213.63 319.767,-2194.76 310,-2176 302.517,-2161.63 296.945,-2144.39 293.161,-2130.27"/>
<polygon fill="blue" stroke="blue" points="296.455,-2129.02 290.613,-2120.19 289.668,-2130.74 296.455,-2129.02"/>
<text text-anchor="middle" x="341.5" y="-2197.8" font-family="Times,serif" font-size="14.00">VC</text>
</g>
<!-- _CBD4_CBD8 -->
<g id="node17" class="node"><title>_CBD4_CBD8</title>
<polygon fill="none" stroke="black" points="407,-2176 319,-2176 319,-2138 407,-2138 407,-2176"/>
<text text-anchor="middle" x="363" y="-2160.8" font-family="Times,serif" font-size="14.00">movs &#160;&#160;r6, r3</text>
<text text-anchor="middle" x="363" y="-2145.8" font-family="Times,serif" font-size="14.00">movs &#160;&#160;r0, r4</text>
</g>
<!-- _CBC8_CBCC&#45;&gt;_CBD4_CBD8 -->
<g id="edge5" class="edge"><title>_CBC8_CBCC&#45;&gt;_CBD4_CBD8</title>
<path fill="none" stroke="red" d="M363,-2226.97C363,-2215.19 363,-2199.56 363,-2186.16"/>
<polygon fill="red" stroke="red" points="366.5,-2186 363,-2176 359.5,-2186 366.5,-2186"/>
<text text-anchor="middle" x="372" y="-2197.8" font-family="Times,serif" font-size="14.00">VS</text>
</g>
<!-- _CBD4_CBD8&#45;&gt;_CBDC -->
<g id="edge21" class="edge"><title>_CBD4_CBD8&#45;&gt;_CBDC</title>
<path fill="none" stroke="blue" d="M375.37,-2137.98C386.117,-2122.88 402.508,-2101.1 419,-2084 422.971,-2079.88 427.384,-2075.76 431.828,-2071.85"/>
<polygon fill="blue" stroke="blue" points="434.423,-2074.24 439.768,-2065.09 429.885,-2068.91 434.423,-2074.24"/>
<text text-anchor="middle" x="428.5" y="-2098.3" font-family="Times,serif" font-size="14.00">VC</text>
</g>
<!-- _CBE0_CBE4 -->
<g id="node18" class="node"><title>_CBE0_CBE4</title>
<polygon fill="none" stroke="black" points="411.5,-2066 314.5,-2066 314.5,-2028 411.5,-2028 411.5,-2066"/>
<text text-anchor="middle" x="363" y="-2050.8" font-family="Times,serif" font-size="14.00">lsls &#160;&#160;r5, r3, #1</text>
<text text-anchor="middle" x="363" y="-2035.8" font-family="Times,serif" font-size="14.00">movs &#160;&#160;r4, r1</text>
</g>
<!-- _CBD4_CBD8&#45;&gt;_CBE0_CBE4 -->
<g id="edge15" class="edge"><title>_CBD4_CBD8&#45;&gt;_CBE0_CBE4</title>
<path fill="none" stroke="red" d="M363,-2137.68C363,-2120.82 363,-2095.57 363,-2076.15"/>
<polygon fill="red" stroke="red" points="366.5,-2076.05 363,-2066.05 359.5,-2076.05 366.5,-2076.05"/>
<text text-anchor="middle" x="372" y="-2098.3" font-family="Times,serif" font-size="14.00">VS</text>
</g>
<!-- _CBE0_CBE4&#45;&gt;_CBE8 -->
<g id="edge6" class="edge"><title>_CBE0_CBE4&#45;&gt;_CBE8</title>
<path fill="none" stroke="blue" d="M380.313,-2027.76C391.944,-2014.58 406.777,-1995.86 416,-1977 423.014,-1962.66 427.657,-1945.42 430.596,-1931.29"/>
<polygon fill="blue" stroke="blue" points="434.085,-1931.68 432.522,-1921.2 427.209,-1930.37 434.085,-1931.68"/>
<text text-anchor="middle" x="412.5" y="-1998.8" font-family="Times,serif" font-size="14.00">HI</text>
</g>
<!-- _CBEC_CBF0 -->
<g id="node19" class="node"><title>_CBEC_CBF0</title>
<polygon fill="none" stroke="black" points="407,-1977 319,-1977 319,-1939 407,-1939 407,-1977"/>
<text text-anchor="middle" x="363" y="-1961.8" font-family="Times,serif" font-size="14.00">movs &#160;&#160;r6, r3</text>
<text text-anchor="middle" x="363" y="-1946.8" font-family="Times,serif" font-size="14.00">movs &#160;&#160;r0, r4</text>
</g>
<!-- _CBE0_CBE4&#45;&gt;_CBEC_CBF0 -->
<g id="edge16" class="edge"><title>_CBE0_CBE4&#45;&gt;_CBEC_CBF0</title>
<path fill="none" stroke="red" d="M363,-2027.97C363,-2016.19 363,-2000.56 363,-1987.16"/>
<polygon fill="red" stroke="red" points="366.5,-1987 363,-1977 359.5,-1987 366.5,-1987"/>
<text text-anchor="middle" x="371" y="-1998.8" font-family="Times,serif" font-size="14.00">LS</text>
</g>
<!-- _CBEC_CBF0&#45;&gt;_CBF4 -->
<g id="edge19" class="edge"><title>_CBEC_CBF0&#45;&gt;_CBF4</title>
<path fill="none" stroke="blue" d="M352.596,-1938.86C349.921,-1933.31 347.403,-1927.06 346,-1921 342.64,-1906.49 342.191,-1889.89 342.671,-1876.29"/>
<polygon fill="blue" stroke="blue" points="346.176,-1876.29 343.218,-1866.12 339.186,-1875.92 346.176,-1876.29"/>
<text text-anchor="middle" x="354" y="-1899.3" font-family="Times,serif" font-size="14.00">LS</text>
</g>
<!-- _CBF8_CBFC -->
<g id="node21" class="node"><title>_CBF8_CBFC</title>
<polygon fill="none" stroke="black" points="520,-1867 432,-1867 432,-1829 520,-1829 520,-1867"/>
<text text-anchor="middle" x="476" y="-1851.8" font-family="Times,serif" font-size="14.00">movs &#160;&#160;r0, r1</text>
<text text-anchor="middle" x="476" y="-1836.8" font-family="Times,serif" font-size="14.00">movs &#160;&#160;r0, r1</text>
</g>
<!-- _CBEC_CBF0&#45;&gt;_CBF8_CBFC -->
<g id="edge17" class="edge"><title>_CBEC_CBF0&#45;&gt;_CBF8_CBFC</title>
<path fill="none" stroke="red" d="M362.721,-1938.89C363.432,-1922.88 366.929,-1899.84 380,-1885 390.91,-1872.61 406.516,-1864.47 421.983,-1859.13"/>
<polygon fill="red" stroke="red" points="423.043,-1862.47 431.552,-1856.15 420.964,-1855.78 423.043,-1862.47"/>
<text text-anchor="middle" x="387.5" y="-1899.3" font-family="Times,serif" font-size="14.00">HI</text>
</g>
<!-- _CBF8_CBFC&#45;&gt;_CC04_CC08 -->
<g id="edge22" class="edge"><title>_CBF8_CBFC&#45;&gt;_CC04_CC08</title>
<path fill="none" stroke="red" d="M518.601,-1867.09C552.4,-1884.63 594,-1914.79 594,-1957 594,-2867 594,-2867 594,-2867 594,-2915.72 535.641,-2937.35 489.859,-2946.83"/>
<polygon fill="red" stroke="red" points="489.17,-2943.4 480.012,-2948.73 490.493,-2950.27 489.17,-2943.4"/>
<text text-anchor="middle" x="601.5" y="-2242.3" font-family="Times,serif" font-size="14.00">HI</text>
</g>
<!-- _CBF8_CBFC&#45;&gt;_CC00_CB40_CB44_CB48_CB4C_CB50_CB54_CB58 -->
<g id="edge18" class="edge"><title>_CBF8_CBFC&#45;&gt;_CC00_CB40_CB44_CB48_CB4C_CB50_CB54_CB58</title>
<path fill="none" stroke="red" d="M480.504,-1828.89C490.167,-1790.04 513.35,-1696.82 529.844,-1630.5"/>
<polygon fill="red" stroke="red" points="533.311,-1631.06 532.329,-1620.51 526.518,-1629.37 533.311,-1631.06"/>
<text text-anchor="middle" x="497" y="-1799.8" font-family="Times,serif" font-size="14.00">LS</text>
</g>
</g>
</svg>
