<?xml version="1.0" encoding="UTF-8" standalone="no"?>
<!DOCTYPE svg PUBLIC "-//W3C//DTD SVG 1.1//EN"
 "http://www.w3.org/Graphics/SVG/1.1/DTD/svg11.dtd">
<!-- Generated by graphviz version 2.38.0 (20140413.2041)
 -->
<!-- Title: G Pages: 1 -->
<svg width="267pt" height="388pt"
 viewBox="0.00 0.00 266.50 388.00" xmlns="http://www.w3.org/2000/svg" xmlns:xlink="http://www.w3.org/1999/xlink">
<g id="graph0" class="graph" transform="scale(1 1) rotate(0) translate(4 384)">
<title>G</title>
<polygon fill="white" stroke="none" points="-4,4 -4,-384 262.5,-384 262.5,4 -4,4"/>
<!-- _3DA8 -->
<g id="node1" class="node"><title>_3DA8</title>
<polygon fill="none" stroke="black" points="178.5,-140 68.5,-140 68.5,-104 178.5,-104 178.5,-140"/>
<text text-anchor="middle" x="123.5" y="-118.3" font-family="Times,serif" font-size="14.00">ldrb &#160;&#160;r1, [r6, #0]</text>
</g>
<!-- _3DAC -->
<g id="node2" class="node"><title>_3DAC</title>
<polygon fill="none" stroke="black" points="124.5,-44.5 60.5,-44.5 60.5,-8.5 124.5,-8.5 124.5,-44.5"/>
<text text-anchor="middle" x="92.5" y="-22.8" font-family="Times,serif" font-size="14.00">bpl 3da8</text>
</g>
<!-- _3DA8&#45;&gt;_3DAC -->
<g id="edge1" class="edge"><title>_3DA8&#45;&gt;_3DAC</title>
<path fill="none" stroke="blue" d="M104.614,-103.708C100.13,-98.4957 95.943,-92.4345 93.5,-86 89.8196,-76.3063 88.9153,-65.042 89.1583,-55.0008"/>
<polygon fill="blue" stroke="blue" points="92.6703,-54.9146 89.7953,-44.7173 85.6836,-54.4818 92.6703,-54.9146"/>
<text text-anchor="middle" x="101.5" y="-74.8" font-family="Times,serif" font-size="14.00">PL</text>
</g>
<!-- _3DB0_3DB4_3DB8 -->
<g id="node4" class="node"><title>_3DB0_3DB4_3DB8</title>
<polygon fill="none" stroke="black" points="258.5,-53 142.5,-53 142.5,-0 258.5,-0 258.5,-53"/>
<text text-anchor="middle" x="200.5" y="-37.8" font-family="Times,serif" font-size="14.00">tst &#160;&#160;r1, r5</text>
<text text-anchor="middle" x="200.5" y="-22.8" font-family="Times,serif" font-size="14.00">pop &#160;&#160;r4, r5, r6, r7</text>
<text text-anchor="middle" x="200.5" y="-7.8" font-family="Times,serif" font-size="14.00">bx &#160;&#160;lr</text>
</g>
<!-- _3DA8&#45;&gt;_3DB0_3DB4_3DB8 -->
<g id="edge2" class="edge"><title>_3DA8&#45;&gt;_3DB0_3DB4_3DB8</title>
<path fill="none" stroke="red" d="M137.623,-103.851C147.514,-91.8404 161.051,-75.4023 173.032,-60.8544"/>
<polygon fill="red" stroke="red" points="175.839,-62.9511 179.494,-53.0068 170.436,-58.5011 175.839,-62.9511"/>
<text text-anchor="middle" x="172.5" y="-74.8" font-family="Times,serif" font-size="14.00">MI</text>
</g>
<!-- _3DAC&#45;&gt;_3DA8 -->
<g id="edge3" class="edge"><title>_3DAC&#45;&gt;_3DA8</title>
<path fill="none" stroke="blue" d="M99.6826,-44.7127C102.876,-52.6489 106.568,-62.2339 109.5,-71 111.977,-78.4055 114.381,-86.5242 116.477,-94.0257"/>
<polygon fill="blue" stroke="blue" points="113.12,-95.0176 119.123,-103.747 119.874,-93.179 113.12,-95.0176"/>
</g>
<!-- _3D74_3D78_3D7C_3D80_3D84_3D88_3D8C_3D90_3D94_3D98_3D9C_3DA0_3DA4 -->
<g id="node3" class="node"><title>_3D74_3D78_3D7C_3D80_3D84_3D88_3D8C_3D90_3D94_3D98_3D9C_3DA0_3DA4</title>
<polygon fill="none" stroke="black" points="247,-380 0,-380 0,-177 247,-177 247,-380"/>
<text text-anchor="middle" x="123.5" y="-364.8" font-family="Times,serif" font-size="14.00">push &#160;&#160;r4, r5, r6, r7</text>
<text text-anchor="middle" x="123.5" y="-349.8" font-family="Times,serif" font-size="14.00">cmp &#160;&#160;r1, #0</text>
<text text-anchor="middle" x="123.5" y="-334.8" font-family="Times,serif" font-size="14.00">movs &#160;&#160;r5, #113 &#160;&#160;; 0x71</text>
<text text-anchor="middle" x="123.5" y="-319.8" font-family="Times,serif" font-size="14.00">lsls &#160;&#160;r1, r1, #25</text>
<text text-anchor="middle" x="123.5" y="-304.8" font-family="Times,serif" font-size="14.00">orrs &#160;&#160;r1, r0</text>
<text text-anchor="middle" x="123.5" y="-289.8" font-family="Times,serif" font-size="14.00">ldrb &#160;&#160;r4, [r2, #0]</text>
<text text-anchor="middle" x="123.5" y="-274.8" font-family="Times,serif" font-size="14.00">mov &#160;&#160;r1, r4</text>
<text text-anchor="middle" x="123.5" y="-259.8" font-family="Times,serif" font-size="14.00">lsls &#160;&#160;r4, r4, #8</text>
<text text-anchor="middle" x="123.5" y="-244.8" font-family="Times,serif" font-size="14.00">ldrb &#160;&#160;r4, [r2, #2]</text>
<text text-anchor="middle" x="123.5" y="-229.8" font-family="Times,serif" font-size="14.00">orrs &#160;&#160;r1, r4</text>
<text text-anchor="middle" x="123.5" y="-214.8" font-family="Times,serif" font-size="14.00">orrs &#160;&#160;r1, r3</text>
<text text-anchor="middle" x="123.5" y="-199.8" font-family="Times,serif" font-size="14.00">str &#160;&#160;r1, [r6, #8]</text>
<text text-anchor="middle" x="123.5" y="-184.8" font-family="Times,serif" font-size="14.00">movs &#160;&#160;r4, #128 &#160;&#160;; 0x80: pointer to 0x1b3</text>
</g>
<!-- _3D74_3D78_3D7C_3D80_3D84_3D88_3D8C_3D90_3D94_3D98_3D9C_3DA0_3DA4&#45;&gt;_3DA8 -->
<g id="edge4" class="edge"><title>_3D74_3D78_3D7C_3D80_3D84_3D88_3D8C_3D90_3D94_3D98_3D9C_3DA0_3DA4&#45;&gt;_3DA8</title>
<path fill="none" stroke="red" d="M123.5,-176.603C123.5,-167.107 123.5,-158.139 123.5,-150.353"/>
<polygon fill="red" stroke="red" points="127,-150.201 123.5,-140.201 120,-150.201 127,-150.201"/>
</g>
</g>
</svg>
