<?xml version="1.0" encoding="UTF-8" standalone="no"?>
<!DOCTYPE svg PUBLIC "-//W3C//DTD SVG 1.1//EN"
 "http://www.w3.org/Graphics/SVG/1.1/DTD/svg11.dtd">
<!-- Generated by graphviz version 2.38.0 (20140413.2041)
 -->
<!-- Title: G Pages: 1 -->
<svg width="197pt" height="299pt"
 viewBox="0.00 0.00 196.50 299.00" xmlns="http://www.w3.org/2000/svg" xmlns:xlink="http://www.w3.org/1999/xlink">
<g id="graph0" class="graph" transform="scale(1 1) rotate(0) translate(4 295)">
<title>G</title>
<polygon fill="white" stroke="none" points="-4,4 -4,-295 192.5,-295 192.5,4 -4,4"/>
<!-- _19AC -->
<g id="node1" class="node"><title>_19AC</title>
<polygon fill="none" stroke="black" points="65,-126 0,-126 0,-90 65,-90 65,-126"/>
<text text-anchor="middle" x="32.5" y="-104.3" font-family="Times,serif" font-size="14.00">bcc 19be</text>
</g>
<!-- _19BE_19C2 -->
<g id="node4" class="node"><title>_19BE_19C2</title>
<polygon fill="none" stroke="black" points="188,-38 71,-38 71,-0 188,-0 188,-38"/>
<text text-anchor="middle" x="129.5" y="-22.8" font-family="Times,serif" font-size="14.00">subs &#160;&#160;r6, #1</text>
<text text-anchor="middle" x="129.5" y="-7.8" font-family="Times,serif" font-size="14.00">pop &#160;&#160;r4, r5, r6, pc</text>
</g>
<!-- _19AC&#45;&gt;_19BE_19C2 -->
<g id="edge1" class="edge"><title>_19AC&#45;&gt;_19BE_19C2</title>
<path fill="none" stroke="blue" d="M51.6641,-89.8116C65.9934,-76.9595 85.7953,-59.1991 101.84,-44.8086"/>
<polygon fill="blue" stroke="blue" points="104.266,-47.3337 109.374,-38.0512 99.5926,-42.1226 104.266,-47.3337"/>
<text text-anchor="middle" x="96" y="-59.8" font-family="Times,serif" font-size="14.00">CC</text>
</g>
<!-- _19B0_19B4 -->
<g id="node2" class="node"><title>_19B0_19B4</title>
<polygon fill="none" stroke="black" points="175.5,-127 83.5,-127 83.5,-89 175.5,-89 175.5,-127"/>
<text text-anchor="middle" x="129.5" y="-111.8" font-family="Times,serif" font-size="14.00">stmia &#160;&#160;r5!, r0</text>
<text text-anchor="middle" x="129.5" y="-96.8" font-family="Times,serif" font-size="14.00">b 19be</text>
</g>
<!-- _19B0_19B4&#45;&gt;_19BE_19C2 -->
<g id="edge3" class="edge"><title>_19B0_19B4&#45;&gt;_19BE_19C2</title>
<path fill="none" stroke="red" d="M129.5,-88.9735C129.5,-77.1918 129.5,-61.5607 129.5,-48.1581"/>
<polygon fill="red" stroke="red" points="133,-48.0033 129.5,-38.0034 126,-48.0034 133,-48.0033"/>
<text text-anchor="middle" x="138" y="-59.8" font-family="Times,serif" font-size="14.00">CS</text>
</g>
<!-- _198C_1990_1994_199C_19A0_19A4_19A8 -->
<g id="node3" class="node"><title>_198C_1990_1994_199C_19A0_19A4_19A8</title>
<polygon fill="none" stroke="black" points="188.5,-291 70.5,-291 70.5,-178 188.5,-178 188.5,-291"/>
<text text-anchor="middle" x="129.5" y="-275.8" font-family="Times,serif" font-size="14.00">push &#160;&#160;r4, r5, r6, lr</text>
<text text-anchor="middle" x="129.5" y="-260.8" font-family="Times,serif" font-size="14.00">mov &#160;&#160;r4, r1</text>
<text text-anchor="middle" x="129.5" y="-245.8" font-family="Times,serif" font-size="14.00">b 199c</text>
<text text-anchor="middle" x="129.5" y="-230.8" font-family="Times,serif" font-size="14.00">cmp &#160;&#160;r6, #16</text>
<text text-anchor="middle" x="129.5" y="-215.8" font-family="Times,serif" font-size="14.00">cmp &#160;&#160;r6, #8</text>
<text text-anchor="middle" x="129.5" y="-200.8" font-family="Times,serif" font-size="14.00">ldmia &#160;&#160;r4!, r0, r1</text>
<text text-anchor="middle" x="129.5" y="-185.8" font-family="Times,serif" font-size="14.00">subs &#160;&#160;r6, #8</text>
</g>
<!-- _198C_1990_1994_199C_19A0_19A4_19A8&#45;&gt;_19AC -->
<g id="edge4" class="edge"><title>_198C_1990_1994_199C_19A0_19A4_19A8&#45;&gt;_19AC</title>
<path fill="none" stroke="blue" d="M86.1068,-177.805C74.3032,-162.655 62.0915,-146.981 52.3104,-134.427"/>
<polygon fill="blue" stroke="blue" points="54.8689,-132.016 45.9619,-126.278 49.347,-136.318 54.8689,-132.016"/>
<text text-anchor="middle" x="79" y="-148.8" font-family="Times,serif" font-size="14.00">CC</text>
</g>
<!-- _198C_1990_1994_199C_19A0_19A4_19A8&#45;&gt;_19B0_19B4 -->
<g id="edge2" class="edge"><title>_198C_1990_1994_199C_19A0_19A4_19A8&#45;&gt;_19B0_19B4</title>
<path fill="none" stroke="red" d="M129.5,-177.805C129.5,-163.826 129.5,-149.402 129.5,-137.393"/>
<polygon fill="red" stroke="red" points="133,-137.126 129.5,-127.126 126,-137.126 133,-137.126"/>
<text text-anchor="middle" x="138" y="-148.8" font-family="Times,serif" font-size="14.00">CS</text>
</g>
</g>
</svg>
