<?xml version="1.0" encoding="UTF-8" standalone="no"?>
<!DOCTYPE svg PUBLIC "-//W3C//DTD SVG 1.1//EN"
 "http://www.w3.org/Graphics/SVG/1.1/DTD/svg11.dtd">
<!-- Generated by graphviz version 2.38.0 (20140413.2041)
 -->
<!-- Title: G Pages: 1 -->
<svg width="194pt" height="222pt"
 viewBox="0.00 0.00 194.00 222.00" xmlns="http://www.w3.org/2000/svg" xmlns:xlink="http://www.w3.org/1999/xlink">
<g id="graph0" class="graph" transform="scale(1 1) rotate(0) translate(4 218)">
<title>G</title>
<polygon fill="white" stroke="none" points="-4,4 -4,-218 190,-218 190,4 -4,4"/>
<!-- _8524_8528 -->
<g id="node1" class="node"><title>_8524_8528</title>
<polygon fill="none" stroke="black" points="129.5,-214 39.5,-214 39.5,-176 129.5,-176 129.5,-214"/>
<text text-anchor="middle" x="84.5" y="-198.8" font-family="Times,serif" font-size="14.00">movs &#160;&#160;r2, #1</text>
<text text-anchor="middle" x="84.5" y="-183.8" font-family="Times,serif" font-size="14.00">movs &#160;&#160;r3, #2</text>
</g>
<!-- _852C -->
<g id="node2" class="node"><title>_852C</title>
<polygon fill="none" stroke="black" points="67,-125 0,-125 0,-89 67,-89 67,-125"/>
<text text-anchor="middle" x="33.5" y="-103.3" font-family="Times,serif" font-size="14.00">beq 8534</text>
</g>
<!-- _8524_8528&#45;&gt;_852C -->
<g id="edge1" class="edge"><title>_8524_8528&#45;&gt;_852C</title>
<path fill="none" stroke="blue" d="M73.6842,-175.762C66.4621,-163.583 56.8561,-147.385 48.8471,-133.879"/>
<polygon fill="blue" stroke="blue" points="51.7177,-131.858 43.6064,-125.042 45.6968,-135.429 51.7177,-131.858"/>
<text text-anchor="middle" x="72" y="-146.8" font-family="Times,serif" font-size="14.00">EQ</text>
</g>
<!-- _8530 -->
<g id="node3" class="node"><title>_8530</title>
<polygon fill="none" stroke="black" points="186,-125 85,-125 85,-89 186,-89 186,-125"/>
<text text-anchor="middle" x="135.5" y="-103.3" font-family="Times,serif" font-size="14.00">str &#160;&#160;r3, [r1, #4]</text>
</g>
<!-- _8524_8528&#45;&gt;_8530 -->
<g id="edge2" class="edge"><title>_8524_8528&#45;&gt;_8530</title>
<path fill="none" stroke="red" d="M95.3158,-175.762C102.538,-163.583 112.144,-147.385 120.153,-133.879"/>
<polygon fill="red" stroke="red" points="123.303,-135.429 125.394,-125.042 117.282,-131.858 123.303,-135.429"/>
<text text-anchor="middle" x="124" y="-146.8" font-family="Times,serif" font-size="14.00">NE</text>
</g>
<!-- _8534_8538 -->
<g id="node4" class="node"><title>_8534_8538</title>
<polygon fill="none" stroke="black" points="142,-38 41,-38 41,-0 142,-0 142,-38"/>
<text text-anchor="middle" x="91.5" y="-22.8" font-family="Times,serif" font-size="14.00">str &#160;&#160;r3, [r1, #8]</text>
<text text-anchor="middle" x="91.5" y="-7.8" font-family="Times,serif" font-size="14.00">bx &#160;&#160;lr</text>
</g>
<!-- _852C&#45;&gt;_8534_8538 -->
<g id="edge3" class="edge"><title>_852C&#45;&gt;_8534_8538</title>
<path fill="none" stroke="blue" d="M45.2372,-88.5966C53.3288,-76.5986 64.2397,-60.4204 73.4332,-46.7887"/>
<polygon fill="blue" stroke="blue" points="76.49,-48.5157 79.1797,-38.268 70.6865,-44.6017 76.49,-48.5157"/>
<text text-anchor="middle" x="76" y="-59.8" font-family="Times,serif" font-size="14.00">EQ</text>
</g>
<!-- _8530&#45;&gt;_8534_8538 -->
<g id="edge4" class="edge"><title>_8530&#45;&gt;_8534_8538</title>
<path fill="none" stroke="red" d="M126.596,-88.5966C120.516,-76.7129 112.338,-60.7282 105.405,-47.1789"/>
<polygon fill="red" stroke="red" points="108.517,-45.5763 100.846,-38.268 102.285,-48.7647 108.517,-45.5763"/>
<text text-anchor="middle" x="126" y="-59.8" font-family="Times,serif" font-size="14.00">NE</text>
</g>
</g>
</svg>
