<?xml version="1.0" encoding="UTF-8" standalone="no"?>
<!DOCTYPE svg PUBLIC "-//W3C//DTD SVG 1.1//EN"
 "http://www.w3.org/Graphics/SVG/1.1/DTD/svg11.dtd">
<!-- Generated by graphviz version 2.38.0 (20140413.2041)
 -->
<!-- Title: G Pages: 1 -->
<svg width="338pt" height="632pt"
 viewBox="0.00 0.00 337.50 632.00" xmlns="http://www.w3.org/2000/svg" xmlns:xlink="http://www.w3.org/1999/xlink">
<g id="graph0" class="graph" transform="scale(1 1) rotate(0) translate(4 628)">
<title>G</title>
<polygon fill="white" stroke="none" points="-4,4 -4,-628 333.5,-628 333.5,4 -4,4"/>
<!-- _280 -->
<g id="node1" class="node"><title>_280</title>
<polygon fill="none" stroke="black" points="255,-624 100,-624 100,-588 255,-588 255,-624"/>
<text text-anchor="middle" x="177.5" y="-602.3" font-family="Times,serif" font-size="14.00">push &#160;&#160;r3, r4, r5, r6, r7, lr</text>
</g>
<!-- _284 -->
<g id="node2" class="node"><title>_284</title>
<polygon fill="none" stroke="black" points="59,-421 0,-421 0,-385 59,-385 59,-421"/>
<text text-anchor="middle" x="29.5" y="-399.3" font-family="Times,serif" font-size="14.00">bcc 2e0</text>
</g>
<!-- _280&#45;&gt;_284 -->
<g id="edge1" class="edge"><title>_280&#45;&gt;_284</title>
<path fill="none" stroke="blue" d="M123.795,-587.901C114.545,-583.185 105.629,-577.296 98.5,-570 60.2502,-530.856 42.0261,-467.448 34.3403,-431.385"/>
<polygon fill="blue" stroke="blue" points="37.6813,-430.245 32.2829,-421.128 30.818,-431.621 37.6813,-430.245"/>
<text text-anchor="middle" x="108" y="-558.8" font-family="Times,serif" font-size="14.00">CC</text>
</g>
<!-- _288 -->
<g id="node3" class="node"><title>_288</title>
<polygon fill="none" stroke="black" points="124.5,-421 64.5,-421 64.5,-385 124.5,-385 124.5,-421"/>
<text text-anchor="middle" x="94.5" y="-399.3" font-family="Times,serif" font-size="14.00">beq 2b0</text>
</g>
<!-- _280&#45;&gt;_288 -->
<g id="edge2" class="edge"><title>_280&#45;&gt;_288</title>
<path fill="none" stroke="blue" d="M149.844,-587.66C142.986,-582.528 136.026,-576.519 130.5,-570 97.0595,-530.555 92.5404,-467.259 93.0114,-431.296"/>
<polygon fill="blue" stroke="blue" points="96.5163,-431.161 93.2914,-421.069 89.519,-430.969 96.5163,-431.161"/>
<text text-anchor="middle" x="152" y="-558.8" font-family="Times,serif" font-size="14.00">CS, EQ</text>
</g>
<!-- _28C_290_294_298_29C_2A0 -->
<g id="node4" class="node"><title>_28C_290_294_298_29C_2A0</title>
<polygon fill="none" stroke="black" points="232.5,-537 122.5,-537 122.5,-439 232.5,-439 232.5,-537"/>
<text text-anchor="middle" x="177.5" y="-521.8" font-family="Times,serif" font-size="14.00">adds &#160;&#160;r1, r1, #1</text>
<text text-anchor="middle" x="177.5" y="-506.8" font-family="Times,serif" font-size="14.00">adds &#160;&#160;r0, r0, #1</text>
<text text-anchor="middle" x="177.5" y="-491.8" font-family="Times,serif" font-size="14.00">lsls &#160;&#160;r3, r0, #30</text>
<text text-anchor="middle" x="177.5" y="-476.8" font-family="Times,serif" font-size="14.00">ldrb &#160;&#160;r3, [r1, #0]</text>
<text text-anchor="middle" x="177.5" y="-461.8" font-family="Times,serif" font-size="14.00">strb &#160;&#160;r3, [r0, #0]</text>
<text text-anchor="middle" x="177.5" y="-446.8" font-family="Times,serif" font-size="14.00">subs &#160;&#160;r2, r2, #1</text>
</g>
<!-- _280&#45;&gt;_28C_290_294_298_29C_2A0 -->
<g id="edge3" class="edge"><title>_280&#45;&gt;_28C_290_294_298_29C_2A0</title>
<path fill="none" stroke="red" d="M177.5,-587.884C177.5,-576.977 177.5,-562.146 177.5,-547.289"/>
<polygon fill="red" stroke="red" points="181,-547.048 177.5,-537.048 174,-547.048 181,-547.048"/>
<text text-anchor="middle" x="199" y="-558.8" font-family="Times,serif" font-size="14.00">CS, NE</text>
</g>
<!-- _2E0_2E4_2E8_2EC_2F0_2F4_2F8_2FC_300 -->
<g id="node8" class="node"><title>_2E0_2E4_2E8_2EC_2F0_2F4_2F8_2FC_300</title>
<polygon fill="none" stroke="black" points="255,-143 100,-143 100,-0 255,-0 255,-143"/>
<text text-anchor="middle" x="177.5" y="-127.8" font-family="Times,serif" font-size="14.00">subs &#160;&#160;r2, r2, #1</text>
<text text-anchor="middle" x="177.5" y="-112.8" font-family="Times,serif" font-size="14.00">ldrb &#160;&#160;r3, [r1, #0]</text>
<text text-anchor="middle" x="177.5" y="-97.8" font-family="Times,serif" font-size="14.00">strb &#160;&#160;r3, [r0, #0]</text>
<text text-anchor="middle" x="177.5" y="-82.8" font-family="Times,serif" font-size="14.00">subs &#160;&#160;r2, r2, #1</text>
<text text-anchor="middle" x="177.5" y="-67.8" font-family="Times,serif" font-size="14.00">ldrb &#160;&#160;r3, [r1, #0]</text>
<text text-anchor="middle" x="177.5" y="-52.8" font-family="Times,serif" font-size="14.00">strb &#160;&#160;r3, [r0, #0]</text>
<text text-anchor="middle" x="177.5" y="-37.8" font-family="Times,serif" font-size="14.00">subs &#160;&#160;r2, r2, #1</text>
<text text-anchor="middle" x="177.5" y="-22.8" font-family="Times,serif" font-size="14.00">ldrb &#160;&#160;r1, [r1, #0]</text>
<text text-anchor="middle" x="177.5" y="-7.8" font-family="Times,serif" font-size="14.00">pop &#160;&#160;r3, r4, r5, r6, r7, pc</text>
</g>
<!-- _284&#45;&gt;_2E0_2E4_2E8_2EC_2F0_2F4_2F8_2FC_300 -->
<g id="edge10" class="edge"><title>_284&#45;&gt;_2E0_2E4_2E8_2EC_2F0_2F4_2F8_2FC_300</title>
<path fill="none" stroke="blue" d="M35.2468,-384.943C48.1444,-347.26 81.0537,-254.361 116.5,-180 120.873,-170.826 125.716,-161.366 130.706,-152.041"/>
<polygon fill="blue" stroke="blue" points="133.834,-153.615 135.523,-143.156 127.68,-150.279 133.834,-153.615"/>
<text text-anchor="middle" x="77" y="-299.8" font-family="Times,serif" font-size="14.00">CC</text>
</g>
<!-- _2B0_2B8_2BC_2C0_2D8_2DC -->
<g id="node7" class="node"><title>_2B0_2B8_2BC_2C0_2D8_2DC</title>
<polygon fill="none" stroke="black" points="229.5,-278 125.5,-278 125.5,-180 229.5,-180 229.5,-278"/>
<text text-anchor="middle" x="177.5" y="-262.8" font-family="Times,serif" font-size="14.00">lsls &#160;&#160;r3, r1, #30</text>
<text text-anchor="middle" x="177.5" y="-247.8" font-family="Times,serif" font-size="14.00">lsls &#160;&#160;r7, r3, #3</text>
<text text-anchor="middle" x="177.5" y="-232.8" font-family="Times,serif" font-size="14.00">subs &#160;&#160;r6, r3, r7</text>
<text text-anchor="middle" x="177.5" y="-217.8" font-family="Times,serif" font-size="14.00">b 2d8</text>
<text text-anchor="middle" x="177.5" y="-202.8" font-family="Times,serif" font-size="14.00">cmp &#160;&#160;r2, #4</text>
<text text-anchor="middle" x="177.5" y="-187.8" font-family="Times,serif" font-size="14.00">lsrs &#160;&#160;r3, r6, #3</text>
</g>
<!-- _288&#45;&gt;_2B0_2B8_2BC_2C0_2D8_2DC -->
<g id="edge5" class="edge"><title>_288&#45;&gt;_2B0_2B8_2BC_2C0_2D8_2DC</title>
<path fill="none" stroke="blue" d="M91.602,-384.895C89.752,-369.719 88.8008,-347.199 95.5,-329 101.118,-313.737 110.183,-299.142 120.277,-286.07"/>
<polygon fill="blue" stroke="blue" points="123.121,-288.118 126.672,-278.136 117.672,-283.725 123.121,-288.118"/>
<text text-anchor="middle" x="117" y="-344.3" font-family="Times,serif" font-size="14.00">CS, EQ</text>
</g>
<!-- _2A4 -->
<g id="node5" class="node"><title>_2A4</title>
<polygon fill="none" stroke="black" points="207.5,-366 147.5,-366 147.5,-330 207.5,-330 207.5,-366"/>
<text text-anchor="middle" x="177.5" y="-344.3" font-family="Times,serif" font-size="14.00">beq 2b0</text>
</g>
<!-- _28C_290_294_298_29C_2A0&#45;&gt;_2A4 -->
<g id="edge4" class="edge"><title>_28C_290_294_298_29C_2A0&#45;&gt;_2A4</title>
<path fill="none" stroke="blue" d="M177.5,-438.734C177.5,-417.88 177.5,-394.239 177.5,-376.46"/>
<polygon fill="blue" stroke="blue" points="181,-376.225 177.5,-366.225 174,-376.225 181,-376.225"/>
<text text-anchor="middle" x="187" y="-399.3" font-family="Times,serif" font-size="14.00">EQ</text>
</g>
<!-- _2A8_2AC -->
<g id="node6" class="node"><title>_2A8_2AC</title>
<polygon fill="none" stroke="black" points="329.5,-367 225.5,-367 225.5,-329 329.5,-329 329.5,-367"/>
<text text-anchor="middle" x="277.5" y="-351.8" font-family="Times,serif" font-size="14.00">adds &#160;&#160;r1, r1, #1</text>
<text text-anchor="middle" x="277.5" y="-336.8" font-family="Times,serif" font-size="14.00">adds &#160;&#160;r0, r0, #1</text>
</g>
<!-- _28C_290_294_298_29C_2A0&#45;&gt;_2A8_2AC -->
<g id="edge9" class="edge"><title>_28C_290_294_298_29C_2A0&#45;&gt;_2A8_2AC</title>
<path fill="none" stroke="red" d="M212.475,-438.734C227.867,-417.494 245.353,-393.363 258.313,-375.479"/>
<polygon fill="red" stroke="red" points="261.248,-377.392 264.282,-367.241 255.58,-373.285 261.248,-377.392"/>
<text text-anchor="middle" x="260" y="-399.3" font-family="Times,serif" font-size="14.00">NE</text>
</g>
<!-- _2A4&#45;&gt;_2B0_2B8_2BC_2C0_2D8_2DC -->
<g id="edge6" class="edge"><title>_2A4&#45;&gt;_2B0_2B8_2BC_2C0_2D8_2DC</title>
<path fill="none" stroke="blue" d="M177.5,-329.987C177.5,-318.809 177.5,-303.468 177.5,-288.158"/>
<polygon fill="blue" stroke="blue" points="181,-288.146 177.5,-278.146 174,-288.146 181,-288.146"/>
<text text-anchor="middle" x="187" y="-299.8" font-family="Times,serif" font-size="14.00">EQ</text>
</g>
<!-- _2A8_2AC&#45;&gt;_2B0_2B8_2BC_2C0_2D8_2DC -->
<g id="edge7" class="edge"><title>_2A8_2AC&#45;&gt;_2B0_2B8_2BC_2C0_2D8_2DC</title>
<path fill="none" stroke="red" d="M262.094,-328.975C252.113,-317.297 238.524,-301.398 225.158,-285.76"/>
<polygon fill="red" stroke="red" points="227.789,-283.452 218.632,-278.124 222.468,-288 227.789,-283.452"/>
</g>
<!-- _2B0_2B8_2BC_2C0_2D8_2DC&#45;&gt;_2E0_2E4_2E8_2EC_2F0_2F4_2F8_2FC_300 -->
<g id="edge8" class="edge"><title>_2B0_2B8_2BC_2C0_2D8_2DC&#45;&gt;_2E0_2E4_2E8_2EC_2F0_2F4_2F8_2FC_300</title>
<path fill="none" stroke="red" d="M177.5,-179.651C177.5,-171.23 177.5,-162.27 177.5,-153.255"/>
<polygon fill="red" stroke="red" points="181,-153.08 177.5,-143.08 174,-153.08 181,-153.08"/>
</g>
</g>
</svg>
