<?xml version="1.0" encoding="UTF-8" standalone="no"?>
<!DOCTYPE svg PUBLIC "-//W3C//DTD SVG 1.1//EN"
 "http://www.w3.org/Graphics/SVG/1.1/DTD/svg11.dtd">
<!-- Generated by graphviz version 2.38.0 (20140413.2041)
 -->
<!-- Title: G Pages: 1 -->
<svg width="503pt" height="282pt"
 viewBox="0.00 0.00 503.00 282.00" xmlns="http://www.w3.org/2000/svg" xmlns:xlink="http://www.w3.org/1999/xlink">
<g id="graph0" class="graph" transform="scale(1 1) rotate(0) translate(4 278)">
<title>G</title>
<polygon fill="white" stroke="none" points="-4,4 -4,-278 499,-278 499,4 -4,4"/>
<!-- _F8C2 -->
<g id="node1" class="node"><title>_F8C2</title>
<polygon fill="none" stroke="black" points="205,-131.5 1.42109e-14,-131.5 1.42109e-14,-95.5 205,-95.5 205,-131.5"/>
<text text-anchor="middle" x="102.5" y="-109.8" font-family="Times,serif" font-size="14.00">blt.n &#160;&#160;0xf8ee: pointer to 0x2000 &#160;&#160;</text>
</g>
<!-- _F8D6 -->
<g id="node2" class="node"><title>_F8D6</title>
<polygon fill="none" stroke="black" points="269.5,-36 61.5,-36 61.5,-0 269.5,-0 269.5,-36"/>
<text text-anchor="middle" x="165.5" y="-14.3" font-family="Times,serif" font-size="14.00">bgt.n &#160;&#160;0xf8ee: pointer to 0x2000 &#160;&#160;</text>
</g>
<!-- _F8D2 -->
<g id="node3" class="node"><title>_F8D2</title>
<polygon fill="none" stroke="black" points="495,-36 288,-36 288,-0 495,-0 495,-36"/>
<text text-anchor="middle" x="391.5" y="-14.3" font-family="Times,serif" font-size="14.00">ble.n &#160;&#160;0xf8ee: pointer to 0x2000 &#160;&#160;</text>
</g>
<!-- _F8C6_F8CA_F8CE -->
<g id="node4" class="node"><title>_F8C6_F8CA_F8CE</title>
<polygon fill="none" stroke="black" points="333.5,-140 223.5,-140 223.5,-87 333.5,-87 333.5,-140"/>
<text text-anchor="middle" x="278.5" y="-124.8" font-family="Times,serif" font-size="14.00">cmp &#160;&#160;r4, r2</text>
<text text-anchor="middle" x="278.5" y="-109.8" font-family="Times,serif" font-size="14.00">ldrh &#160;&#160;r5, [r7, #0]</text>
<text text-anchor="middle" x="278.5" y="-94.8" font-family="Times,serif" font-size="14.00">ands &#160;&#160;r5, r2</text>
</g>
<!-- _F8C6_F8CA_F8CE&#45;&gt;_F8D6 -->
<g id="edge1" class="edge"><title>_F8C6_F8CA_F8CE&#45;&gt;_F8D6</title>
<path fill="none" stroke="red" d="M247.622,-86.9507C231.04,-73.2297 210.721,-56.4175 194.444,-42.949"/>
<polygon fill="red" stroke="red" points="196.277,-39.9231 186.341,-36.2447 191.814,-45.3163 196.277,-39.9231"/>
<text text-anchor="middle" x="235" y="-57.8" font-family="Times,serif" font-size="14.00">GT</text>
</g>
<!-- _F8C6_F8CA_F8CE&#45;&gt;_F8D2 -->
<g id="edge2" class="edge"><title>_F8C6_F8CA_F8CE&#45;&gt;_F8D2</title>
<path fill="none" stroke="blue" d="M309.378,-86.9507C325.96,-73.2297 346.279,-56.4175 362.556,-42.949"/>
<polygon fill="blue" stroke="blue" points="365.186,-45.3163 370.659,-36.2447 360.723,-39.9231 365.186,-45.3163"/>
<text text-anchor="middle" x="356" y="-57.8" font-family="Times,serif" font-size="14.00">LE</text>
</g>
<!-- _F8AE_F8B2_F8B6_F8BA_F8BE -->
<g id="node5" class="node"><title>_F8AE_F8B2_F8B6_F8BA_F8BE</title>
<polygon fill="none" stroke="black" points="365,-274 192,-274 192,-191 365,-191 365,-274"/>
<text text-anchor="middle" x="278.5" y="-258.8" font-family="Times,serif" font-size="14.00">push &#160;&#160;r4, r5, r6, r7, lr</text>
<text text-anchor="middle" x="278.5" y="-243.8" font-family="Times,serif" font-size="14.00">ldr &#160;&#160;r6, [pc, #372] &#160;&#160;; (fa28 )</text>
<text text-anchor="middle" x="278.5" y="-228.8" font-family="Times,serif" font-size="14.00">ldrh &#160;&#160;r4, [r7, #2]</text>
<text text-anchor="middle" x="278.5" y="-213.8" font-family="Times,serif" font-size="14.00">cmp &#160;&#160;r4, r2</text>
<text text-anchor="middle" x="278.5" y="-198.8" font-family="Times,serif" font-size="14.00">ldr &#160;&#160;r2, [pc, #368] &#160;&#160;; (fa30 )</text>
</g>
<!-- _F8AE_F8B2_F8B6_F8BA_F8BE&#45;&gt;_F8C2 -->
<g id="edge3" class="edge"><title>_F8AE_F8B2_F8B6_F8BA_F8BE&#45;&gt;_F8C2</title>
<path fill="none" stroke="blue" d="M217.438,-190.907C190.323,-172.882 159.431,-152.346 136.507,-137.107"/>
<polygon fill="blue" stroke="blue" points="138.401,-134.164 128.136,-131.542 134.526,-139.993 138.401,-134.164"/>
<text text-anchor="middle" x="199" y="-161.8" font-family="Times,serif" font-size="14.00">LT</text>
</g>
<!-- _F8AE_F8B2_F8B6_F8BA_F8BE&#45;&gt;_F8C6_F8CA_F8CE -->
<g id="edge4" class="edge"><title>_F8AE_F8B2_F8B6_F8BA_F8BE&#45;&gt;_F8C6_F8CA_F8CE</title>
<path fill="none" stroke="red" d="M278.5,-190.907C278.5,-177.707 278.5,-163.161 278.5,-150.334"/>
<polygon fill="red" stroke="red" points="282,-150.032 278.5,-140.032 275,-150.032 282,-150.032"/>
<text text-anchor="middle" x="288" y="-161.8" font-family="Times,serif" font-size="14.00">GE</text>
</g>
</g>
</svg>
