<?xml version="1.0" encoding="UTF-8" standalone="no"?>
<!DOCTYPE svg PUBLIC "-//W3C//DTD SVG 1.1//EN"
 "http://www.w3.org/Graphics/SVG/1.1/DTD/svg11.dtd">
<!-- Generated by graphviz version 2.38.0 (20140413.2041)
 -->
<!-- Title: G Pages: 1 -->
<svg width="523pt" height="1619pt"
 viewBox="0.00 0.00 522.50 1619.00" xmlns="http://www.w3.org/2000/svg" xmlns:xlink="http://www.w3.org/1999/xlink">
<g id="graph0" class="graph" transform="scale(1 1) rotate(0) translate(4 1615)">
<title>G</title>
<polygon fill="white" stroke="none" points="-4,4 -4,-1615 518.5,-1615 518.5,4 -4,4"/>
<!-- _58A0 -->
<g id="node1" class="node"><title>_58A0</title>
<polygon fill="none" stroke="black" points="191,-1154 126,-1154 126,-1118 191,-1118 191,-1154"/>
<text text-anchor="middle" x="158.5" y="-1132.3" font-family="Times,serif" font-size="14.00">bne 58ac</text>
</g>
<!-- _58AC -->
<g id="node3" class="node"><title>_58AC</title>
<polygon fill="none" stroke="black" points="201,-1066 116,-1066 116,-1030 201,-1030 201,-1066"/>
<text text-anchor="middle" x="158.5" y="-1044.3" font-family="Times,serif" font-size="14.00">adds &#160;&#160;r0, #1</text>
</g>
<!-- _58A0&#45;&gt;_58AC -->
<g id="edge18" class="edge"><title>_58A0&#45;&gt;_58AC</title>
<path fill="none" stroke="blue" d="M158.5,-1117.6C158.5,-1105.75 158.5,-1089.82 158.5,-1076.29"/>
<polygon fill="blue" stroke="blue" points="162,-1076.08 158.5,-1066.08 155,-1076.08 162,-1076.08"/>
<text text-anchor="middle" x="180" y="-1087.8" font-family="Times,serif" font-size="14.00">CS, NE</text>
</g>
<!-- _58A4_58A8 -->
<g id="node2" class="node"><title>_58A4_58A8</title>
<polygon fill="none" stroke="black" points="319.5,-1155 209.5,-1155 209.5,-1117 319.5,-1117 319.5,-1155"/>
<text text-anchor="middle" x="264.5" y="-1139.8" font-family="Times,serif" font-size="14.00">ldrb &#160;&#160;r5, [r4, #1]</text>
<text text-anchor="middle" x="264.5" y="-1124.8" font-family="Times,serif" font-size="14.00">cmp &#160;&#160;r5, r6</text>
</g>
<!-- _58A4_58A8&#45;&gt;_58AC -->
<g id="edge21" class="edge"><title>_58A4_58A8&#45;&gt;_58AC</title>
<path fill="none" stroke="red" d="M244.331,-1116.93C233.074,-1107 218.698,-1094.6 205.5,-1084 200.723,-1080.16 195.592,-1076.2 190.539,-1072.37"/>
<polygon fill="red" stroke="red" points="192.287,-1069.31 182.184,-1066.12 188.091,-1074.91 192.287,-1069.31"/>
</g>
<!-- _58B0_5896_589A_589E_58A2_58A6_58AE_58B2 -->
<g id="node4" class="node"><title>_58B0_5896_589A_589E_58A2_58A6_58AE_58B2</title>
<polygon fill="none" stroke="black" points="213.5,-979 103.5,-979 103.5,-851 213.5,-851 213.5,-979"/>
<text text-anchor="middle" x="158.5" y="-963.8" font-family="Times,serif" font-size="14.00">bcc 5896</text>
<text text-anchor="middle" x="158.5" y="-948.8" font-family="Times,serif" font-size="14.00">lsls &#160;&#160;r6, r0, #3</text>
<text text-anchor="middle" x="158.5" y="-933.8" font-family="Times,serif" font-size="14.00">cmp &#160;&#160;r3, r5</text>
<text text-anchor="middle" x="158.5" y="-918.8" font-family="Times,serif" font-size="14.00">cmp &#160;&#160;r3, r5</text>
<text text-anchor="middle" x="158.5" y="-903.8" font-family="Times,serif" font-size="14.00">adds &#160;&#160;r6, r6, r1</text>
<text text-anchor="middle" x="158.5" y="-888.8" font-family="Times,serif" font-size="14.00">ldrb &#160;&#160;r6, [r6, #1]</text>
<text text-anchor="middle" x="158.5" y="-873.8" font-family="Times,serif" font-size="14.00">cmp &#160;&#160;r0, r7</text>
<text text-anchor="middle" x="158.5" y="-858.8" font-family="Times,serif" font-size="14.00">mov &#160;&#160;r0, r7</text>
</g>
<!-- _58AC&#45;&gt;_58B0_5896_589A_589E_58A2_58A6_58AE_58B2 -->
<g id="edge24" class="edge"><title>_58AC&#45;&gt;_58B0_5896_589A_589E_58A2_58A6_58AE_58B2</title>
<path fill="none" stroke="red" d="M158.5,-1029.87C158.5,-1019.12 158.5,-1004.44 158.5,-989.193"/>
<polygon fill="red" stroke="red" points="162,-989.129 158.5,-979.129 155,-989.129 162,-989.129"/>
<text text-anchor="middle" x="168" y="-1000.8" font-family="Times,serif" font-size="14.00">CC</text>
</g>
<!-- _58B4_58B8_58BC -->
<g id="node5" class="node"><title>_58B4_58B8_58BC</title>
<polygon fill="none" stroke="black" points="341.5,-941.5 231.5,-941.5 231.5,-888.5 341.5,-888.5 341.5,-941.5"/>
<text text-anchor="middle" x="286.5" y="-926.3" font-family="Times,serif" font-size="14.00">cmp &#160;&#160;r7, r2</text>
<text text-anchor="middle" x="286.5" y="-911.3" font-family="Times,serif" font-size="14.00">ldrb &#160;&#160;r3, [r4, #0]</text>
<text text-anchor="middle" x="286.5" y="-896.3" font-family="Times,serif" font-size="14.00">ldrb &#160;&#160;r6, [r1, r5]</text>
</g>
<!-- _58AC&#45;&gt;_58B4_58B8_58BC -->
<g id="edge9" class="edge"><title>_58AC&#45;&gt;_58B4_58B8_58BC</title>
<path fill="none" stroke="blue" d="M175.234,-1029.87C195.217,-1009.42 229.091,-974.754 254.226,-949.03"/>
<polygon fill="blue" stroke="blue" points="256.907,-951.294 261.393,-941.696 251.901,-946.402 256.907,-951.294"/>
<text text-anchor="middle" x="216" y="-1000.8" font-family="Times,serif" font-size="14.00">CS</text>
</g>
<!-- _58BA_58BE_58C2_58C6_58CA_58D2 -->
<g id="node9" class="node"><title>_58BA_58BE_58C2_58C6_58CA_58D2</title>
<polygon fill="none" stroke="black" points="213.5,-800 103.5,-800 103.5,-702 213.5,-702 213.5,-800"/>
<text text-anchor="middle" x="158.5" y="-784.8" font-family="Times,serif" font-size="14.00">lsls &#160;&#160;r5, r0, #3</text>
<text text-anchor="middle" x="158.5" y="-769.8" font-family="Times,serif" font-size="14.00">cmp &#160;&#160;r3, r6</text>
<text text-anchor="middle" x="158.5" y="-754.8" font-family="Times,serif" font-size="14.00">cmp &#160;&#160;r3, r6</text>
<text text-anchor="middle" x="158.5" y="-739.8" font-family="Times,serif" font-size="14.00">adds &#160;&#160;r7, r5, r1</text>
<text text-anchor="middle" x="158.5" y="-724.8" font-family="Times,serif" font-size="14.00">ldrb &#160;&#160;r7, [r7, #1]</text>
<text text-anchor="middle" x="158.5" y="-709.8" font-family="Times,serif" font-size="14.00">ldrb &#160;&#160;r5, [r6, #8]</text>
</g>
<!-- _58B0_5896_589A_589E_58A2_58A6_58AE_58B2&#45;&gt;_58BA_58BE_58C2_58C6_58CA_58D2 -->
<g id="edge16" class="edge"><title>_58B0_5896_589A_589E_58A2_58A6_58AE_58B2&#45;&gt;_58BA_58BE_58C2_58C6_58CA_58D2</title>
<path fill="none" stroke="red" d="M158.5,-850.903C158.5,-837.583 158.5,-823.584 158.5,-810.445"/>
<polygon fill="red" stroke="red" points="162,-810.122 158.5,-800.122 155,-810.122 162,-810.122"/>
<text text-anchor="middle" x="168" y="-821.8" font-family="Times,serif" font-size="14.00">CC</text>
</g>
<!-- _58C4 -->
<g id="node7" class="node"><title>_58C4</title>
<polygon fill="none" stroke="black" points="299,-769 232,-769 232,-733 299,-733 299,-769"/>
<text text-anchor="middle" x="265.5" y="-747.3" font-family="Times,serif" font-size="14.00">bne 58d0</text>
</g>
<!-- _58B4_58B8_58BC&#45;&gt;_58C4 -->
<g id="edge17" class="edge"><title>_58B4_58B8_58BC&#45;&gt;_58C4</title>
<path fill="none" stroke="blue" d="M283.172,-888.331C279.303,-858.482 272.945,-809.433 269.003,-779.019"/>
<polygon fill="blue" stroke="blue" points="272.473,-778.568 267.717,-769.101 265.531,-779.468 272.473,-778.568"/>
<text text-anchor="middle" x="298" y="-821.8" font-family="Times,serif" font-size="14.00">CS, NE</text>
</g>
<!-- _58C8_58CC -->
<g id="node8" class="node"><title>_58C8_58CC</title>
<polygon fill="none" stroke="black" points="427.5,-770 317.5,-770 317.5,-732 427.5,-732 427.5,-770"/>
<text text-anchor="middle" x="372.5" y="-754.8" font-family="Times,serif" font-size="14.00">ldrb &#160;&#160;r6, [r4, #1]</text>
<text text-anchor="middle" x="372.5" y="-739.8" font-family="Times,serif" font-size="14.00">cmp &#160;&#160;r6, r7</text>
</g>
<!-- _58B4_58B8_58BC&#45;&gt;_58C8_58CC -->
<g id="edge13" class="edge"><title>_58B4_58B8_58BC&#45;&gt;_58C8_58CC</title>
<path fill="none" stroke="blue" d="M300.127,-888.331C315.94,-858.544 341.904,-809.634 358.057,-779.207"/>
<polygon fill="blue" stroke="blue" points="361.333,-780.499 362.931,-770.025 355.151,-777.217 361.333,-780.499"/>
<text text-anchor="middle" x="359" y="-821.8" font-family="Times,serif" font-size="14.00">CS, EQ</text>
</g>
<!-- _594A -->
<g id="node6" class="node"><title>_594A</title>
<polygon fill="none" stroke="black" points="242,-36 87,-36 87,-0 242,-0 242,-36"/>
<text text-anchor="middle" x="164.5" y="-14.3" font-family="Times,serif" font-size="14.00">pop &#160;&#160;r3, r4, r5, r6, r7, pc</text>
</g>
<!-- _58D0_58D4_58D8_58DC_58E0 -->
<g id="node20" class="node"><title>_58D0_58D4_58D8_58DC_58E0</title>
<polygon fill="none" stroke="black" points="406.5,-651 296.5,-651 296.5,-568 406.5,-568 406.5,-651"/>
<text text-anchor="middle" x="351.5" y="-635.8" font-family="Times,serif" font-size="14.00">adds &#160;&#160;r6, r5, r1</text>
<text text-anchor="middle" x="351.5" y="-620.8" font-family="Times,serif" font-size="14.00">cmp &#160;&#160;r3, r5</text>
<text text-anchor="middle" x="351.5" y="-605.8" font-family="Times,serif" font-size="14.00">cmp &#160;&#160;r3, r5</text>
<text text-anchor="middle" x="351.5" y="-590.8" font-family="Times,serif" font-size="14.00">ldrb &#160;&#160;r5, [r4, #1]</text>
<text text-anchor="middle" x="351.5" y="-575.8" font-family="Times,serif" font-size="14.00">cmp &#160;&#160;r5, r6</text>
</g>
<!-- _58C4&#45;&gt;_58D0_58D4_58D8_58DC_58E0 -->
<g id="edge3" class="edge"><title>_58C4&#45;&gt;_58D0_58D4_58D8_58DC_58E0</title>
<path fill="none" stroke="blue" d="M275.726,-732.873C285.571,-716.438 300.925,-690.944 314.5,-669 316.414,-665.905 318.394,-662.724 320.396,-659.521"/>
<polygon fill="blue" stroke="blue" points="323.372,-661.363 325.719,-651.031 317.441,-657.644 323.372,-661.363"/>
<text text-anchor="middle" x="336" y="-672.8" font-family="Times,serif" font-size="14.00">CS, NE</text>
</g>
<!-- _58C8_58CC&#45;&gt;_58D0_58D4_58D8_58DC_58E0 -->
<g id="edge7" class="edge"><title>_58C8_58CC&#45;&gt;_58D0_58D4_58D8_58DC_58E0</title>
<path fill="none" stroke="blue" d="M369.755,-731.763C367.058,-713.848 362.819,-685.688 359.104,-661.013"/>
<polygon fill="blue" stroke="blue" points="362.554,-660.416 357.604,-651.048 355.632,-661.458 362.554,-660.416"/>
</g>
<!-- _58D6 -->
<g id="node10" class="node"><title>_58D6</title>
<polygon fill="none" stroke="black" points="278,-627.5 213,-627.5 213,-591.5 278,-591.5 278,-627.5"/>
<text text-anchor="middle" x="245.5" y="-605.8" font-family="Times,serif" font-size="14.00">bcc 58e4</text>
</g>
<!-- _58BA_58BE_58C2_58C6_58CA_58D2&#45;&gt;_58D6 -->
<g id="edge2" class="edge"><title>_58BA_58BE_58C2_58C6_58CA_58D2&#45;&gt;_58D6</title>
<path fill="none" stroke="red" d="M210.986,-701.708C215.612,-696.036 219.897,-690.09 223.5,-684 231.906,-669.794 237.328,-652.119 240.687,-637.662"/>
<polygon fill="red" stroke="red" points="244.127,-638.308 242.78,-627.799 237.28,-636.854 244.127,-638.308"/>
<text text-anchor="middle" x="251.5" y="-672.8" font-family="Times,serif" font-size="14.00">HI, CC</text>
</g>
<!-- _58DA -->
<g id="node12" class="node"><title>_58DA</title>
<polygon fill="none" stroke="black" points="197,-549 132,-549 132,-513 197,-513 197,-549"/>
<text text-anchor="middle" x="164.5" y="-527.3" font-family="Times,serif" font-size="14.00">bne 58f0</text>
</g>
<!-- _58BA_58BE_58C2_58C6_58CA_58D2&#45;&gt;_58DA -->
<g id="edge6" class="edge"><title>_58BA_58BE_58C2_58C6_58CA_58D2&#45;&gt;_58DA</title>
<path fill="none" stroke="blue" d="M156.052,-701.708C155.824,-695.745 155.63,-689.734 155.5,-684 154.511,-640.455 158.523,-589.998 161.509,-559.564"/>
<polygon fill="blue" stroke="blue" points="165.022,-559.61 162.551,-549.308 158.058,-558.903 165.022,-559.61"/>
<text text-anchor="middle" x="187.5" y="-672.8" font-family="Times,serif" font-size="14.00">HI, CS, NE</text>
</g>
<!-- _58DE_58E2 -->
<g id="node13" class="node"><title>_58DE_58E2</title>
<polygon fill="none" stroke="black" points="126.5,-550 16.5,-550 16.5,-512 126.5,-512 126.5,-550"/>
<text text-anchor="middle" x="71.5" y="-534.8" font-family="Times,serif" font-size="14.00">ldrb &#160;&#160;r6, [r6, #9]</text>
<text text-anchor="middle" x="71.5" y="-519.8" font-family="Times,serif" font-size="14.00">bhi 58f0</text>
</g>
<!-- _58BA_58BE_58C2_58C6_58CA_58D2&#45;&gt;_58DE_58E2 -->
<g id="edge8" class="edge"><title>_58BA_58BE_58C2_58C6_58CA_58D2&#45;&gt;_58DE_58E2</title>
<path fill="none" stroke="blue" d="M103.232,-706.756C97.0696,-699.766 91.5621,-692.13 87.5,-684 67.8727,-644.719 66.9349,-592.705 68.7254,-560.836"/>
<polygon fill="blue" stroke="blue" points="72.2448,-560.675 69.4463,-550.457 65.2617,-560.19 72.2448,-560.675"/>
<text text-anchor="middle" x="119.5" y="-672.8" font-family="Times,serif" font-size="14.00">HI, CS, EQ</text>
</g>
<!-- _58E4_58E8_58EC -->
<g id="node14" class="node"><title>_58E4_58E8_58EC</title>
<polygon fill="none" stroke="black" points="336.5,-494 246.5,-494 246.5,-441 336.5,-441 336.5,-494"/>
<text text-anchor="middle" x="291.5" y="-478.8" font-family="Times,serif" font-size="14.00">b 58e8</text>
<text text-anchor="middle" x="291.5" y="-463.8" font-family="Times,serif" font-size="14.00">adds &#160;&#160;r0, #1</text>
<text text-anchor="middle" x="291.5" y="-448.8" font-family="Times,serif" font-size="14.00">movs &#160;&#160;r7, #0</text>
</g>
<!-- _58D6&#45;&gt;_58E4_58E8_58EC -->
<g id="edge25" class="edge"><title>_58D6&#45;&gt;_58E4_58E8_58EC</title>
<path fill="none" stroke="red" d="M251.141,-591.333C258.256,-569.678 270.67,-531.896 279.857,-503.936"/>
<polygon fill="red" stroke="red" points="283.283,-504.72 283.08,-494.127 276.633,-502.535 283.283,-504.72"/>
<text text-anchor="middle" x="297.5" y="-527.3" font-family="Times,serif" font-size="14.00">HI, CC</text>
</g>
<!-- _57D4_57D8 -->
<g id="node11" class="node"><title>_57D4_57D8</title>
<polygon fill="none" stroke="black" points="342,-1611 187,-1611 187,-1573 342,-1573 342,-1611"/>
<text text-anchor="middle" x="264.5" y="-1595.8" font-family="Times,serif" font-size="14.00">push &#160;&#160;r3, r4, r5, r6, r7, lr</text>
<text text-anchor="middle" x="264.5" y="-1580.8" font-family="Times,serif" font-size="14.00">ldrb &#160;&#160;r0, [r0, #0]</text>
</g>
<!-- _57E0_57E4_57E8_57EC_57F0_57F4_57F8_57FC_58E6 -->
<g id="node16" class="node"><title>_57E0_57E4_57E8_57EC_57F0_57F4_57F8_57FC_58E6</title>
<polygon fill="none" stroke="black" points="514.5,-1316 368.5,-1316 368.5,-1173 514.5,-1173 514.5,-1316"/>
<text text-anchor="middle" x="441.5" y="-1300.8" font-family="Times,serif" font-size="14.00">nop &#160;&#160;&#160;&#160;&#160;&#160;&#160;&#160;; (mov r8, r8)</text>
<text text-anchor="middle" x="441.5" y="-1285.8" font-family="Times,serif" font-size="14.00">nop &#160;&#160;&#160;&#160;&#160;&#160;&#160;&#160;; (mov r8, r8)</text>
<text text-anchor="middle" x="441.5" y="-1270.8" font-family="Times,serif" font-size="14.00">nop &#160;&#160;&#160;&#160;&#160;&#160;&#160;&#160;; (mov r8, r8)</text>
<text text-anchor="middle" x="441.5" y="-1255.8" font-family="Times,serif" font-size="14.00">nop &#160;&#160;&#160;&#160;&#160;&#160;&#160;&#160;; (mov r8, r8)</text>
<text text-anchor="middle" x="441.5" y="-1240.8" font-family="Times,serif" font-size="14.00">nop &#160;&#160;&#160;&#160;&#160;&#160;&#160;&#160;; (mov r8, r8)</text>
<text text-anchor="middle" x="441.5" y="-1225.8" font-family="Times,serif" font-size="14.00">nop &#160;&#160;&#160;&#160;&#160;&#160;&#160;&#160;; (mov r8, r8)</text>
<text text-anchor="middle" x="441.5" y="-1210.8" font-family="Times,serif" font-size="14.00">nop &#160;&#160;&#160;&#160;&#160;&#160;&#160;&#160;; (mov r8, r8)</text>
<text text-anchor="middle" x="441.5" y="-1195.8" font-family="Times,serif" font-size="14.00">b 58e6</text>
<text text-anchor="middle" x="441.5" y="-1180.8" font-family="Times,serif" font-size="14.00">b 594a</text>
</g>
<!-- _57D4_57D8&#45;&gt;_57E0_57E4_57E8_57EC_57F0_57F4_57F8_57FC_58E6 -->
<g id="edge10" class="edge"><title>_57D4_57D8&#45;&gt;_57E0_57E4_57E8_57EC_57F0_57F4_57F8_57FC_58E6</title>
<path fill="none" stroke="blue" d="M314.599,-1572.95C338.62,-1561.82 365.746,-1545.17 382.5,-1522 423.616,-1465.13 437.209,-1385.53 441.197,-1326.34"/>
<polygon fill="blue" stroke="blue" points="444.695,-1326.47 441.796,-1316.28 437.707,-1326.05 444.695,-1326.47"/>
<text text-anchor="middle" x="375" y="-1543.8" font-family="Times,serif" font-size="14.00">GT</text>
</g>
<!-- _57DC_57FE_5802_5806_580A_5880_5884_5888_588C_5890_5894_5898 -->
<g id="node22" class="node"><title>_57DC_57FE_5802_5806_580A_5880_5884_5888_588C_5890_5894_5898</title>
<polygon fill="none" stroke="black" points="373.5,-1522 155.5,-1522 155.5,-1334 373.5,-1334 373.5,-1522"/>
<text text-anchor="middle" x="264.5" y="-1506.8" font-family="Times,serif" font-size="14.00">ble 57fe</text>
<text text-anchor="middle" x="264.5" y="-1491.8" font-family="Times,serif" font-size="14.00">ldr &#160;&#160;r5, [pc, #332] &#160;&#160;; (594c )</text>
<text text-anchor="middle" x="264.5" y="-1476.8" font-family="Times,serif" font-size="14.00">ldr &#160;&#160;r1, [r5, #44] &#160;&#160;; =0x2C (SVCall)</text>
<text text-anchor="middle" x="264.5" y="-1461.8" font-family="Times,serif" font-size="14.00">ldrb &#160;&#160;r3, [r1, #7]</text>
<text text-anchor="middle" x="264.5" y="-1446.8" font-family="Times,serif" font-size="14.00">bne 5880</text>
<text text-anchor="middle" x="264.5" y="-1431.8" font-family="Times,serif" font-size="14.00">ldr &#160;&#160;r1, [pc, #200] &#160;&#160;; (594c )</text>
<text text-anchor="middle" x="264.5" y="-1416.8" font-family="Times,serif" font-size="14.00">ldr &#160;&#160;r2, [r1, #36] &#160;&#160;; 0x24</text>
<text text-anchor="middle" x="264.5" y="-1401.8" font-family="Times,serif" font-size="14.00">cmp &#160;&#160;r2, #0</text>
<text text-anchor="middle" x="264.5" y="-1386.8" font-family="Times,serif" font-size="14.00">lsls &#160;&#160;r7, r2, #31</text>
<text text-anchor="middle" x="264.5" y="-1371.8" font-family="Times,serif" font-size="14.00">cmp &#160;&#160;r7, #0</text>
<text text-anchor="middle" x="264.5" y="-1356.8" font-family="Times,serif" font-size="14.00">ldrb &#160;&#160;r3, [r4, #0]</text>
<text text-anchor="middle" x="264.5" y="-1341.8" font-family="Times,serif" font-size="14.00">ldrb &#160;&#160;r5, [r1, r6]</text>
</g>
<!-- _57D4_57D8&#45;&gt;_57DC_57FE_5802_5806_580A_5880_5884_5888_588C_5890_5894_5898 -->
<g id="edge14" class="edge"><title>_57D4_57D8&#45;&gt;_57DC_57FE_5802_5806_580A_5880_5884_5888_588C_5890_5894_5898</title>
<path fill="none" stroke="red" d="M264.5,-1572.73C264.5,-1562.14 264.5,-1547.87 264.5,-1532.41"/>
<polygon fill="red" stroke="red" points="268,-1532.11 264.5,-1522.11 261,-1532.11 268,-1532.11"/>
<text text-anchor="middle" x="273" y="-1543.8" font-family="Times,serif" font-size="14.00">LE</text>
</g>
<!-- _58F0 -->
<g id="node15" class="node"><title>_58F0</title>
<polygon fill="none" stroke="black" points="207,-404 122,-404 122,-368 207,-368 207,-404"/>
<text text-anchor="middle" x="164.5" y="-382.3" font-family="Times,serif" font-size="14.00">adds &#160;&#160;r0, #2</text>
</g>
<!-- _58DA&#45;&gt;_58F0 -->
<g id="edge28" class="edge"><title>_58DA&#45;&gt;_58F0</title>
<path fill="none" stroke="blue" d="M164.5,-512.751C164.5,-488.379 164.5,-443.607 164.5,-414.586"/>
<polygon fill="blue" stroke="blue" points="168,-414.31 164.5,-404.31 161,-414.31 168,-414.31"/>
<text text-anchor="middle" x="196.5" y="-463.8" font-family="Times,serif" font-size="14.00">HI, CS, NE</text>
</g>
<!-- _58DE_58E2&#45;&gt;_58F0 -->
<g id="edge1" class="edge"><title>_58DE_58E2&#45;&gt;_58F0</title>
<path fill="none" stroke="blue" d="M73.2664,-511.922C75.8413,-492.91 82.0161,-462.785 96.5,-441 104.492,-428.979 116.02,-418.395 127.32,-409.856"/>
<polygon fill="blue" stroke="blue" points="129.377,-412.687 135.454,-404.008 125.291,-407.004 129.377,-412.687"/>
<text text-anchor="middle" x="128.5" y="-463.8" font-family="Times,serif" font-size="14.00">HI, CS, EQ</text>
</g>
<!-- _58E4_58E8_58EC&#45;&gt;_58F0 -->
<g id="edge5" class="edge"><title>_58E4_58E8_58EC&#45;&gt;_58F0</title>
<path fill="none" stroke="red" d="M250.617,-440.908C234.494,-430.815 216.132,-419.321 200.517,-409.546"/>
<polygon fill="red" stroke="red" points="202.012,-406.353 191.679,-404.014 198.298,-412.286 202.012,-406.353"/>
</g>
<!-- _58F4 -->
<g id="node17" class="node"><title>_58F4</title>
<polygon fill="none" stroke="black" points="65,-317 0,-317 0,-281 65,-281 65,-317"/>
<text text-anchor="middle" x="32.5" y="-295.3" font-family="Times,serif" font-size="14.00">bcc 58ba</text>
</g>
<!-- _58F0&#45;&gt;_58F4 -->
<g id="edge12" class="edge"><title>_58F0&#45;&gt;_58F4</title>
<path fill="none" stroke="blue" d="M137.788,-367.799C117.57,-354.78 89.6192,-336.781 67.597,-322.6"/>
<polygon fill="blue" stroke="blue" points="69.475,-319.647 59.1724,-317.175 65.6852,-325.532 69.475,-319.647"/>
<text text-anchor="middle" x="116" y="-338.8" font-family="Times,serif" font-size="14.00">CC</text>
</g>
<!-- _58F8 -->
<g id="node19" class="node"><title>_58F8</title>
<polygon fill="none" stroke="black" points="215,-317 114,-317 114,-281 215,-281 215,-317"/>
<text text-anchor="middle" x="164.5" y="-295.3" font-family="Times,serif" font-size="14.00">adds &#160;&#160;r5, r3, r1</text>
</g>
<!-- _58F0&#45;&gt;_58F8 -->
<g id="edge26" class="edge"><title>_58F0&#45;&gt;_58F8</title>
<path fill="none" stroke="red" d="M164.5,-367.799C164.5,-356.163 164.5,-340.548 164.5,-327.237"/>
<polygon fill="red" stroke="red" points="168,-327.175 164.5,-317.175 161,-327.175 168,-327.175"/>
<text text-anchor="middle" x="173" y="-338.8" font-family="Times,serif" font-size="14.00">CS</text>
</g>
<!-- _57E0_57E4_57E8_57EC_57F0_57F4_57F8_57FC_58E6&#45;&gt;_594A -->
<g id="edge15" class="edge"><title>_57E0_57E4_57E8_57EC_57F0_57F4_57F8_57FC_58E6&#45;&gt;_594A</title>
<path fill="none" stroke="blue" d="M450.76,-1172.95C453.364,-1147.63 455.5,-1118.83 455.5,-1092.5 455.5,-1092.5 455.5,-1092.5 455.5,-157.5 455.5,-66.4094 337.809,-35.1631 252.119,-24.4851"/>
<polygon fill="blue" stroke="blue" points="252.44,-20.9988 242.1,-23.311 251.625,-27.9512 252.44,-20.9988"/>
<text text-anchor="middle" x="465" y="-605.8" font-family="Times,serif" font-size="14.00">GT</text>
</g>
<!-- _58F4&#45;&gt;_58BA_58BE_58C2_58C6_58CA_58D2 -->
<g id="edge19" class="edge"><title>_58F4&#45;&gt;_58BA_58BE_58C2_58C6_58CA_58D2</title>
<path fill="none" stroke="blue" d="M22.1774,-317.239C13.1595,-333.956 1.5,-360.339 1.5,-385 1.5,-610.5 1.5,-610.5 1.5,-610.5 1.5,-662.753 50.6986,-700.219 94.0138,-723.079"/>
<polygon fill="blue" stroke="blue" points="92.6489,-726.312 103.148,-727.735 95.8283,-720.075 92.6489,-726.312"/>
<text text-anchor="middle" x="11" y="-463.8" font-family="Times,serif" font-size="14.00">CC</text>
</g>
<!-- _5900_5904_5908_5932_5936_593A_593E_5942_5946 -->
<g id="node18" class="node"><title>_5900_5904_5908_5932_5936_593A_593E_5942_5946</title>
<polygon fill="none" stroke="black" points="219.5,-230 109.5,-230 109.5,-87 219.5,-87 219.5,-230"/>
<text text-anchor="middle" x="164.5" y="-214.8" font-family="Times,serif" font-size="14.00">cmp &#160;&#160;r0, r2</text>
<text text-anchor="middle" x="164.5" y="-199.8" font-family="Times,serif" font-size="14.00">adds &#160;&#160;r2, #1</text>
<text text-anchor="middle" x="164.5" y="-184.8" font-family="Times,serif" font-size="14.00">b 5932</text>
<text text-anchor="middle" x="164.5" y="-169.8" font-family="Times,serif" font-size="14.00">ldrb &#160;&#160;r0, [r4, #1]</text>
<text text-anchor="middle" x="164.5" y="-154.8" font-family="Times,serif" font-size="14.00">ldrb &#160;&#160;r0, [r4, #0]</text>
<text text-anchor="middle" x="164.5" y="-139.8" font-family="Times,serif" font-size="14.00">ldrb &#160;&#160;r0, [r4, #3]</text>
<text text-anchor="middle" x="164.5" y="-124.8" font-family="Times,serif" font-size="14.00">lsls &#160;&#160;r0, r0, #8</text>
<text text-anchor="middle" x="164.5" y="-109.8" font-family="Times,serif" font-size="14.00">strh &#160;&#160;r0, [r5, #2]</text>
<text text-anchor="middle" x="164.5" y="-94.8" font-family="Times,serif" font-size="14.00">ldr &#160;&#160;r0, [r0, #0]</text>
</g>
<!-- _5900_5904_5908_5932_5936_593A_593E_5942_5946&#45;&gt;_594A -->
<g id="edge11" class="edge"><title>_5900_5904_5908_5932_5936_593A_593E_5942_5946&#45;&gt;_594A</title>
<path fill="none" stroke="red" d="M164.5,-86.6271C164.5,-72.3034 164.5,-58.0724 164.5,-46.387"/>
<polygon fill="red" stroke="red" points="168,-46.0435 164.5,-36.0435 161,-46.0436 168,-46.0435"/>
</g>
<!-- _58F8&#45;&gt;_5900_5904_5908_5932_5936_593A_593E_5942_5946 -->
<g id="edge20" class="edge"><title>_58F8&#45;&gt;_5900_5904_5908_5932_5936_593A_593E_5942_5946</title>
<path fill="none" stroke="red" d="M164.5,-280.739C164.5,-270.091 164.5,-255.579 164.5,-240.295"/>
<polygon fill="red" stroke="red" points="168,-240.172 164.5,-230.172 161,-240.172 168,-240.172"/>
<text text-anchor="middle" x="174" y="-251.8" font-family="Times,serif" font-size="14.00">CC</text>
</g>
<!-- _58FC -->
<g id="node21" class="node"><title>_58FC</title>
<polygon fill="none" stroke="black" points="303,-176.5 238,-176.5 238,-140.5 303,-140.5 303,-176.5"/>
<text text-anchor="middle" x="270.5" y="-154.8" font-family="Times,serif" font-size="14.00">bcs 594a</text>
</g>
<!-- _58F8&#45;&gt;_58FC -->
<g id="edge4" class="edge"><title>_58F8&#45;&gt;_58FC</title>
<path fill="none" stroke="blue" d="M182.741,-280.768C196.206,-267.558 214.54,-248.509 228.5,-230 239.025,-216.045 249.109,-199.273 256.756,-185.59"/>
<polygon fill="blue" stroke="blue" points="259.901,-187.135 261.637,-176.683 253.762,-183.771 259.901,-187.135"/>
<text text-anchor="middle" x="221" y="-251.8" font-family="Times,serif" font-size="14.00">CS</text>
</g>
<!-- _58D0_58D4_58D8_58DC_58E0&#45;&gt;_58E4_58E8_58EC -->
<g id="edge27" class="edge"><title>_58D0_58D4_58D8_58DC_58E0&#45;&gt;_58E4_58E8_58EC</title>
<path fill="none" stroke="blue" d="M341.725,-567.55C336.787,-549.982 330.016,-529.514 321.5,-512 320.056,-509.03 318.425,-506.035 316.687,-503.081"/>
<polygon fill="blue" stroke="blue" points="319.522,-501.013 311.239,-494.407 313.594,-504.736 319.522,-501.013"/>
</g>
<!-- _58FC&#45;&gt;_594A -->
<g id="edge22" class="edge"><title>_58FC&#45;&gt;_594A</title>
<path fill="none" stroke="blue" d="M261.637,-140.317C253.739,-125.617 241.454,-104.175 228.5,-87 216.94,-71.6723 202.379,-55.9743 190.069,-43.5286"/>
<polygon fill="blue" stroke="blue" points="192.297,-40.8079 182.741,-36.232 187.357,-45.7682 192.297,-40.8079"/>
<text text-anchor="middle" x="221" y="-57.8" font-family="Times,serif" font-size="14.00">CS</text>
</g>
<!-- _57DC_57FE_5802_5806_580A_5880_5884_5888_588C_5890_5894_5898&#45;&gt;_58A0 -->
<g id="edge29" class="edge"><title>_57DC_57FE_5802_5806_580A_5880_5884_5888_588C_5890_5894_5898&#45;&gt;_58A0</title>
<path fill="none" stroke="blue" d="M224.449,-1333.96C222.045,-1327.9 219.708,-1321.88 217.5,-1316 197.524,-1262.84 177.517,-1199.49 166.702,-1164.2"/>
<polygon fill="blue" stroke="blue" points="169.915,-1162.74 163.651,-1154.19 163.219,-1164.78 169.915,-1162.74"/>
<text text-anchor="middle" x="239" y="-1240.8" font-family="Times,serif" font-size="14.00">CS, NE</text>
</g>
<!-- _57DC_57FE_5802_5806_580A_5880_5884_5888_588C_5890_5894_5898&#45;&gt;_58A4_58A8 -->
<g id="edge23" class="edge"><title>_57DC_57FE_5802_5806_580A_5880_5884_5888_588C_5890_5894_5898&#45;&gt;_58A4_58A8</title>
<path fill="none" stroke="red" d="M264.5,-1333.65C264.5,-1275.23 264.5,-1203.94 264.5,-1165.26"/>
<polygon fill="red" stroke="red" points="268,-1165.25 264.5,-1155.25 261,-1165.25 268,-1165.25"/>
<text text-anchor="middle" x="286" y="-1240.8" font-family="Times,serif" font-size="14.00">CS, EQ</text>
</g>
</g>
</svg>
