<?xml version="1.0" encoding="UTF-8" standalone="no"?>
<!DOCTYPE svg PUBLIC "-//W3C//DTD SVG 1.1//EN"
 "http://www.w3.org/Graphics/SVG/1.1/DTD/svg11.dtd">
<!-- Generated by graphviz version 2.38.0 (20140413.2041)
 -->
<!-- Title: G Pages: 1 -->
<svg width="393pt" height="307pt"
 viewBox="0.00 0.00 393.00 307.00" xmlns="http://www.w3.org/2000/svg" xmlns:xlink="http://www.w3.org/1999/xlink">
<g id="graph0" class="graph" transform="scale(1 1) rotate(0) translate(4 303)">
<title>G</title>
<polygon fill="white" stroke="none" points="-4,4 -4,-303 389,-303 389,4 -4,4"/>
<!-- _9C88_9C8C -->
<g id="node1" class="node"><title>_9C88_9C8C</title>
<polygon fill="none" stroke="black" points="367,-299 191,-299 191,-261 367,-261 367,-299"/>
<text text-anchor="middle" x="279" y="-283.8" font-family="Times,serif" font-size="14.00">ldr &#160;&#160;r0, [pc, #132] &#160;&#160;; (9d10 )</text>
<text text-anchor="middle" x="279" y="-268.8" font-family="Times,serif" font-size="14.00">ldr &#160;&#160;r2, [r0, #8]</text>
</g>
<!-- _9C90 -->
<g id="node2" class="node"><title>_9C90</title>
<polygon fill="none" stroke="black" points="210,-210 0,-210 0,-174 210,-174 210,-210"/>
<text text-anchor="middle" x="105" y="-188.3" font-family="Times,serif" font-size="14.00">beq.n &#160;&#160;0x9c9e: pointer to 0xb5f8 &#160;&#160;</text>
</g>
<!-- _9C88_9C8C&#45;&gt;_9C90 -->
<g id="edge2" class="edge"><title>_9C88_9C8C&#45;&gt;_9C90</title>
<path fill="none" stroke="blue" d="M242.524,-260.972C215.188,-247.461 177.668,-228.916 148.723,-214.61"/>
<polygon fill="blue" stroke="blue" points="150.166,-211.419 139.65,-210.126 147.064,-217.694 150.166,-211.419"/>
<text text-anchor="middle" x="212.5" y="-231.8" font-family="Times,serif" font-size="14.00">EQ</text>
</g>
<!-- _9C94 -->
<g id="node3" class="node"><title>_9C94</title>
<polygon fill="none" stroke="black" points="329.5,-210 228.5,-210 228.5,-174 329.5,-174 329.5,-210"/>
<text text-anchor="middle" x="279" y="-188.3" font-family="Times,serif" font-size="14.00">str &#160;&#160;r2, [r0, #8]</text>
</g>
<!-- _9C88_9C8C&#45;&gt;_9C94 -->
<g id="edge1" class="edge"><title>_9C88_9C8C&#45;&gt;_9C94</title>
<path fill="none" stroke="red" d="M279,-260.762C279,-248.934 279,-233.316 279,-220.055"/>
<polygon fill="red" stroke="red" points="282.5,-220.042 279,-210.042 275.5,-220.042 282.5,-220.042"/>
<text text-anchor="middle" x="288.5" y="-231.8" font-family="Times,serif" font-size="14.00">NE</text>
</g>
<!-- _9C98 -->
<g id="node4" class="node"><title>_9C98</title>
<polygon fill="none" stroke="black" points="310.5,-123 247.5,-123 247.5,-87 310.5,-87 310.5,-123"/>
<text text-anchor="middle" x="279" y="-101.3" font-family="Times,serif" font-size="14.00">bgt 9c9c</text>
</g>
<!-- _9C94&#45;&gt;_9C98 -->
<g id="edge5" class="edge"><title>_9C94&#45;&gt;_9C98</title>
<path fill="none" stroke="red" d="M279,-173.799C279,-162.163 279,-146.548 279,-133.237"/>
<polygon fill="red" stroke="red" points="282.5,-133.175 279,-123.175 275.5,-133.175 282.5,-133.175"/>
<text text-anchor="middle" x="301" y="-144.8" font-family="Times,serif" font-size="14.00">NE, GT</text>
</g>
<!-- _9C9C -->
<g id="node5" class="node"><title>_9C9C</title>
<polygon fill="none" stroke="black" points="306,-36 252,-36 252,-0 306,-0 306,-36"/>
<text text-anchor="middle" x="279" y="-14.3" font-family="Times,serif" font-size="14.00">bx &#160;&#160;lr</text>
</g>
<!-- _9C94&#45;&gt;_9C9C -->
<g id="edge3" class="edge"><title>_9C94&#45;&gt;_9C9C</title>
<path fill="none" stroke="blue" d="M311.552,-173.785C317.774,-168.91 323.448,-162.987 327,-156 347.546,-115.59 347.546,-94.4099 327,-54 323.994,-48.0875 319.469,-42.9368 314.378,-38.5383"/>
<polygon fill="blue" stroke="blue" points="316.137,-35.4806 306.048,-32.244 311.916,-41.0653 316.137,-35.4806"/>
<text text-anchor="middle" x="363.5" y="-101.3" font-family="Times,serif" font-size="14.00">NE, LE</text>
</g>
<!-- _9C98&#45;&gt;_9C9C -->
<g id="edge4" class="edge"><title>_9C98&#45;&gt;_9C9C</title>
<path fill="none" stroke="red" d="M279,-86.799C279,-75.1626 279,-59.5479 279,-46.2368"/>
<polygon fill="red" stroke="red" points="282.5,-46.1754 279,-36.1754 275.5,-46.1755 282.5,-46.1754"/>
<text text-anchor="middle" x="301" y="-57.8" font-family="Times,serif" font-size="14.00">NE, GT</text>
</g>
</g>
</svg>
