<?xml version="1.0" encoding="UTF-8" standalone="no"?>
<!DOCTYPE svg PUBLIC "-//W3C//DTD SVG 1.1//EN"
 "http://www.w3.org/Graphics/SVG/1.1/DTD/svg11.dtd">
<!-- Generated by graphviz version 2.38.0 (20140413.2041)
 -->
<!-- Title: G Pages: 1 -->
<svg width="644pt" height="2185pt"
 viewBox="0.00 0.00 644.00 2185.00" xmlns="http://www.w3.org/2000/svg" xmlns:xlink="http://www.w3.org/1999/xlink">
<g id="graph0" class="graph" transform="scale(1 1) rotate(0) translate(4 2181)">
<title>G</title>
<polygon fill="white" stroke="none" points="-4,4 -4,-2181 640,-2181 640,4 -4,4"/>
<!-- _58A0 -->
<g id="node1" class="node"><title>_58A0</title>
<polygon fill="none" stroke="black" points="369.5,-1154 304.5,-1154 304.5,-1118 369.5,-1118 369.5,-1154"/>
<text text-anchor="middle" x="337" y="-1132.3" font-family="Times,serif" font-size="14.00">bne 58ac</text>
</g>
<!-- _58AC -->
<g id="node3" class="node"><title>_58AC</title>
<polygon fill="none" stroke="black" points="485.5,-1066 400.5,-1066 400.5,-1030 485.5,-1030 485.5,-1066"/>
<text text-anchor="middle" x="443" y="-1044.3" font-family="Times,serif" font-size="14.00">adds &#160;&#160;r0, #1</text>
</g>
<!-- _58A0&#45;&gt;_58AC -->
<g id="edge24" class="edge"><title>_58A0&#45;&gt;_58AC</title>
<path fill="none" stroke="blue" d="M356.098,-1117.87C367.505,-1107.8 382.38,-1094.93 396,-1084 400.777,-1080.16 405.908,-1076.2 410.961,-1072.37"/>
<polygon fill="blue" stroke="blue" points="413.409,-1074.91 419.316,-1066.12 409.213,-1069.31 413.409,-1074.91"/>
<text text-anchor="middle" x="417.5" y="-1087.8" font-family="Times,serif" font-size="14.00">CS, NE</text>
</g>
<!-- _58A4_58A8 -->
<g id="node2" class="node"><title>_58A4_58A8</title>
<polygon fill="none" stroke="black" points="498,-1155 388,-1155 388,-1117 498,-1117 498,-1155"/>
<text text-anchor="middle" x="443" y="-1139.8" font-family="Times,serif" font-size="14.00">ldrb &#160;&#160;r5, [r4, #1]</text>
<text text-anchor="middle" x="443" y="-1124.8" font-family="Times,serif" font-size="14.00">cmp &#160;&#160;r5, r6</text>
</g>
<!-- _58A4_58A8&#45;&gt;_58AC -->
<g id="edge29" class="edge"><title>_58A4_58A8&#45;&gt;_58AC</title>
<path fill="none" stroke="red" d="M443,-1116.76C443,-1104.93 443,-1089.32 443,-1076.05"/>
<polygon fill="red" stroke="red" points="446.5,-1076.04 443,-1066.04 439.5,-1076.04 446.5,-1076.04"/>
</g>
<!-- _58B0_5896_589A_589E_58A2_58A6_58AE_58B2 -->
<g id="node4" class="node"><title>_58B0_5896_589A_589E_58A2_58A6_58AE_58B2</title>
<polygon fill="none" stroke="black" points="498,-979 388,-979 388,-851 498,-851 498,-979"/>
<text text-anchor="middle" x="443" y="-963.8" font-family="Times,serif" font-size="14.00">bcc 5896</text>
<text text-anchor="middle" x="443" y="-948.8" font-family="Times,serif" font-size="14.00">lsls &#160;&#160;r6, r0, #3</text>
<text text-anchor="middle" x="443" y="-933.8" font-family="Times,serif" font-size="14.00">cmp &#160;&#160;r3, r5</text>
<text text-anchor="middle" x="443" y="-918.8" font-family="Times,serif" font-size="14.00">cmp &#160;&#160;r3, r5</text>
<text text-anchor="middle" x="443" y="-903.8" font-family="Times,serif" font-size="14.00">adds &#160;&#160;r6, r6, r1</text>
<text text-anchor="middle" x="443" y="-888.8" font-family="Times,serif" font-size="14.00">ldrb &#160;&#160;r6, [r6, #1]</text>
<text text-anchor="middle" x="443" y="-873.8" font-family="Times,serif" font-size="14.00">cmp &#160;&#160;r0, r7</text>
<text text-anchor="middle" x="443" y="-858.8" font-family="Times,serif" font-size="14.00">mov &#160;&#160;r0, r7</text>
</g>
<!-- _58AC&#45;&gt;_58B0_5896_589A_589E_58A2_58A6_58AE_58B2 -->
<g id="edge10" class="edge"><title>_58AC&#45;&gt;_58B0_5896_589A_589E_58A2_58A6_58AE_58B2</title>
<path fill="none" stroke="red" d="M443,-1029.87C443,-1019.12 443,-1004.44 443,-989.193"/>
<polygon fill="red" stroke="red" points="446.5,-989.129 443,-979.129 439.5,-989.129 446.5,-989.129"/>
<text text-anchor="middle" x="452.5" y="-1000.8" font-family="Times,serif" font-size="14.00">CC</text>
</g>
<!-- _58B4_58B8_58BC -->
<g id="node5" class="node"><title>_58B4_58B8_58BC</title>
<polygon fill="none" stroke="black" points="370,-941.5 260,-941.5 260,-888.5 370,-888.5 370,-941.5"/>
<text text-anchor="middle" x="315" y="-926.3" font-family="Times,serif" font-size="14.00">cmp &#160;&#160;r7, r2</text>
<text text-anchor="middle" x="315" y="-911.3" font-family="Times,serif" font-size="14.00">ldrb &#160;&#160;r3, [r4, #0]</text>
<text text-anchor="middle" x="315" y="-896.3" font-family="Times,serif" font-size="14.00">ldrb &#160;&#160;r6, [r1, r5]</text>
</g>
<!-- _58AC&#45;&gt;_58B4_58B8_58BC -->
<g id="edge18" class="edge"><title>_58AC&#45;&gt;_58B4_58B8_58BC</title>
<path fill="none" stroke="blue" d="M426.266,-1029.87C406.283,-1009.42 372.409,-974.754 347.274,-949.03"/>
<polygon fill="blue" stroke="blue" points="349.599,-946.402 340.107,-941.696 344.593,-951.294 349.599,-946.402"/>
<text text-anchor="middle" x="416.5" y="-1000.8" font-family="Times,serif" font-size="14.00">CS</text>
</g>
<!-- _58BA_58BE_58C2_58C6_58CA_58D2 -->
<g id="node8" class="node"><title>_58BA_58BE_58C2_58C6_58CA_58D2</title>
<polygon fill="none" stroke="black" points="498,-800 388,-800 388,-702 498,-702 498,-800"/>
<text text-anchor="middle" x="443" y="-784.8" font-family="Times,serif" font-size="14.00">lsls &#160;&#160;r5, r0, #3</text>
<text text-anchor="middle" x="443" y="-769.8" font-family="Times,serif" font-size="14.00">cmp &#160;&#160;r3, r6</text>
<text text-anchor="middle" x="443" y="-754.8" font-family="Times,serif" font-size="14.00">cmp &#160;&#160;r3, r6</text>
<text text-anchor="middle" x="443" y="-739.8" font-family="Times,serif" font-size="14.00">adds &#160;&#160;r7, r5, r1</text>
<text text-anchor="middle" x="443" y="-724.8" font-family="Times,serif" font-size="14.00">ldrb &#160;&#160;r7, [r7, #1]</text>
<text text-anchor="middle" x="443" y="-709.8" font-family="Times,serif" font-size="14.00">ldrb &#160;&#160;r5, [r6, #8]</text>
</g>
<!-- _58B0_5896_589A_589E_58A2_58A6_58AE_58B2&#45;&gt;_58BA_58BE_58C2_58C6_58CA_58D2 -->
<g id="edge21" class="edge"><title>_58B0_5896_589A_589E_58A2_58A6_58AE_58B2&#45;&gt;_58BA_58BE_58C2_58C6_58CA_58D2</title>
<path fill="none" stroke="red" d="M443,-850.903C443,-837.583 443,-823.584 443,-810.445"/>
<polygon fill="red" stroke="red" points="446.5,-810.122 443,-800.122 439.5,-810.122 446.5,-810.122"/>
<text text-anchor="middle" x="452.5" y="-821.8" font-family="Times,serif" font-size="14.00">CC</text>
</g>
<!-- _58C4 -->
<g id="node6" class="node"><title>_58C4</title>
<polygon fill="none" stroke="black" points="369.5,-769 302.5,-769 302.5,-733 369.5,-733 369.5,-769"/>
<text text-anchor="middle" x="336" y="-747.3" font-family="Times,serif" font-size="14.00">bne 58d0</text>
</g>
<!-- _58B4_58B8_58BC&#45;&gt;_58C4 -->
<g id="edge30" class="edge"><title>_58B4_58B8_58BC&#45;&gt;_58C4</title>
<path fill="none" stroke="blue" d="M318.328,-888.331C322.197,-858.482 328.555,-809.433 332.497,-779.019"/>
<polygon fill="blue" stroke="blue" points="335.969,-779.468 333.783,-769.101 329.027,-778.568 335.969,-779.468"/>
<text text-anchor="middle" x="348.5" y="-821.8" font-family="Times,serif" font-size="14.00">CS, NE</text>
</g>
<!-- _58C8_58CC -->
<g id="node7" class="node"><title>_58C8_58CC</title>
<polygon fill="none" stroke="black" points="284,-770 174,-770 174,-732 284,-732 284,-770"/>
<text text-anchor="middle" x="229" y="-754.8" font-family="Times,serif" font-size="14.00">ldrb &#160;&#160;r6, [r4, #1]</text>
<text text-anchor="middle" x="229" y="-739.8" font-family="Times,serif" font-size="14.00">cmp &#160;&#160;r6, r7</text>
</g>
<!-- _58B4_58B8_58BC&#45;&gt;_58C8_58CC -->
<g id="edge6" class="edge"><title>_58B4_58B8_58BC&#45;&gt;_58C8_58CC</title>
<path fill="none" stroke="blue" d="M301.373,-888.331C285.56,-858.544 259.596,-809.634 243.443,-779.207"/>
<polygon fill="blue" stroke="blue" points="246.349,-777.217 238.569,-770.025 240.167,-780.499 246.349,-777.217"/>
<text text-anchor="middle" x="293.5" y="-821.8" font-family="Times,serif" font-size="14.00">CS, EQ</text>
</g>
<!-- _58D0_58D4_58D8_58DC_58E0 -->
<g id="node11" class="node"><title>_58D0_58D4_58D8_58DC_58E0</title>
<polygon fill="none" stroke="black" points="292,-651 182,-651 182,-568 292,-568 292,-651"/>
<text text-anchor="middle" x="237" y="-635.8" font-family="Times,serif" font-size="14.00">adds &#160;&#160;r6, r5, r1</text>
<text text-anchor="middle" x="237" y="-620.8" font-family="Times,serif" font-size="14.00">cmp &#160;&#160;r3, r5</text>
<text text-anchor="middle" x="237" y="-605.8" font-family="Times,serif" font-size="14.00">cmp &#160;&#160;r3, r5</text>
<text text-anchor="middle" x="237" y="-590.8" font-family="Times,serif" font-size="14.00">ldrb &#160;&#160;r5, [r4, #1]</text>
<text text-anchor="middle" x="237" y="-575.8" font-family="Times,serif" font-size="14.00">cmp &#160;&#160;r5, r6</text>
</g>
<!-- _58C4&#45;&gt;_58D0_58D4_58D8_58DC_58E0 -->
<g id="edge3" class="edge"><title>_58C4&#45;&gt;_58D0_58D4_58D8_58DC_58E0</title>
<path fill="none" stroke="blue" d="M322.781,-732.84C314.792,-723.12 304.042,-711.12 293,-702 281.011,-692.098 272.84,-696.04 263,-684 257.399,-677.147 252.963,-668.999 249.462,-660.665"/>
<polygon fill="blue" stroke="blue" points="252.707,-659.351 245.895,-651.236 246.16,-661.828 252.707,-659.351"/>
<text text-anchor="middle" x="284.5" y="-672.8" font-family="Times,serif" font-size="14.00">CS, NE</text>
</g>
<!-- _58C8_58CC&#45;&gt;_58D0_58D4_58D8_58DC_58E0 -->
<g id="edge15" class="edge"><title>_58C8_58CC&#45;&gt;_58D0_58D4_58D8_58DC_58E0</title>
<path fill="none" stroke="blue" d="M230.046,-731.763C231.069,-713.927 232.674,-685.938 234.084,-661.342"/>
<polygon fill="blue" stroke="blue" points="237.596,-661.232 234.675,-651.048 230.608,-660.831 237.596,-661.232"/>
</g>
<!-- _58D6 -->
<g id="node9" class="node"><title>_58D6</title>
<polygon fill="none" stroke="black" points="437.5,-627.5 372.5,-627.5 372.5,-591.5 437.5,-591.5 437.5,-627.5"/>
<text text-anchor="middle" x="405" y="-605.8" font-family="Times,serif" font-size="14.00">bcc 58e4</text>
</g>
<!-- _58BA_58BE_58C2_58C6_58CA_58D2&#45;&gt;_58D6 -->
<g id="edge2" class="edge"><title>_58BA_58BE_58C2_58C6_58CA_58D2&#45;&gt;_58D6</title>
<path fill="none" stroke="red" d="M421.745,-701.801C419.591,-695.877 417.609,-689.849 416,-684 411.855,-668.932 409.17,-651.668 407.491,-637.66"/>
<polygon fill="red" stroke="red" points="410.965,-637.232 406.396,-627.673 404.007,-637.995 410.965,-637.232"/>
<text text-anchor="middle" x="436" y="-672.8" font-family="Times,serif" font-size="14.00">HI, CC</text>
</g>
<!-- _58DA -->
<g id="node10" class="node"><title>_58DA</title>
<polygon fill="none" stroke="black" points="514.5,-549 449.5,-549 449.5,-513 514.5,-513 514.5,-549"/>
<text text-anchor="middle" x="482" y="-527.3" font-family="Times,serif" font-size="14.00">bne 58f0</text>
</g>
<!-- _58BA_58BE_58C2_58C6_58CA_58D2&#45;&gt;_58DA -->
<g id="edge7" class="edge"><title>_58BA_58BE_58C2_58C6_58CA_58D2&#45;&gt;_58DA</title>
<path fill="none" stroke="blue" d="M452.654,-701.726C453.804,-695.76 454.943,-689.743 456,-684 464.017,-640.427 472.534,-589.67 477.554,-559.226"/>
<polygon fill="blue" stroke="blue" points="481.009,-559.785 479.178,-549.35 474.102,-558.649 481.009,-559.785"/>
<text text-anchor="middle" x="490" y="-672.8" font-family="Times,serif" font-size="14.00">HI, CS, NE</text>
</g>
<!-- _58DE_58E2 -->
<g id="node12" class="node"><title>_58DE_58E2</title>
<polygon fill="none" stroke="black" points="634,-550 524,-550 524,-512 634,-512 634,-550"/>
<text text-anchor="middle" x="579" y="-534.8" font-family="Times,serif" font-size="14.00">ldrb &#160;&#160;r6, [r6, #9]</text>
<text text-anchor="middle" x="579" y="-519.8" font-family="Times,serif" font-size="14.00">bhi 58f0</text>
</g>
<!-- _58BA_58BE_58C2_58C6_58CA_58D2&#45;&gt;_58DE_58E2 -->
<g id="edge11" class="edge"><title>_58BA_58BE_58C2_58C6_58CA_58D2&#45;&gt;_58DE_58E2</title>
<path fill="none" stroke="blue" d="M498.106,-713.478C508.406,-704.759 518.328,-694.809 526,-684 553.031,-645.916 567.356,-592.783 574.045,-560.477"/>
<polygon fill="blue" stroke="blue" points="577.537,-560.858 576.028,-550.371 570.667,-559.51 577.537,-560.858"/>
<text text-anchor="middle" x="566" y="-672.8" font-family="Times,serif" font-size="14.00">HI, CS, EQ</text>
</g>
<!-- _58E4_58E8_58EC -->
<g id="node13" class="node"><title>_58E4_58E8_58EC</title>
<polygon fill="none" stroke="black" points="447,-494 357,-494 357,-441 447,-441 447,-494"/>
<text text-anchor="middle" x="402" y="-478.8" font-family="Times,serif" font-size="14.00">b 58e8</text>
<text text-anchor="middle" x="402" y="-463.8" font-family="Times,serif" font-size="14.00">adds &#160;&#160;r0, #1</text>
<text text-anchor="middle" x="402" y="-448.8" font-family="Times,serif" font-size="14.00">movs &#160;&#160;r7, #0</text>
</g>
<!-- _58D6&#45;&gt;_58E4_58E8_58EC -->
<g id="edge32" class="edge"><title>_58D6&#45;&gt;_58E4_58E8_58EC</title>
<path fill="none" stroke="red" d="M403.519,-591.365C402.588,-579.712 401.476,-563.938 401,-550 400.424,-533.121 400.806,-528.888 401,-512 401.029,-509.488 401.067,-506.895 401.112,-504.285"/>
<polygon fill="red" stroke="red" points="404.612,-504.328 401.31,-494.26 397.613,-504.189 404.612,-504.328"/>
<text text-anchor="middle" x="421" y="-527.3" font-family="Times,serif" font-size="14.00">HI, CC</text>
</g>
<!-- _58F0 -->
<g id="node14" class="node"><title>_58F0</title>
<polygon fill="none" stroke="black" points="525.5,-404 440.5,-404 440.5,-368 525.5,-368 525.5,-404"/>
<text text-anchor="middle" x="483" y="-382.3" font-family="Times,serif" font-size="14.00">adds &#160;&#160;r0, #2</text>
</g>
<!-- _58DA&#45;&gt;_58F0 -->
<g id="edge35" class="edge"><title>_58DA&#45;&gt;_58F0</title>
<path fill="none" stroke="blue" d="M482.121,-512.751C482.291,-488.379 482.604,-443.607 482.807,-414.586"/>
<polygon fill="blue" stroke="blue" points="486.309,-414.335 482.879,-404.31 479.309,-414.286 486.309,-414.335"/>
<text text-anchor="middle" x="514" y="-463.8" font-family="Times,serif" font-size="14.00">HI, CS, NE</text>
</g>
<!-- _58D0_58D4_58D8_58DC_58E0&#45;&gt;_58E4_58E8_58EC -->
<g id="edge34" class="edge"><title>_58D0_58D4_58D8_58DC_58E0&#45;&gt;_58E4_58E8_58EC</title>
<path fill="none" stroke="blue" d="M285.168,-567.63C310.294,-546.311 340.59,-520.606 364.034,-500.713"/>
<polygon fill="blue" stroke="blue" points="366.344,-503.343 371.705,-494.205 361.815,-498.006 366.344,-503.343"/>
</g>
<!-- _58DE_58E2&#45;&gt;_58F0 -->
<g id="edge1" class="edge"><title>_58DE_58E2&#45;&gt;_58F0</title>
<path fill="none" stroke="blue" d="M576.253,-511.931C572.683,-492.926 565.038,-462.807 550,-441 541.89,-429.239 530.49,-418.73 519.39,-410.178"/>
<polygon fill="blue" stroke="blue" points="521.151,-407.13 511.019,-404.032 517.008,-412.772 521.151,-407.13"/>
<text text-anchor="middle" x="604" y="-463.8" font-family="Times,serif" font-size="14.00">HI, CS, EQ</text>
</g>
<!-- _58E4_58E8_58EC&#45;&gt;_58F0 -->
<g id="edge9" class="edge"><title>_58E4_58E8_58EC&#45;&gt;_58F0</title>
<path fill="none" stroke="red" d="M428.075,-440.908C437.709,-431.453 448.595,-420.767 458.121,-411.419"/>
<polygon fill="red" stroke="red" points="460.733,-413.759 465.418,-404.256 455.829,-408.763 460.733,-413.759"/>
</g>
<!-- _58F4 -->
<g id="node15" class="node"><title>_58F4</title>
<polygon fill="none" stroke="black" points="383.5,-317 318.5,-317 318.5,-281 383.5,-281 383.5,-317"/>
<text text-anchor="middle" x="351" y="-295.3" font-family="Times,serif" font-size="14.00">bcc 58ba</text>
</g>
<!-- _58F0&#45;&gt;_58F4 -->
<g id="edge16" class="edge"><title>_58F0&#45;&gt;_58F4</title>
<path fill="none" stroke="blue" d="M456.288,-367.799C436.07,-354.78 408.119,-336.781 386.097,-322.6"/>
<polygon fill="blue" stroke="blue" points="387.975,-319.647 377.672,-317.175 384.185,-325.532 387.975,-319.647"/>
<text text-anchor="middle" x="433.5" y="-338.8" font-family="Times,serif" font-size="14.00">CC</text>
</g>
<!-- _58F8 -->
<g id="node16" class="node"><title>_58F8</title>
<polygon fill="none" stroke="black" points="533.5,-317 432.5,-317 432.5,-281 533.5,-281 533.5,-317"/>
<text text-anchor="middle" x="483" y="-295.3" font-family="Times,serif" font-size="14.00">adds &#160;&#160;r5, r3, r1</text>
</g>
<!-- _58F0&#45;&gt;_58F8 -->
<g id="edge12" class="edge"><title>_58F0&#45;&gt;_58F8</title>
<path fill="none" stroke="red" d="M483,-367.799C483,-356.163 483,-340.548 483,-327.237"/>
<polygon fill="red" stroke="red" points="486.5,-327.175 483,-317.175 479.5,-327.175 486.5,-327.175"/>
<text text-anchor="middle" x="491.5" y="-338.8" font-family="Times,serif" font-size="14.00">CS</text>
</g>
<!-- _58F4&#45;&gt;_58BA_58BE_58C2_58C6_58CA_58D2 -->
<g id="edge25" class="edge"><title>_58F4&#45;&gt;_58BA_58BE_58C2_58C6_58CA_58D2</title>
<path fill="none" stroke="blue" d="M340.677,-317.239C331.66,-333.956 320,-360.339 320,-385 320,-610.5 320,-610.5 320,-610.5 320,-630.976 350.191,-665.404 380.658,-694.934"/>
<polygon fill="blue" stroke="blue" points="378.329,-697.55 387.976,-701.932 383.168,-692.491 378.329,-697.55"/>
<text text-anchor="middle" x="329.5" y="-463.8" font-family="Times,serif" font-size="14.00">CC</text>
</g>
<!-- _58FC -->
<g id="node17" class="node"><title>_58FC</title>
<polygon fill="none" stroke="black" points="409.5,-176.5 344.5,-176.5 344.5,-140.5 409.5,-140.5 409.5,-176.5"/>
<text text-anchor="middle" x="377" y="-154.8" font-family="Times,serif" font-size="14.00">bcs 594a</text>
</g>
<!-- _58F8&#45;&gt;_58FC -->
<g id="edge23" class="edge"><title>_58F8&#45;&gt;_58FC</title>
<path fill="none" stroke="blue" d="M464.759,-280.768C451.294,-267.558 432.96,-248.509 419,-230 408.475,-216.045 398.391,-199.273 390.744,-185.59"/>
<polygon fill="blue" stroke="blue" points="393.738,-183.771 385.863,-176.683 387.599,-187.135 393.738,-183.771"/>
<text text-anchor="middle" x="455.5" y="-251.8" font-family="Times,serif" font-size="14.00">CS</text>
</g>
<!-- _5900_5904_5908_5932_5936_593A_593E_5942_5946 -->
<g id="node20" class="node"><title>_5900_5904_5908_5932_5936_593A_593E_5942_5946</title>
<polygon fill="none" stroke="black" points="538,-230 428,-230 428,-87 538,-87 538,-230"/>
<text text-anchor="middle" x="483" y="-214.8" font-family="Times,serif" font-size="14.00">cmp &#160;&#160;r0, r2</text>
<text text-anchor="middle" x="483" y="-199.8" font-family="Times,serif" font-size="14.00">adds &#160;&#160;r2, #1</text>
<text text-anchor="middle" x="483" y="-184.8" font-family="Times,serif" font-size="14.00">b 5932</text>
<text text-anchor="middle" x="483" y="-169.8" font-family="Times,serif" font-size="14.00">ldrb &#160;&#160;r0, [r4, #1]</text>
<text text-anchor="middle" x="483" y="-154.8" font-family="Times,serif" font-size="14.00">ldrb &#160;&#160;r0, [r4, #0]</text>
<text text-anchor="middle" x="483" y="-139.8" font-family="Times,serif" font-size="14.00">ldrb &#160;&#160;r0, [r4, #3]</text>
<text text-anchor="middle" x="483" y="-124.8" font-family="Times,serif" font-size="14.00">lsls &#160;&#160;r0, r0, #8</text>
<text text-anchor="middle" x="483" y="-109.8" font-family="Times,serif" font-size="14.00">strh &#160;&#160;r0, [r5, #2]</text>
<text text-anchor="middle" x="483" y="-94.8" font-family="Times,serif" font-size="14.00">ldr &#160;&#160;r0, [r0, #0]</text>
</g>
<!-- _58F8&#45;&gt;_5900_5904_5908_5932_5936_593A_593E_5942_5946 -->
<g id="edge26" class="edge"><title>_58F8&#45;&gt;_5900_5904_5908_5932_5936_593A_593E_5942_5946</title>
<path fill="none" stroke="red" d="M483,-280.739C483,-270.091 483,-255.579 483,-240.295"/>
<polygon fill="red" stroke="red" points="486.5,-240.172 483,-230.172 479.5,-240.172 486.5,-240.172"/>
<text text-anchor="middle" x="492.5" y="-251.8" font-family="Times,serif" font-size="14.00">CC</text>
</g>
<!-- _594A -->
<g id="node21" class="node"><title>_594A</title>
<polygon fill="none" stroke="black" points="560.5,-36 405.5,-36 405.5,-0 560.5,-0 560.5,-36"/>
<text text-anchor="middle" x="483" y="-14.3" font-family="Times,serif" font-size="14.00">pop &#160;&#160;r3, r4, r5, r6, r7, pc</text>
</g>
<!-- _58FC&#45;&gt;_594A -->
<g id="edge28" class="edge"><title>_58FC&#45;&gt;_594A</title>
<path fill="none" stroke="blue" d="M385.863,-140.317C393.761,-125.617 406.046,-104.175 419,-87 430.56,-71.6723 445.121,-55.9743 457.431,-43.5286"/>
<polygon fill="blue" stroke="blue" points="460.143,-45.7682 464.759,-36.232 455.203,-40.8079 460.143,-45.7682"/>
<text text-anchor="middle" x="455.5" y="-57.8" font-family="Times,serif" font-size="14.00">CS</text>
</g>
<!-- _5710_5714_5718_571C_5720_5724_5728_572C_5730_5734 -->
<g id="node18" class="node"><title>_5710_5714_5718_571C_5720_5724_5728_572C_5730_5734</title>
<polygon fill="none" stroke="black" points="349,-2177 173,-2177 173,-2019 349,-2019 349,-2177"/>
<text text-anchor="middle" x="261" y="-2161.8" font-family="Times,serif" font-size="14.00">push &#160;&#160;r4, r5, r6, r7</text>
<text text-anchor="middle" x="261" y="-2146.8" font-family="Times,serif" font-size="14.00">ldrb &#160;&#160;r1, [r0, #3]</text>
<text text-anchor="middle" x="261" y="-2131.8" font-family="Times,serif" font-size="14.00">orrs &#160;&#160;r1, r2</text>
<text text-anchor="middle" x="261" y="-2116.8" font-family="Times,serif" font-size="14.00">ldr &#160;&#160;r1, [pc, #176] &#160;&#160;; (57d0 )</text>
<text text-anchor="middle" x="261" y="-2101.8" font-family="Times,serif" font-size="14.00">ldr &#160;&#160;r3, [r2, #16]</text>
<text text-anchor="middle" x="261" y="-2086.8" font-family="Times,serif" font-size="14.00">ldrb &#160;&#160;r5, [r2, #1]</text>
<text text-anchor="middle" x="261" y="-2071.8" font-family="Times,serif" font-size="14.00">subs &#160;&#160;r4, r3, #1</text>
<text text-anchor="middle" x="261" y="-2056.8" font-family="Times,serif" font-size="14.00">cmp &#160;&#160;r7, #1</text>
<text text-anchor="middle" x="261" y="-2041.8" font-family="Times,serif" font-size="14.00">cmp &#160;&#160;r7, #2</text>
<text text-anchor="middle" x="261" y="-2026.8" font-family="Times,serif" font-size="14.00">subs &#160;&#160;r3, #2</text>
</g>
<!-- _5738 -->
<g id="node19" class="node"><title>_5738</title>
<polygon fill="none" stroke="black" points="294,-1937 228,-1937 228,-1901 294,-1901 294,-1937"/>
<text text-anchor="middle" x="261" y="-1915.3" font-family="Times,serif" font-size="14.00">bne 579a</text>
</g>
<!-- _5710_5714_5718_571C_5720_5724_5728_572C_5730_5734&#45;&gt;_5738 -->
<g id="edge27" class="edge"><title>_5710_5714_5718_571C_5720_5724_5728_572C_5730_5734&#45;&gt;_5738</title>
<path fill="none" stroke="red" d="M261,-2018.85C261,-1993.18 261,-1966.34 261,-1947.11"/>
<polygon fill="red" stroke="red" points="264.5,-1947.01 261,-1937.01 257.5,-1947.01 264.5,-1947.01"/>
<text text-anchor="middle" x="270.5" y="-1989.8" font-family="Times,serif" font-size="14.00">NE</text>
</g>
<!-- _573C_5740_57AC_57B0_57B4_57B8 -->
<g id="node23" class="node"><title>_573C_5740_57AC_57B0_57B4_57B8</title>
<polygon fill="none" stroke="black" points="193,-1968 83,-1968 83,-1870 193,-1870 193,-1968"/>
<text text-anchor="middle" x="138" y="-1952.8" font-family="Times,serif" font-size="14.00">movs &#160;&#160;r4, #8</text>
<text text-anchor="middle" x="138" y="-1937.8" font-family="Times,serif" font-size="14.00">b 57ac</text>
<text text-anchor="middle" x="138" y="-1922.8" font-family="Times,serif" font-size="14.00">strb &#160;&#160;r3, [r0, #2]</text>
<text text-anchor="middle" x="138" y="-1907.8" font-family="Times,serif" font-size="14.00">strb &#160;&#160;r0, [r6, r2]</text>
<text text-anchor="middle" x="138" y="-1892.8" font-family="Times,serif" font-size="14.00">adds &#160;&#160;r0, #1</text>
<text text-anchor="middle" x="138" y="-1877.8" font-family="Times,serif" font-size="14.00">ldrb &#160;&#160;r0, [r1, #0]</text>
</g>
<!-- _5710_5714_5718_571C_5720_5724_5728_572C_5730_5734&#45;&gt;_573C_5740_57AC_57B0_57B4_57B8 -->
<g id="edge33" class="edge"><title>_5710_5714_5718_571C_5720_5724_5728_572C_5730_5734&#45;&gt;_573C_5740_57AC_57B0_57B4_57B8</title>
<path fill="none" stroke="blue" d="M206.692,-2018.85C196.78,-2004.59 186.614,-1989.96 177.245,-1976.47"/>
<polygon fill="blue" stroke="blue" points="180.105,-1974.46 171.524,-1968.24 174.356,-1978.45 180.105,-1974.46"/>
<text text-anchor="middle" x="201.5" y="-1989.8" font-family="Times,serif" font-size="14.00">EQ</text>
</g>
<!-- _579A_579E_57A2_57A6_57AA_57AE_57B2_57B6_57BA_57BE -->
<g id="node25" class="node"><title>_579A_579E_57A2_57A6_57AA_57AE_57B2_57B6_57BA_57BE</title>
<polygon fill="none" stroke="black" points="316,-1819 206,-1819 206,-1661 316,-1661 316,-1819"/>
<text text-anchor="middle" x="261" y="-1803.8" font-family="Times,serif" font-size="14.00">cmp &#160;&#160;r2, r4</text>
<text text-anchor="middle" x="261" y="-1788.8" font-family="Times,serif" font-size="14.00">movs &#160;&#160;r3, #0</text>
<text text-anchor="middle" x="261" y="-1773.8" font-family="Times,serif" font-size="14.00">cmp &#160;&#160;r5, #0</text>
<text text-anchor="middle" x="261" y="-1758.8" font-family="Times,serif" font-size="14.00">ldrb &#160;&#160;r3, [r0, #2]</text>
<text text-anchor="middle" x="261" y="-1743.8" font-family="Times,serif" font-size="14.00">ands &#160;&#160;r3, r4</text>
<text text-anchor="middle" x="261" y="-1728.8" font-family="Times,serif" font-size="14.00">ldrb &#160;&#160;r0, [r0, #4]</text>
<text text-anchor="middle" x="261" y="-1713.8" font-family="Times,serif" font-size="14.00">ldr &#160;&#160;r0, [r1, #20]</text>
<text text-anchor="middle" x="261" y="-1698.8" font-family="Times,serif" font-size="14.00">str &#160;&#160;r0, [r1, #20]</text>
<text text-anchor="middle" x="261" y="-1683.8" font-family="Times,serif" font-size="14.00">cmp &#160;&#160;r0, #0</text>
<text text-anchor="middle" x="261" y="-1668.8" font-family="Times,serif" font-size="14.00">ldr &#160;&#160;r2, [r1, #8]</text>
</g>
<!-- _5738&#45;&gt;_579A_579E_57A2_57A6_57AA_57AE_57B2_57B6_57BA_57BE -->
<g id="edge14" class="edge"><title>_5738&#45;&gt;_579A_579E_57A2_57A6_57AA_57AE_57B2_57B6_57BA_57BE</title>
<path fill="none" stroke="red" d="M261,-1900.71C261,-1883.81 261,-1856.76 261,-1829.69"/>
<polygon fill="red" stroke="red" points="264.5,-1829.33 261,-1819.33 257.5,-1829.33 264.5,-1829.33"/>
<text text-anchor="middle" x="270.5" y="-1840.8" font-family="Times,serif" font-size="14.00">NE</text>
</g>
<!-- _5900_5904_5908_5932_5936_593A_593E_5942_5946&#45;&gt;_594A -->
<g id="edge13" class="edge"><title>_5900_5904_5908_5932_5936_593A_593E_5942_5946&#45;&gt;_594A</title>
<path fill="none" stroke="red" d="M483,-86.6271C483,-72.3034 483,-58.0724 483,-46.387"/>
<polygon fill="red" stroke="red" points="486.5,-46.0435 483,-36.0435 479.5,-46.0436 486.5,-46.0435"/>
</g>
<!-- _5796 -->
<g id="node22" class="node"><title>_5796</title>
<polygon fill="none" stroke="black" points="249,-1154 133,-1154 133,-1118 249,-1118 249,-1154"/>
<text text-anchor="middle" x="191" y="-1132.3" font-family="Times,serif" font-size="14.00">pop &#160;&#160;r4, r5, r6, r7</text>
</g>
<!-- _5796&#45;&gt;_579A_579E_57A2_57A6_57AA_57AE_57B2_57B6_57BA_57BE -->
<g id="edge5" class="edge"><title>_5796&#45;&gt;_579A_579E_57A2_57A6_57AA_57AE_57B2_57B6_57BA_57BE</title>
<path fill="none" stroke="red" d="M205.277,-1154.18C215.355,-1167.44 228.079,-1186.7 234,-1206 258.694,-1286.47 261.936,-1521.23 261.737,-1650.71"/>
<polygon fill="red" stroke="red" points="258.237,-1650.99 261.714,-1661 265.237,-1651 258.237,-1650.99"/>
<text text-anchor="middle" x="270.5" y="-1393.8" font-family="Times,serif" font-size="14.00">EQ</text>
</g>
<!-- _57BC -->
<g id="node24" class="node"><title>_57BC</title>
<polygon fill="none" stroke="black" points="162.5,-1643 95.5,-1643 95.5,-1607 162.5,-1607 162.5,-1643"/>
<text text-anchor="middle" x="129" y="-1621.3" font-family="Times,serif" font-size="14.00">bne 5796</text>
</g>
<!-- _573C_5740_57AC_57B0_57B4_57B8&#45;&gt;_57BC -->
<g id="edge4" class="edge"><title>_573C_5740_57AC_57B0_57B4_57B8&#45;&gt;_57BC</title>
<path fill="none" stroke="blue" d="M136.514,-1869.78C134.611,-1808.04 131.377,-1703.11 129.848,-1653.52"/>
<polygon fill="blue" stroke="blue" points="133.339,-1653.15 129.532,-1643.26 126.342,-1653.37 133.339,-1653.15"/>
<text text-anchor="middle" x="145.5" y="-1840.8" font-family="Times,serif" font-size="14.00">NE</text>
</g>
<!-- _57C0_57C4_57C8 -->
<g id="node27" class="node"><title>_57C0_57C4_57C8</title>
<polygon fill="none" stroke="black" points="110,-1766.5 0,-1766.5 0,-1713.5 110,-1713.5 110,-1766.5"/>
<text text-anchor="middle" x="55" y="-1751.3" font-family="Times,serif" font-size="14.00">cmp &#160;&#160;r2, #0</text>
<text text-anchor="middle" x="55" y="-1736.3" font-family="Times,serif" font-size="14.00">ldrb &#160;&#160;r0, [r1, #2]</text>
<text text-anchor="middle" x="55" y="-1721.3" font-family="Times,serif" font-size="14.00">bx &#160;&#160;r2</text>
</g>
<!-- _573C_5740_57AC_57B0_57B4_57B8&#45;&gt;_57C0_57C4_57C8 -->
<g id="edge8" class="edge"><title>_573C_5740_57AC_57B0_57B4_57B8&#45;&gt;_57C0_57C4_57C8</title>
<path fill="none" stroke="blue" d="M106.673,-1869.95C103.236,-1864 99.9273,-1857.93 97,-1852 84.8929,-1827.49 74.0538,-1798.57 66.4204,-1776.39"/>
<polygon fill="blue" stroke="blue" points="69.6674,-1775.07 63.1457,-1766.72 63.0369,-1777.31 69.6674,-1775.07"/>
<text text-anchor="middle" x="106.5" y="-1840.8" font-family="Times,serif" font-size="14.00">EQ</text>
</g>
<!-- _57BC&#45;&gt;_5796 -->
<g id="edge19" class="edge"><title>_57BC&#45;&gt;_5796</title>
<path fill="none" stroke="blue" d="M124.798,-1606.89C111.291,-1548.41 73.0307,-1352.03 129,-1206 135.587,-1188.81 148.648,-1173.22 161.091,-1161.23"/>
<polygon fill="blue" stroke="blue" points="163.7,-1163.58 168.695,-1154.24 158.964,-1158.43 163.7,-1163.58"/>
<text text-anchor="middle" x="138.5" y="-1393.8" font-family="Times,serif" font-size="14.00">NE</text>
</g>
<!-- _57C2 -->
<g id="node26" class="node"><title>_57C2</title>
<polygon fill="none" stroke="black" points="224.5,-1415.5 157.5,-1415.5 157.5,-1379.5 224.5,-1379.5 224.5,-1415.5"/>
<text text-anchor="middle" x="191" y="-1393.8" font-family="Times,serif" font-size="14.00">beq 5796</text>
</g>
<!-- _579A_579E_57A2_57A6_57AA_57AE_57B2_57B6_57BA_57BE&#45;&gt;_57C2 -->
<g id="edge20" class="edge"><title>_579A_579E_57A2_57A6_57AA_57AE_57B2_57B6_57BA_57BE&#45;&gt;_57C2</title>
<path fill="none" stroke="red" d="M232.813,-1660.76C231.059,-1654.79 229.428,-1648.82 228,-1643 208.954,-1565.39 198.043,-1471.37 193.507,-1425.84"/>
<polygon fill="red" stroke="red" points="196.963,-1425.22 192.514,-1415.6 189.996,-1425.89 196.963,-1425.22"/>
<text text-anchor="middle" x="237.5" y="-1621.3" font-family="Times,serif" font-size="14.00">EQ</text>
</g>
<!-- _57C6_57CA_57CE_57D2_57D6_57DA_57DE_57E2_57E6_57EA_57EE_57F2_57F6_57FA_57FE_5802_5806_580A_5880_5884_5888_588C_5890_5894_5898 -->
<g id="node28" class="node"><title>_57C6_57CA_57CE_57D2_57D6_57DA_57DE_57E2_57E6_57EA_57EE_57F2_57F6_57FA_57FE_5802_5806_580A_5880_5884_5888_588C_5890_5894_5898</title>
<polygon fill="none" stroke="black" points="588.5,-1589 297.5,-1589 297.5,-1206 588.5,-1206 588.5,-1589"/>
<text text-anchor="middle" x="443" y="-1573.8" font-family="Times,serif" font-size="14.00">pop &#160;&#160;r4, r5, r6, r7</text>
<text text-anchor="middle" x="443" y="-1558.8" font-family="Times,serif" font-size="14.00">movs &#160;&#160;r0, r0</text>
<text text-anchor="middle" x="443" y="-1543.8" font-family="Times,serif" font-size="14.00">ands &#160;&#160;r6, r0</text>
<text text-anchor="middle" x="443" y="-1528.8" font-family="Times,serif" font-size="14.00">movs &#160;&#160;r0, #0</text>
<text text-anchor="middle" x="443" y="-1513.8" font-family="Times,serif" font-size="14.00">mov &#160;&#160;r4, r0</text>
<text text-anchor="middle" x="443" y="-1498.8" font-family="Times,serif" font-size="14.00">cmp &#160;&#160;r0, #254 &#160;&#160;; 0xfe: pointer to 0x0 (Initial_SP)</text>
<text text-anchor="middle" x="443" y="-1483.8" font-family="Times,serif" font-size="14.00">nop &#160;&#160;&#160;&#160;&#160;&#160;&#160;&#160;; (mov r8, r8)</text>
<text text-anchor="middle" x="443" y="-1468.8" font-family="Times,serif" font-size="14.00">nop &#160;&#160;&#160;&#160;&#160;&#160;&#160;&#160;; (mov r8, r8)</text>
<text text-anchor="middle" x="443" y="-1453.8" font-family="Times,serif" font-size="14.00">nop &#160;&#160;&#160;&#160;&#160;&#160;&#160;&#160;; (mov r8, r8)</text>
<text text-anchor="middle" x="443" y="-1438.8" font-family="Times,serif" font-size="14.00">nop &#160;&#160;&#160;&#160;&#160;&#160;&#160;&#160;; (mov r8, r8)</text>
<text text-anchor="middle" x="443" y="-1423.8" font-family="Times,serif" font-size="14.00">nop &#160;&#160;&#160;&#160;&#160;&#160;&#160;&#160;; (mov r8, r8)</text>
<text text-anchor="middle" x="443" y="-1408.8" font-family="Times,serif" font-size="14.00">nop &#160;&#160;&#160;&#160;&#160;&#160;&#160;&#160;; (mov r8, r8)</text>
<text text-anchor="middle" x="443" y="-1393.8" font-family="Times,serif" font-size="14.00">nop &#160;&#160;&#160;&#160;&#160;&#160;&#160;&#160;; (mov r8, r8)</text>
<text text-anchor="middle" x="443" y="-1378.8" font-family="Times,serif" font-size="14.00">nop &#160;&#160;&#160;&#160;&#160;&#160;&#160;&#160;; (mov r8, r8)</text>
<text text-anchor="middle" x="443" y="-1363.8" font-family="Times,serif" font-size="14.00">ldr &#160;&#160;r5, [pc, #332] &#160;&#160;; (594c )</text>
<text text-anchor="middle" x="443" y="-1348.8" font-family="Times,serif" font-size="14.00">ldr &#160;&#160;r1, [r5, #44] &#160;&#160;; =0x2C (SVCall)</text>
<text text-anchor="middle" x="443" y="-1333.8" font-family="Times,serif" font-size="14.00">ldrb &#160;&#160;r3, [r1, #7]</text>
<text text-anchor="middle" x="443" y="-1318.8" font-family="Times,serif" font-size="14.00">bne 5880</text>
<text text-anchor="middle" x="443" y="-1303.8" font-family="Times,serif" font-size="14.00">ldr &#160;&#160;r1, [pc, #200] &#160;&#160;; (594c )</text>
<text text-anchor="middle" x="443" y="-1288.8" font-family="Times,serif" font-size="14.00">ldr &#160;&#160;r2, [r1, #36] &#160;&#160;; 0x24</text>
<text text-anchor="middle" x="443" y="-1273.8" font-family="Times,serif" font-size="14.00">cmp &#160;&#160;r2, #0</text>
<text text-anchor="middle" x="443" y="-1258.8" font-family="Times,serif" font-size="14.00">lsls &#160;&#160;r7, r2, #31</text>
<text text-anchor="middle" x="443" y="-1243.8" font-family="Times,serif" font-size="14.00">cmp &#160;&#160;r7, #0</text>
<text text-anchor="middle" x="443" y="-1228.8" font-family="Times,serif" font-size="14.00">ldrb &#160;&#160;r3, [r4, #0]</text>
<text text-anchor="middle" x="443" y="-1213.8" font-family="Times,serif" font-size="14.00">ldrb &#160;&#160;r5, [r1, r6]</text>
</g>
<!-- _579A_579E_57A2_57A6_57AA_57AE_57B2_57B6_57BA_57BE&#45;&gt;_57C6_57CA_57CE_57D2_57D6_57DA_57DE_57E2_57E6_57EA_57EE_57F2_57F6_57FA_57FE_5802_5806_580A_5880_5884_5888_588C_5890_5894_5898 -->
<g id="edge17" class="edge"><title>_579A_579E_57A2_57A6_57AA_57AE_57B2_57B6_57BA_57BE&#45;&gt;_57C6_57CA_57CE_57D2_57D6_57DA_57DE_57E2_57E6_57EA_57EE_57F2_57F6_57FA_57FE_5802_5806_580A_5880_5884_5888_588C_5890_5894_5898</title>
<path fill="none" stroke="red" d="M302.754,-1660.88C313.038,-1641.64 324.523,-1620.16 336.372,-1597.99"/>
<polygon fill="red" stroke="red" points="339.481,-1599.6 341.108,-1589.13 333.307,-1596.3 339.481,-1599.6"/>
<text text-anchor="middle" x="339.5" y="-1621.3" font-family="Times,serif" font-size="14.00">NE</text>
</g>
<!-- _57C2&#45;&gt;_5796 -->
<g id="edge22" class="edge"><title>_57C2&#45;&gt;_5796</title>
<path fill="none" stroke="red" d="M191,-1379.47C191,-1335.48 191,-1217.76 191,-1164.2"/>
<polygon fill="red" stroke="red" points="194.5,-1164.09 191,-1154.09 187.5,-1164.09 194.5,-1164.09"/>
<text text-anchor="middle" x="200.5" y="-1176.8" font-family="Times,serif" font-size="14.00">EQ</text>
</g>
<!-- _57C6_57CA_57CE_57D2_57D6_57DA_57DE_57E2_57E6_57EA_57EE_57F2_57F6_57FA_57FE_5802_5806_580A_5880_5884_5888_588C_5890_5894_5898&#45;&gt;_58A0 -->
<g id="edge36" class="edge"><title>_57C6_57CA_57CE_57D2_57D6_57DA_57DE_57E2_57E6_57EA_57EE_57F2_57F6_57FA_57FE_5802_5806_580A_5880_5884_5888_588C_5890_5894_5898&#45;&gt;_58A0</title>
<path fill="none" stroke="blue" d="M365.128,-1205.86C358.495,-1189.62 352.534,-1175.03 347.825,-1163.5"/>
<polygon fill="blue" stroke="blue" points="351.045,-1162.13 344.024,-1154.19 344.565,-1164.78 351.045,-1162.13"/>
<text text-anchor="middle" x="378.5" y="-1176.8" font-family="Times,serif" font-size="14.00">CS, NE</text>
</g>
<!-- _57C6_57CA_57CE_57D2_57D6_57DA_57DE_57E2_57E6_57EA_57EE_57F2_57F6_57FA_57FE_5802_5806_580A_5880_5884_5888_588C_5890_5894_5898&#45;&gt;_58A4_58A8 -->
<g id="edge31" class="edge"><title>_57C6_57CA_57CE_57D2_57D6_57DA_57DE_57E2_57E6_57EA_57EE_57F2_57F6_57FA_57FE_5802_5806_580A_5880_5884_5888_588C_5890_5894_5898&#45;&gt;_58A4_58A8</title>
<path fill="none" stroke="red" d="M443,-1205.86C443,-1190.46 443,-1176.54 443,-1165.31"/>
<polygon fill="red" stroke="red" points="446.5,-1165.02 443,-1155.02 439.5,-1165.02 446.5,-1165.02"/>
<text text-anchor="middle" x="464.5" y="-1176.8" font-family="Times,serif" font-size="14.00">CS, EQ</text>
</g>
</g>
</svg>
