<?xml version="1.0" encoding="UTF-8" standalone="no"?>
<!DOCTYPE svg PUBLIC "-//W3C//DTD SVG 1.1//EN"
 "http://www.w3.org/Graphics/SVG/1.1/DTD/svg11.dtd">
<!-- Generated by graphviz version 2.38.0 (20140413.2041)
 -->
<!-- Title: G Pages: 1 -->
<svg width="233pt" height="282pt"
 viewBox="0.00 0.00 232.50 282.00" xmlns="http://www.w3.org/2000/svg" xmlns:xlink="http://www.w3.org/1999/xlink">
<g id="graph0" class="graph" transform="scale(1 1) rotate(0) translate(4 278)">
<title>G</title>
<polygon fill="white" stroke="none" points="-4,4 -4,-278 228.5,-278 228.5,4 -4,4"/>
<!-- _7EC0 -->
<g id="node1" class="node"><title>_7EC0</title>
<polygon fill="none" stroke="black" points="167.5,-36 113.5,-36 113.5,-0 167.5,-0 167.5,-36"/>
<text text-anchor="middle" x="140.5" y="-14.3" font-family="Times,serif" font-size="14.00">bx &#160;&#160;lr</text>
</g>
<!-- _7EB0 -->
<g id="node2" class="node"><title>_7EB0</title>
<polygon fill="none" stroke="black" points="65,-131.5 0,-131.5 0,-95.5 65,-95.5 65,-131.5"/>
<text text-anchor="middle" x="32.5" y="-109.8" font-family="Times,serif" font-size="14.00">beq 7ec0</text>
</g>
<!-- _7EB0&#45;&gt;_7EC0 -->
<g id="edge2" class="edge"><title>_7EB0&#45;&gt;_7EC0</title>
<path fill="none" stroke="blue" d="M52.3089,-95.3507C69.3597,-80.589 94.1367,-59.1386 113.09,-42.73"/>
<polygon fill="blue" stroke="blue" points="115.547,-45.2321 120.817,-36.0406 110.965,-39.9398 115.547,-45.2321"/>
<text text-anchor="middle" x="109" y="-57.8" font-family="Times,serif" font-size="14.00">EQ</text>
</g>
<!-- _7EB4_7EB8_7EBC -->
<g id="node3" class="node"><title>_7EB4_7EB8_7EBC</title>
<polygon fill="none" stroke="black" points="198,-140 83,-140 83,-87 198,-87 198,-140"/>
<text text-anchor="middle" x="140.5" y="-124.8" font-family="Times,serif" font-size="14.00">strb &#160;&#160;r1, [r0, #14]</text>
<text text-anchor="middle" x="140.5" y="-109.8" font-family="Times,serif" font-size="14.00">cmp &#160;&#160;r1, #6</text>
<text text-anchor="middle" x="140.5" y="-94.8" font-family="Times,serif" font-size="14.00">movs &#160;&#160;r1, #2</text>
</g>
<!-- _7EB4_7EB8_7EBC&#45;&gt;_7EC0 -->
<g id="edge4" class="edge"><title>_7EB4_7EB8_7EBC&#45;&gt;_7EC0</title>
<path fill="none" stroke="red" d="M140.5,-86.9507C140.5,-74.3626 140.5,-59.1728 140.5,-46.35"/>
<polygon fill="red" stroke="red" points="144,-46.2446 140.5,-36.2447 137,-46.2447 144,-46.2446"/>
</g>
<!-- _7E9C_7EA0_7EA4_7EA8_7EAC -->
<g id="node4" class="node"><title>_7E9C_7EA0_7EA4_7EA8_7EAC</title>
<polygon fill="none" stroke="black" points="224.5,-274 56.5,-274 56.5,-191 224.5,-191 224.5,-274"/>
<text text-anchor="middle" x="140.5" y="-258.8" font-family="Times,serif" font-size="14.00">ldr &#160;&#160;r0, [pc, #36] &#160;&#160;; (7ec4 )</text>
<text text-anchor="middle" x="140.5" y="-243.8" font-family="Times,serif" font-size="14.00">cmp &#160;&#160;r1, #5</text>
<text text-anchor="middle" x="140.5" y="-228.8" font-family="Times,serif" font-size="14.00">cmp &#160;&#160;r1, #6</text>
<text text-anchor="middle" x="140.5" y="-213.8" font-family="Times,serif" font-size="14.00">cmp &#160;&#160;r1, #7</text>
<text text-anchor="middle" x="140.5" y="-198.8" font-family="Times,serif" font-size="14.00">ldrb &#160;&#160;r1, [r0, #12]</text>
</g>
<!-- _7E9C_7EA0_7EA4_7EA8_7EAC&#45;&gt;_7EB0 -->
<g id="edge1" class="edge"><title>_7E9C_7EA0_7EA4_7EA8_7EAC&#45;&gt;_7EB0</title>
<path fill="none" stroke="blue" d="M103.03,-190.907C87.0508,-173.597 68.9345,-153.971 55.0638,-138.944"/>
<polygon fill="blue" stroke="blue" points="57.5859,-136.516 48.2312,-131.542 52.4422,-141.264 57.5859,-136.516"/>
<text text-anchor="middle" x="96" y="-161.8" font-family="Times,serif" font-size="14.00">EQ</text>
</g>
<!-- _7E9C_7EA0_7EA4_7EA8_7EAC&#45;&gt;_7EB4_7EB8_7EBC -->
<g id="edge3" class="edge"><title>_7E9C_7EA0_7EA4_7EA8_7EAC&#45;&gt;_7EB4_7EB8_7EBC</title>
<path fill="none" stroke="red" d="M140.5,-190.907C140.5,-177.707 140.5,-163.161 140.5,-150.334"/>
<polygon fill="red" stroke="red" points="144,-150.032 140.5,-140.032 137,-150.032 144,-150.032"/>
<text text-anchor="middle" x="150" y="-161.8" font-family="Times,serif" font-size="14.00">NE</text>
</g>
</g>
</svg>
